<?xml version="1.0" encoding="UTF-8" standalone="no"?>
<!-- Created with Inkscape (http://www.inkscape.org/) -->

<svg
   width="250"
   height="50"
   viewBox="0 0 66.145832 13.229167"
   version="1.1"
   id="svg5"
   inkscape:version="1.1 (ce6663b3b7, 2021-05-25)"
   sodipodi:docname="logo.svg"
   xmlns:inkscape="http://www.inkscape.org/namespaces/inkscape"
   xmlns:sodipodi="http://sodipodi.sourceforge.net/DTD/sodipodi-0.dtd"
   xmlns="http://www.w3.org/2000/svg"
   xmlns:svg="http://www.w3.org/2000/svg">
  <sodipodi:namedview
     id="namedview7"
     pagecolor="#ffffff"
     bordercolor="#666666"
     borderopacity="1.0"
     inkscape:pageshadow="2"
     inkscape:pageopacity="0.0"
     inkscape:pagecheckerboard="0"
     inkscape:document-units="px"
     showgrid="false"
     units="px"
     width="250px"
     inkscape:zoom="6.828"
     inkscape:cx="125"
     inkscape:cy="24.970709"
     inkscape:window-width="1920"
     inkscape:window-height="1017"
     inkscape:window-x="0"
     inkscape:window-y="26"
     inkscape:window-maximized="1"
     inkscape:current-layer="layer1" />
  <defs
     id="defs2">
    <clipPath
       id="clip0">
      <rect
         width="209"
         height="29"
         fill="#ffffff"
         id="rect232"
         x="0"
         y="0" />
    </clipPath>
    <clipPath
       id="clip0-2">
      <rect
         width="209"
         height="29"
         fill="#ffffff"
         id="rect232-5"
         x="0"
         y="0" />
    </clipPath>
  </defs>
  <g
     inkscape:label="Capa 1"
     inkscape:groupmode="layer"
     id="layer1">
    <g
       id="g303"
       transform="translate(-2.1773031,-3.1624234)">
      <g
         clip-path="url(#clip0-2)"
         id="g226"
         transform="matrix(0.26458333,0,0,0.26458333,2.3219626,3.5401499)">
        <path
           d="M 0,25.9607 V 4.0524 h 1.49286 v 21.9083 z"
           fill="#00fbeb"
           id="path188" />
        <path
           d="M 6.09583,4.0524 H 7.58868 V 6.96506 H 6.09583 Z m 0,7.0917 H 7.58868 V 26.0873 H 6.09583 Z"
           fill="#00fbeb"
           id="path190" />
        <path
           d="m 10.2012,11.1441 h 2.7369 V 6.45853 h 1.4928 v 4.68557 h 3.4834 v 1.393 h -3.4834 v 9.6245 c 0,1.6463 0.3733,2.6594 1.7417,2.6594 0.4976,0 0.9952,0 1.4929,-0.1267 v 1.2664 c -0.6221,0.2533 -1.2441,0.2533 -1.8661,0.2533 -1.8661,0 -2.8613,-1.0131 -2.8613,-3.2926 V 12.5371 h -2.7369 z"
           fill="#00fbeb"
           id="path192" />
        <path
           d="m 18.6607,11.1441 h 2.7369 V 6.45853 h 1.4929 v 4.68557 h 3.4833 v 1.393 h -3.4833 v 9.6245 c 0,1.6463 0.3732,2.6594 1.7416,2.6594 0.4977,0 0.9953,0 1.4929,-0.1267 v 1.2664 c -0.622,0.2533 -1.2441,0.2533 -1.8661,0.2533 -1.8661,0 -2.9857,-1.0131 -2.9857,-3.2926 V 12.5371 h -2.6125 z"
           fill="#00fbeb"
           id="path194" />
        <path
           d="M 29.1107,25.9607 V 4.0524 h 1.4929 v 21.9083 z"
           fill="#00fbeb"
           id="path196" />
        <path
           d="m 35.4554,18.7424 c 0,3.7991 1.9904,6.2052 4.7273,6.2052 1.8661,0.1267 3.6078,-1.0131 4.2298,-2.786 h 1.4929 c -0.7465,2.6594 -3.1102,4.3057 -5.7227,4.179 -4.4785,0 -6.2202,-3.9257 -6.2202,-7.7249 0,-4.3056 2.1149,-7.9781 6.3446,-7.9781 4.4786,0 5.9715,3.9257 5.9715,6.7118 0,0.3799 0,0.8864 0,1.2663 z m 9.3303,-1.2664 c 0,-2.9127 -1.6172,-5.3188 -4.4786,-5.3188 -2.8613,0 -4.3541,2.1529 -4.7273,5.3188 z"
           fill="#00fbeb"
           id="path198" />
        <path
           d="m 49.8863,4.0524 h 9.4548 c 5.225,0 7.2154,2.78603 7.2154,5.57205 0.1244,2.02625 -0.9952,3.79915 -2.7369,4.68555 1.9905,0.7599 3.359,2.7861 3.359,4.9389 0,3.7991 -2.8614,6.5852 -7.4643,6.5852 H 50.0107 V 4.0524 Z m 8.8327,8.6114 c 2.2393,0 3.1102,-1.0131 3.1102,-2.5328 0,-1.51965 -1.2441,-2.40611 -2.9858,-2.40611 h -4.4785 v 4.93891 z m -4.2297,9.6244 h 4.2297 c 2.4881,0 3.6078,-1.1397 3.6078,-3.0393 0,-1.7729 -1.1197,-2.9127 -3.7322,-2.9127 h -4.1053 z"
           fill="#00fbeb"
           id="path200" />
        <path
           d="m 75.2649,4.0524 v 21.9083 h -4.603 V 4.0524 Z"
           fill="#00fbeb"
           id="path202" />
        <path
           d="m 99.1506,25.9607 h -3.3589 c -0.1244,-0.7598 -0.2488,-1.393 -0.3732,-2.1528 -1.2441,1.6463 -3.359,2.5327 -6.3447,2.5327 -6.2202,0 -9.7036,-4.8122 -9.7036,-11.0174 0,-6.5852 3.7322,-11.52407 10.5745,-11.52407 5.4738,0 8.8327,3.16594 9.3303,6.83847 H 94.5476 C 94.05,9.11791 92.9304,7.47162 89.8202,7.47162 c -4.3541,0 -5.7226,3.79908 -5.7226,7.59828 0,3.7991 1.4929,7.4716 5.7226,7.4716 3.981,0 4.7274,-2.786 4.7274,-4.8122 V 17.476 h -4.7274 v -3.9258 h 9.206 z"
           fill="#00fbeb"
           id="path204" />
        <path
           d="m 111.591,23.4279 c -0.995,1.1398 -2.364,2.0262 -3.857,2.4062 -1.368,0.1266 -2.612,-0.2533 -3.607,-1.1398 -1.369,-1.5196 -1.991,-3.5458 -1.742,-5.572 0,-1.2664 0.249,-2.5328 0.622,-3.7992 0.249,-0.8864 0.747,-1.7729 1.244,-2.5327 0.622,-1.0131 1.617,-1.7729 2.737,-2.1529 1.12,-0.2532 2.364,0.1267 3.235,1.0131 0.622,0.5066 0.87,1.3931 0.622,2.2795 -0.125,0.2533 -0.374,0.5066 -0.622,0.6332 -0.374,0.1266 -0.498,-0.2533 -0.747,-0.5065 -0.124,-0.2533 -0.249,-0.5066 -0.373,-0.6332 -0.249,-0.2533 -0.746,-0.2533 -0.995,0 0,0 -0.125,0.1266 -0.125,0.2532 -0.995,2.2795 -1.493,4.6856 -1.493,7.0917 0,0.7599 0,1.3931 0.249,2.0263 0.125,0.8864 0.996,1.5196 1.866,1.393 0.125,0 0.249,0 0.374,-0.1267 1.741,-0.6332 4.851,-4.8122 5.225,-5.4454 0.373,-0.6332 1.492,-0.8865 0.746,1.0131 -1.12,1.2664 -2.115,2.5328 -3.359,3.7991 z"
           fill="#ffba00"
           id="path206" />
        <path
           d="m 124.405,15.9563 c 1.119,1.1398 0.124,1.6463 -0.249,2.4061 -0.746,1.1398 -1.866,2.1529 -3.11,2.7861 -0.249,0.1266 -0.373,0.7598 -0.498,1.1397 -0.622,2.6594 -3.981,5.8253 -6.344,3.1659 -2.24,-2.4061 -1.618,-6.5851 -0.249,-9.2445 0.622,-1.1397 1.368,-2.1528 2.115,-3.0393 0.995,-1.1397 2.985,-1.8996 4.229,-1.0131 0.871,0.8865 1.369,2.1528 1.369,3.4192 0,0.6332 0.373,3.4192 0,3.7991 1.12,-1.0131 1.99,-2.1528 2.737,-3.4192 z m -7.465,8.9913 c 0.374,0.3799 2.115,-3.2926 2.24,-3.5459 -1.244,-0.5065 -2.364,-1.393 -2.862,-2.6593 -0.497,1.8995 -0.87,4.6855 0.622,6.2052 z m 2.613,-5.5721 c 0.249,-1.7729 0.995,-5.4454 -0.995,-6.5851 -0.498,0.6332 -0.871,1.393 -1.12,2.2795 -0.124,0.7598 -0.124,1.5196 0,2.2794 0.249,1.1398 0.995,2.0262 1.991,2.5328 0,-0.2533 0.124,-0.3799 0.124,-0.5066 z"
           fill="#ffba00"
           id="path208" />
        <path
           d="m 134.606,25.7074 c 0.249,-1.0131 0.622,-2.0262 0.995,-3.0393 3.608,-12.79037 2.862,-6.2052 2.239,-4.179 -0.248,0.8864 -0.373,1.8995 -0.622,2.9126 -0.248,1.3931 -0.622,2.6594 -1.119,3.9258 -0.498,1.2664 -1.12,3.4192 -2.613,3.6725 -1.244,0.2533 -2.239,-0.8865 -2.737,-1.8996 -1.492,-2.6594 -1.119,-6.3318 -0.995,-9.2445 0.125,-2.2795 0.747,-4.559 0.622,-6.8384 -0.249,0.6332 -0.497,1.1397 -0.746,1.6463 -0.871,2.5327 -1.369,5.0655 -1.618,7.7248 -0.124,1.1398 -0.248,2.1529 -0.248,3.2926 0,0.6332 0,1.7729 -0.871,1.8996 -1.493,0.1266 -2.364,-1.393 -2.488,-2.6594 -0.125,-3.9258 0,-7.8515 0.497,-11.6507 0.249,-0.7598 1.12,-1.1397 2.115,-0.8864 0.498,0.1266 0.871,0.6332 0.871,1.1397 0,0.5066 0.124,1.1398 0.124,1.8996 0.249,-0.6332 0.249,-1.0131 0.498,-1.393 0.747,-1.6463 1.991,-4.81226 4.23,-3.03933 1.12,1.01313 1.493,2.53273 1.12,3.92573 -0.623,3.7992 -0.871,7.7249 -0.996,11.6507 0,1.0131 0.249,2.0262 0.498,2.9127 0.746,-0.38 0.995,-1.0132 1.244,-1.773 z"
           fill="#ffba00"
           id="path210" />
        <path
           d="m 147.42,25.7074 c 0.248,-1.0131 0.622,-2.0262 0.995,-3.0393 3.608,-12.79037 2.861,-6.2052 2.239,-4.179 -0.249,0.8864 -0.373,1.8995 -0.622,2.9126 -0.249,1.3931 -0.622,2.6594 -1.12,3.9258 -0.497,1.2664 -0.995,3.4192 -2.612,3.6725 -1.244,0.2533 -2.239,-0.8865 -2.737,-1.8996 -1.493,-2.6594 -1.12,-6.3318 -0.995,-9.2445 0.124,-2.2795 0.746,-4.559 0.622,-6.8384 -0.249,0.6332 -0.498,1.1397 -0.747,1.6463 -0.87,2.5327 -1.368,5.0655 -1.617,7.7248 -0.124,1.1398 -0.249,2.1529 -0.249,3.2926 0,0.6332 0,1.7729 -0.87,1.8996 -1.493,0.1266 -2.364,-1.393 -2.489,-2.6594 -0.124,-3.9258 0,-7.8515 0.498,-11.6507 0.249,-0.7598 1.12,-1.1397 2.115,-0.8864 0.498,0.1266 0.871,0.6332 0.871,1.1397 0,0.5066 0.124,1.1398 0.124,1.8996 0.125,-0.5066 0.249,-1.0131 0.498,-1.393 0.746,-1.6463 1.99,-4.81226 4.23,-3.03933 1.119,1.01313 1.492,2.53273 1.119,3.92573 -0.622,3.7992 -0.871,7.7249 -0.995,11.6507 0,1.0131 0.249,2.0262 0.498,2.9127 0.87,-0.38 0.995,-1.0132 1.244,-1.773 z"
           fill="#ffba00"
           id="path212" />
        <path
           d="m 162.099,17.3494 c -0.622,1.2663 -1.368,2.4061 -1.99,3.6725 -0.622,1.2663 -1.493,2.2794 -2.488,3.1659 -1.244,1.0131 -2.861,1.393 -4.354,1.0131 -3.359,-1.2664 -3.484,-4.8122 -3.11,-7.8515 0.373,-2.9127 1.368,-6.2053 4.727,-6.4586 1.244,-0.2532 2.364,0.5066 2.861,1.6463 0.747,1.393 0.622,3.166 -0.124,4.559 -0.871,1.6463 -1.991,3.1659 -3.359,4.4323 -0.125,0.1266 -0.249,0.2533 -0.373,0.2533 l -0.374,0.1266 c -0.124,0.8865 0.498,2.0262 1.369,2.0262 0.871,-0.1266 1.742,-0.5065 2.239,-1.2664 1.369,-1.5196 2.488,-3.4192 3.359,-5.3187 0.125,0 1.244,-1.5197 1.617,0 z m -8.584,0.5065 c 0.747,-0.7598 2.24,-3.4192 1.991,-4.4323 -1.12,1.2664 -1.866,2.786 -1.991,4.4323 z"
           fill="#ffba00"
           id="path214" />
        <path
           d="m 169.315,23.428 c -0.995,1.1397 -2.364,2.0262 -3.857,2.2794 -1.368,0.1267 -2.612,-0.2532 -3.607,-1.1397 -1.369,-1.5197 -1.991,-3.5459 -1.742,-5.5721 0,-1.2663 0.249,-2.5327 0.622,-3.7991 0.249,-0.8864 0.746,-1.7729 1.244,-2.5327 0.622,-1.0131 1.617,-1.773 2.737,-2.1529 1.12,-0.2532 2.364,0.1267 3.234,1.0131 0.622,0.5066 0.996,1.393 0.622,2.2795 -0.124,0.2533 -0.373,0.5066 -0.622,0.6332 -0.373,0.1266 -0.497,-0.2533 -0.746,-0.5066 -0.124,-0.2532 -0.249,-0.5065 -0.373,-0.6331 -0.249,-0.2533 -0.747,-0.2533 -0.995,0 0,0 -0.125,0.1266 -0.125,0.2532 -0.995,2.2795 -1.493,4.6856 -1.493,7.0917 0,0.7599 0,1.393 0.125,2.0262 0.124,0.8865 0.995,1.5197 1.866,1.393 0.124,0 0.249,0 0.373,-0.1266 1.742,-0.6332 4.852,-4.8122 5.225,-5.4454 0.373,-0.6332 1.493,-0.8865 0.622,1.0131 -0.871,1.393 -1.99,2.6594 -3.11,3.9258 z"
           fill="#ffba00"
           id="path216" />
        <path
           d="m 177.774,19.7555 c 0.125,-0.3799 0.747,-4.6856 1.369,-4.1791 0.249,0.1267 0.497,0.5066 0.497,0.7599 0,1.6462 -0.248,3.4192 -0.622,5.0655 -0.248,1.5196 -0.87,2.9126 -1.866,4.179 -0.622,0.5065 -1.368,0.8865 -2.239,0.8865 -3.856,-0.1267 -4.23,-5.6987 -4.105,-8.4848 0,-1.393 0.746,-7.9781 0.497,-8.10476 -0.622,-0.37991 -2.612,0.63316 -2.612,-0.88647 0.124,-1.13973 1.99,-1.01309 2.612,-1.01309 0.249,-1.77293 0.374,-3.54586 0.622,-5.31878 0.125,-1.39302 0.622,-2.912666 2.24,-2.65939059178 C 176.779,0.379922 175.535,5.31879 175.535,7.09171 c 0,0.37991 0.249,0.75983 0.622,0.88647 0.498,0.12663 2.115,-0.12664 2.364,0.75982 0.124,0.37991 -0.125,0.88646 -0.622,0.88646 -0.125,0 -0.125,0 -0.249,0 -0.746,-0.12664 -1.493,0 -2.239,0.12664 -0.249,2.5328 -0.374,5.0655 -0.622,7.5983 0,1.1397 0,2.2794 0.124,3.5458 0.125,0.8865 -0.249,2.2795 0.373,3.0393 1.493,-1.0131 2.24,-2.5327 2.488,-4.179 z"
           fill="#ffba00"
           id="path218" />
        <path
           d="m 185.488,15.8297 c 0.248,0.1266 0.497,0.2533 0.497,0.5065 0.125,1.2664 -0.995,3.6725 -1.368,4.9389 -0.249,1.1397 -0.871,2.2795 -1.742,3.1659 -0.498,0.38 -1.12,0.6332 -1.742,0.5066 -2.488,-0.2533 -3.11,-3.7991 -3.11,-5.8253 -0.124,-1.8996 0,-3.7992 0.249,-5.6987 0.373,-1.7729 1.866,-1.0131 2.861,-0.2533 0.747,0.6332 0.498,1.5197 0.498,2.2795 -0.124,2.2795 -0.622,4.4323 -0.124,6.5851 0,0.2533 0.124,0.5066 0.124,0.7599 0.124,0 0.124,0.1266 0.249,0.1266 1.866,-0.8865 3.11,-7.345 3.608,-7.0917 z m -5.474,-4.8122 c -1.12,-0.1267 -1.866,-1.13977 -1.742,-2.15287 0.124,-0.88646 0.871,-1.64629 1.742,-1.77292 0.995,0.12663 2.115,0.12663 2.115,1.77292 0.248,1.64627 -1.618,2.15287 -2.115,2.15287 z"
           fill="#ffba00"
           id="path220" />
        <path
           d="m 195.191,15.9563 c 1.12,1.1398 0.124,1.6463 -0.249,2.4061 -0.746,1.1398 -1.866,2.1529 -3.11,2.7861 -0.249,0.1266 -0.373,0.7598 -0.498,1.1397 -0.622,2.6594 -3.98,5.8253 -6.344,3.1659 -2.239,-2.4061 -1.617,-6.5851 -0.249,-9.2445 0.622,-1.1397 1.368,-2.1528 2.115,-3.0393 0.995,-1.1397 2.986,-1.8996 4.23,-1.0131 0.871,0.8865 1.368,2.1528 1.368,3.4192 0,0.6332 0.373,3.4192 0,3.7991 1.12,-1.0131 1.991,-2.1528 2.737,-3.4192 z m -7.464,8.9913 c 0.373,0.3799 2.115,-3.2926 2.239,-3.5459 -1.244,-0.5065 -2.364,-1.393 -2.861,-2.6593 -0.498,1.8995 -0.871,4.6855 0.622,6.2052 z m 2.612,-5.5721 c 0.249,-1.7729 0.995,-5.4454 -0.995,-6.5851 -0.498,0.6332 -0.871,1.393 -1.12,2.2795 -0.124,0.7598 -0.124,1.5196 0,2.2794 0.249,1.1398 0.871,2.0262 1.991,2.5328 0,-0.2533 0.124,-0.3799 0.124,-0.5066 z"
           fill="#ffba00"
           id="path222" />
        <path
           d="m 205.392,25.7074 c 0.249,-1.0131 0.622,-2.0262 0.995,-3.0393 3.608,-12.79037 2.862,-6.2052 2.24,-4.179 -0.249,0.8864 -0.373,1.8995 -0.622,2.9126 -0.249,1.3931 -0.747,2.6594 -1.12,3.9258 -0.373,1.2664 -1.12,3.4192 -2.612,3.6725 -1.244,0.2533 -2.24,-0.8865 -2.737,-1.8996 -1.493,-2.6594 -1.12,-6.3318 -0.996,-9.2445 0.125,-2.2795 0.747,-4.559 0.747,-6.8384 -0.249,0.6332 -0.498,1.1397 -0.747,1.6463 -0.87,2.5327 -1.368,5.0655 -1.617,7.7248 -0.124,1.1398 -0.249,2.1529 -0.249,3.2926 0,0.6332 0,1.7729 -0.87,1.8996 -1.493,0.1266 -2.24,-1.393 -2.489,-2.6594 -0.124,-3.9258 0,-7.8515 0.498,-11.6507 0.249,-0.7598 1.12,-1.1397 2.115,-0.8864 0.498,0.1266 0.871,0.6332 0.871,1.1397 0,0.5066 0.124,1.1398 0.124,1.8996 0.125,-0.5066 0.249,-1.0131 0.498,-1.393 0.746,-1.6463 1.99,-4.81226 4.23,-3.03933 1.119,1.01313 1.492,2.53273 1.119,3.92573 -0.622,3.7992 -0.871,7.7249 -0.995,11.6507 0,1.0131 0.249,2.0262 0.498,2.9127 0.622,-0.38 0.87,-1.0132 1.119,-1.773 z"
           fill="#ffba00"
           id="path224" />
      </g>
      <path
         d="M 66.996184,10.167279 66.070142,9.7958289 c 0.240506,-0.950731 -0.182827,-1.951861 -1.025525,-2.445865 0.180181,-0.267573 0.762265,-0.796977 1.557338,-0.477969 0.152929,0.0613 0.325702,-0.01257 0.38682,-0.165338 0.06138,-0.152797 -0.01244,-0.325597 -0.1651,-0.386901 -0.652462,-0.259574 -1.323445,-0.12692 -1.804987,0.216218 -0.112977,-0.581668 -0.504296,-1.140418 -1.154113,-1.401099 -0.152664,-0.06129 -0.325437,0.01256 -0.38682,0.165349 -0.06138,0.152786 0.0127,0.325596 0.165364,0.38689 0.793486,0.318283 0.8509,1.102093 0.795338,1.421736 -0.952236,-0.226007 -1.948392,0.205766 -2.431786,1.059021 l -0.927629,-0.372189 c -0.965729,-0.389547 -2.069571,0.08223 -2.457979,1.050501 -0.388408,0.968266 0.08414,2.0703361 1.050396,2.4580361 0.316706,0.12702 0.64426,0.20507 0.975519,0.23743 -0.187061,0.658 -0.145786,1.35414 0.12647,1.9912 l 0.623888,1.45987 c 0.03201,0.0748 0.0926,0.13123 0.162719,0.15928 0.06985,0.0281 0.152664,0.0293 0.227541,-0.003 l 1.459971,-0.62392 c 0.637117,-0.27228 1.149879,-0.74615 1.467379,-1.3517 0.261673,0.20542 0.55245,0.3755 0.869157,0.50252 0.968375,0.38844 2.070364,-0.0841 2.457979,-1.05052 0.387879,-0.96642 -0.07964,-2.07071 -1.045898,-2.4584 z M 64.52815,7.7582689 c 0.732896,0.2939 1.131888,1.067383 0.982398,1.81306 l -2.945341,-1.181552 c 0.407458,-0.642276 1.230312,-0.925433 1.962943,-0.631508 z m -4.63497,2.9937101 c -0.662782,-0.26586 -0.985838,-1.0215601 -0.719932,-1.6842601 0.265907,-0.662676 1.021557,-0.985652 1.684338,-0.719799 l 2.667264,1.070029 c -0.673893,1.2854501 -2.232818,1.8952901 -3.63167,1.3340301 z m 3.507581,-0.18283 c 0.01032,0.2884 0.06323,0.80116 0.344223,1.38409 l -1.549929,-0.6218 c 0.60616,-0.22698 0.999595,-0.56287 1.205706,-0.76229 z m -0.385233,3.41016 -1.186392,0.50708 -0.506942,-1.18647 c -0.04868,-0.11348 -0.08863,-0.23212 -0.118004,-0.35076 l 2.142596,0.85958 c -0.106627,0.064 -0.215106,0.12096 -0.331258,0.17057 z m 0.845608,-0.60539 -2.731823,-1.09588 c 0.0069,-0.23019 0.04948,-0.45887 0.124619,-0.6831 l 2.989262,1.19928 c -0.100541,0.21389 -0.227806,0.40859 -0.382058,0.5797 z m 1.946275,-0.24921 c -1.397,-0.56052 -2.104231,-2.07939 -1.702065,-3.4759701 l 2.667265,1.0700301 c 0.662781,0.26586 0.985837,1.02159 0.719931,1.68429 -0.265906,0.66267 -1.020498,0.98824 -1.685131,0.72165 z"
         fill="#5b1a84"
         id="path228"
         style="stroke-width:0.264583" />
      <path
         d="m 33.44199,15.271989 c 0.0254,-0.14349 -0.04524,-0.25321 -0.211667,-0.32917 l -0.348985,-0.13928 c -0.405077,-0.18087 -0.597429,-0.42987 -0.577056,-0.74697 0.0085,-0.14711 0.05689,-0.27734 0.144727,-0.39068 0.08811,-0.11335 0.211666,-0.20196 0.370946,-0.26588 0.159014,-0.0651 0.330993,-0.0965 0.515408,-0.094 0.254265,0.005 0.459846,0.0808 0.616744,0.22789 0.156633,0.14589 0.233891,0.34184 0.23151,0.58782 h -0.528108 c 0.0061,-0.11938 -0.02064,-0.21222 -0.07964,-0.27855 -0.05794,-0.0663 -0.148431,-0.10067 -0.271198,-0.10308 -0.12065,-0.002 -0.225689,0.0253 -0.314854,0.0832 -0.08916,0.0567 -0.142346,0.13507 -0.159014,0.23513 -0.02302,0.13145 0.06509,0.23575 0.264054,0.3129 l 0.238654,0.0904 0.137583,0.0633 c 0.3556,0.17603 0.522023,0.42323 0.499004,0.74155 -0.01085,0.15555 -0.06085,0.28998 -0.150018,0.40333 -0.08811,0.11216 -0.208757,0.19836 -0.361686,0.25866 -0.152135,0.0603 -0.319616,0.0886 -0.502973,0.085 -0.186796,-0.004 -0.353218,-0.0428 -0.499004,-0.11758 -0.14605,-0.0748 -0.25691,-0.18027 -0.332846,-0.31653 -0.07117,-0.1266 -0.104246,-0.2713 -0.09948,-0.43407 l 0.52996,0.002 c -0.01693,0.28578 0.123561,0.43108 0.421217,0.4359 0.129117,0 0.235215,-0.0283 0.318558,-0.085 0.08308,-0.0567 0.132557,-0.13203 0.148167,-0.22609 z m 1.866635,-1.28958 c 0.172509,0.002 0.320675,0.047 0.444765,0.13385 0.125413,0.0856 0.217223,0.20436 0.275167,0.35629 0.059,0.15073 0.08017,0.31835 0.06323,0.50281 -0.02778,0.3111 -0.13626,0.56312 -0.325702,0.75602 -0.188119,0.19175 -0.420687,0.28517 -0.697971,0.28036 -0.170127,-0.002 -0.317235,-0.0458 -0.441325,-0.13023 -0.124354,-0.0856 -0.2159,-0.20378 -0.274902,-0.35449 -0.05927,-0.15073 -0.08017,-0.31713 -0.0635,-0.49919 0.03149,-0.32316 0.141288,-0.57999 0.329142,-0.77049 0.188119,-0.19053 0.418571,-0.28216 0.691091,-0.27493 z m -0.515408,1.23171 c 0.0024,0.11576 0.02937,0.20738 0.08123,0.2749 0.05186,0.0663 0.124884,0.10071 0.218811,0.10311 0.156898,0.005 0.279929,-0.0669 0.369093,-0.21524 0.08917,-0.14951 0.130705,-0.34546 0.124884,-0.58782 -0.005,-0.11576 -0.03334,-0.20799 -0.0852,-0.27673 -0.05054,-0.0699 -0.123561,-0.1061 -0.218811,-0.1085 -0.15187,-0.005 -0.273579,0.0669 -0.365389,0.21521 -0.09049,0.14711 -0.132027,0.34546 -0.124619,0.59507 z m 2.304256,0.37801 c 0.09393,0.002 0.172244,-0.0229 0.23495,-0.076 0.06271,-0.0543 0.103717,-0.12602 0.123032,-0.21524 l 0.479425,-0.002 c -0.0085,0.13745 -0.05186,0.26104 -0.13044,0.37076 -0.07699,0.10973 -0.18071,0.19535 -0.310885,0.25684 -0.129117,0.0615 -0.265377,0.0904 -0.408782,0.0868 -0.237595,-0.004 -0.425714,-0.0856 -0.564356,-0.24599 -0.138642,-0.16039 -0.205581,-0.3738 -0.200819,-0.64029 l 0.0056,-0.0995 0.0016,-0.0199 c 0.03281,-0.31835 0.139965,-0.57033 0.321998,-0.75602 0.182033,-0.1869 0.406929,-0.27673 0.674688,-0.2695 0.220662,0.005 0.395552,0.0772 0.524404,0.21703 0.130439,0.13867 0.194204,0.32195 0.191823,0.54983 H 37.56399 c 0,-0.10488 -0.02275,-0.18748 -0.06879,-0.24778 -0.04577,-0.0603 -0.1143,-0.0928 -0.20611,-0.0977 -0.243417,-0.007 -0.391319,0.17061 -0.443177,0.53356 -0.01799,0.13142 -0.02461,0.24236 -0.01984,0.33279 0.01217,0.21101 0.102658,0.31832 0.271462,0.32195 z m 1.573477,0.38344 h -0.51382 l 0.340254,-1.95699 h 0.513556 z m -0.114035,-2.45438 c -0.0024,-0.0808 0.02408,-0.14769 0.07964,-0.20077 0.05556,-0.053 0.122502,-0.0796 0.200818,-0.0796 0.07699,-0.002 0.143934,0.0211 0.200819,0.0705 0.05662,0.0494 0.08599,0.11332 0.08837,0.19172 0.0026,0.0747 -0.02275,0.13985 -0.07594,0.19534 -0.05186,0.0555 -0.119857,0.0844 -0.204259,0.0868 -0.07594,0.002 -0.142875,-0.0205 -0.200819,-0.0687 -0.05662,-0.0482 -0.08625,-0.11335 -0.08864,-0.19534 z m 1.680369,2.45438 c -0.01561,-0.0494 -0.02249,-0.10853 -0.01984,-0.17725 -0.147108,0.14711 -0.313531,0.21823 -0.499269,0.21342 -0.171185,-0.002 -0.313531,-0.0579 -0.426773,-0.1664 -0.112183,-0.10972 -0.164835,-0.24477 -0.157427,-0.40513 0.0085,-0.21344 0.09763,-0.37682 0.267759,-0.49017 0.171185,-0.11454 0.400314,-0.17182 0.687123,-0.17182 l 0.238918,0.004 0.02514,-0.11758 c 0.0074,-0.0398 0.009,-0.0778 0.0056,-0.11393 -0.0061,-0.0567 -0.02778,-0.1007 -0.06509,-0.13203 -0.03625,-0.0326 -0.0844,-0.0495 -0.144727,-0.0506 -0.07964,-0.002 -0.147108,0.0175 -0.20267,0.0597 -0.0553,0.041 -0.09102,0.1007 -0.106628,0.17907 l -0.511968,0.002 c 0.0085,-0.18687 0.09419,-0.33821 0.25691,-0.45397 0.164042,-0.11694 0.365919,-0.17423 0.605896,-0.17182 0.221985,0.005 0.395552,0.0712 0.520965,0.19897 0.125412,0.1266 0.1778,0.28998 0.157427,0.49014 l -0.150284,0.93689 -0.009,0.11575 c -0.0024,0.0856 0.0079,0.15796 0.03069,0.21704 l -0.0019,0.0344 z m -0.392642,-0.35994 c 0.147108,0.005 0.275696,-0.0591 0.385233,-0.19172 l 0.0635,-0.33822 -0.17727,-0.002 c -0.188119,0.005 -0.32385,0.0621 -0.40693,0.17183 -0.03016,0.0398 -0.04895,0.0886 -0.05609,0.1465 -0.0098,0.0651 0.0034,0.11697 0.03969,0.15554 0.03731,0.0374 0.08811,0.0567 0.151871,0.0579 z m 1.745456,0.35994 h -0.513556 l 0.482865,-2.77813 h 0.511704 z m 3.463661,0 h -0.513821 l -0.732367,-1.75623 -0.305593,1.75623 h -0.529961 l 0.457465,-2.63343 h 0.511968 l 0.734219,1.75983 0.305594,-1.75983 h 0.528373 z m 1.372658,0.0362 c -0.171185,-0.001 -0.323056,-0.0428 -0.455612,-0.12481 -0.131498,-0.0832 -0.229659,-0.19653 -0.295011,-0.34001 -0.06509,-0.1447 -0.09022,-0.30388 -0.07594,-0.4775 l 0.0056,-0.0723 c 0.01799,-0.19052 0.07355,-0.36536 0.166423,-0.52453 0.09287,-0.15915 0.212196,-0.28155 0.357981,-0.36716 0.14605,-0.0868 0.307446,-0.1278 0.484717,-0.12298 0.252148,0.005 0.442648,0.0977 0.5715,0.27852 0.130439,0.17968 0.179652,0.40757 0.148431,0.68369 l -0.02884,0.22246 h -1.199357 c -0.0048,0.12663 0.02593,0.22791 0.09234,0.30387 0.06641,0.076 0.156633,0.11515 0.271198,0.11756 0.185737,0.005 0.348456,-0.0669 0.488421,-0.21524 l 0.233362,0.2894 c -0.07355,0.11094 -0.179652,0.19775 -0.318294,0.26046 -0.138641,0.0615 -0.287602,0.091 -0.446881,0.0886 z m 0.162983,-1.6079 c -0.09419,-0.002 -0.178064,0.0271 -0.251618,0.0886 -0.07223,0.0615 -0.137319,0.16822 -0.195263,0.32014 h 0.701675 l 0.01085,-0.047 c 0.0074,-0.0482 0.0079,-0.0941 0.0019,-0.13747 -0.01191,-0.0699 -0.04154,-0.1242 -0.08864,-0.16277 -0.04683,-0.0398 -0.106627,-0.0603 -0.178859,-0.0615 z m 1.902619,-0.86635 -0.08493,0.48109 h 0.325437 l -0.06694,0.38343 h -0.325438 l -0.166423,0.98031 c -0.0071,0.0615 -0.0024,0.10853 0.01455,0.14108 0.01667,0.0326 0.05768,0.05 0.122766,0.0525 0.01931,10e-4 0.07117,-0.002 0.155575,-0.009 l -0.03598,0.3997 c -0.09049,0.0302 -0.188119,0.044 -0.293158,0.0416 -0.167482,-0.002 -0.292365,-0.0549 -0.374386,-0.15734 -0.08202,-0.10248 -0.115623,-0.24115 -0.101335,-0.41598 l 0.168275,-1.03278 h -0.276754 l 0.06694,-0.38343 h 0.276754 l 0.08308,-0.48109 z m 1.966119,1.72545 0.464608,-1.24436 h 0.508265 l -0.822854,1.95699 h -0.426773 l -0.144727,-1.22447 -0.5715,1.22447 h -0.427038 l -0.144462,-1.95699 h 0.477308 l 0.03069,1.23171 0.559064,-1.23171 h 0.368829 z m 2.011098,-1.28053 c 0.172508,0.002 0.320675,0.047 0.445029,0.13385 0.125413,0.0856 0.216958,0.20437 0.274902,0.35629 0.059,0.15073 0.08017,0.31835 0.06324,0.50281 -0.02778,0.3111 -0.136261,0.56312 -0.325438,0.75603 -0.188119,0.19174 -0.420952,0.28516 -0.698235,0.28035 -0.170127,-0.002 -0.317236,-0.0458 -0.441325,-0.13023 -0.12409,-0.0856 -0.2159,-0.20378 -0.274902,-0.35449 -0.059,-0.15073 -0.08017,-0.31713 -0.06324,-0.49919 0.03122,-0.32316 0.141023,-0.57999 0.329142,-0.77049 0.188119,-0.19053 0.418306,-0.28215 0.690827,-0.27493 z m -0.515408,1.23171 c 0.0024,0.11576 0.02963,0.20739 0.08149,0.27491 0.05186,0.0663 0.124619,0.1007 0.218811,0.1031 0.156633,0.005 0.279664,-0.0669 0.368829,-0.21523 0.08916,-0.14952 0.130969,-0.34547 0.124883,-0.58783 -0.0048,-0.11575 -0.03307,-0.20799 -0.08493,-0.27673 -0.0508,-0.0699 -0.123561,-0.10609 -0.218811,-0.1085 -0.152135,-0.005 -0.273843,0.0669 -0.365389,0.21521 -0.09049,0.14711 -0.132027,0.34547 -0.124883,0.59507 z m 2.78712,-0.70537 c -0.06985,-0.0121 -0.127264,-0.0181 -0.171714,-0.0181 -0.182034,-0.005 -0.326231,0.0633 -0.432329,0.20439 l -0.226219,1.28053 h -0.509852 l 0.339989,-1.95699 0.479161,-0.002 -0.04683,0.23873 c 0.123031,-0.18447 0.274902,-0.27673 0.455612,-0.27673 0.0508,0 0.109802,0.008 0.177271,0.0253 z m 0.837407,0.68728 -0.236802,0.20619 -0.09948,0.57335 h -0.51012 l 0.481012,-2.77813 h 0.511969 l -0.264054,1.50845 0.09948,-0.10671 0.580496,-0.5806 H 56.7957 l -0.855663,0.84103 0.544513,1.11596 h -0.5588 z"
         fill="#5b1a84"
         id="path230"
         style="stroke-width:0.264583" />
    </g>
  </g>
</svg>
