<?xml version="1.0" encoding="UTF-8" standalone="no"?>
<!-- Created with Inkscape (http://www.inkscape.org/) -->

<svg
   width="62"
   height="62"
   viewBox="0 0 16.404166 16.404167"
   version="1.1"
   id="svg2765"
   inkscape:version="1.1 (ce6663b3b7, 2021-05-25)"
   sodipodi:docname="00b_register_isotype.svg"
   xmlns:inkscape="http://www.inkscape.org/namespaces/inkscape"
   xmlns:sodipodi="http://sodipodi.sourceforge.net/DTD/sodipodi-0.dtd"
   xmlns="http://www.w3.org/2000/svg"
   xmlns:svg="http://www.w3.org/2000/svg">
  <sodipodi:namedview
     id="namedview2767"
     pagecolor="#ffffff"
     bordercolor="#666666"
     borderopacity="1.0"
     inkscape:pageshadow="2"
     inkscape:pageopacity="0.0"
     inkscape:pagecheckerboard="0"
     inkscape:document-units="mm"
     showgrid="false"
     units="px"
     width="62px"
     inkscape:zoom="0.71179153"
     inkscape:cx="-56.19623"
     inkscape:cy="224.08247"
     inkscape:window-width="1920"
     inkscape:window-height="1017"
     inkscape:window-x="0"
     inkscape:window-y="26"
     inkscape:window-maximized="1"
     inkscape:current-layer="layer1" />
  <defs
     id="defs2762">
    <clipPath
       id="clip0">
      <rect
         width="38.3811"
         height="38.3811"
         fill="#ffffff"
         transform="rotate(21.8592,-5.3904012,55.536832)"
         id="rect2855"
         x="0"
         y="0" />
    </clipPath>
  </defs>
  <g
     inkscape:label="Capa 1"
     inkscape:groupmode="layer"
     id="layer1">
    <g
       id="g2988"
       transform="translate(-2.3812497,-2.3812497)">
      <circle
         cx="10.583333"
         cy="10.583333"
         r="8.2020836"
         fill="#dddbdb"
         id="circle2849"
         style="stroke-width:0.264583" />
      <g
         clip-path="url(#clip0)"
         id="g2853"
         transform="matrix(0.26458333,0,0,0.26458333,2.5135116,2.6898775)">
        <path
           d="M 44.3496,29.9244 40.85,28.5205 c 0.9085,-3.5933 -0.6913,-7.3771 -3.8758,-9.2442 0.6803,-1.0113 2.8804,-3.0123 5.886,-1.8065 0.5774,0.2316 1.2306,-0.0475 1.4622,-0.625 0.2317,-0.5774 -0.0475,-1.2306 -0.6249,-1.4622 -2.4657,-0.9811 -5.0011,-0.4797 -6.8218,0.8172 -0.4265,-2.1985 -1.9055,-4.3103 -4.3615,-5.2955 -0.5774,-0.2317 -1.2306,0.0475 -1.4622,0.6249 -0.2317,0.5775 0.0475,1.2306 0.6249,1.4623 2.9986,1.2029 3.2156,4.1654 3.0056,5.3735 -3.599,-0.8542 -7.3633,0.7776 -9.1901,4.0025 l -3.5065,-1.4067 c -3.6498,-1.4723 -7.8221,0.3109 -9.2902,3.9705 -1.4681,3.6595 0.3178,7.8249 3.9704,9.2902 1.1967,0.4801 2.4353,0.775 3.6866,0.8974 -0.7069,2.4869 -0.5508,5.1179 0.4782,7.5258 l 2.3581,5.5176 c 0.1208,0.2827 0.3503,0.4959 0.6147,0.602 0.2644,0.1061 0.5776,0.1105 0.8603,-0.0103 l 5.5176,-2.3581 c 2.4078,-1.029 4.346,-2.82 5.5468,-5.1087 0.989,0.7764 2.088,1.4192 3.2847,1.8993 3.6595,1.4681 7.8249,-0.3179 9.2902,-3.9705 1.4653,-3.6526 -0.3011,-7.8263 -3.9537,-9.2916 z m -9.3272,-9.1049 c 2.769,1.1108 4.2778,4.0342 3.7126,6.8525 L 27.6033,23.2063 c 1.5392,-2.4276 4.6501,-3.4977 7.4191,-2.3868 z m -17.519,11.3148 c -2.5046,-1.0048 -3.7253,-3.8611 -2.7205,-6.3657 1.0048,-2.5047 3.861,-3.7254 6.3657,-2.7206 l 10.0812,4.0443 c -2.5468,4.8584 -8.4388,7.1632 -13.7264,5.042 z m 13.257,-0.691 c 0.0393,1.09 0.2392,3.0279 1.3019,5.2312 l -5.8581,-2.3501 c 2.2908,-0.858 3.7773,-2.1274 4.5562,-2.8811 z M 29.3053,44.332 24.821,46.2485 22.9045,41.7643 C 22.7212,41.3353 22.57,40.8869 22.459,40.4386 l 8.0984,3.2488 c -0.4039,0.2418 -0.8134,0.4572 -1.2521,0.6446 z m 3.1956,-2.288 -10.3247,-4.142 c 0.026,-0.87 0.1869,-1.7343 0.4704,-2.5817 l 11.2987,4.5327 c -0.3809,0.8084 -0.8619,1.5443 -1.4444,2.191 z m 7.3565,-0.942 C 34.5767,38.9836 31.9043,33.243 33.4241,27.9645 l 10.0812,4.0443 c 2.5047,1.0048 3.7254,3.8611 2.7206,6.3657 -1.0048,2.5047 -3.8569,3.7351 -6.3685,2.7275 z"
           fill="#ffffff"
           id="path2851" />
      </g>
    </g>
  </g>
</svg>
