<?xml version="1.0" encoding="UTF-8" standalone="no"?>
<!-- Created with Inkscape (http://www.inkscape.org/) -->

<svg
   width="80"
   height="80"
   viewBox="0 0 21.166666 21.166666"
   version="1.1"
   id="svg1145"
   inkscape:version="1.1 (ce6663b3b7, 2021-05-25)"
   sodipodi:docname="01_my-profile.svg"
   xmlns:inkscape="http://www.inkscape.org/namespaces/inkscape"
   xmlns:sodipodi="http://sodipodi.sourceforge.net/DTD/sodipodi-0.dtd"
   xmlns="http://www.w3.org/2000/svg"
   xmlns:svg="http://www.w3.org/2000/svg">
  <sodipodi:namedview
     id="namedview1147"
     pagecolor="#ffffff"
     bordercolor="#666666"
     borderopacity="1.0"
     inkscape:pageshadow="2"
     inkscape:pageopacity="0.0"
     inkscape:pagecheckerboard="0"
     inkscape:document-units="px"
     showgrid="false"
     units="px"
     inkscape:zoom="5.9580247"
     inkscape:cx="13.007667"
     inkscape:cy="35.162661"
     inkscape:window-width="1920"
     inkscape:window-height="1017"
     inkscape:window-x="0"
     inkscape:window-y="26"
     inkscape:window-maximized="1"
     inkscape:current-layer="layer1" />
  <defs
     id="defs1142">
    <clipPath
       id="clip0">
      <rect
         width="74.824799"
         height="75.307503"
         fill="#ffffff"
         transform="translate(0,4.58603)"
         id="rect1253"
         x="0"
         y="0" />
    </clipPath>
    <clipPath
       id="clip1">
      <rect
         width="24.619801"
         height="24.619801"
         fill="#ffffff"
         transform="translate(25.8266)"
         id="rect1256"
         x="0"
         y="0" />
    </clipPath>
  </defs>
  <g
     inkscape:label="Capa 1"
     inkscape:groupmode="layer"
     id="layer1">
    <g
       id="g1373"
       transform="translate(-40.322512,-28.243875)">
      <g
         clip-path="url(#clip0)"
         id="g1247"
         transform="matrix(0.26458333,0,0,0.26458333,41.007104,28.257277)">
        <g
           opacity="0.05"
           id="g1153">
          <g
             opacity="0.05"
             id="g1151">
            <path
               opacity="0.05"
               d="m 11.9023,78.4383 c 5.2775,0 9.5557,-1.0098 9.5557,-2.2556 0,-1.2457 -4.2782,-2.2555 -9.5557,-2.2555 -5.27748,0 -9.55571,1.0098 -9.55571,2.2555 0,1.2458 4.27823,2.2556 9.55571,2.2556 z"
               fill="#48146d"
               id="path1149" />
          </g>
        </g>
        <path
           d="m 12.749,44.0709 c -0.2419,-0.291 -0.5564,-0.485 -0.9435,-0.5578 -0.8467,-0.194 -1.7176,0.0243 -2.56429,0.1698 -0.72575,0.1213 -1.54827,-0.1213 -2.29821,-0.1213 -0.74994,0 -1.49988,0.0485 -2.22563,0.1698 -0.16934,-0.0243 -0.31449,0.1213 -0.31449,0.2668 0,0.0242 0,0.0727 0,0.097 -0.02419,3.2257 0.21772,6.4272 0.74994,9.6044 0.70156,4.0261 1.71761,7.9067 1.1612,12.0056 -0.19354,1.5037 -0.31449,3.0317 -0.31449,4.5596 -0.0242,1.14 0.16934,2.4012 0.16934,3.5411 0,0.0727 0,0.097 0.07257,0.1212 0.04839,0.0243 0.09677,0.0243 0.12096,0.0243 0.41126,0.0243 0.82252,-0.0728 1.20958,-0.2425 0.14515,-0.0728 1.1854,-0.4366 1.20959,-0.5579 l 0.62898,-3.7835 0.84675,-5.1418 c 0.2661,-1.5765 0.5322,-3.1772 0.6531,-4.778 0.0968,-1.4552 0.0968,-2.9104 0.0484,-4.3656 -0.0484,-1.4552 -0.5322,-2.9347 -0.8225,-4.3657 0,0.4609 0.0968,0.8974 0.2661,1.334 0.9435,1.9888 2.1047,3.8806 3.6771,5.4328 0.1936,0.1698 0.3387,0.3638 0.4355,0.6063 0.0484,0.2668 0.0242,0.5336 -0.0726,0.7761 -1.2338,3.9049 -2.9272,7.8097 -3.6045,11.8358 -0.121,0.6791 -0.6048,2.2556 0.2419,2.2071 0.3145,-0.0243 0.7983,-0.3881 1.137,-0.5093 0.2177,-0.0728 1.4757,-0.1941 1.5482,-0.3396 1.4999,-3.1772 3.024,-6.3787 4.0642,-9.7257 0.2662,-0.8731 0.4355,-1.6492 0.7742,-2.4981 0.3387,-0.8489 0.6773,-1.7948 0.6532,-2.7407 -0.0726,-2.1828 -1.4999,-4.4384 -2.6369,-6.2089 -1.137,-1.7705 -2.395,-3.4925 -3.2659,-5.4085 -0.2419,-0.5336 -0.3387,-1.043 -0.6048,-1.4068 z"
           fill="#ffffff"
           id="path1155" />
        <path
           d="m 12.87,43.9497 c -0.5806,-0.7276 -1.6209,-0.7519 -2.4676,-0.6306 -0.50802,0.1212 -1.04024,0.194 -1.57245,0.2425 -0.53222,0 -1.04024,-0.097 -1.57246,-0.1455 -0.5806,-0.0243 -1.13701,0 -1.71761,0.0485 -0.24191,0.0242 -0.50802,0.0485 -0.74994,0.097 -0.16934,0 -0.33868,0.0728 -0.45964,0.194 -0.09677,0.1698 -0.12096,0.3638 -0.09677,0.5579 0,0.291 0,0.5821 0,0.8974 0,0.582 0.0242,1.1884 0.04839,1.7705 0.07257,2.2798 0.31449,4.5597 0.70155,6.8152 0.38707,2.2556 0.8951,4.487 1.1612,6.7668 0.12096,1.0914 0.19354,2.2071 0.16935,3.2985 -0.0242,1.1642 -0.21773,2.3283 -0.33869,3.4925 -0.09676,1.1157 -0.14515,2.2314 -0.14515,3.3713 0,0.5578 0.04839,1.1156 0.09677,1.6735 0.02419,0.2668 0.04838,0.5093 0.04838,0.7761 -0.02419,0.2425 0,0.4851 0.02419,0.7276 0.09677,0.3638 0.6048,0.2668 0.89509,0.2425 C 7.20911,74.0969 7.5236,73.9999 7.8139,73.8786 8.08001,73.7574 8.37031,73.6604 8.63641,73.5391 8.90252,73.4178 8.9751,73.2966 9.04767,72.957 l 1.16123,-7.0335 c 0.387,-2.2799 0.8225,-4.5355 0.9434,-6.8396 0.0726,-1.1641 0.0484,-2.3283 0.0242,-3.4925 -0.0483,-1.0914 -0.2177,-2.2071 -0.4838,-3.2742 -0.121,-0.5336 -0.2419,-1.0672 -0.3629,-1.6008 -0.0242,-0.097 -0.1451,-0.1455 -0.2419,-0.1212 -0.0726,0.0242 -0.12095,0.097 -0.12095,0.1697 0,0.4609 0.09675,0.9459 0.26615,1.3825 0.1935,0.4608 0.4354,0.8974 0.6773,1.3339 0.4597,0.8732 0.9919,1.6978 1.5725,2.4739 0.2903,0.3881 0.5806,0.7519 0.9193,1.1157 0.1693,0.1698 0.3387,0.3638 0.508,0.5336 0.1935,0.1455 0.3629,0.3638 0.4596,0.582 0.0726,0.2911 -0.0725,0.6306 -0.1451,0.8974 -0.0726,0.2668 -0.1694,0.5336 -0.2661,0.8004 -0.1694,0.5093 -0.3629,1.0429 -0.5322,1.5522 -0.7258,2.0616 -1.4757,4.1232 -2.0563,6.2332 -0.2903,1.0187 -0.5081,2.0373 -0.7016,3.056 -0.0968,0.5821 -0.3145,1.1641 -0.2419,1.7462 0.0726,0.5821 0.5564,0.7519 1.0644,0.5336 0.3145,-0.1455 0.5806,-0.3638 0.9193,-0.4123 0.2903,-0.0485 0.5806,-0.097 0.8709,-0.1455 0.2177,0 0.4355,-0.0728 0.629,-0.1941 0.121,-0.1697 0.1935,-0.3395 0.2661,-0.5093 0.121,-0.2668 0.2419,-0.5093 0.3629,-0.7761 0.4838,-0.9944 0.9435,-2.013 1.3789,-3.0317 0.8951,-1.9645 1.6692,-4.0018 2.274,-6.0877 0.1452,-0.485 0.2661,-0.9701 0.4355,-1.4552 0.1693,-0.5093 0.4112,-1.0186 0.5564,-1.528 0.2903,-0.9458 0.3387,-1.9645 0.0967,-2.9589 -0.4354,-1.8918 -1.524,-3.5653 -2.5643,-5.166 -1.1612,-1.7948 -2.4917,-3.541 -3.29,-5.5298 -0.121,-0.4609 -0.3145,-0.8732 -0.5564,-1.2612 -0.121,-0.1941 -0.4597,0.0242 -0.3145,0.194 0.2419,0.4123 0.4354,0.8489 0.5806,1.3097 0.1935,0.4366 0.4112,0.8731 0.6289,1.2854 0.4839,0.8974 1.0403,1.7463 1.5967,2.5952 1.0402,1.6007 2.1772,3.1772 2.9514,4.8992 0.4354,0.8731 0.6773,1.819 0.7499,2.7892 0.0484,1.0671 -0.3629,2.013 -0.7257,2.9832 -0.3629,0.9701 -0.5564,1.9403 -0.8951,2.8861 -0.3387,0.9459 -0.7016,1.9888 -1.0886,2.959 -0.7984,1.9645 -1.6935,3.8563 -2.5886,5.7724 -0.0483,0.1212 -0.0967,0.2425 -0.1693,0.3638 0.0484,-0.0485 -0.0484,0 -0.0484,0 -0.1209,0.0485 -0.2661,0.0727 -0.387,0.097 -0.2662,0.0485 -0.5565,0.0727 -0.8226,0.1212 -0.2661,0.0728 -0.5322,0.1941 -0.7741,0.3396 -0.1935,0.1213 -0.5806,0.3638 -0.7257,0.0485 -0.0726,-0.2668 -0.0726,-0.5336 0,-0.8004 0.0483,-0.291 0.1209,-0.5821 0.1693,-0.8731 0.1935,-0.9459 0.3629,-1.8675 0.6048,-2.7892 0.5322,-2.013 1.258,-4.0018 1.9353,-5.9664 0.3387,-0.9701 0.6774,-1.9402 0.9919,-2.9104 0.1451,-0.4123 0.3387,-0.8974 0.1451,-1.3339 C 14.515,57.5317 14.1279,57.2649 13.8376,56.9496 12.5555,55.5429 11.491,53.9179 10.6927,52.1959 10.475,51.7351 10.354,51.25 10.354,50.7407 l -0.36285,0.0485 c 0.19355,1.0186 0.48385,2.0373 0.67735,3.0559 0.1452,1.0672 0.2177,2.1586 0.1935,3.25 -0.0241,2.1829 -0.2419,4.3657 -0.6289,6.5 -0.36291,2.1828 -0.72579,4.3657 -1.08866,6.5485 L 8.87833,71.7443 8.75737,72.5204 8.6848,72.9327 c 0,0.0728 0,0.1213 -0.02419,0.1698 0,-0.0242 0.04838,-0.0727 0,-0.0485 -0.24192,0.1213 -0.48384,0.2426 -0.72575,0.3153 -0.26611,0.1213 -0.50803,0.2183 -0.77414,0.2911 -0.19353,0.0485 -0.38706,0.0727 -0.5806,0.0727 -0.04838,0 -0.09676,0 -0.14515,0 C 6.38659,73.7089 6.50755,73.8786 6.41078,73.7089 6.38659,73.5633 6.38659,73.4178 6.38659,73.2723 6.3624,72.763 6.31402,72.2779 6.28982,71.7686 6.21725,70.7257 6.21725,69.6828 6.28982,68.6399 6.33821,67.5727 6.45917,66.5055 6.60431,65.4384 6.72527,64.3955 6.74947,63.3283 6.70108,62.2612 6.60432,60.1753 6.24144,58.1138 5.85437,56.0765 5.44312,53.9422 5.08024,51.8078 4.88671,49.6493 4.78994,48.5821 4.74156,47.515 4.69317,46.4478 4.66898,45.9142 4.66898,45.3806 4.66898,44.8471 c -0.02419,-0.2668 -0.02419,-0.5094 0,-0.7762 0.07258,-0.291 0.65318,-0.2425 0.8709,-0.2668 0.53222,-0.0485 1.04024,-0.097 1.57246,-0.0727 0.48383,0.0242 0.96767,0.1213 1.47569,0.1455 1.01605,0.0485 2.00787,-0.3881 3.02397,-0.2425 0.4112,0.0242 0.7741,0.2183 1.0402,0.5335 0.0968,0.2426 0.3629,-0.0485 0.2178,-0.2182 z"
           fill="#48146d"
           id="path1157" />
        <path
           d="m 22.2805,32.5505 c 0,-0.8004 0.2177,-1.6008 0.6532,-2.2799 0.0242,-0.0485 0.0726,-0.097 0.121,-0.1455 0.0483,-0.0485 0.1209,-0.0485 0.1693,0 0.0242,0.0242 0.0484,0.0728 0.0484,0.1213 0,0.1697 -0.0484,0.3395 -0.121,0.485 -0.0726,0.1456 -0.1209,0.3153 -0.1451,0.4851 -0.0242,0.1698 0.0725,0.3396 0.2177,0.4123 0.0726,0.0243 0.1451,0.0485 0.2177,0.0243 0.2419,-0.0243 0.4597,-0.1213 0.6532,-0.2426 0.2661,-0.1455 0.508,-0.3395 0.7741,-0.5093 0.2178,-0.1698 0.4355,-0.3395 0.6532,-0.4608 0.0242,0 0.0242,0 0.0484,0 l 0.0242,0.0242 c 0.1451,0.1941 -0.0484,0.4366 -0.1936,0.5821 -0.0725,0.0728 -0.7015,0.6064 -0.2661,0.5094 0.0968,-0.0485 0.2178,-0.0971 0.3145,-0.1698 0.1694,-0.0728 0.3387,-0.1455 0.508,-0.194 0.0484,-0.0243 0.121,0 0.1694,0.0242 0.0484,0.0485 0.0726,0.1213 0.0484,0.194 -0.0242,0.0728 -0.0726,0.1213 -0.1452,0.1456 -0.2177,0.194 -0.4354,0.3395 -0.7015,0.485 0.3628,-0.097 0.7257,-0.194 1.0886,-0.2425 0.0726,0 0.2177,0 0.1693,0.1213 -0.0242,0.0485 -0.0484,0.0727 -0.0967,0.097 l -0.4355,0.3395 c -0.0968,0.0728 -0.4838,0.1941 -0.4112,0.3638 l 0.0241,0.0243 c 0.0242,0 0.0242,0 0.0484,0 l 0.5322,-0.0728 c 0.0726,-0.0242 0.1452,0 0.1936,0.0243 0.0484,0.0485 0.0726,0.1455 0.0242,0.2183 -0.0484,0.0727 -0.0968,0.1212 -0.1694,0.1455 -0.3387,0.1698 -0.6773,0.3153 -1.016,0.4123 -0.5806,0.2183 -1.2338,0.291 -1.8628,0.1698"
           fill="#ffffff"
           id="path1159" />
        <path
           d="m 22.4741,32.5505 c 0,-0.6306 0.1451,-1.237 0.4112,-1.7948 0.0726,-0.1213 0.1452,-0.2425 0.2177,-0.3881 -0.0242,-0.0485 -0.0242,-0.0485 -0.0242,0.0243 0,0.0485 -0.0241,0.0728 -0.0241,0.1213 -0.0242,0.0727 -0.0484,0.1455 -0.0968,0.2182 -0.121,0.2183 -0.1694,0.5094 -0.0968,0.7519 0.1936,0.5821 0.8709,0.3881 1.2822,0.1698 0.2661,-0.1455 0.5322,-0.3153 0.7741,-0.5093 0.0968,-0.0728 0.2177,-0.1698 0.3145,-0.2426 0.121,-0.1212 0.2419,-0.194 0.4113,-0.2668 l -0.1936,-0.0485 c 0.1936,0.1941 -0.8709,0.7276 -0.5806,1.0914 0.1936,0.2426 0.5564,-0.0727 0.75,-0.1455 0.1209,-0.0485 0.2419,-0.097 0.3628,-0.1213 0.0968,-0.0242 -0.0241,0.0243 -0.0483,0.0243 -0.0242,0.0243 -0.0726,0.0485 -0.0968,0.0728 -0.1693,0.1455 -0.3629,0.291 -0.5806,0.388 -0.1935,0.097 -0.0484,0.4123 0.1451,0.3396 0.3145,-0.097 0.6048,-0.1698 0.9193,-0.2183 0.0484,0 0.121,0 0.1694,-0.0243 l -0.0968,-0.097 -0.121,0.097 c -0.0967,0.0728 -0.1935,0.1698 -0.3144,0.2426 -0.121,0.0727 -0.3387,0.1455 -0.4113,0.291 -0.0726,0.1213 -0.0484,0.2911 0.0726,0.3638 0.0242,0.0243 0.0725,0.0243 0.0967,0.0485 0.121,0 0.2661,-0.0242 0.3871,-0.0485 0.0726,0 0.121,-0.0242 0.1935,-0.0242 0.0726,0 0.0484,0 0.0484,-0.0485 -0.0242,0.0242 -0.0484,0.0485 -0.0726,0.0485 -0.2661,0.1455 -0.5564,0.2668 -0.8467,0.3638 -0.6048,0.2425 -1.2579,0.3395 -1.9111,0.2425 -0.2419,-0.0485 -0.3387,0.3153 -0.0968,0.3638 0.9193,0.1698 1.7902,-0.0728 2.6369,-0.4366 0.2661,-0.1212 0.7983,-0.3153 0.6532,-0.7033 -0.1452,-0.3881 -0.6774,-0.097 -0.9677,-0.1213 l 0.1452,0.0485 c 0.0726,0.097 -0.0242,0.1213 0.0967,0.0485 0.0484,-0.0242 0.0726,-0.0485 0.121,-0.0727 0.0968,-0.0485 0.1935,-0.1213 0.2903,-0.1941 0.1693,-0.1455 0.5322,-0.3153 0.4355,-0.582 -0.0484,-0.2183 -0.3145,-0.1941 -0.4839,-0.1698 -0.3387,0.0727 -0.6773,0.1455 -0.9918,0.2425 l 0.1451,0.3396 c 0.1935,-0.097 0.3629,-0.2183 0.5322,-0.3638 0.1452,-0.1213 0.3629,-0.2426 0.3871,-0.4366 0.0242,-0.1698 -0.0484,-0.3396 -0.2177,-0.3881 -0.2178,-0.0485 -0.4355,0 -0.629,0.1213 -0.0968,0.0243 -0.1935,0.0728 -0.2661,0.1213 -0.0242,0.0242 -0.0726,0.0485 -0.0968,0.0727 -0.0968,0.0485 -0.0968,0 -0.0242,0.1213 0.0726,0.1213 0.0484,0.0728 0.121,0 0.0484,-0.0485 0.0967,-0.097 0.1451,-0.1455 0.1936,-0.194 0.4355,-0.3638 0.4597,-0.6549 0,-0.1455 -0.0484,-0.3638 -0.2178,-0.4123 -0.1693,-0.0485 -0.387,0.1213 -0.508,0.2183 -0.387,0.2911 -0.7741,0.5578 -1.1854,0.8004 -0.1451,0.0727 -0.508,0.291 -0.6773,0.1455 -0.1694,-0.1455 0,-0.5093 0.0725,-0.6791 0.0968,-0.2668 0.2661,-0.8974 -0.2177,-0.8489 -0.2177,0.0243 -0.3387,0.2426 -0.4354,0.4123 -0.121,0.2183 -0.242,0.4366 -0.3145,0.6791 -0.1694,0.4851 -0.2661,1.0187 -0.2661,1.5523 0,0.097 0.0967,0.194 0.1935,0.194 0.0484,0 0.121,-0.0728 0.121,-0.194 z"
           fill="#48146d"
           id="path1161" />
        <path
           d="m 5.75761,41.1605 c -0.26611,1.3097 -0.48383,3.1045 0,4.4142 0.31449,0.8973 1.08863,0.7276 1.91114,0.7276 1.20959,0.0242 3.36265,-0.0485 4.37865,-0.7519 1.0161,-0.7034 0.9677,-2.2313 1.0887,-3.4683 0.2661,-3.1287 -0.1694,-6.2817 -0.8951,-9.3376 0.2661,1.1399 0.508,2.3041 0.7015,3.444 0.0968,0.5578 0.1936,1.1157 0.2661,1.6735 0.0484,0.4366 0,1.1399 0.2662,1.5037 0.4838,0.6791 1.7901,0.0243 2.4191,-0.1698 1.0644,-0.3638 2.0563,-0.8488 2.9998,-1.4552 1.7176,-1.0914 3.1691,-2.5466 4.4512,-4.1231 -0.0241,-0.4608 -0.5322,-0.8004 -0.9918,-0.8004 -0.4597,0.0243 -0.9193,0.1456 -1.3306,0.3639 -0.9676,0.4123 -1.9353,0.7761 -2.903,1.1399 -0.1935,0.0727 -2.4917,0.9459 -2.5885,0.8003 C 14.6843,33.5206 13.7651,31.9684 12.7974,30.4404 11.612,28.5971 8.73319,27.8695 6.45917,28.7911"
           fill="#ffffff"
           id="path1163" />
        <path
           d="m 5.56409,41.112 c -0.16934,0.8246 -0.26611,1.6735 -0.2903,2.5224 0,0.7519 0.02419,1.722 0.45964,2.3526 0.38707,0.5578 1.06443,0.5336 1.69342,0.5336 0.70155,0 1.37892,0 2.05629,-0.0728 1.30636,-0.1213 2.85466,-0.3638 3.41106,-1.722 0.2903,-0.6791 0.3145,-1.431 0.3628,-2.1586 0.0726,-0.9701 0.121,-1.9403 0.0968,-2.9104 -0.0968,-2.3284 -0.4113,-4.6567 -0.9677,-6.9123 l -0.3628,0.097 c 0.4354,1.6978 0.7499,3.4198 0.9676,5.1418 0.0484,0.5336 -0.0242,1.2612 0.3871,1.6735 0.3629,0.3395 0.9193,0.291 1.3789,0.1698 0.5806,-0.1698 1.137,-0.3638 1.6934,-0.5821 0.7258,-0.2911 1.4515,-0.6306 2.1289,-1.0429 1.3305,-0.8246 2.5401,-1.819 3.6046,-2.959 0.2419,-0.2668 0.508,-0.5335 0.7499,-0.8246 0.121,-0.1455 0.2419,-0.291 0.3871,-0.4366 0.1451,-0.1455 0.1935,-0.194 0.1935,-0.388 -0.0726,-0.6064 -0.7258,-0.9217 -1.2822,-0.9217 -0.7741,0.0243 -1.524,0.4851 -2.2256,0.7762 -0.6532,0.2668 -1.3305,0.5093 -1.9837,0.7518 -0.7258,0.2911 -1.4757,0.5579 -2.2256,0.7519 -0.0484,0.0242 -0.121,0.0242 -0.1694,0.0242 0.0242,0 -0.0484,-0.1455 -0.0726,-0.2182 -0.2177,-0.4124 -0.4354,-0.8004 -0.6773,-1.2127 -0.4113,-0.7276 -0.8467,-1.4552 -1.2822,-2.1828 -0.4112,-0.6549 -0.7741,-1.334 -1.3547,-1.8433 -0.4838,-0.4366 -1.0644,-0.7519 -1.6692,-0.9702 -1.35477,-0.485 -2.83046,-0.4608 -4.161,0.0728 -0.21773,0.097 -0.12096,0.4608 0.09676,0.3638 2.20144,-0.8974 4.95934,-0.291 6.26564,1.7705 0.8709,1.3582 1.6934,2.7649 2.4676,4.1716 0.0725,0.1456 0.1451,0.3638 0.3144,0.4123 0.121,0.0243 0.242,0 0.3629,-0.0485 0.3629,-0.097 0.7258,-0.194 1.0644,-0.3395 0.8709,-0.3153 1.7418,-0.6306 2.6127,-0.9702 0.7258,-0.2667 1.4515,-0.6548 2.1773,-0.8731 0.3387,-0.1213 0.7257,-0.1213 1.0402,0.0485 0.121,0.0728 0.3145,0.2183 0.3145,0.3638 0,0.1455 -0.1935,0.2911 -0.2903,0.4123 -0.9434,1.14 -2.0079,2.1586 -3.1933,3.056 -1.1854,0.8731 -2.5159,1.5765 -3.8948,2.0616 -0.5322,0.194 -1.1128,0.485 -1.6692,0.4365 -0.75,-0.0485 -0.629,-1.0186 -0.6774,-1.5522 -0.2177,-1.7705 -0.5322,-3.5168 -0.9677,-5.2631 -0.0484,-0.2425 -0.4112,-0.1455 -0.3629,0.0971 0.8226,3.5167 1.2338,7.1548 0.75,10.7443 -0.0968,0.6306 -0.2661,1.334 -0.7741,1.7705 -0.4597,0.3881 -1.1129,0.5336 -1.6935,0.6306 -0.67733,0.1213 -1.3547,0.1698 -2.03206,0.1698 -0.2903,0 -0.5806,0 -0.8709,0 -0.31449,0.0243 -0.60479,0 -0.91929,-0.0485 -0.79832,-0.2183 -0.82251,-1.528 -0.8467,-2.2071 0,-0.8974 0.09676,-1.7947 0.2903,-2.6679 0.02419,-0.194 -0.33869,-0.291 -0.41126,-0.0485 z"
           fill="#ffbd17"
           id="path1165" />
        <path
           d="m 10.4508,28.9124 c 0.6048,0.2426 0.1451,0.8974 -0.1935,1.1642 -0.33873,0.2668 -0.77418,0.4123 -1.23382,0.388 -0.8709,0 -1.76599,-0.3395 -2.56431,-0.6063 C 6.0721,29.737 6.19306,29.2277 6.21725,28.9367 5.61246,29.0337 5.03186,29.4217 4.52384,29.737 3.55617,30.3191 2.85461,31.2408 2.5885,32.3564 2.3224,33.4721 2.34659,34.612 2.37078,35.7277 l 0.31449,14.0671 c -0.02419,0.2668 0.02419,0.5336 0.14515,0.7761 0.36287,0.6306 1.28216,0.5093 2.0321,0.5821 0.2903,-5.2388 1.11281,-9.9925 1.33054,-16.5895"
           fill="#ffffff"
           id="path1167" />
        <path
           d="m 10.354,29.0579 c 0.4355,0.1941 0.0484,0.6306 -0.1935,0.8489 C 9.74923,30.2949 9.16863,30.3191 8.63642,30.2706 8.05582,30.1979 7.49941,30.0523 6.96719,29.834 6.74947,29.7613 6.41078,29.737 6.3624,29.446 c 0,-0.1698 0,-0.3638 0.02419,-0.5336 0,-0.1455 -0.12096,-0.194 -0.24191,-0.194 C 5.37054,28.8639 4.6206,29.349 3.99162,29.834 3.4594,30.2464 2.99976,30.7799 2.70946,31.3863 1.95952,32.9385 2.15305,34.8545 2.20143,36.5523 l 0.26611,11.7873 c 0,0.5093 0.02419,1.0186 0.02419,1.5522 -0.02419,0.3881 0.12096,0.7519 0.38707,1.0429 0.50803,0.4608 1.33054,0.3638 1.98372,0.4123 0.09676,0 0.19353,-0.097 0.19353,-0.194 0.24192,-4.1474 0.79833,-8.2948 1.11282,-12.4421 0.09676,-1.3825 0.19353,-2.7407 0.24191,-4.1231 0,-0.2426 -0.36287,-0.2426 -0.38706,0 C 5.85438,38.9777 5.34635,43.3676 4.93509,47.7332 4.83833,48.8731 4.74156,50.0131 4.66898,51.153 L 4.86252,50.959 C 4.3303,50.9105 3.50778,51.0317 3.09653,50.5952 2.83042,50.3284 2.8788,49.8918 2.8788,49.528 L 2.83042,48.097 2.70946,42.737 2.5885,37.3769 C 2.56431,36.5038 2.54012,35.6549 2.54012,34.7818 2.51593,33.9087 2.5885,33.0355 2.80623,32.1866 c 0.19353,-0.7033 0.60479,-1.3339 1.1612,-1.8432 0.60479,-0.5579 1.47569,-1.1157 2.2982,-1.2612 l -0.24191,-0.194 c -0.04839,0.2425 -0.02419,0.5093 0.02419,0.7518 0.09677,0.2668 0.31449,0.3396 0.55641,0.4123 0.79832,0.2668 1.62084,0.5579 2.46755,0.5579 0.62898,0.0242 1.20953,-0.2668 1.59663,-0.7519 0.2903,-0.3881 0.4113,-0.9216 -0.1209,-1.1642 -0.2178,-0.0485 -0.4113,0.2668 -0.1936,0.3638 z"
           fill="#ffbd17"
           id="path1169" />
        <path
           d="m 6.07211,27.1904 c 0.50802,0.6549 0.70155,1.4795 0.60479,2.3041 -0.04839,0.2426 2.05629,0.6791 2.2982,0.6791 0.38707,0.0243 0.8951,-0.0242 1.1854,-0.291 0.3387,-0.3396 0.1451,-0.6064 0.121,-1.0187 -0.2662,0.0728 -0.55645,0.097 -0.84675,0.0485 0.31449,0 0.60475,-0.0727 0.84675,-0.2668 0.7983,-0.4365 1.6208,-0.9458 2.0079,-1.7705 0.3145,-0.6548 0.3386,-1.4309 0.2419,-2.1343 -0.1694,-1.2127 -0.6048,-2.3526 -1.258,-3.3712 -0.1693,-0.2911 -0.3871,-0.5336 -0.629,-0.7034 -0.508,-0.3395 -1.18536,-0.3153 -1.76596,-0.1455 -1.13701,0.3638 -2.08048,1.1642 -2.63689,2.2071 -0.55641,1.0429 -0.82252,2.207 -0.74994,3.3955 0,0.4365 0.16934,0.9944 0.60479,1.0186"
           fill="#ffffff"
           id="path1171" />
        <path
           d="m 5.92695,27.2874 c 0.31449,0.4123 0.50802,0.9217 0.5806,1.431 0.02419,0.2183 0.02419,0.4608 0,0.6791 -0.02419,0.097 0,0.2183 0.07257,0.291 0.14515,0.1213 0.3145,0.1941 0.48384,0.2426 0.2903,0.097 0.5806,0.1697 0.8709,0.2425 0.48383,0.1455 0.96766,0.194 1.47569,0.194 0.38706,0 0.74995,-0.1697 1.01605,-0.4608 0.2419,-0.3395 0.121,-0.6791 0.0968,-1.0429 0,-0.097 -0.0968,-0.194 -0.1936,-0.194 -0.0242,0 -0.0242,0 -0.0484,0 -0.2661,0.0485 -0.53217,0.0727 -0.79828,0.0485 v 0.388 c 0.33869,0 0.67738,-0.097 0.94348,-0.291 0.3387,-0.1698 0.6532,-0.3881 0.9677,-0.6063 0.5806,-0.3881 1.016,-0.9217 1.2579,-1.5765 0.2419,-0.7276 0.1936,-1.528 0.0484,-2.2799 -0.1451,-0.7761 -0.3871,-1.5037 -0.7257,-2.207 -0.2903,-0.6064 -0.6774,-1.3583 -1.2822,-1.6978 -0.6048,-0.3396 -1.37892,-0.2668 -2.0079,-0.0485 -1.30635,0.5093 -2.34659,1.528 -2.85462,2.8377 -0.33868,0.8246 -0.50802,1.6977 -0.50802,2.5708 0,0.5579 0.04838,1.431 0.74994,1.528 0.24192,0.0243 0.33868,-0.3395 0.09677,-0.3638 -0.5806,-0.097 -0.48384,-1.0186 -0.45964,-1.4309 0.02419,-0.6791 0.16934,-1.334 0.38706,-1.9888 0.41126,-1.14 1.23378,-2.0859 2.3224,-2.6437 0.55641,-0.2668 1.23377,-0.4366 1.83861,-0.2425 0.6047,0.194 0.9676,0.8974 1.2579,1.4309 0.6048,1.14 1.0403,2.5709 0.8951,3.8564 -0.0968,0.7033 -0.4596,1.3339 -1.0402,1.7705 -0.2661,0.194 -0.5322,0.388 -0.8225,0.5578 -0.3387,0.194 -0.67741,0.4608 -1.06448,0.4366 -0.24191,-0.0243 -0.24191,0.3395 0,0.388 0.2903,0.0243 0.60478,0 0.89508,-0.0485 l -0.2419,-0.194 c 0.0242,0.3638 0.1935,0.7519 -0.19354,0.9944 -0.2903,0.1455 -0.62898,0.194 -0.94347,0.1455 C 8.61222,29.9553 8.20096,29.8826 7.83809,29.7613 7.62037,29.7128 7.37845,29.64 7.16072,29.5673 7.08815,29.5188 7.01557,29.4945 6.943,29.4702 6.91881,29.4702 6.91881,29.446 6.89462,29.446 6.91881,29.543 6.943,29.543 6.943,29.4217 v -0.097 C 6.99138,28.5244 6.77366,27.7482 6.28982,27.1176 6.09629,26.8994 5.75761,27.0934 5.92695,27.2874 Z"
           fill="#48146d"
           id="path1173" />
        <path
           d="m 10.7653,22.7035 c -0.0726,0.2425 0.2177,1.1157 0.508,0.7033 0.1693,-0.2182 -0.1935,-0.6791 -0.4354,-0.7276"
           fill="#5b1a84"
           id="path1175" />
        <path
           d="m 7.35426,24.8863 c 0.16934,-0.194 0.21773,0.3638 0.38707,0.1698 z"
           fill="#ffffff"
           id="path1177" />
        <path
           d="M 7.5236,25.0561 7.54779,25.0318 7.5236,25.0561 7.45103,25.0803 H 7.47522 7.40264 7.42684 7.35426 L 7.30588,25.0561 H 7.33007 L 7.28169,25.0076 c 0.02419,0 0.02419,0.0242 0.02419,0.0485 L 7.25749,25.0076 c 0.0242,0.0485 0.04839,0.097 0.09677,0.1455 0.02419,0.0243 0.04838,0.0485 0.04838,0.0728 0.0242,0.0242 0.04839,0.0485 0.07258,0.0485 0.02419,0.0242 0.04838,0.0242 0.07257,0.0485 0.0242,0 0.04839,0 0.07258,0 h 0.04838 c 0.02419,0 0.02419,0 0.04838,0 0.0242,0 0.04839,-0.0243 0.07258,-0.0243 0.02419,-0.0242 0.04838,-0.0485 0.07257,-0.0727 0.04839,-0.0485 0.07258,-0.097 0.07258,-0.1698 0,-0.0728 -0.02419,-0.1213 -0.07258,-0.1698 -0.04838,-0.0485 -0.09676,-0.0727 -0.16934,-0.0727 -0.07257,0 -0.12095,0.0242 -0.16934,0.0727 L 7.49941,24.9106 7.54779,24.8621 H 7.5236 L 7.57198,24.8378 H 7.54779 7.62037 7.74133 7.71713 l 0.04839,0.0243 H 7.74133 l 0.04838,0.0485 c -0.02419,0 -0.02419,-0.0243 -0.02419,-0.0485 L 7.8139,24.9106 C 7.78971,24.8621 7.76552,24.8136 7.71713,24.765 7.69294,24.7408 7.66875,24.7165 7.66875,24.6923 7.64456,24.668 7.62037,24.6438 7.59618,24.6438 7.57198,24.6195 7.54779,24.6195 7.5236,24.5953 c -0.02419,0 -0.04838,0 -0.07257,0 H 7.40264 7.35426 c -0.02419,0 -0.04838,0.0242 -0.07257,0.0242 -0.0242,0.0243 -0.04839,0.0485 -0.07258,0.0728 -0.04838,0.0485 -0.07257,0.097 -0.07257,0.1698 0,0.0727 0.02419,0.1212 0.07257,0.1697 0.04838,0.0485 0.09677,0.0728 0.16934,0.0728 0.04839,0.0243 0.12096,0 0.14515,-0.0485 z"
           fill="#5b1a84"
           id="path1179" />
        <path
           d="m 6.72527,26.3415 c 0.2903,0.1213 0.65318,0.0486 0.8709,-0.194 -0.2903,-0.388 -0.89509,-0.4851 -1.137,-0.9216 -0.19354,-0.4366 -1e-5,-0.9217 0.41125,-1.1399 0.41126,-0.1941 0.89509,-0.1213 1.25797,0.1697 0.14515,0.1213 0.36287,0.2668 0.50802,0.1456 C 8.49126,24.2315 8.51546,23.9889 8.6848,23.8434 8.85414,23.6979 9.02348,23.5766 9.19282,23.4554 9.70085,23.0188 9.62827,22.2669 9.87019,21.7091 10.1605,21.1028 11.2491,21.0057 11.2733,20.3024 11.2975,19.9386 10.9588,19.6475 10.6443,19.502 10.2089,19.3322 9.77342,19.211 9.31378,19.1625 8.87833,19.0655 8.46707,19.0412 8.03162,19.0412 c -2.15305,0.1213 -4.20934,2.1101 -4.11258,4.3171 0.04839,0.6791 0.24192,1.334 0.53222,1.9403 0.48383,1.0915 1.30635,3.2258 2.27401,1.0429 z"
           fill="#48146d"
           id="path1181" />
        <path
           d="m 10.475,72.7387 0.0242,1.8433 c 0,0.097 0,0.194 0.0484,0.2911 0.0967,0.1212 0.2177,0.194 0.3386,0.2182 1.887,0.6064 3.7739,1.2127 5.7577,1.334 0.3145,0.0485 0.6531,0.0242 0.9676,-0.0728 0.3145,-0.097 0.5564,-0.3395 0.6532,-0.6548 0.1935,-0.8246 -0.8467,-1.2127 -1.4273,-1.431 -0.8951,-0.3395 -1.7418,-0.8004 -2.4917,-1.4067 -1.6693,-1.3339 -2.0805,0.1455 -3.9191,-0.1455"
           fill="#ffffff"
           id="path1183" />
        <path
           d="m 10.2815,72.7387 v 1.2855 c 0,0.3153 -0.0968,0.8003 0.1693,1.0671 0.2661,0.2668 0.629,0.2911 0.9193,0.3638 0.4112,0.1213 0.8225,0.2668 1.2579,0.3881 0.8226,0.2425 1.6451,0.4366 2.4918,0.6063 0.3871,0.0728 0.7741,0.1213 1.1854,0.1456 0.4112,0.0727 0.8467,0.0485 1.2579,-0.0243 0.5323,-0.1455 0.9919,-0.6063 0.9193,-1.2127 -0.0725,-0.5093 -0.5564,-0.8246 -0.9918,-1.0429 -0.6048,-0.291 -1.2096,-0.4851 -1.7902,-0.8004 -0.3387,-0.194 -0.6774,-0.388 -0.9919,-0.6305 -0.2903,-0.2426 -0.6048,-0.4609 -0.9434,-0.6306 -0.4597,-0.1941 -0.9677,-0.1941 -1.4274,-0.0243 -0.6289,0.194 -1.1853,0.3881 -1.8385,0.291 -0.2419,-0.0242 -0.3387,0.3396 -0.0968,0.3639 0.4838,0.0727 0.9919,0.0485 1.4515,-0.0971 0.3387,-0.1455 0.7258,-0.2425 1.0886,-0.3153 0.5323,-0.0485 0.9677,0.2668 1.379,0.5821 0.5564,0.4123 1.137,0.7761 1.766,1.0672 0.4596,0.2183 0.9676,0.3638 1.4273,0.6063 0.4596,0.2426 0.8951,0.7519 0.4112,1.237 -0.4838,0.485 -1.5724,0.2668 -2.2256,0.1697 -0.7016,-0.097 -1.4273,-0.2425 -2.1047,-0.4365 -0.7983,-0.2183 -1.5966,-0.4608 -2.395,-0.7276 -0.1451,-0.0485 -0.4112,-0.0728 -0.4596,-0.2426 -0.0484,-0.2425 -0.0484,-0.485 -0.0242,-0.7276 v -1.2854 c 0,-0.097 -0.0968,-0.1698 -0.2177,-0.1698 -0.1452,0 -0.2177,0.0728 -0.2177,0.194 z"
           fill="#5b1a84"
           id="path1185" />
        <path
           d="m 6.26563,74.2667 -0.07257,1.5037 c -0.07258,0.2426 0.07257,0.4851 0.31449,0.5336 0.02419,0 0.04838,0 0.07258,0.0243 2.27401,0.7518 4.57217,1.2369 6.94297,1.0186 0.3145,-0.0242 0.6774,-0.097 0.8225,-0.3638 0.0484,-0.1455 0.0726,-0.291 0.0484,-0.4365 0,-0.1698 -0.0484,-0.3638 -0.1451,-0.5094 C 13.765,75.2126 12.4587,75.2611 11.6604,74.9701 10.7411,74.6548 9.91857,74.1455 9.21701,73.4906 9.04767,73.3208 8.82995,73.1511 8.61222,73.2238 8.51546,73.2481 8.44288,73.3208 8.37031,73.3936 7.74132,73.9272 6.943,74.2182 6.12048,74.2182"
           fill="#ffffff"
           id="path1187" />
        <path
           d="m 6.0721,74.2667 -0.07258,1.2612 c -0.02419,0.3153 -0.07257,0.6549 0.24192,0.8489 0.31449,0.1698 0.67737,0.291 1.01605,0.3638 0.41126,0.1213 0.84671,0.2425 1.28216,0.3395 1.62085,0.4124 3.29005,0.5821 4.95925,0.4366 0.5564,-0.0485 1.0645,-0.2425 1.0645,-0.8974 0,-0.5578 -0.3145,-1.0429 -0.8225,-1.2854 C 13.2328,75.1156 12.7006,74.9701 12.1684,74.8973 11.491,74.7275 10.862,74.4607 10.2814,74.0727 9.94276,73.8301 9.60408,73.5634 9.28959,73.2966 9.04767,73.0783 8.73318,72.9085 8.41869,73.0783 c -0.16934,0.097 -0.31449,0.2425 -0.45964,0.3638 -0.16934,0.097 -0.33869,0.194 -0.50803,0.291 -0.41125,0.1698 -0.8709,0.2668 -1.33054,0.2668 -0.09676,0 -0.16934,0.097 -0.16934,0.2183 0,0.097 0.07258,0.1698 0.16934,0.1698 0.5806,0 1.1612,-0.1455 1.69342,-0.4123 0.24191,-0.1213 0.48383,-0.2911 0.67736,-0.4608 0.33869,-0.2668 0.67737,0.2182 0.94348,0.4123 0.87086,0.7033 1.88696,1.1884 2.97556,1.4067 0.4597,0.097 0.9677,0.1698 1.3547,0.4365 0.2178,0.1456 0.3629,0.3638 0.4355,0.6306 0.0484,0.1698 0.0242,0.3396 -0.0484,0.5094 -0.1209,0.1212 -0.2661,0.194 -0.4354,0.2183 -0.6774,0.097 -1.3306,0.1212 -2.0079,0.0485 -0.75,-0.0486 -1.4757,-0.1456 -2.20149,-0.2668 C 8.73318,76.7648 7.93486,76.5466 7.18492,76.304 6.99138,76.2555 6.82204,76.1828 6.62851,76.1342 6.3624,76.0372 6.38659,75.7704 6.41078,75.5279 L 6.48336,74.2425 C 6.45917,73.9999 6.09629,73.9999 6.0721,74.2667 Z"
           fill="#5b1a84"
           id="path1189" />
        <path
           d="m 2.58851,50.5952 c -0.19354,0.0727 -0.38707,0.1698 -0.5806,0.2668 -0.14515,0.0727 -0.2903,0.097 -0.43545,0.1697 -0.31449,0.1456 -0.628985,0.3153 -0.919285,0.5094 -0.096767,0.0727 -0.169341,0.1455 -0.241916,0.2425 -0.096767,0.097 -0.241917,0.2183 -0.241917,0.3638 0,0.0485 0,0.097 0.048383,0.1455 0.048384,0.0243 0.072575,0.0485 0.120959,0.0243 0.241916,0 0.483833,-0.0728 0.677366,-0.194 C 1.28216,52.0019 1.52407,51.8321 1.76599,51.6623 1.49988,51.8806 1.13701,52.0261 0.846708,52.2202 0.628983,52.3657 0.43545,52.5355 0.2903,52.778 0.193534,53.0205 0.314492,53.2146 0.5806,53.1418 1.06443,52.9963 1.47569,52.7295 1.79018,52.3172 L 1.1612,52.875 c -0.193533,0.1698 -0.387067,0.2911 -0.459642,0.5336 -0.024191,0.0727 -0.048383,0.1698 -0.024191,0.2425 0.024191,0.097 0.120958,0.1698 0.217725,0.1698 0.072575,0 0.169338,-0.0243 0.217728,-0.0728 0.2903,-0.1455 0.5564,-0.3395 0.79832,-0.582 -0.16934,0.0727 -0.31449,0.2182 -0.43545,0.388 -0.09677,0.1698 -0.02419,0.3881 0.14515,0.4851 0.07258,0.0242 0.16934,0.0242 0.24192,0 0.21772,-0.0728 0.41126,-0.194 0.5806,-0.3396 l 1.95952,-1.5037 c 0,0.2425 0.14515,0.4851 0.38707,0.5821 0.21772,0.097 0.45964,0.1455 0.70156,0.1455 C 5.70923,52.9478 5.92696,52.8993 6.0963,52.8023 6.28983,52.681 6.36241,52.4384 6.26564,52.2444 6.14468,52.0504 5.85438,52.0504 5.61246,52.0261 5.41893,52.0019 5.2254,51.9049 5.08025,51.7593 5.00767,51.6623 4.9351,51.5653 4.91091,51.4683 4.88671,51.3955 4.86252,51.25 4.78995,51.2015 c -0.12096,-0.0242 -0.24192,-0.0242 -0.36288,0 -0.14515,0 -0.26611,-0.0242 -0.38706,-0.0485 C 3.53198,51.056 3.04815,50.8377 2.63689,50.5224"
           fill="#ffffff"
           id="path1191" />
        <path
           d="M 2.49174,50.4254 C 2.00791,50.6437 1.47569,50.8377 1.01605,51.1045 0.628985,51.2743 0.314494,51.5653 0.0725775,51.9049 -0.120956,52.2444 0.0967692,52.5355 0.459644,52.5112 0.967669,52.487 1.47569,52.1474 1.88695,51.8564 L 1.69342,51.5411 c -0.41126,0.3153 -1.886951,0.8246 -1.572459,1.6007 0.314491,0.7761 1.572459,-0.3153 1.838569,-0.6306 0.07257,-0.0728 0.07257,-0.194 0,-0.2668 -0.07258,-0.0727 -0.19354,-0.0727 -0.26611,0 -0.33868,0.2668 -0.65318,0.5578 -0.967668,0.8489 -0.193533,0.194 -0.266108,0.4851 -0.169341,0.7276 C 0.870902,54.4515 1.81438,53.6026 2.08048,53.3358 2.15306,53.2631 2.15306,53.1418 2.05629,53.069 2.00791,53.0205 1.91114,52.9963 1.83857,53.0448 c -0.2903,0.1698 -0.60479,0.4123 -0.55641,0.8004 0.02419,0.2667 0.26611,0.4608 0.53222,0.4365 0.04838,0 0.09676,-0.0242 0.14515,-0.0242 0.45964,-0.1213 0.82251,-0.5094 1.18539,-0.8004 l 1.40311,-1.0914 -0.2903,-0.1698 c 0.0242,0.7519 0.84671,0.9459 1.4515,0.9216 0.2903,0 0.55641,-0.1212 0.72575,-0.3638 C 6.58013,52.5355 6.55594,52.2202 6.36241,52.0504 6.12049,51.8321 5.806,51.9291 5.5157,51.8321 5.29797,51.7593 5.15282,51.5896 5.08025,51.3713 5.05606,51.25 4.98348,51.153 4.88672,51.0802 4.76576,51.0317 4.62061,51.0317 4.49965,51.056 4.28193,51.056 4.08839,51.0317 3.87067,50.959 3.43522,50.862 3.04815,50.6679 2.68528,50.4254 c -0.19354,-0.1455 -0.38707,0.194 -0.19354,0.3395 0.43545,0.3153 0.94348,0.5336 1.47569,0.6306 0.12096,0.0243 0.24192,0.0485 0.33869,0.0485 0.12095,-0.0242 0.21772,-0.0242 0.33868,0 0.07257,0.0485 0.09677,0.1941 0.14515,0.2668 0.04838,0.097 0.09677,0.1698 0.16934,0.2668 0.14515,0.1455 0.33868,0.2426 0.53222,0.2911 0.19353,0.0485 0.72575,-0.0243 0.62898,0.3153 -0.07257,0.2668 -0.60479,0.2182 -0.82252,0.194 -0.31449,-0.0243 -0.67736,-0.1698 -0.67736,-0.5336 0,-0.1213 -0.16934,-0.2668 -0.2903,-0.1698 l -1.57246,1.237 C 2.54013,53.5056 2.29821,53.6754 2.05629,53.8209 1.88695,53.9179 1.54827,53.9664 1.69342,53.6754 1.76599,53.5541 1.88695,53.4571 2.0321,53.4086 L 1.79018,53.1175 c -0.14515,0.1456 -0.31449,0.2911 -0.50802,0.4124 -0.07257,0.0485 -0.14515,0.097 -0.21772,0.1212 -0.241921,0.0485 -0.193538,-0.1455 -0.07258,-0.2668 0.2903,-0.291 0.60479,-0.5821 0.94347,-0.8246 L 1.69342,52.2202 c -0.16934,0.194 -0.36288,0.388 -0.5806,0.5093 -0.145151,0.097 -0.822518,0.4366 -0.556409,0.0242 0.314491,-0.4365 0.919279,-0.6063 1.330539,-0.9216 0.19353,-0.1455 0,-0.4608 -0.19353,-0.3396 -0.2903,0.2426 -0.62898,0.4124 -0.99186,0.5579 -0.024191,0 -0.338683,0.097 -0.338683,0.0485 C 0.387069,52.0504 0.435452,52.0261 0.459644,51.9776 0.556411,51.8564 0.677369,51.7351 0.798327,51.6381 1.08863,51.4198 1.42731,51.25 1.76599,51.1045 2.08048,50.9832 2.37078,50.8377 2.68528,50.7164 2.903,50.6679 2.70947,50.3284 2.49174,50.4254 Z"
           fill="#48146d"
           id="path1193" />
        <g
           opacity="0.05"
           id="g1199">
          <g
             opacity="0.05"
             id="g1197">
            <path
               opacity="0.05"
               d="m 60.1888,79.8936 c 8.0833,0 14.636,-0.8253 14.636,-1.8433 0,-1.018 -6.5527,-1.8433 -14.636,-1.8433 -8.0832,0 -14.6359,0.8253 -14.6359,1.8433 0,1.018 6.5527,1.8433 14.6359,1.8433 z"
               fill="#48146d"
               id="path1195" />
          </g>
        </g>
        <path
           d="m 52.4233,71.5746 c -0.0726,0.4123 -0.1693,0.8003 -0.2661,1.2126 -0.0968,0.4366 -0.3387,0.9217 -0.3629,1.3582 -0.0483,0.8247 1.1854,0.4851 1.6209,0.7277 0.3629,0.194 0.5564,-1.3582 0.629,-1.5765 0.1935,-0.7276 0.387,-1.4552 0.5806,-2.1829 0.0483,-0.1455 -1.3548,-0.485 -1.4999,-0.5093 -0.1936,-0.0242 -0.4113,-0.097 -0.5322,0.0485 -0.121,0.1455 -0.121,0.5821 -0.1452,0.7519 z"
           fill="#ffffff"
           id="path1201" />
        <path
           d="m 52.2056,71.5018 c -0.1452,0.6791 -0.3145,1.334 -0.508,1.9888 -0.121,0.4123 -0.2661,0.9701 0.1693,1.2612 0.3145,0.2183 0.7258,0.194 1.0886,0.2425 0.2661,0.0243 0.6048,0.2426 0.8226,0 0.2177,-0.2425 0.3144,-0.6306 0.387,-0.9459 0.0726,-0.3638 0.1452,-0.7033 0.2178,-1.0671 0.0725,-0.3638 0.1935,-0.7276 0.2903,-1.0914 0.0483,-0.1698 0.0967,-0.3396 0.1451,-0.5336 0.0484,-0.1213 0.0726,-0.2426 0.0484,-0.3638 -0.0968,-0.2668 -0.5806,-0.3396 -0.7983,-0.4123 -0.3387,-0.097 -0.6774,-0.1941 -1.0403,-0.2426 -0.2661,-0.0727 -0.5564,0.0728 -0.6774,0.3396 -0.0725,0.291 -0.1209,0.5578 -0.1451,0.8246 -0.0484,0.3153 0.3871,0.4366 0.4596,0.1455 0.0484,-0.2183 0.0484,-0.4123 0.0726,-0.6063 0,-0.0485 0.0242,-0.194 0.0484,-0.2183 0.0242,-0.0242 0.2177,0 0.2903,0.0243 0.2177,0.0485 0.4354,0.097 0.6774,0.1697 0.1451,0.0485 0.2903,0.097 0.4596,0.1456 0.0968,0.0485 0.1693,0.097 0.2661,0.1212 l -0.0242,-0.0242 c -0.0484,-0.1456 -0.0726,-0.1456 -0.0967,-0.0243 -0.0242,0.0485 -0.0484,0.097 -0.0484,0.1698 -0.0484,0.1455 -0.0968,0.291 -0.121,0.4366 -0.0968,0.3152 -0.1693,0.6306 -0.2419,0.9458 -0.0726,0.3153 -0.1452,0.6306 -0.2177,0.9459 -0.0484,0.2911 -0.121,0.5821 -0.2178,0.8489 -0.0241,0.0243 -0.0725,0.097 -0.0725,0.1213 0,0.0242 0,0 0,0 h 0.0484 c 0.0967,0 0.0483,0 -0.0242,-0.0243 -0.0242,0 -0.0484,-0.0242 -0.0726,-0.0242 -0.0726,-0.0243 -0.1452,-0.0485 -0.2177,-0.0485 -0.2903,-0.0243 -0.6048,-0.0485 -0.8951,-0.0971 -0.4355,-0.1212 -0.1936,-0.6305 -0.0968,-0.9458 0.1935,-0.6306 0.3629,-1.2612 0.4838,-1.8918 0.0484,-0.3396 -0.387,-0.4608 -0.4596,-0.1698 z"
           fill="#48146d"
           id="path1203" />
        <path
           d="m 67.7124,70.8712 c -0.0242,-0.1212 -0.0483,-0.2668 -0.0483,-0.388 -0.2178,0 -2.2257,0.3638 -2.1531,0.6063 0.3387,1.1157 0.3871,2.4254 0.9435,3.4683 0.3145,0.6063 0.4354,0.388 0.9676,0.1697 0.3871,-0.194 0.8467,-0.1455 1.2096,0.1213 -0.3629,-0.2425 -0.3629,-1.5765 -0.4354,-1.9888 -0.121,-0.6548 -0.3629,-1.3339 -0.4839,-1.9888 z"
           fill="#ffffff"
           id="path1205" />
        <path
           d="m 67.9544,70.7985 c -0.0242,-0.1213 -0.0242,-0.2183 -0.0484,-0.3396 0,-0.1213 -0.0968,-0.2425 -0.2419,-0.2425 -0.4113,0.0242 -0.7984,0.097 -1.1854,0.2183 -0.242,0.0485 -0.4597,0.1212 -0.7016,0.194 -0.1693,0.0485 -0.3387,0.1455 -0.4596,0.2668 -0.0484,0.0727 -0.0484,0.1697 -0.0242,0.2425 0.0242,0.2183 0.1209,0.4123 0.1693,0.6306 0.0968,0.4123 0.1694,0.8246 0.2419,1.2369 0.0726,0.4123 0.1936,0.8247 0.3387,1.2127 0.121,0.2911 0.2419,0.6791 0.5322,0.8732 0.2903,0.194 0.4839,0.0485 0.7016,-0.0486 0.1935,-0.097 0.3871,-0.1697 0.5806,-0.194 0.2177,0 0.4596,0.0728 0.629,0.2183 0.2177,0.1455 0.4838,-0.194 0.2903,-0.3638 -0.1694,-0.1213 -0.1936,-0.4123 -0.242,-0.6063 -0.0483,-0.2911 -0.0725,-0.5821 -0.0967,-0.8732 -0.0726,-0.8489 -0.3387,-1.625 -0.4838,-2.4253 -0.0726,-0.2911 -0.5081,-0.1698 -0.4597,0.1212 0.1452,0.8246 0.4355,1.625 0.508,2.4496 0.0242,0.3153 0.0726,0.6306 0.121,0.9459 0.0242,0.2668 0.1451,0.5094 0.3387,0.6791 l 0.2903,-0.3638 c -0.2661,-0.194 -0.5806,-0.291 -0.9193,-0.2668 -0.2903,0.0728 -0.5806,0.1698 -0.8467,0.2911 -0.0726,0.0242 -0.0968,0.0485 -0.121,0.0242 C 66.769,74.6305 66.7206,74.4608 66.6722,74.388 66.5029,74.0484 66.3819,73.6846 66.2851,73.3208 66.0916,72.5932 66.019,71.8656 65.8013,71.138 l -0.0484,-0.1455 c 0,0.0485 -0.0242,0.097 -0.0242,0.1698 0,0 0,0 0.0242,-0.0243 0.0242,-0.0242 0.121,-0.0485 0.1935,-0.0728 0.1936,-0.0727 0.4113,-0.1212 0.6048,-0.1697 0.3871,-0.097 0.75,-0.1698 1.137,-0.2183 l -0.2419,-0.2425 c 0.0242,0.1455 0.0242,0.3152 0.0726,0.4608 0.0242,0.3153 0.4838,0.194 0.4355,-0.097 z"
           fill="#48146d"
           id="path1207" />
        <path
           d="m 63.237,18.8957 c 0.7016,-0.1698 1.4273,0.0242 1.9353,0.5578 0.4839,0.5336 0.8225,1.1642 0.9435,1.8675 0.5564,2.3041 -0.0242,4.8508 0.9677,6.9851 0.5564,1.1884 1.5482,2.1586 1.8869,3.444 0.2903,1.0429 0.0968,2.1586 -0.2661,3.1772 -0.3629,1.0187 -0.8467,1.9646 -1.2096,2.9832 -0.1209,0.2911 -0.1935,0.5821 -0.1935,0.8974 0.0484,0.3881 0.121,0.7519 0.2177,1.1399 0.2661,1.4795 -0.9193,3.0802 -2.4433,3.2258 -0.7742,0.0727 -1.5725,-0.1698 -2.3224,-0.4124 -2.0321,-0.6063 -4.2094,-1.0671 -6.2657,-0.582 -0.3387,0.0727 -0.7257,0.1697 -0.9918,-0.0485 -0.1452,-0.1698 -0.2903,-0.3396 -0.3871,-0.5336 -0.3629,-0.4851 -1.137,-0.5579 -1.5241,-1.0429 -0.3145,-0.3638 -0.3387,-0.8974 -0.3387,-1.3825 l -0.0241,-2.6921 c -0.0242,-2.0373 -0.0242,-4.0989 0.2177,-6.112 0.1451,-1.1641 0.387,-2.3526 1.0402,-3.347 0.7983,-1.2126 2.1773,-2.11 2.4192,-3.5167 0.0968,-0.5821 0,-1.1885 0.0242,-1.7705 0.0242,-1.2127 0.5322,-2.3526 1.4031,-3.1773 0.3387,-0.3638 0.6774,-0.7033 1.0644,-1.0429 0.5081,-0.388 1.3064,-0.3395 1.9112,-0.2668 0.4838,0.0243 0.9434,0.1456 1.3789,0.3881 0.3871,0.2668 0.6774,0.7761 0.508,1.2369"
           fill="#48146d"
           id="path1209" />
        <path
           d="m 64.1079,29.737 c -0.1935,-0.3395 -0.5564,-0.5335 -0.7983,-0.8488 -0.2419,-0.3153 -0.3387,-0.7276 -0.5081,-1.0914 -0.1451,-0.2911 -0.3145,-0.5579 -0.4354,-0.8732 -0.121,-0.3153 -0.1452,-0.4608 -0.4838,-0.5093 -0.242,-0.0485 -0.5081,-0.0485 -0.75,-0.0243 -0.7015,0.1213 -0.4596,1.3097 -0.4838,1.7948 0,0.0728 0,0.1698 -0.0484,0.2426 -0.0484,0.0727 -0.0968,0.1212 -0.1451,0.1697 -0.2903,0.2426 -0.6048,0.4608 -0.9193,0.6549 -0.3629,0.2183 -0.3629,0.388 -0.4355,0.8003 -0.1693,0.6791 -0.1693,1.3583 -0.0242,2.0374 0.0726,0.4123 0.2661,0.7761 0.5564,1.0914 0.4355,0.3395 0.9919,0.4608 1.5241,0.3153 0.5322,-0.1456 0.9919,-0.4123 1.4031,-0.7762 0.6532,-0.5578 1.2096,-1.1884 1.6692,-1.916 0.121,-0.194 0.2178,-0.388 0.2662,-0.6306 0.1935,-1.0186 -0.7258,-0.7761 -1.1129,-1.4795 l -0.9676,-1.8432 c -0.0242,-0.0728 -0.0726,-0.1456 -0.121,-0.2183"
           fill="#ffffff"
           id="path1211" />
        <path
           d="m 64.3498,29.5915 c -0.2419,-0.388 -0.6532,-0.6063 -0.8951,-0.9701 -0.2661,-0.4123 -0.3871,-0.9217 -0.629,-1.3582 -0.1693,-0.2911 -0.2419,-0.7761 -0.5322,-0.9702 -0.2903,-0.194 -0.8467,-0.2183 -1.2096,-0.1698 -0.7015,0.0971 -0.7983,0.8247 -0.7983,1.4068 0,0.2425 0.121,0.6306 -0.0484,0.8246 -0.3145,0.3638 -0.7983,0.5093 -1.137,0.8246 -0.2661,0.2425 -0.2903,0.6306 -0.3629,0.9701 -0.0967,0.5336 -0.1209,1.0672 -0.0725,1.6008 0.1209,0.8974 0.508,1.7948 1.4515,2.0373 0.9434,0.2425 1.7901,-0.2183 2.4917,-0.8004 0.7499,-0.6063 1.3789,-1.3339 1.8628,-2.1586 0.2419,-0.3638 0.3145,-0.8246 0.2177,-1.2611 -0.121,-0.2668 -0.3387,-0.5094 -0.6048,-0.6306 -0.121,-0.0728 -0.2419,-0.1456 -0.3629,-0.2426 -0.1693,-0.194 -0.2903,-0.4123 -0.387,-0.6548 -0.242,-0.5579 -0.5323,-1.0914 -0.8709,-1.6008 -0.2178,-0.291 -0.7258,0 -0.5081,0.2911 0.2178,0.3638 0.4355,0.7519 0.6048,1.1399 0.1694,0.4123 0.3871,0.8004 0.629,1.1399 0.1452,0.1698 0.3145,0.2911 0.508,0.3881 0.1694,0.097 0.3871,0.1698 0.4355,0.388 0.0726,0.3638 -0.1936,0.7277 -0.3629,0.9944 -0.2419,0.3396 -0.4838,0.6791 -0.7741,0.9702 -0.5322,0.5821 -1.2096,1.2369 -2.0079,1.4067 -0.3629,0.097 -0.75,0.0485 -1.0887,-0.1455 -0.3386,-0.2426 -0.5806,-0.6306 -0.629,-1.0672 -0.0967,-0.4123 -0.1209,-0.8489 -0.0725,-1.2854 0.0242,-0.2426 0.0725,-0.4608 0.1209,-0.6791 0,-0.1456 0.0484,-0.2668 0.121,-0.4123 0.1209,-0.1213 0.2661,-0.2183 0.4354,-0.2911 0.121,-0.097 0.2662,-0.194 0.3871,-0.291 0.3145,-0.2426 0.5806,-0.4366 0.6048,-0.8732 0.0242,-0.4365 -0.1693,-0.9944 0.0726,-1.3582 0.0725,-0.1212 0.1693,-0.1455 0.3145,-0.1455 0.2177,-0.0242 0.4354,-0.0242 0.6531,0.0485 0.121,0.0728 0.1452,0.2426 0.1936,0.3638 0.0726,0.1941 0.1693,0.3638 0.2661,0.5579 0.2177,0.4123 0.3387,0.9216 0.6048,1.3097 0.2419,0.3638 0.6532,0.5578 0.8709,0.9216 0.0967,0.1455 0.2661,0.1698 0.4112,0.097 0.121,-0.0728 0.1694,-0.2425 0.0968,-0.388 z"
           fill="#48146d"
           id="path1213" />
        <path
           d="m 71.2444,39.7053 c 0.0484,-0.1455 0.121,-0.2668 0.1694,-0.3881 0.3387,-0.6791 0.6048,-1.4309 0.7257,-2.1828 0.0242,-0.2183 0.0242,-0.4366 0,-0.6306 -0.0967,-0.6306 -0.5322,-1.1642 -0.9435,-1.6735 -0.6289,-0.7761 -1.2579,-1.5522 -1.9353,-2.3041 -0.2419,-0.2668 -0.508,-0.4851 -0.7257,-0.7761 -0.2903,-0.3881 -0.6048,-0.7519 -0.9193,-1.1157 -0.4113,-0.5093 -0.9435,-0.9459 -1.5241,-1.2369 -0.5322,-0.2668 -1.0886,-0.4366 -1.6692,-0.5336 -0.2177,-0.0485 -0.4355,-0.0485 -0.6532,-0.0728 -0.1209,-0.0242 -0.5322,-0.194 -0.6048,-0.1697 -0.1451,0.0727 0.0968,1.1399 0.0242,1.4309 -0.2177,0.9702 -1.3305,1.4553 -1.7418,2.3284 -0.1693,-0.1698 -0.3629,-0.2911 -0.5806,-0.3881 -0.5564,-0.388 -0.9677,-0.9459 -1.137,-1.625 -0.1935,-0.6063 -0.0242,-0.8973 0.2903,-1.4067 0.3145,-0.5093 0.1452,-0.4365 -0.3871,-0.3395 -0.7983,0.1455 -1.5482,0.4123 -2.2498,0.7761 -0.9193,0.5093 -1.6692,1.1642 -2.4433,1.8675 -1.2096,1.0672 -2.1047,2.4496 -3.3143,3.5168 -0.508,0.4608 -1.0402,0.9459 -1.3064,1.6007 -0.2177,0.5821 -0.1935,1.237 0.0968,1.7948 0.3629,0.6791 0.7258,1.3582 1.137,2.0373 0.2177,0.3396 0.4113,0.6791 0.629,0.9944 0.1693,0.2425 0.3387,0.6791 0.6532,0.7034 0.1451,0 0.2903,-0.0243 0.4354,-0.0728 0.2903,-0.0728 0.5564,-0.194 0.8225,-0.3153 0.1452,-0.0728 0.2662,-0.1455 0.3871,-0.2425 0.1452,-0.097 0.2661,-0.1455 0.2177,-0.3153 -0.2419,-0.6549 -0.5322,-1.3097 -0.8709,-1.9161 -0.2419,-0.4608 -0.8467,-1.1641 -0.6289,-1.6492 0.2177,-0.4851 0.9192,-0.7519 1.2821,-1.1157 0.7983,-0.7518 1.4515,-1.4794 2.395,-2.0615 -0.5806,0.7761 -0.6774,1.8432 -0.2419,2.7164 0.2903,0.5821 0.5564,0.8731 0.508,1.5522 -0.0726,0.7276 -0.1452,1.4552 -0.2177,2.1828 -0.1694,1.7948 -0.6532,3.7593 -0.2419,5.5299 0.0241,0.1455 0.0725,0.2667 0.1693,0.388 0.121,0.097 0.2419,0.1455 0.3871,0.1455 1.5724,0.2911 3.1933,0.4124 4.7899,0.3396 0.8467,-0.0243 1.6934,-0.097 2.4434,-0.4851 0.4112,-0.2183 0.7741,-0.5093 1.2096,-0.6791 0.6047,-0.2425 0.508,-0.3395 0.3628,-0.9216 -0.1935,-0.7276 -0.0967,-1.5765 -0.0967,-2.3526 -0.0242,-1.722 -0.0484,-3.444 -0.0726,-5.1903 0,-0.2668 0.3871,-0.7519 0.4354,-1.0914 0.0968,-0.8246 0.121,-1.6008 -0.4354,-2.2799 0.4596,0.5579 1.016,0.9702 1.4515,1.5765 0.4112,0.5821 0.8951,1.0914 1.4273,1.5038 0.1451,0.097 0.2661,0.2182 0.3629,0.3395 0.1693,0.2668 0.0967,0.6306 0.0242,0.9459 l -0.5565,2.3526 c 0.0242,-0.0485 0.7742,-0.1213 0.871,-0.1213 0.1935,0 0.387,0.0728 0.5805,0.0728 0.5323,0.0242 0.7016,-0.1455 0.9435,-0.5821 0.121,-0.097 0.1936,-0.2668 0.2661,-0.4608 z"
           fill="#ffffff"
           id="path1215" />
        <path
           d="m 71.438,39.8266 c 0.3144,-0.7519 0.7015,-1.5038 0.8467,-2.3041 0.1693,-0.7276 0.0483,-1.4795 -0.3629,-2.1101 -0.4597,-0.6306 -0.9435,-1.2369 -1.4515,-1.819 -0.2661,-0.3153 -0.5322,-0.6549 -0.8225,-0.9702 -0.2903,-0.3153 -0.6048,-0.6306 -0.8951,-0.9701 -0.508,-0.6064 -0.9677,-1.2612 -1.5483,-1.7948 -0.5322,-0.4366 -1.137,-0.7761 -1.7902,-0.9944 -0.3628,-0.1213 -0.7499,-0.2183 -1.137,-0.2668 -0.1935,0 -0.387,-0.0485 -0.5806,-0.0727 -0.1209,-0.0243 -0.2419,-0.097 -0.3628,-0.1213 -0.5081,-0.1455 -0.5323,0.3153 -0.4839,0.7034 0.0484,0.2425 0.0726,0.5093 0.0726,0.7518 -0.0484,0.3153 -0.1693,0.5821 -0.3871,0.8004 -0.4354,0.5336 -1.016,0.9459 -1.3547,1.5765 l 0.3629,-0.0485 c -0.1936,-0.1698 -0.4113,-0.3153 -0.629,-0.4366 -0.2661,-0.1698 -0.508,-0.4123 -0.6774,-0.7034 -0.2903,-0.4608 -0.5564,-1.0914 -0.3145,-1.6007 0.121,-0.2668 0.6532,-0.7761 0.3387,-1.0672 -0.1209,-0.097 -0.2903,-0.1212 -0.4354,-0.0727 -0.2903,0.0485 -0.5564,0.097 -0.8225,0.1698 -2.5886,0.6548 -4.4997,2.6436 -6.1689,4.6081 -0.4113,0.5094 -0.8709,0.9702 -1.3547,1.4068 -0.4597,0.388 -0.8709,0.8246 -1.2096,1.3339 -0.2903,0.4851 -0.4355,1.0672 -0.3387,1.6493 0.0968,0.6548 0.4596,1.2126 0.7499,1.7705 0.3387,0.6306 0.7258,1.2612 1.1128,1.8432 0.2178,0.3396 0.4355,0.8974 0.8709,1.0187 0.2903,0.0243 0.5806,-0.0243 0.8709,-0.1455 0.2903,-0.097 0.5806,-0.2426 0.8709,-0.3881 0.1694,-0.097 0.4113,-0.2183 0.4597,-0.4123 0.0968,-0.2425 -0.121,-0.6063 -0.2177,-0.8246 -0.242,-0.6306 -0.5564,-1.2127 -0.8951,-1.7948 -0.1936,-0.2425 -0.3145,-0.5093 -0.4113,-0.8004 -0.0484,-0.2667 0.1935,-0.485 0.3871,-0.6305 0.2419,-0.1941 0.4838,-0.3396 0.7257,-0.5094 0.2661,-0.2183 0.5081,-0.485 0.75,-0.7276 0.5322,-0.5336 1.1128,-1.0186 1.7418,-1.4309 L 56.6327,34.127 c -0.629,0.8731 -0.7258,2.0373 -0.2419,2.9832 0.2661,0.485 0.4838,0.8731 0.4354,1.4552 -0.0484,0.6548 -0.1209,1.3097 -0.1935,1.9645 -0.121,1.2612 -0.3629,2.4981 -0.4113,3.7836 -0.0242,0.6063 0.0242,1.1884 0.121,1.7705 0.0242,0.2183 0.0967,0.4366 0.2177,0.6306 0.1693,0.1698 0.4113,0.291 0.6774,0.291 1.3063,0.2183 2.6127,0.3396 3.919,0.3396 1.1854,0 2.4434,-0.0243 3.532,-0.6064 0.2661,-0.1455 0.508,-0.3153 0.7741,-0.4608 0.2178,-0.097 0.4355,-0.194 0.629,-0.3153 0.2903,-0.194 0.2661,-0.485 0.1935,-0.8003 -0.1451,-0.5821 -0.1935,-1.1642 -0.1451,-1.7706 0.0242,-0.6548 0,-1.3097 0,-1.9645 0,-0.7519 -0.0242,-1.528 -0.0242,-2.2798 0,-0.3881 0,-0.7519 -0.0242,-1.14 -0.0484,-0.291 0,-0.6063 0.121,-0.8731 0.1451,-0.2183 0.2419,-0.4608 0.2903,-0.7034 0.0483,-0.291 0.0725,-0.582 0.0484,-0.8731 0,-0.5821 -0.1936,-1.1642 -0.5565,-1.625 l -0.3386,0.3396 c 0.387,0.485 0.8709,0.8731 1.2579,1.3339 0.3871,0.5094 0.8225,0.9944 1.258,1.4552 0.2419,0.1698 0.4596,0.3638 0.6532,0.5579 0.2177,0.2668 0.0725,0.6791 0,0.9701 l -0.5081,2.1586 c -0.0483,0.2183 0.2178,0.4123 0.3871,0.2183 -0.0726,0.0727 -0.0242,0.0242 0.0242,0.0242 0.0726,0 0.121,-0.0242 0.1935,-0.0242 0.121,0 0.2419,-0.0243 0.3387,-0.0243 0.2903,-0.0242 0.6048,0.0728 0.8951,0.0728 0.7983,-0.0243 1.0161,-0.6064 1.2822,-1.1884 0.1209,-0.2668 -0.2903,-0.5094 -0.3871,-0.2426 -0.0968,0.2668 -0.2419,0.7276 -0.508,0.8974 -0.2661,0.1698 -0.6532,0.0485 -0.9435,0.0243 -0.2177,0 -0.4113,0 -0.629,0.0242 -0.1451,0.0243 -0.4112,0.0243 -0.508,0.1455 l 0.3871,0.2183 c 0.1935,-0.7761 0.3628,-1.5522 0.5564,-2.3526 0.0967,-0.291 0.0967,-0.5821 0.0483,-0.8731 -0.0967,-0.2668 -0.2903,-0.4851 -0.5322,-0.6306 -0.5564,-0.4608 -1.0402,-0.9702 -1.4515,-1.5522 -0.4354,-0.5336 -0.9676,-0.9702 -1.4031,-1.5038 -0.1935,-0.2425 -0.508,0.097 -0.3387,0.3396 0.3145,0.4365 0.4597,0.9459 0.4113,1.4795 0,0.2425 -0.0242,0.4608 -0.0726,0.7033 -0.0726,0.194 -0.1693,0.4123 -0.2903,0.5821 -0.2177,0.4366 -0.1209,0.9701 -0.0968,1.4552 0,0.6306 0.0242,1.2369 0.0242,1.8675 0.0242,1.1885 0,2.4012 0,3.5896 0.0242,0.4851 0.0726,0.9459 0.1936,1.4067 0.0242,0.1213 0.0484,0.1698 -0.0242,0.2425 -0.2177,0.1213 -0.4355,0.2426 -0.6774,0.3396 -0.4596,0.291 -0.9435,0.5336 -1.4515,0.7276 -0.5322,0.1455 -1.0886,0.2183 -1.645,0.2183 -1.2096,0.0485 -2.4192,0 -3.6288,-0.1698 -0.3145,-0.0485 -0.6289,-0.097 -0.9192,-0.1455 -0.121,-0.0243 -0.242,-0.0485 -0.3629,-0.0728 -0.1936,-0.0485 -0.2419,-0.1698 -0.2903,-0.3395 -0.121,-0.5579 -0.1694,-1.1157 -0.1452,-1.6978 0.0242,-1.1157 0.2178,-2.2313 0.3387,-3.347 0.0726,-0.6548 0.1452,-1.3339 0.1936,-1.9888 0.0483,-0.5578 0.1451,-1.0672 -0.0968,-1.6007 -0.2419,-0.5336 -0.5564,-0.9217 -0.6048,-1.5038 -0.0484,-0.6063 0.1209,-1.1884 0.4838,-1.6735 0.1452,-0.194 -0.1209,-0.4365 -0.3145,-0.3153 -0.4838,0.3153 -0.9434,0.6791 -1.3789,1.0672 -0.4113,0.3881 -0.7983,0.8489 -1.258,1.1884 -0.3628,0.2668 -0.7741,0.4851 -1.0402,0.8732 -0.2661,0.388 -0.1693,0.7518 0.0242,1.1156 0.2177,0.4366 0.508,0.8489 0.7257,1.2855 0.1452,0.291 0.2903,0.5821 0.4113,0.8731 0.0484,0.1455 0.121,0.291 0.1693,0.4366 0.0726,0.194 0.0242,0.1455 -0.1209,0.2668 -0.2661,0.1455 -0.5322,0.291 -0.8225,0.3638 -0.2903,0.097 -0.6048,0.2668 -0.8225,-0.0243 -0.1452,-0.1698 -0.242,-0.388 -0.3629,-0.5821 -0.1936,-0.2668 -0.3629,-0.5578 -0.5322,-0.8489 -0.3387,-0.5578 -0.6774,-1.1399 -0.9677,-1.722 -0.2903,-0.582 -0.4596,-1.1156 -0.2903,-1.7462 0.1935,-0.5579 0.5564,-1.0429 0.9919,-1.431 0.4354,-0.4123 0.8467,-0.8004 1.2579,-1.2369 0.7983,-0.8974 1.5241,-1.819 2.4192,-2.6194 0.9435,-0.8246 1.8869,-1.6493 3.0481,-2.0858 0.3387,-0.1213 0.6774,-0.2426 1.0403,-0.3153 0.1693,-0.0485 0.3145,-0.0728 0.4596,-0.097 0.0968,0 0.2177,-0.0243 0.3145,-0.0485 0.0484,-0.0486 -0.0484,-0.1698 -0.0968,-0.1698 -0.0242,0.0485 -0.0483,0.097 -0.0725,0.1455 -0.0726,0.1455 -0.1694,0.2668 -0.242,0.4123 -0.1209,0.2183 -0.1935,0.4366 -0.2177,0.6791 0.0242,0.5578 0.2177,1.1157 0.5564,1.5765 0.1452,0.2183 0.3387,0.4123 0.5322,0.5821 0.242,0.194 0.5565,0.291 0.7742,0.5093 0.0967,0.097 0.2419,0.0728 0.3387,-0.0242 l 0.0242,-0.0243 c 0.4596,-0.8974 1.7176,-1.4552 1.7901,-2.5224 0,-0.194 0,-0.388 -0.0483,-0.5821 l -0.0242,-0.3395 c 0,-0.097 0,-0.2183 0,-0.3153 0.0241,-0.0485 -0.0242,-0.0243 -0.1452,0.1213 0.0484,0.0242 0.0968,0.0242 0.1452,0.0485 0.0967,0.0242 0.1693,0.0727 0.2661,0.097 0.3386,0.097 0.7257,0.0727 1.0644,0.1698 0.7016,0.1455 1.3789,0.4365 1.9595,0.8488 0.5322,0.4366 0.9919,0.9217 1.3789,1.4795 0.4597,0.5821 0.9677,1.0914 1.4515,1.6735 0.5323,0.6063 1.0403,1.2369 1.5483,1.8675 0.508,0.6306 0.9919,1.2855 0.8467,2.1829 -0.1209,0.8488 -0.508,1.625 -0.8467,2.4253 -0.0726,0.2426 0.3145,0.4851 0.4355,0.1941 z"
           fill="#48146d"
           id="path1217" />
        <path
           d="m 56.4633,46.6903 c -0.6532,1.7463 -1.2338,3.4926 -1.6934,5.3116 -1.5967,6.0634 -2.0805,12.3451 -2.5643,18.6025 1.1612,0.2183 2.0079,0.4608 3.1449,0.7761 0.508,-4.1473 1.3789,-8.2462 2.6369,-12.2481 0.8709,-2.7649 1.766,-5.5055 2.7336,-8.2462 0.2903,-0.291 0.7984,-0.2183 1.1129,0.0485 0.3144,0.2668 0.1935,0.3881 0.3386,0.7519 0.3387,0.9459 0.5564,1.9403 0.6774,2.9347 0.8467,6.4999 1.1854,10.6716 2.4676,16.3954 0.7741,-0.1698 1.524,-0.3638 2.2982,-0.5578 0.1693,-0.0243 0.3144,-0.097 0.4354,-0.194 0.2419,-0.2426 0,-0.6064 0.0242,-0.9459 0.1451,-8.1735 -0.121,-10.7201 -0.7258,-18.263 -0.1209,-1.5765 0.0726,-3.3713 -0.6289,-4.778 -0.0484,-0.1455 -0.1694,-0.2668 -0.3145,-0.3395 -0.1452,-0.0485 -0.2903,-0.0243 -0.4355,0.0242 -3.0965,0.7519 -6.2656,0.9702 -9.4347,0.6791"
           fill="#ffffff"
           id="path1219" />
        <path
           d="m 56.2456,46.6176 c -2.274,5.9664 -3.2417,12.2723 -3.8223,18.6025 -0.1693,1.7948 -0.2903,3.5653 -0.4354,5.3601 0,0.097 0.0725,0.194 0.1693,0.2183 1.0644,0.194 2.1047,0.485 3.1449,0.7761 0.121,0.0242 0.2661,-0.0485 0.2903,-0.1941 0,-0.0242 0,-0.0242 0,-0.0485 0.3629,-2.9832 0.9193,-5.9421 1.6693,-8.8525 0.7499,-2.9347 1.7176,-5.7967 2.6852,-8.6586 0.2419,-0.7276 0.5081,-1.4552 0.75,-2.2071 0.0967,-0.3153 0.1451,-0.7518 0.5322,-0.7518 0.2661,0 0.5322,0.1697 0.629,0.4365 0.3628,1.0914 0.629,2.1829 0.7983,3.3228 0.3629,2.6921 0.6532,5.36 1.016,8.0522 0.3629,2.7892 0.8468,5.5783 1.4515,8.3432 0.0484,0.1213 0.1694,0.1941 0.2903,0.1698 0.7258,-0.1698 1.4515,-0.3395 2.1773,-0.5336 0.2661,-0.0242 0.5322,-0.1697 0.7016,-0.3638 0.1209,-0.2183 0.1451,-0.485 0.0725,-0.7276 -0.1209,-0.7033 -0.0242,-1.4795 -0.0242,-2.2071 0,-0.6548 0,-1.2854 0,-1.9403 0,-2.11 -0.0483,-4.2201 -0.1693,-6.3302 -0.121,-2.1585 -0.2903,-4.3414 -0.4838,-6.4999 -0.0484,-0.6549 -0.121,-1.334 -0.1452,-1.9888 -0.0242,-0.6549 -0.0242,-1.3097 -0.0726,-1.9403 -0.0242,-0.6306 -0.1209,-1.237 -0.2903,-1.8433 -0.1451,-0.4366 -0.3386,-1.1157 -0.8709,-1.1884 -0.3628,-0.0485 -0.7499,0.1212 -1.0886,0.194 -0.3871,0.097 -0.7983,0.1698 -1.1854,0.2425 -0.8467,0.1456 -1.6692,0.2426 -2.5159,0.3153 -1.645,0.1213 -3.3143,0.1213 -4.9835,-0.0485 -0.2903,-0.0242 -0.2903,0.4366 0,0.4608 2.7579,0.2668 5.5399,0.1456 8.2494,-0.388 0.3386,-0.0728 0.6773,-0.1455 1.016,-0.2183 0.1452,-0.0485 0.2903,-0.0728 0.4355,-0.097 0.1935,0.0242 0.2419,0.2183 0.3145,0.3638 0.2419,0.5821 0.387,1.1884 0.4354,1.819 0.121,1.237 0.0968,2.4981 0.2177,3.7351 0.3145,4.0261 0.6532,8.0522 0.6774,12.1025 0,1.334 0,2.6679 -0.0242,4.0019 0,0.3881 -0.0242,0.7761 -0.0242,1.1642 0,0.1455 0.0242,0.291 0.0484,0.4365 0.0484,0.2911 0.0242,0.3881 -0.2903,0.4851 -0.7741,0.2183 -1.5483,0.3881 -2.3224,0.5821 l 0.2903,0.1698 c -1.2096,-5.3843 -1.7418,-10.8657 -2.4676,-16.3227 -0.1693,-1.1642 -0.4354,-2.3284 -0.8225,-3.444 -0.1935,-0.4609 -0.6531,-0.7519 -1.137,-0.7277 -0.2419,0 -0.4838,0.1213 -0.629,0.2911 -0.0725,0.1698 -0.1451,0.3395 -0.1693,0.5093 l -0.2419,0.6791 c -1.0403,3.0075 -2.0805,6.0392 -2.9272,9.1194 -0.9435,3.3712 -1.6209,6.8395 -2.0563,10.3078 L 55.3989,71.138 C 54.3587,70.847 53.3184,70.5559 52.254,70.3619 l 0.1693,0.2183 c 0.4839,-6.306 0.9677,-12.6362 2.6127,-18.7723 0.4597,-1.7221 1.0161,-3.4198 1.6451,-5.0691 0.0967,-0.2667 -0.3387,-0.388 -0.4355,-0.1212 z"
           fill="#48146d"
           id="path1221" />
        <path
           d="m 54.6731,76.8376 c 0.0242,-0.5578 -0.0726,-1.1157 -0.2661,-1.625 -0.1693,-0.3638 -0.508,-0.7761 -0.4112,-1.2369 -0.0242,0.2183 -0.121,0.4365 -0.2903,0.6063 -0.2661,0.2183 -0.6774,0.1455 -1.0161,0.0485 -0.5564,-0.1698 -0.7499,-0.5821 -1.3547,-0.4123 -0.5806,0.194 -1.137,0.4123 -1.6692,0.7034 -0.629,0.291 -1.2822,0.5093 -1.9596,0.6791 -0.2419,0.0242 -0.4596,0.1455 -0.6289,0.291 -0.0726,0.097 -0.121,0.194 -0.1452,0.3153 -0.0726,0.2668 -0.0726,0.5336 0,0.8004 0.3145,0.8974 1.3547,0.4123 2.0321,0.4365 1.258,0.0243 2.5401,0.1456 3.7739,0.3638 0.3387,0.0728 0.6532,0.0971 0.9919,0.0728 0.3386,-0.0242 0.6531,-0.2183 0.7983,-0.5336 0.1209,-0.1455 0.1451,-0.3153 0.1451,-0.5093 z"
           fill="#ffffff"
           id="path1223" />
        <path
           d="m 54.915,76.8376 c 0.0242,-0.5093 -0.0483,-1.0186 -0.1935,-1.5037 -0.1451,-0.4123 -0.5564,-0.8489 -0.4838,-1.3097 0.0484,-0.2911 -0.3871,-0.4123 -0.4597,-0.1213 -0.0967,0.3638 -0.2177,0.6306 -0.6289,0.5821 -0.3145,-0.0485 -0.6048,-0.1455 -0.8709,-0.3153 -0.5323,-0.291 -0.9677,-0.2183 -1.4999,0 -0.6774,0.2668 -1.2822,0.6064 -1.9595,0.8489 -0.3145,0.1213 -0.629,0.2183 -0.9435,0.291 -0.2903,0.0485 -0.5564,0.1456 -0.8225,0.2911 -0.4355,0.3395 -0.508,1.0914 -0.2903,1.5765 0.1693,0.388 0.5564,0.6306 0.9676,0.6063 0.4355,0.0243 0.8709,-0.1213 1.3306,-0.1213 0.7741,0 1.5482,0.0728 2.3224,0.1456 0.4596,0.0485 0.8951,0.1212 1.3547,0.194 0.3629,0.097 0.7499,0.1213 1.1128,0.0728 0.6774,-0.0486 1.0403,-0.5336 1.0644,-1.237 0.0242,-0.291 -0.4596,-0.291 -0.4596,0 0.0242,0.2911 -0.121,0.5821 -0.3871,0.7276 -0.3145,0.1213 -0.6773,0.1456 -0.9918,0.0728 -0.6532,-0.097 -1.2822,-0.194 -1.9353,-0.2668 -0.6532,-0.0728 -1.3548,-0.1213 -2.0079,-0.1213 -0.3871,0 -0.7742,0.097 -1.1854,0.097 -0.4839,0.0243 -0.8226,-0.194 -0.7984,-0.7033 -0.0483,-0.3153 0.121,-0.6064 0.4113,-0.7276 0.2903,-0.1213 0.6048,-0.1698 0.8951,-0.2426 0.5564,-0.1697 1.0886,-0.388 1.6208,-0.6306 0.2903,-0.1212 0.5806,-0.2667 0.8709,-0.388 0.2661,-0.1455 0.5564,-0.194 0.8467,-0.1698 0.2419,0.097 0.4597,0.194 0.6774,0.3396 0.2419,0.1212 0.508,0.1697 0.7741,0.194 0.6048,0.0242 0.9193,-0.3881 1.0403,-0.9216 l -0.4597,-0.1213 c -0.0726,0.4851 0.1452,0.8489 0.3629,1.2612 0.2419,0.5336 0.3387,1.0914 0.2903,1.6735 0.0484,0.1212 0.1693,0.194 0.3145,0.1455 0.0484,-0.0728 0.0968,-0.1213 0.1209,-0.2183 z"
           fill="#48146d"
           id="path1225" />
        <path
           d="m 69.7929,74.776 c -0.7015,-0.4123 -1.0644,-0.6306 -1.8869,-0.582 -0.4113,0.0242 -1.2822,-0.0243 -1.5241,0.388 -0.2419,0.4123 0.0242,1.722 0.0968,2.2071 0,0.1455 0.0484,0.291 0.1209,0.4366 0.2178,0.388 0.7742,0.3638 1.2338,0.3153 1.3064,-0.1456 2.6127,-0.1941 3.9191,-0.1213 0.508,0.0242 1.1128,0.0242 1.4756,-0.3396 0.2903,-0.3395 0.2903,-0.8246 0,-1.1641 -0.4354,-0.4851 -1.2095,-0.3396 -1.8385,-0.4366 -0.5806,-0.1455 -1.137,-0.3638 -1.5967,-0.7034 z"
           fill="#ffffff"
           id="path1227" />
        <path
           d="m 69.8897,74.582 c -0.5806,-0.3396 -1.1128,-0.6306 -1.7902,-0.6306 -0.508,0 -1.1128,-0.0243 -1.5724,0.2183 -0.4597,0.2425 -0.5081,0.7276 -0.4839,1.2127 0.0484,0.5093 0.0968,1.0429 0.1936,1.5522 0.0967,0.6549 0.6047,0.8974 1.2337,0.8974 0.3871,0 0.7742,-0.0728 1.1612,-0.097 0.4839,-0.0243 0.9677,-0.0485 1.4273,-0.0728 0.4355,0 0.8709,0 1.3064,0 0.387,0.0243 0.7499,0.0243 1.137,0 0.6048,-0.0727 1.137,-0.4851 1.137,-1.1399 0,-0.7519 -0.6532,-1.1157 -1.3306,-1.1884 -0.4112,0 -0.7983,-0.0485 -1.1853,-0.1213 -0.4355,-0.194 -0.8467,-0.3881 -1.2338,-0.6306 -0.1452,-0.0485 -0.2661,0.0242 -0.3145,0.1698 -0.0242,0.0727 0,0.1697 0.0484,0.2425 0.508,0.3396 1.0644,0.5821 1.645,0.7276 0.4838,0.0728 1.1128,-0.0485 1.5725,0.2426 0.2419,0.1455 0.3628,0.4365 0.2903,0.7033 -0.0968,0.2911 -0.3387,0.5093 -0.6532,0.5336 -0.6048,0.1213 -1.2822,0 -1.9111,0 -0.7258,0 -1.4757,0.0242 -2.2015,0.097 -0.4112,0.0243 -1.3547,0.2911 -1.6208,-0.1455 -0.0726,-0.194 -0.121,-0.3881 -0.121,-0.6063 -0.0242,-0.2183 -0.0726,-0.4609 -0.0967,-0.6792 -0.0242,-0.291 -0.1694,-0.8973 0.0483,-1.1641 0.242,-0.2911 0.9435,-0.2183 1.2822,-0.2426 0.7015,-0.0242 1.1854,0.2183 1.766,0.5579 0.1209,0.0485 0.2661,0 0.3145,-0.1213 0.0725,-0.1455 0.0484,-0.2425 -0.0484,-0.3153 z"
           fill="#48146d"
           id="path1229" />
        <path
           d="m 59.826,20.6177 c 0.7499,-0.4366 1.9111,-0.097 2.7094,-0.0485 0.3871,0.0242 0.6774,0 0.8951,0.3638 0.2177,0.4123 0.3145,0.8731 0.2661,1.3339 -0.0242,0.2426 -0.0484,0.4851 -0.0484,0.7276 0.0484,-0.1455 0.0484,-0.291 0.2178,-0.388 0.1209,-0.0728 0.2903,-0.0728 0.4112,0 0.2178,0.1455 0.3387,0.3638 0.3145,0.6306 0,0.097 -0.0242,0.2182 -0.0967,0.291 -0.0484,0.1213 -0.0484,0.2668 -0.0968,0.3881 -0.0968,0.2425 -0.2419,0.4608 -0.4355,0.6306 -0.0967,0.0727 -0.2177,0.0727 -0.2419,0.194 -0.0242,0.1213 -0.0484,0.291 -0.1209,0.4366 -0.121,0.2667 -0.2903,0.4608 -0.4113,0.7033 -0.1451,0.2911 -0.3145,0.5578 -0.5322,0.7761 -0.1935,0.2183 -0.3871,0.4123 -0.6048,0.6064 -1.0403,0.7518 -2.1047,-0.097 -2.6127,-1.0187 -0.6048,-1.0914 -0.8467,-2.3768 -0.6532,-3.6138 0.0968,-0.5821 0.3629,-1.4794 0.8467,-1.8918 0.0968,-0.0727 0.1452,-0.097 0.1936,-0.1212 z"
           fill="#ffffff"
           id="path1231" />
        <path
           d="m 59.9469,20.8117 c 0.7742,-0.4123 1.7418,-0.0727 2.5643,-0.0242 0.1936,-0.0243 0.3871,0 0.5565,0.0727 0.1935,0.1455 0.3386,0.3638 0.3628,0.6064 0.121,0.5093 0,0.9944 0,1.5037 0.0242,0.1213 0.1452,0.2183 0.2903,0.194 0.0726,-0.0242 0.1452,-0.0727 0.1694,-0.1455 0.0242,-0.1213 0.0483,-0.2425 0.1935,-0.2425 0.1451,0 0.2419,0.1212 0.2661,0.2425 0.0726,0.2183 -0.0484,0.4123 -0.0726,0.6306 -0.0483,0.2183 -0.1451,0.4365 -0.3145,0.6063 -0.1451,0.1455 -0.3386,0.1941 -0.4112,0.3881 -0.0484,0.2183 -0.121,0.4123 -0.2177,0.6063 -0.121,0.2183 -0.2661,0.4366 -0.3871,0.6791 -0.2419,0.3881 -0.5322,0.7519 -0.8951,1.0429 -0.8225,0.7034 -1.7902,0.0243 -2.274,-0.7518 -0.508,-0.8489 -0.7741,-1.8433 -0.75,-2.862 0,-0.485 0.0726,-0.9458 0.2178,-1.4067 0.1209,-0.388 0.3145,-0.8974 0.7015,-1.1399 0.2419,-0.1698 0.0242,-0.5821 -0.2419,-0.4123 -0.8709,0.5821 -1.137,1.9403 -1.1612,2.9347 -0.0242,1.2127 0.3145,2.5709 1.0886,3.5168 0.3387,0.4608 0.8467,0.7761 1.4032,0.8973 0.5806,0.0728 1.137,-0.1455 1.524,-0.582 0.1936,-0.1941 0.3871,-0.4124 0.5564,-0.6306 0.2178,-0.2668 0.3387,-0.5821 0.5323,-0.8974 0.0967,-0.1213 0.1693,-0.2668 0.2177,-0.4123 0.0242,-0.097 0.0242,-0.2668 0.0725,-0.3396 0.0484,-0.0727 0.2178,-0.1455 0.2903,-0.2183 0.0968,-0.097 0.1936,-0.2182 0.2662,-0.3395 0.1451,-0.2911 0.2661,-0.5821 0.3144,-0.8974 0.0484,-0.2668 -0.0241,-0.5578 -0.2177,-0.7761 -0.1693,-0.2183 -0.4596,-0.3153 -0.7257,-0.2425 -0.2903,0.0727 -0.3871,0.3152 -0.4597,0.5578 l 0.4597,0.0727 c -0.0242,-0.6063 0.1451,-1.1641 -0.0484,-1.7705 -0.1694,-0.5093 -0.4596,-0.8246 -0.9919,-0.8731 -0.5322,-0.0485 -1.0402,-0.097 -1.5724,-0.1455 -0.5322,-0.0728 -1.0645,0 -1.5483,0.2183 -0.2661,0.0727 -0.0242,0.485 0.2419,0.3395 z"
           fill="#48146d"
           id="path1233" />
        <path
           d="m 60.1888,22.8975 c -0.1209,-0.2425 -0.3387,-0.1455 -0.4354,0.0728 -0.0968,0.2183 0.0726,0.6548 0.3629,0.4851 0.1693,-0.097 0.1451,-0.3638 0.0725,-0.5336 z"
           fill="#48146d"
           id="path1235" />
        <path
           d="m 61.979,23.043 c 0,0.0485 0,0.1213 0,0.1698 0,0.097 0.0726,0.194 0.1452,0.2668 0.0725,0.0728 0.1935,0.0485 0.2661,-0.0243 0.0242,-0.0485 0.0242,-0.0727 0.0484,-0.1212 0.0242,-0.097 0.0242,-0.1941 0,-0.2911 -0.0484,-0.194 -0.2903,-0.3153 -0.4113,-0.097 -0.0242,0.0243 -0.0242,0.0728 -0.0484,0.097 z"
           fill="#48146d"
           id="path1237" />
        <path
           d="m 52.9072,42.1549 c 0.1209,0.1698 0.2177,0.0728 0.3386,0.2425 0.3629,0.5579 0.6774,1.1885 1.0161,1.7706 0.1451,0.2425 0.2903,0.485 0.3871,0.7518 0.0483,0.1213 0.1209,0.2668 0.1451,0.3881 0.0484,0.1212 0.0968,0.2425 0.1935,0.3395 -0.2177,0.2426 -0.3145,0.5579 -0.2903,0.8974 0,0.194 -0.1935,0.6306 -0.1451,0.8246 0.0484,0.2911 0.1451,0.6064 0.2661,0.8732 0.0726,0.1697 0.1935,0.3395 0.3145,0.485 0.0968,0.1941 0.2903,0.3153 0.4838,0.3881 0.0242,0 0.0484,0 0.0726,0 0.0242,-0.0243 0.0484,-0.0485 0.0484,-0.0728 0.0242,-0.0727 0.0242,-0.1455 0.0242,-0.2183 0,-0.0727 0,-0.1455 -0.0484,-0.2182 -0.0242,-0.0485 -0.0726,-0.0728 -0.0968,-0.1213 -0.0242,-0.0485 -0.0726,-0.1213 -0.0967,-0.1698 -0.0484,-0.1212 -0.121,-0.2183 -0.1936,-0.3395 -0.0967,-0.2183 -0.1209,-0.4851 -0.2419,-0.7034 0.0968,0.1455 0.1935,0.2911 0.3387,0.4123 0.2419,0.2911 0.508,0.6064 0.8709,0.7034 0.0242,0 0.0242,0 0.0484,0 0.0242,0 0.0242,-0.0243 0.0242,-0.0243 0.0725,-0.097 0.0967,-0.194 0.0725,-0.3153 -0.0967,-0.2425 -0.3145,-0.3395 -0.4596,-0.5336 -0.1452,-0.194 -0.2419,-0.5093 -0.4596,-0.7033 0.1693,0.2425 0.3144,0.5093 0.508,0.7519 l 0.1451,0.1455 c 0.0484,0.0485 0.121,0.0727 0.1694,0.0727 0.0725,0.0243 0.1209,0.0243 0.1935,0.0243 0.0726,0 0.121,-0.0243 0.1693,-0.097 0.0726,-0.097 0.0242,-0.2426 -0.0241,-0.3396 -0.0726,-0.1212 -0.1452,-0.2425 -0.2178,-0.3395 -0.1451,-0.2183 -0.2661,-0.4366 -0.387,-0.6549 0.0242,0.0728 0.0483,0.1456 0.0725,0.2183 0.0242,0.0728 0.0726,0.1455 0.121,0.2183 0.0726,0.1455 0.1935,0.2425 0.3387,0.3153 0.1451,0.0242 0.2661,-0.0728 0.3387,-0.194 0.0967,-0.1698 -0.0726,-0.3881 -0.1694,-0.5336 -0.1209,-0.194 -0.2419,-0.4366 -0.2903,-0.6549 -0.0726,-0.2425 -0.0967,-0.5093 -0.0967,-0.7518 0,0.1212 0.2661,0.1212 0.3386,0.1455 0.1694,0.0485 0.7742,0.2668 0.8467,-0.0243 0,-0.0242 0,-0.0727 0,-0.097 C 57.5036,44.8713 57.4068,44.75 57.2617,44.6773 56.9472,44.459 56.6085,44.265 56.2456,44.1194 56.0763,44.0467 55.9069,43.9739 55.7618,43.8769 55.6166,43.7799 55.4715,43.6586 55.4231,43.4888 55.2537,43.125 55.0844,42.7612 54.9634,42.3732 54.8425,42.0094 54.7215,41.9851 54.7215,41.4273"
           fill="#ffffff"
           id="path1239" />
        <path
           d="m 52.762,42.3247 c 0.0968,0.097 0.1693,0.097 0.2661,0.1698 0.1452,0.1455 0.2419,0.3152 0.3145,0.485 0.1935,0.3153 0.3629,0.6306 0.5322,0.9459 0.1694,0.3153 0.3387,0.5821 0.4838,0.8974 0.121,0.3153 0.2662,0.6306 0.4355,0.9459 l 0.0242,-0.291 c -0.1935,0.2182 -0.3145,0.5093 -0.3387,0.8003 0,0.1455 -0.0242,0.2911 -0.0242,0.4123 -0.0242,0.1456 -0.0726,0.2668 -0.0968,0.4123 -0.0241,0.3153 0.0242,0.6064 0.1452,0.8974 0.0968,0.3153 0.2661,0.6064 0.4838,0.8732 0.1452,0.2425 0.3871,0.388 0.6532,0.4365 0.2903,0 0.3871,-0.2183 0.3871,-0.4608 0.0242,-0.3153 -0.1452,-0.4608 -0.2903,-0.7519 -0.1694,-0.3395 -0.2419,-0.6791 -0.3871,-0.9944 l -0.3871,0.2426 c 0.1936,0.3395 1.1854,1.625 1.6451,1.1399 0.2661,-0.291 0.1209,-0.6548 -0.121,-0.8974 -0.1451,-0.1455 -0.2903,-0.291 -0.4112,-0.4608 -0.0968,-0.194 -0.1936,-0.3638 -0.3387,-0.5093 -0.1694,-0.1941 -0.5081,0.0485 -0.3629,0.291 0.2903,0.4366 0.7016,1.3825 1.4031,1.0672 0.2419,-0.1213 0.3145,-0.4366 0.1936,-0.6549 -0.1694,-0.388 -0.4597,-0.7276 -0.629,-1.0914 -0.0968,-0.097 -0.242,-0.1213 -0.3387,-0.0242 -0.0726,0.0485 -0.0968,0.1212 -0.0968,0.2182 0.1452,0.4609 0.7016,1.334 1.2338,0.7034 0.2419,-0.291 0.0968,-0.5578 -0.0726,-0.8246 -0.2419,-0.4123 -0.387,-0.8732 -0.387,-1.334 l -0.4597,0.0728 c 0.0726,0.2425 0.2903,0.2668 0.508,0.3153 0.2178,0.0727 0.4113,0.1213 0.629,0.1455 0.1936,0.0243 0.3871,-0.097 0.4839,-0.291 0.0967,-0.2668 -0.0968,-0.5336 -0.3145,-0.7034 -0.2903,-0.2183 -0.6048,-0.4123 -0.9435,-0.5578 -0.1936,-0.0728 -0.3871,-0.1456 -0.5564,-0.2426 -0.1936,-0.097 -0.3387,-0.2668 -0.4113,-0.4608 -0.1693,-0.3638 -0.2903,-0.7276 -0.4354,-1.0914 -0.121,-0.2425 -0.1936,-0.5093 -0.1936,-0.7761 -0.0484,-0.1213 -0.1693,-0.194 -0.2903,-0.1698 -0.0725,0.0243 -0.1451,0.097 -0.1693,0.1698 0.0242,0.4123 0.1451,0.8004 0.3145,1.1642 0.1693,0.485 0.3387,1.1399 0.7741,1.4552 0.2419,0.1455 0.508,0.2668 0.7983,0.3638 0.2903,0.1213 0.5565,0.291 0.7984,0.4608 0.0484,0.0485 0.1693,0.097 0.1935,0.1455 0.0242,0.0485 0.0242,0.0243 -0.0484,0.0243 -0.0967,0 -0.1935,-0.0243 -0.2661,-0.0485 -0.0484,-0.0243 -0.121,-0.0485 -0.1935,-0.0485 -0.0726,0 -0.2178,-0.0728 -0.1936,0.0242 -0.0725,-0.2425 -0.4596,-0.2183 -0.4596,0.0485 0,0.4608 0.121,0.8974 0.3145,1.3097 0.0484,0.097 0.1209,0.1941 0.1693,0.2911 0.0242,0.0485 0.2178,0.291 -0.0483,0.2668 -0.121,-0.0243 -0.242,-0.4366 -0.2662,-0.5094 l -0.4354,0.1698 c 0.0968,0.194 0.1935,0.3881 0.3145,0.5821 0.0484,0.097 0.3145,0.3881 0.2661,0.4851 -0.0968,0.1455 -0.3387,-0.2426 -0.3871,-0.3153 -0.1209,-0.1698 -0.2177,-0.3396 -0.3387,-0.5094 l -0.3628,0.2911 c 0.1935,0.194 0.2661,0.4608 0.4354,0.6791 0.0726,0.097 0.5564,0.4366 0.3871,0.5821 l 0.1693,-0.0728 c -0.2177,-0.0242 -0.4596,-0.291 -0.5806,-0.4608 -0.1693,-0.1698 -0.3387,-0.3638 -0.4596,-0.5578 -0.1452,-0.2668 -0.5322,-0.0243 -0.3871,0.2425 0.1452,0.2668 0.1452,0.5578 0.2903,0.8246 0.0484,0.097 0.4355,0.6306 0.3145,0.7276 l 0.1693,-0.0727 c -0.2661,0.0242 -0.4838,-0.4123 -0.6047,-0.6064 -0.1694,-0.291 -0.2662,-0.6306 -0.2903,-0.9459 0.0241,-0.2182 0.0725,-0.4365 0.1209,-0.6548 0.0484,-0.3153 0,-0.5821 0.2177,-0.8489 0.0726,-0.0728 0.0968,-0.194 0.0242,-0.291 -0.1693,-0.2911 -0.3145,-0.6064 -0.4354,-0.9459 -0.1694,-0.3396 -0.3629,-0.6791 -0.5564,-0.9944 -0.1936,-0.3153 -0.3629,-0.6549 -0.5564,-0.9944 -0.0726,-0.1455 -0.1694,-0.2911 -0.2661,-0.4123 -0.0968,-0.0971 -0.242,-0.1213 -0.3145,-0.2183 -0.2661,-0.2183 -0.5806,0.097 -0.3871,0.3153 z"
           fill="#48146d"
           id="path1241" />
        <path
           d="m 68.7769,41.0635 c -0.2178,0.5578 -0.4113,1.1157 -0.6048,1.6735 -0.1694,0.4851 -0.7258,0.8004 -1.1612,0.9944 -0.3629,0.1698 -0.75,0.291 -1.0886,0.4851 -0.1694,0.097 -0.3629,0.2425 -0.3387,0.4365 0,0.0485 0.0242,0.1213 0.0725,0.1456 0.0242,0.0242 0.0726,0.0485 0.121,0.0485 0.2661,0.097 0.5564,0.1212 0.8225,0.0727 0.2661,-0.0242 0.629,-0.097 0.3145,0.2668 -0.2177,0.2668 -0.4112,0.5336 -0.6048,0.8004 -0.1209,0.1698 -0.4112,0.4365 -0.2903,0.6791 0.0242,0.0242 0.0484,0.0485 0.0726,0.0485 0.2177,0.0242 0.4355,-0.0243 0.6048,-0.1455 0.2903,-0.1456 0.508,-0.3638 0.7016,-0.6306 l -0.4355,0.5336 c -0.2419,0.2425 -0.4355,0.5335 -0.5806,0.8488 -0.0726,0.1941 0.0484,0.4366 0.2661,0.4123 0.3145,-0.0485 0.6774,-0.485 0.7741,-0.7761 -0.0483,0.2911 -0.387,0.8004 -0.4838,1.0914 -0.0484,0.0971 -0.0484,0.1698 -0.0484,0.2668 0,0.097 0.0726,0.1698 0.1936,0.1941 0.1451,0 0.6289,-0.8489 0.6289,-0.9944 -0.0483,0.291 -0.1451,0.582 -0.2661,0.8488 -0.0484,0.097 -0.0483,0.1941 -0.0242,0.2911 0.0726,0.097 0.1936,0.097 0.2903,0.0242 0.0968,-0.0727 0.1452,-0.1697 0.1936,-0.2668 0.1935,-0.388 0.3387,-0.8003 0.4838,-1.1884 0.2419,-0.6791 0.4838,-1.4067 0.3629,-2.1343 0,-0.0485 0,-0.097 0,-0.1213 0,-0.0485 0.0242,-0.0727 0.0484,-0.097 0.2661,-0.5093 0.4596,-1.0429 0.7499,-1.528 0.121,-0.2182 0.2661,-0.4123 0.4113,-0.6306 0.3628,-0.582 0.629,-1.2369 0.7983,-1.916"
           fill="#ffffff"
           id="path1243" />
        <path
           d="m 68.5591,40.9907 c -0.1209,0.2911 -0.2177,0.5821 -0.3386,0.8974 -0.0726,0.2911 -0.1936,0.6063 -0.3145,0.8731 -0.2178,0.4124 -0.75,0.6549 -1.1612,0.8247 -0.4113,0.1697 -1.0403,0.3153 -1.3064,0.7276 -0.2661,0.4123 0,0.7276 0.4113,0.8246 0.2419,0.0485 0.4838,0.0728 0.7499,0.0485 0.0726,0 0.1694,0 0.2419,-0.0242 0.121,0.0242 0.0968,-0.0243 -0.0725,-0.1213 l -0.1694,0.194 c -0.1693,0.2183 -0.3387,0.4608 -0.508,0.6791 -0.1451,0.1455 -0.2419,0.3153 -0.3145,0.5093 -0.1451,0.4851 0.3387,0.6549 0.7258,0.5336 0.4354,-0.1698 0.8225,-0.4608 1.0886,-0.8489 0.1451,-0.2182 -0.1936,-0.485 -0.3629,-0.291 -0.2903,0.3638 -0.629,0.7276 -0.8709,1.1157 -0.1693,0.2425 -0.3387,0.5821 -0.121,0.8731 0.4597,0.6791 1.258,-0.3153 1.4274,-0.7276 l -0.4597,-0.1213 c -0.0726,0.3638 -0.3387,0.6791 -0.4596,1.0187 -0.121,0.291 -0.121,0.7761 0.2903,0.8246 0.2419,0.0243 0.4112,-0.2668 0.5322,-0.4366 0.1693,-0.2183 0.2903,-0.4608 0.3629,-0.7033 l -0.4597,-0.1213 c -0.0484,0.2668 -0.1209,0.5093 -0.2177,0.7519 -0.0968,0.1697 -0.0968,0.3395 -0.0484,0.5093 0.121,0.2183 0.3871,0.3153 0.6048,0.194 0.0484,-0.0242 0.0968,-0.0727 0.1451,-0.097 0.2662,-0.291 0.4113,-0.8246 0.5323,-1.1884 0.2177,-0.5093 0.3628,-1.0187 0.4838,-1.5523 0.0484,-0.2425 0.0484,-0.485 0.0484,-0.7518 0,-0.0728 -0.0484,-0.2183 -0.0484,-0.2911 0.0242,-0.097 0.0726,-0.194 0.121,-0.291 0.2177,-0.4366 0.387,-0.8731 0.6289,-1.2854 0.242,-0.4124 0.5322,-0.8247 0.75,-1.2612 0.1935,-0.4366 0.3629,-0.8732 0.4596,-1.334 0.0726,-0.291 -0.3871,-0.4123 -0.4596,-0.1213 -0.1936,0.7519 -0.508,1.4795 -0.9435,2.1344 -0.2177,0.3395 -0.4113,0.6791 -0.5806,1.0186 -0.1693,0.3153 -0.3387,0.6306 -0.4596,0.9702 -0.0242,0.097 -0.0242,0.2183 0,0.3153 0.0484,0.2668 0.0484,0.5093 0,0.7761 -0.0726,0.4123 -0.1936,0.8246 -0.3629,1.2127 -0.121,0.4123 -0.2903,0.8003 -0.4596,1.1641 -0.0242,0.0485 -0.0484,0.1456 -0.0484,0.1456 0.0484,-0.0971 0.0725,-0.1941 0.0967,-0.2911 0.0726,-0.2183 0.1452,-0.4123 0.1694,-0.6306 0.0484,-0.291 -0.3871,-0.4123 -0.4597,-0.1212 -0.0483,0.1455 -0.0967,0.2667 -0.1935,0.388 -0.0484,0.097 -0.121,0.194 -0.1693,0.2668 -0.0242,0.0243 -0.121,0.1455 -0.121,0.1698 0.0484,-0.0485 0.0968,-0.097 0.1452,-0.1455 0.0241,-0.0485 0.0483,-0.1213 0.0725,-0.1698 0.0484,-0.097 0.121,-0.2183 0.1694,-0.3153 0.1209,-0.194 0.2177,-0.4123 0.2661,-0.6306 0,-0.1455 -0.121,-0.2425 -0.2419,-0.2425 -0.0726,0 -0.1694,0.0485 -0.1936,0.1212 -0.0725,0.1698 -0.1935,0.3396 -0.3386,0.4608 -0.0484,0.0485 -0.1936,0.1698 -0.2662,0.0971 -0.0483,-0.0486 0.0968,-0.2183 0.121,-0.2668 0.2661,-0.3881 0.5564,-0.7519 0.8467,-1.0915 l -0.3629,-0.291 c -0.1209,0.1698 -0.2661,0.3396 -0.4354,0.4608 -0.121,0.097 -0.4355,0.2911 -0.6048,0.1941 l 0.0968,0.1455 c -0.0484,-0.1698 0.1451,-0.3396 0.2177,-0.4366 0.1451,-0.1698 0.2661,-0.3638 0.4112,-0.5336 0.1452,-0.1697 0.5081,-0.485 0.3629,-0.7761 -0.0968,-0.194 -0.3387,-0.194 -0.5322,-0.1698 -0.1935,0.0243 -0.3871,0.0243 -0.5806,0 -0.0484,0 -0.121,-0.0242 -0.1693,-0.0242 -0.0968,0 -0.121,-0.0243 -0.0726,-0.097 0,-0.097 0.1693,-0.1455 0.2419,-0.1941 0.6532,-0.3395 1.4031,-0.5093 1.9353,-1.0186 0.2419,-0.2668 0.4113,-0.5578 0.508,-0.8974 0.1694,-0.4608 0.3145,-0.8974 0.4839,-1.3582 0.0967,-0.3153 -0.3629,-0.4366 -0.4597,-0.1698 z"
           fill="#48146d"
           id="path1245" />
      </g>
      <g
         clip-path="url(#clip1)"
         id="g1251"
         transform="matrix(0.26458333,0,0,0.26458333,41.007104,28.257277)">
        <path
           d="m 48.1239,2.32408 c -3.0919,-3.091897 -8.1265,-3.091897 -11.2184,0 -2.1109,2.11095 -2.8467,5.22689 -1.933,8.05432 l -8.9343,8.9295 c -0.1346,0.1346 -0.2116,0.3173 -0.2116,0.5097 V 23.9 c 0,0.3991 0.3222,0.7213 0.7213,0.7213 h 4.0825 c 0.1923,0 0.375,-0.0769 0.5097,-0.2116 l 1.0194,-1.0194 c 0.1538,-0.1538 0.2308,-0.375 0.2067,-0.5914 l -0.125,-1.0964 1.5195,-0.1442 c 0.3462,-0.0337 0.6155,-0.303 0.6492,-0.6492 l 0.1442,-1.5195 1.0964,0.1299 c 0.2019,0.0288 0.4087,-0.0433 0.5626,-0.178 0.1539,-0.1394 0.2404,-0.3318 0.2404,-0.5385 v -1.3464 h 1.3175 c 0.1924,0 0.3751,-0.077 0.5098,-0.2116 l 1.8512,-1.8272 c 2.8227,0.9136 5.8857,0.2356 7.9967,-1.8754 3.0919,-3.0919 3.0919,-8.12642 -0.0048,-11.21832 z M 46.085,7.42114 c -0.8415,0.8415 -2.2167,0.8415 -3.0582,0 -0.8415,-0.84149 -0.8415,-2.21674 0,-3.05823 0.8415,-0.8415 2.2167,-0.8415 3.0582,0 0.8415,0.84149 0.8463,2.21674 0,3.05823 z"
           fill="#ffba00"
           id="path1249" />
      </g>
    </g>
  </g>
</svg>
