<?xml version="1.0" encoding="UTF-8" standalone="no"?>
<!-- Created with Inkscape (http://www.inkscape.org/) -->

<svg
   width="80"
   height="80"
   viewBox="0 0 21.166666 21.166667"
   version="1.1"
   id="svg1471"
   inkscape:version="1.1 (ce6663b3b7, 2021-05-25)"
   sodipodi:docname="01_register_about-me.svg"
   xmlns:inkscape="http://www.inkscape.org/namespaces/inkscape"
   xmlns:sodipodi="http://sodipodi.sourceforge.net/DTD/sodipodi-0.dtd"
   xmlns="http://www.w3.org/2000/svg"
   xmlns:svg="http://www.w3.org/2000/svg">
  <sodipodi:namedview
     id="namedview1473"
     pagecolor="#ffffff"
     bordercolor="#666666"
     borderopacity="1.0"
     inkscape:pageshadow="2"
     inkscape:pageopacity="0.0"
     inkscape:pagecheckerboard="0"
     inkscape:document-units="mm"
     showgrid="false"
     units="px"
     inkscape:zoom="2.0132505"
     inkscape:cx="63.330421"
     inkscape:cy="14.652921"
     inkscape:window-width="1920"
     inkscape:window-height="1017"
     inkscape:window-x="0"
     inkscape:window-y="26"
     inkscape:window-maximized="1"
     inkscape:current-layer="layer1" />
  <defs
     id="defs1468">
    <clipPath
       id="clip0">
      <rect
         width="52"
         height="77"
         fill="#ffffff"
         id="rect1647"
         x="0"
         y="0" />
    </clipPath>
  </defs>
  <g
     inkscape:label="Capa 1"
     inkscape:groupmode="layer"
     id="layer1">
    <g
       clip-path="url(#clip0)"
       id="g1645"
       transform="matrix(0.26458333,0,0,0.26458333,3.7031857,0.39687511)">
      <g
         opacity="0.1"
         id="g1559">
        <g
           opacity="0.1"
           id="g1557">
          <path
             opacity="0.1"
             d="M 39.304,77 C 46.3158,77 52,75.8776 52,74.493 c 0,-1.3845 -5.6842,-2.507 -12.696,-2.507 -7.0117,0 -12.6959,1.1225 -12.6959,2.507 0,1.3846 5.6842,2.507 12.6959,2.507 z"
             fill="#48146d"
             id="path1555" />
        </g>
      </g>
      <path
         d="m 44.4062,69.3 c 0.3559,0.6864 0.8602,3.8202 1.6018,4.0589 0.2076,0.0299 0.4449,-0.0298 0.5933,-0.1791 1.3051,-0.9252 0.6229,-2.5368 0.3856,-3.85"
         fill="#ffffff"
         id="path1561" />
      <path
         d="m 47.2242,69.2702 c -0.0593,-0.2985 -0.5043,-0.1791 -0.445,0.1193 0.1483,0.776 0.4153,1.5221 0.3857,2.2981 0,0.3283 -0.089,0.6267 -0.267,0.8953 -0.1187,0.1493 -0.2373,0.2985 -0.3856,0.388 -0.1187,0.0896 -0.3263,0.1791 -0.4153,0.1194 -0.1187,-0.0895 -0.2077,-0.2089 -0.267,-0.3581 -0.1187,-0.2089 -0.2076,-0.4477 -0.2966,-0.6865 -0.178,-0.5372 -0.3263,-1.1042 -0.4746,-1.6713 -0.089,-0.4178 -0.2374,-0.8356 -0.4153,-1.2236 -0.1484,-0.2686 -0.534,-0.0299 -0.4153,0.2387 0.089,0.209 0.178,0.4179 0.2373,0.6566 0.089,0.3283 0.178,0.6566 0.267,1.0148 0.1483,0.6267 0.3559,1.2236 0.5932,1.7907 0.2373,0.5073 0.5933,0.955 1.2162,0.6565 0.6823,-0.3879 1.1272,-1.1341 1.0679,-1.91 -0.0297,-0.776 -0.267,-1.5221 -0.3856,-2.3279 z"
         fill="#5b1a84"
         id="path1563" />
      <path
         d="m 47.3725,71.5682 c -0.356,0.0299 -0.089,0.7163 -0.3856,0.9252 -0.4746,0.2985 -0.5043,-0.6267 -0.6823,-0.776 -0.3856,-0.3283 -1.1569,-0.2686 -1.6018,-0.3283 0.2076,2.2384 -1.6612,1.7609 -2.6994,3.4024 -0.178,0.2387 -0.3263,0.5969 -0.1186,0.8356 0.1186,0.1194 0.2669,0.1791 0.4153,0.1791 1.6908,0.3283 3.4112,-0.3581 5.0131,-1.0446 0.2373,-0.0597 0.4449,-0.2089 0.5932,-0.4178 0.1187,-0.2686 0.1187,-0.5372 0.0594,-0.8058 l -0.356,-1.8504"
         fill="#5b1a84"
         id="path1565" />
      <path
         d="m 37.2869,67.8078 c -0.0296,0.0298 -0.0593,0.0895 -0.0593,0.1492 l -0.1483,4.2678 c 0.8899,-0.1194 1.8095,-0.1791 2.6994,-0.1492 -0.1187,0 0.3559,-3.074 0.2373,-3.3427 -0.2967,-0.8058 -1.8095,-0.9251 -2.6104,-0.955 -0.0297,0 -0.089,0 -0.1187,0.0299 z"
         fill="#ffffff"
         id="path1567" />
      <path
         d="m 37.4352,68.0465 c 0.623,-0.0298 1.2459,0.0895 1.8392,0.2985 0.2076,0.0895 0.4153,0.2387 0.5339,0.4178 0,0.0298 0.0297,0.0597 0.0297,0.0597 0,-0.0597 0,-0.0299 0,0 v 0.179 c -0.0297,0.4179 -0.0593,0.8059 -0.1187,1.2237 -0.0593,0.4178 -0.089,0.8953 -0.1483,1.3132 -0.0297,0.2089 -0.1186,0.6267 0.1483,0.7163 l 0.0594,-0.4477 c -0.9196,-0.0299 -1.8392,0.0298 -2.7587,0.1492 l 0.2966,0.2388 0.089,-2.1787 0.0296,-1.0744 0.0297,-0.5074 V 68.136 68.0465 c 0.0297,-0.1194 0,-0.1194 -0.0297,0 0.1187,-0.0298 0.2374,-0.1194 0.2374,-0.2387 0,-0.1194 -0.089,-0.2388 -0.2374,-0.2388 -0.4152,0 -0.4152,0.388 -0.4152,0.7163 l -0.0594,1.3131 -0.089,2.6563 c 0,0.0298 0,0.0298 0,0.0596 0.0297,0.1194 0.178,0.209 0.2967,0.1791 0.8602,-0.1194 1.7501,-0.1791 2.64,-0.1492 0.089,0 0.2077,-0.0597 0.2077,-0.1791 0.0296,-0.1194 -0.0297,-0.2387 -0.1484,-0.2984 0,0 0.178,0.1193 0.1484,0.179 v -0.0298 c 0,-0.0299 0,-0.0597 0,-0.0597 0,-0.0597 0,-0.1492 0,-0.2388 0.0296,-0.2089 0.0296,-0.4476 0.0593,-0.6565 0.0593,-0.4776 0.1186,-0.9551 0.1483,-1.4326 0.0593,-0.2985 0.0593,-0.6268 0.0297,-0.9252 -0.1483,-0.5074 -0.7416,-0.776 -1.1866,-0.9252 -0.5339,-0.1492 -1.0975,-0.2089 -1.6611,-0.2089 -0.267,-0.0299 -0.267,0.4477 0.0296,0.4775 z"
         fill="#5b1a84"
         id="path1569" />
      <path
         d="m 40.016,70.5833 c -0.3263,0.2985 -0.5933,0.6566 -0.8009,1.0745 -0.178,-0.2388 -0.356,-0.6566 -0.6526,-0.8059 -0.1484,-0.0597 -0.267,-0.0895 -0.4153,-0.0895 -0.4746,-0.0895 -0.9493,-0.2686 -1.3645,-0.567 0.2966,0.2089 -0.2967,1.2534 -0.4747,1.4027 -0.5042,0.5073 -0.9789,0.3581 -1.6611,0.4775 -0.4746,0.1194 -0.9196,0.3283 -1.2755,0.6267 -0.2967,0.2089 -0.6526,0.4775 -0.6526,0.8357 0.0296,0.2984 0.2076,0.567 0.5042,0.6864 0.2967,0.1194 0.5933,0.1492 0.8899,0.1194 1.7205,-0.0597 3.441,-0.2388 5.1022,-0.5372 0.1779,0 0.3559,-0.0597 0.5042,-0.1791 0.1483,-0.1194 0.2373,-0.2984 0.267,-0.4775 0.1483,-0.776 0.178,-1.5519 0.089,-2.3279"
         fill="#5b1a84"
         id="path1571" />
      <path
         d="m 34.5876,30.2031 c 0.2076,2.9845 -0.267,5.8795 -0.178,8.864 0.0593,2.5069 0.4746,4.9542 0.7712,7.4314 0.8009,6.536 1.1569,13.1019 1.3645,19.6678 0.0297,0.8953 0.0297,1.7608 0.0297,2.6562 1.1865,0.4775 3.085,0.1194 4.3902,0.1492 0.4746,-5.3721 0.5933,-10.774 0.3856,-16.176 -0.0593,-1.5221 -0.1483,-2.9845 -0.5932,-4.417 -0.4153,-1.343 -0.6526,-7.7 -1.2756,-8.9237 2.4028,6.8047 1.6019,18.8621 3.4706,25.8458 0.3263,1.2833 0.7713,2.5368 1.3349,3.7306 1.0382,0.1492 2.2544,0.2387 2.9663,-0.4178 0.089,-0.0896 0.178,-0.1791 0.267,-0.2985 0.6823,-1.0744 0.089,-3.3725 0.0593,-4.5961 -0.1483,-6.8643 0.178,-13.7287 0.0594,-20.593 -0.0297,-1.7012 -0.089,-3.4322 -0.2077,-5.1334 -0.0593,-1.1042 0.0594,-2.2085 -0.0296,-3.3128 -0.0297,-0.6267 -0.1187,-2.1189 -0.8899,-2.2383 -0.534,-0.0299 -1.0383,-0.0597 -1.5722,-0.0299 -0.5933,-0.0298 -1.1865,-0.0597 -1.7798,-0.1194 -1.5128,-0.1492 -3.0257,-0.4178 -4.5088,-0.7162 -0.6823,-0.1493 -1.4832,-0.2089 -2.1358,-0.4775 -0.534,-0.209 -1.0382,-0.5074 -1.5722,-0.7163 z"
         fill="#ffffff"
         id="path1573" />
      <path
         d="m 34.7952,30.5612 c 0.5933,0.3283 1.2162,0.5969 1.8391,0.8357 0.623,0.1791 1.2756,0.2984 1.8985,0.388 0.7712,0.1492 1.5425,0.2984 2.3137,0.4178 1.4536,0.2686 2.9367,0.4178 4.4199,0.4477 0.5339,0 1.2459,-0.1791 1.5425,0.388 0.178,0.4178 0.267,0.8655 0.267,1.3131 0.1186,1.4326 0.0296,2.8652 0.1186,4.2977 0.356,6.3868 0.1187,12.7737 0.0594,19.1605 -0.0297,1.6116 -0.0297,3.2232 0,4.805 0,0.6268 0,1.2535 0.0889,1.8803 0.0594,0.5372 0.1484,1.1042 0.178,1.6414 0.089,1.1043 0.0297,2.3876 -1.2458,2.7159 -0.3263,0.0597 -0.623,0.0896 -0.9493,0.0896 -0.2966,0.0298 -0.5636,0 -0.8602,-0.0597 -0.178,-0.0597 -0.2373,-0.3283 -0.2966,-0.5074 -0.0594,-0.1791 -0.1484,-0.3581 -0.2077,-0.5372 -0.1483,-0.3581 -0.267,-0.7163 -0.3856,-1.0744 -0.6823,-2.1787 -1.1272,-4.3872 -1.3349,-6.6555 -0.2669,-2.3875 -0.4449,-4.7453 -0.6229,-7.1627 -0.178,-2.4175 -0.356,-4.8648 -0.6526,-7.2822 -0.2373,-2.119 -0.6823,-4.1783 -1.3349,-6.2078 l -0.4152,0.1791 c 0.2076,0.5074 0.3263,1.0446 0.3559,1.5818 0.1187,0.8058 0.2077,1.6116 0.2967,2.4174 0.1483,1.3729 0.2373,2.7756 0.4449,4.1485 0.1187,0.7163 0.356,1.3729 0.4746,2.0891 0.178,1.2237 0.2967,2.4772 0.2967,3.7307 0.1779,5.1631 0.0296,10.2965 -0.4153,15.4596 l 0.2373,-0.2387 C 39.482,68.7926 37.9395,69.1806 36.575,68.6733 l 0.178,0.2387 c 0.0297,-2.8651 -0.1187,-5.7302 -0.267,-8.5953 -0.2373,-5.0438 -0.6526,-10.0876 -1.3052,-15.1016 -0.3263,-2.507 -0.6526,-5.0438 -0.5932,-7.5806 0.0593,-2.4473 0.3559,-4.8946 0.1779,-7.3717 l -0.3559,0.2089 0.3856,0.0895 c 0.267,0.1493 0.5043,-0.2686 0.2373,-0.3879 L 34.7062,30.024 c -0.1483,-0.0597 -0.3559,0 -0.3559,0.2089 0.2076,2.7756 -0.2077,5.5512 -0.2077,8.3566 0.0297,2.507 0.3856,5.014 0.7119,7.521 0.3263,2.5069 0.5636,5.0139 0.7713,7.5507 0.2076,2.5369 0.3559,5.1334 0.4746,7.6403 0.1186,2.507 0.2373,5.0438 0.2076,7.5508 0,0.0896 0.0594,0.2089 0.178,0.2388 1.4239,0.5372 2.996,0.1194 4.4495,0.1492 0.1187,0 0.2373,-0.1194 0.2373,-0.2388 0.2374,-2.9248 0.4153,-5.8794 0.4747,-8.8042 0.0593,-2.6264 0.0296,-5.2229 -0.089,-7.8492 -0.0297,-1.1938 -0.178,-2.4175 -0.445,-3.5814 -0.1483,-0.5074 -0.267,-1.0446 -0.3263,-1.552 -0.2076,-1.4624 -0.2966,-2.9546 -0.4746,-4.4469 -0.0593,-0.6864 -0.1483,-1.3728 -0.267,-2.0593 -0.0593,-0.4477 -0.1779,-0.8953 -0.3559,-1.3132 -0.1187,-0.2387 -0.5043,-0.0596 -0.4153,0.1791 0.178,0.4775 0.3263,0.9849 0.4449,1.4624 0.5636,2.2682 0.9196,4.5663 1.1272,6.8942 0.2374,2.5667 0.4153,5.1632 0.5933,7.7299 0.1483,2.3577 0.356,4.7453 0.7416,7.1031 0.178,1.1341 0.4153,2.2383 0.7416,3.3127 0.2373,0.776 0.5043,1.5221 0.8009,2.2683 0.089,0.2387 0.2076,0.7162 0.4153,0.8953 0.178,0.1194 0.5933,0.1194 0.8009,0.1194 1.0382,0.0895 2.3434,-0.0299 2.8477,-1.1043 0.4746,-0.955 0.267,-2.1787 0.1186,-3.1934 -0.1483,-1.4027 -0.1779,-2.7756 -0.1779,-4.1783 0,-1.6713 0,-3.3725 0.0296,-5.0438 0.0297,-3.3128 0.089,-6.6256 0.089,-9.9384 0,-1.6713 -0.0296,-3.3426 -0.089,-5.0139 -0.0593,-1.6713 -0.1483,-3.283 -0.1483,-4.9543 0,-0.9849 0.0593,-2.2383 -0.3856,-3.1337 -0.178,-0.388 -0.534,-0.6267 -0.9492,-0.6566 -0.712,-0.0597 -1.4535,0 -2.1951,-0.0298 C 42.4484,31.9938 40.8465,31.755 39.2447,31.4267 38.5328,31.2775 37.8209,31.188 37.109,31.0388 36.397,30.8 35.6851,30.5015 35.0325,30.1434 c -0.267,-0.0895 -0.5043,0.2985 -0.2373,0.4178 z"
         fill="#0bf7eb"
         id="path1575" />
      <path
         d="m 25.1249,19.638 c 0.0297,0 0,0.0597 -0.0296,0.0895 -0.0297,0.0299 -0.0594,-0.0298 -0.089,-0.0597 -0.356,-0.3879 -0.8306,-0.6267 -1.3349,-0.7461 -0.5043,-0.1194 -1.0085,-0.1492 -1.5425,-0.2387 -0.1186,0 -0.2373,-0.0597 -0.3263,-0.0896 -0.089,-0.0895 -0.178,-0.1791 -0.2373,-0.2984 -0.1483,-0.2089 -0.2076,-0.4477 -0.178,-0.6865 0.0594,-0.3581 0.3857,-0.567 0.712,-0.7162 -0.445,0.2686 -1.6315,0.3581 -2.1358,0.2387 -0.089,-0.0298 -0.2077,-0.0597 -0.2077,-0.1492 0,-0.0895 0.089,-0.1791 0.2077,-0.2089 0.7712,-0.2686 1.5425,-0.4775 2.3434,-0.6268 0.7712,-0.1194 1.0975,-0.0298 1.4535,0.5969 0.4153,0.6268 0.8899,1.2237 1.4239,1.7609"
         fill="#ffffff"
         id="path1577" />
      <path
         d="m 25.0063,18.6531 c 0.2076,0.2388 0.5339,-0.0895 0.3263,-0.3283 -0.3263,-0.3581 -0.6823,-0.7163 -0.9789,-1.1043 -0.2373,-0.2984 -0.4153,-0.6864 -0.6823,-0.9848 -0.3856,-0.4477 -0.9492,-0.388 -1.4831,-0.2985 -0.445,0.0597 -0.8899,0.1791 -1.3349,0.2985 -0.3856,0.0895 -0.7712,0.2089 -1.0975,0.3879 -0.0594,0.0299 -0.1187,0.0896 -0.1484,0.1493 -0.089,0.179 -0.0296,0.4178 0.1484,0.5073 0.2373,0.0896 0.5042,0.1194 0.7712,0.1194 0.5933,0.0299 1.1569,-0.0895 1.6908,-0.3283 0.267,-0.1492 0.0297,-0.5372 -0.2373,-0.388 -0.4746,0.2686 -0.9492,0.6566 -0.8009,1.2535 0.0593,0.2985 0.2076,0.5671 0.4153,0.776 0.2373,0.1791 0.5339,0.2686 0.8009,0.2387 0.6823,0.0896 1.4535,0.1493 2.0468,0.5074 0.1483,0.0895 0.2669,0.2089 0.3856,0.3283 0.0593,0.0895 0.178,0.1492 0.267,0.1492 0.0593,0 0.089,-0.0298 0.1483,-0.0298 0.1186,-0.0896 0.178,-0.2686 0.089,-0.388 -0.178,-0.2388 -0.5636,0 -0.3856,0.2388 l 0.0296,0.0298 -0.0296,-0.1791 v 0.0299 l 0.1186,-0.1492 -0.0297,0.0298 h 0.1187 c -0.0593,-0.0597 -0.1187,-0.1194 -0.178,-0.1791 -0.089,-0.0597 -0.1483,-0.1193 -0.2373,-0.179 -0.1483,-0.1194 -0.3263,-0.1791 -0.5043,-0.2686 -0.4153,-0.1493 -0.8305,-0.2388 -1.2755,-0.2985 -0.267,-0.0298 -0.5043,-0.0597 -0.7712,-0.0895 -0.2077,-0.0299 -0.4153,-0.1791 -0.4747,-0.388 -0.1483,-0.2089 -0.1483,-0.4775 0,-0.6864 0.1484,-0.1493 0.2967,-0.2687 0.4747,-0.3582 l -0.2374,-0.388 c -0.5339,0.2388 -1.0975,0.3283 -1.6908,0.2388 -0.0593,0 -0.1186,-0.0299 -0.2076,-0.0299 h -0.0593 c -0.0297,0.0896 0,0.1194 0.0889,0.0597 0.2077,-0.0298 0.3857,-0.0895 0.5637,-0.179 0.4152,-0.1194 0.8305,-0.2388 1.2755,-0.3283 0.3263,-0.0896 0.6526,-0.1194 1.0085,-0.0896 0.2373,0.0597 0.445,0.2388 0.534,0.4477 0.5043,0.6566 1.0085,1.2833 1.5425,1.8504 z"
         fill="#5b1a84"
         id="path1579" />
      <path
         d="m 33.7867,24.2938 c -0.801,1.4624 -2.4325,0.6566 -3.4707,0.0298 L 23.9977,20.414 c -0.178,-0.0896 -0.3559,-0.2388 -0.3856,-0.4477 0,-0.1194 0.0297,-0.2388 0.089,-0.3283 0.2966,-0.6566 0.6526,-1.3132 1.0382,-1.9399 0.2373,-0.3582 0.3263,-0.6865 0.7416,-0.6865 0.3559,0 1.1272,0.6566 1.4238,0.8655 0.9493,0.6268 1.8392,1.3431 2.8181,1.9996 0.3856,0.2687 0.7712,0.4477 1.2162,0.5969 1.4535,-2.3875 2.3137,-5.1631 3.9749,-7.3717 0.3856,-0.5969 0.9492,-1.0744 1.6018,-1.3728 0.5043,-0.1791 1.0382,-0.2388 1.5721,-0.2089 1.0086,0.0298 1.9578,0.3879 2.9961,0.3581 1.0382,-0.0298 2.0764,-0.2089 3.085,0.1194 0.5636,0.1791 1.0975,0.0895 1.6611,0.2686 1.0086,0.2984 1.8095,1.1042 2.0468,2.1488 0.1483,0.8357 -0.3856,1.4923 -0.6229,2.2384 -0.7416,2.3279 -0.623,4.9841 -0.445,7.4015 0.1187,1.5221 0.267,3.0442 0.3263,4.5663 0.0297,1.164 0.5636,2.2682 0.3856,3.4322 -0.0296,0.1791 -0.089,0.388 -0.178,0.5372 -0.2966,0.4477 -0.9195,0.4775 -1.4535,0.4477 l -6.17,-0.2089 c -0.8899,0 -1.7798,-0.0896 -2.6697,-0.2388 -0.6526,-0.0895 -1.2755,-0.388 -1.7798,-0.8655 -1.6908,-1.7907 0,-4.4171 0.3856,-6.3271 0.2374,-1.2834 0.267,-2.6264 0.445,-3.9097 0.089,-0.6566 0.2076,-1.3132 0.2966,-1.9698 0.0594,-0.3283 0.0594,-1.4027 0.267,-1.6415 -0.5339,0.5969 -0.4153,1.4923 -0.7712,2.2384 -0.267,0.5671 -0.534,1.1043 -0.801,1.6415 -0.4746,0.8655 -0.8899,1.7011 -1.3051,2.5368 z"
         fill="#ffffff"
         id="path1581" />
      <path
         d="m 35.2402,21.9062 c 0.3559,-0.6566 0.6526,-1.343 0.9195,-2.0295 0.2077,-0.5969 0.178,-1.3131 0.5933,-1.8205 l -0.3263,-0.3283 c -0.178,0.2686 -0.267,0.5969 -0.267,0.955 -0.089,1.0745 -0.2669,2.119 -0.3856,3.1636 -0.1483,1.2535 -0.178,2.5368 -0.4746,3.7903 -0.445,1.7609 -1.6315,3.7306 -0.7713,5.5512 0.4747,0.9849 1.4239,1.4624 2.4621,1.6415 1.2459,0.2387 2.5511,0.2387 3.8266,0.2686 l 4.1232,0.1492 c 0.8306,0.0298 2.1951,0.2686 2.6401,-0.6865 0.4746,-1.0147 0,-2.298 -0.178,-3.3426 -0.1187,-0.6864 -0.089,-1.4027 -0.1483,-2.0891 -0.0594,-0.6865 -0.1187,-1.3729 -0.1484,-2.0593 -0.2076,-2.4772 -0.4449,-5.0737 0.1187,-7.5508 0.1186,-0.5671 0.3263,-1.1043 0.5636,-1.6116 0.2373,-0.4179 0.3263,-0.9252 0.3263,-1.4028 -0.1483,-0.9251 -0.7119,-1.7608 -1.5722,-2.2085 -0.4449,-0.2387 -0.9492,-0.388 -1.4535,-0.4178 -0.6229,-0.0597 -1.1865,-0.2686 -1.8094,-0.3283 -0.5933,-0.0298 -1.2162,-0.0299 -1.8095,0.0298 -0.6526,0.0299 -1.3052,-0.0298 -1.9578,-0.1492 -1.1272,-0.2089 -2.3731,-0.388 -3.4113,0.2089 -0.9492,0.5372 -1.5722,1.5221 -2.1358,2.4175 -1.2458,1.9996 -2.0171,4.2678 -3.2333,6.3271 l 0.267,-0.0895 c -1.0679,-0.3582 -1.9578,-1.1341 -2.8477,-1.7907 -0.4153,-0.2985 -0.8306,-0.5671 -1.2459,-0.8655 -0.2966,-0.2388 -0.5932,-0.4477 -0.8899,-0.6566 -0.2669,-0.1492 -0.5636,-0.2089 -0.8602,-0.1194 -0.2373,0.1194 -0.4153,0.3283 -0.5043,0.5671 -0.2373,0.4178 -0.5043,0.8058 -0.7416,1.2534 -0.1779,0.3283 -0.4746,0.776 -0.5339,1.1938 -0.0297,0.3582 0.2373,0.5671 0.5043,0.7462 0.4449,0.2984 0.9195,0.567 1.3941,0.8655 l 2.7291,1.6713 c 0.8306,0.5073 1.6611,1.0446 2.4917,1.5519 0.534,0.3582 1.1569,0.5671 1.7798,0.6566 0.5933,0.0597 1.1866,-0.1791 1.5425,-0.6566 0.267,-0.4178 0.5043,-0.8655 0.7119,-1.3132 l 0.712,-1.4922 c 0.1483,-0.2686 -0.267,-0.5074 -0.3857,-0.2388 -0.2373,0.4776 -0.4746,0.9849 -0.7119,1.4624 -0.178,0.4179 -0.3856,0.8357 -0.6526,1.2535 -0.4153,0.5969 -1.0975,0.5969 -1.7501,0.388 -0.5636,-0.2089 -1.1272,-0.5074 -1.6315,-0.8356 l -2.3434,-1.4326 -2.2841,-1.4027 -1.2755,-0.776 c -0.2373,-0.1492 -0.4153,-0.2387 -0.3263,-0.567 0.0593,-0.209 0.1779,-0.4179 0.2669,-0.5969 0.2077,-0.388 0.4153,-0.776 0.6526,-1.1341 0.1187,-0.1791 0.267,-0.6566 0.534,-0.7462 0.2669,-0.0895 0.6229,0.2089 0.8306,0.3582 0.2076,0.1492 0.3856,0.2984 0.5932,0.4476 0.6823,0.4776 1.3645,0.9252 2.0171,1.4028 0.623,0.5073 1.3349,0.8953 2.0765,1.1938 0.089,0.0298 0.2076,-0.0299 0.2669,-0.1194 0.267,-0.4477 0.534,-0.9252 0.7713,-1.4027 0.9789,-1.8803 1.7501,-3.9097 2.996,-5.6706 0.6823,-0.9849 1.4832,-1.731 2.729,-1.7907 1.1569,-0.0597 2.2545,0.3582 3.3817,0.3582 0.5932,0 1.1568,-0.0896 1.7501,-0.0896 0.3263,0 0.6229,0.0299 0.9492,0.0896 0.267,0.0596 0.5043,0.1492 0.7713,0.2089 0.5339,0.0895 1.0382,0.0597 1.5425,0.2686 0.4449,0.179 0.8306,0.4775 1.1272,0.8356 0.356,0.388 0.5339,0.9252 0.5043,1.4326 -0.0297,0.4775 -0.3263,0.9252 -0.5043,1.3729 -0.3856,1.0147 -0.5933,2.0593 -0.6526,3.1337 -0.178,2.3279 0.089,4.6558 0.267,6.9539 0.089,1.1639 0.0593,2.3279 0.2966,3.4918 0.178,0.8655 0.7416,2.7756 -0.5636,2.9845 -0.5339,0.0597 -1.0679,0.0597 -1.6018,0 l -1.8391,-0.0597 c -1.2459,-0.0298 -2.4918,-0.0895 -3.7376,-0.1194 -1.0976,-0.0596 -2.3731,-0.0596 -3.3817,-0.5969 -0.9195,-0.5073 -1.2755,-1.4922 -1.2162,-2.4771 0.0594,-0.9252 0.4153,-1.8205 0.7119,-2.686 0.2967,-0.9252 0.5043,-1.9101 0.5933,-2.895 0.1187,-1.1938 0.2373,-2.3876 0.4153,-3.5814 0.0593,-0.4178 0.1187,-0.8356 0.178,-1.2833 0.0296,-0.2686 -0.0297,-0.8058 0.178,-1.0147 0.2076,-0.209 -0.1187,-0.5671 -0.3263,-0.3283 -0.4153,0.5073 -0.4746,1.1042 -0.623,1.7011 -0.1779,0.776 -0.6229,1.5221 -0.9492,2.2384 -0.178,0.2984 0.2076,0.5372 0.356,0.2686 z"
         fill="#5b1a84"
         id="path1583" />
      <path
         d="M 40.9355,11.0426 C 41.0839,10.774 41.4991,10.2965 41.3212,10.0577 41.1432,9.81898 40.4906,9.84883 40.2236,9.7593 39.7193,9.58023 39.3634,9.1624 39.1854,8.65503 39.0074,8.14767 38.9481,7.6403 39.0074,7.13294 39.0667,5.9093 39.3337,4.7155 39.838,3.61123 c 0.089,-0.20891 0.178,-0.38798 0.3263,-0.56705 0.178,-0.17907 0.3856,-0.3283 0.6229,-0.41783 0.534,-0.26861 1.1272,-0.38799 1.7205,-0.35814 0.4153,0.11938 0.8009,0.2686 1.1569,0.50736 0.8602,0.41783 1.5425,1.10427 1.9578,1.93993 0.5339,1.16395 0.1779,2.77558 -0.9789,3.31279 -0.1483,0.05969 -0.2967,0.11938 -0.4153,0.23876 -0.178,0.20891 -0.2373,0.47752 -0.2373,0.74612 -0.0594,1.04453 -0.089,2.17873 0.5043,3.04423 0.0593,0.0596 0.0889,0.1492 0.1186,0.2387 0,0.0896 0,0.1791 -0.0297,0.2388 -0.4746,1.1938 -1.6314,1.9399 -2.907,1.8802 -0.7119,-0.0597 -1.4831,-0.4775 -1.5721,-1.1938 -0.1187,-0.6864 0.4746,-1.6116 0.8305,-2.1787 z"
         fill="#ffffff"
         id="path1585" />
      <path
         d="m 39.8973,13.3109 c 0.267,1.2534 1.7502,1.5519 2.7884,1.2534 0.5932,-0.179 1.0975,-0.5073 1.5128,-0.955 0.2966,-0.3283 0.8306,-0.9849 0.5933,-1.4922 -0.178,-0.2985 -0.3263,-0.5969 -0.445,-0.8954 -0.089,-0.2984 -0.1483,-0.6267 -0.1483,-0.955 -0.0296,-0.35817 0,-0.68647 0,-1.04461 0.0297,-0.38798 0.0297,-0.68643 0.4153,-0.89535 0.8602,-0.41783 1.4238,-1.31317 1.4238,-2.26821 0,-1.07442 -0.4746,-2.119 -1.3348,-2.77558 -0.8602,-0.71628 -1.9875,-1.37287 -3.1443,-1.13411 -0.534,0.11938 -1.1866,0.29845 -1.6019,0.77597 -0.4152,0.47752 -0.6229,1.19379 -0.8009,1.79069 -0.2076,0.65659 -0.3263,1.34303 -0.3856,2.05931 -0.089,0.65659 -0.0297,1.34302 0.178,1.99961 0.178,0.50736 0.5339,0.95504 1.0382,1.1938 0.178,0.08958 0.3856,0.11938 0.5933,0.11938 0.2373,0.0298 0.6229,0 0.4746,0.3283 -0.1187,0.2089 -0.2373,0.4178 -0.3856,0.6267 -0.1484,0.2388 -0.2967,0.4776 -0.4153,0.7462 -0.2373,0.4178 -0.3856,0.955 -0.356,1.5221 0.0297,0.2686 0.5043,0.2686 0.4746,-0.0299 -0.0593,-0.5969 0.2373,-1.1938 0.534,-1.7012 0.2076,-0.3879 0.5932,-0.8356 0.6822,-1.2236 C 41.6771,9.96822 41.4101,9.7593 41.0542,9.66977 40.8465,9.61008 40.6092,9.61008 40.4016,9.58023 40.105,9.4907 39.8677,9.31163 39.6897,9.07287 38.9777,8.11783 39.2744,6.5062 39.5117,5.43178 39.66,4.80504 39.8677,4.17829 40.1346,3.5814 c 0.267,-0.56706 0.8899,-0.80582 1.4832,-0.95504 0.5933,-0.14923 1.2162,-0.02985 1.7205,0.29845 0.4746,0.23876 0.8899,0.53721 1.3052,0.8655 0.7712,0.65659 1.1272,1.67132 0.9492,2.6562 -0.089,0.44768 -0.2966,0.8655 -0.6229,1.16395 -0.3263,0.29845 -0.8603,0.35814 -1.0383,0.77597 -0.1779,0.41783 -0.1483,1.01473 -0.1483,1.49225 0,0.53722 0.0594,1.10422 0.2373,1.61162 0.089,0.2388 0.2077,0.4775 0.3263,0.6864 0.1187,0.2686 -0.0296,0.5373 -0.178,0.776 -0.2966,0.4477 -0.7119,0.8058 -1.1865,1.0147 -0.8306,0.388 -2.3731,0.388 -2.6104,-0.7759 -0.1186,-0.2985 -0.5636,-0.1493 -0.4746,0.1194 z"
         fill="#5b1a84"
         id="path1587" />
      <path
         d="m 40.6389,4.32752 c -0.1186,-0.05969 -0.2373,0 -0.2966,0.11938 -0.089,0.17907 -0.089,0.38799 0.0296,0.53721 0.0297,0.05969 0.089,0.08954 0.1484,0.05969 0.0296,0 0.0296,-0.02984 0.0296,-0.02984 0.1187,-0.14923 0.267,-0.41783 0.1483,-0.5969 L 40.6686,4.38721 c 0,-0.02984 -0.0297,-0.05969 -0.0297,-0.05969 z"
         fill="#5b1a84"
         id="path1589" />
      <path
         d="M 43.7832,9.40116 C 43.7536,9.31162 43.7239,9.22209 43.7536,9.13255 c 0.0593,-0.53721 0.0296,-1.1938 0.2966,-1.70116 0,0.11938 0.089,0.23876 0.2373,0.23876 0.089,0 0.178,-0.02985 0.2373,-0.08954 0.6229,-0.44767 0.9196,-1.1938 0.8306,-1.96976 -0.0297,-0.17907 -0.089,-0.35814 -0.267,-0.41783 -0.1186,-0.02985 -0.2373,0 -0.3263,0.08953 -0.267,0.26861 -0.2966,0.44768 -0.6822,0.65659 C 44.5248,5.70038 43.6942,4.56627 43.5756,4.29767 43.3383,3.73061 43.19,3.04418 42.6263,2.71589 42.3,2.53682 41.9144,2.47713 41.5585,2.56666 c -0.356,0.08954 -0.712,0.17907 -1.0679,0.29845 -0.0297,0.02985 -0.0593,0.02984 -0.1187,0.02984 -0.178,0 -0.2966,-0.11937 -0.3263,-0.2686 C 39.927,2.29806 39.838,1.93992 39.7787,1.58178 39.749,1.28333 39.749,0.865498 40.0456,0.746118 c 0.178,-0.089535 0.356,0.029845 0.5933,-0.089535 0.2373,-0.11938 0.267,-0.41783 0.4746,-0.5670544 0.178,-0.1193798 0.3856,-0.1193798 0.5636,-0.0596899 0.178,0.0596899 0.356,0.1492243 0.534,0.2387593 0.7712,0.35814 1.8391,0.149225 2.6697,0.149225 0.3263,-0.029845 0.6229,0.05969 0.8899,0.208915 0.3559,0.268605 0.4449,0.805812 0.7416,1.134112 0.3559,0.38798 0.9492,0.47752 1.2458,0.92519 0.1483,0.23876 0.2077,0.50736 0.178,0.77597 -0.0297,0.53721 -0.2076,1.04457 -0.5339,1.4624 -0.178,0.17907 -0.3263,0.38799 -0.445,0.62675 -0.1186,0.32829 -0.0297,0.71628 -0.0593,1.07442 -0.0593,0.80581 -0.6526,1.55193 -1.0086,2.26821 -0.3559,0.71628 -1.1272,0.62675 -1.8094,0.62675 -0.178,0 -0.2374,-0.02985 -0.2967,-0.11938 z"
         fill="#5b1a84"
         id="path1591" />
      <path
         d="m 34.7359,27.5171 c 0.3559,-0.1493 0.7416,-0.2687 1.1272,-0.388 -0.2373,0.0597 -0.445,0.179 -0.6229,0.2984 -0.267,0.1194 -0.534,0.2388 -0.8306,0.2985 -0.1483,0.0298 -0.3263,0.0895 -0.3856,0.2387 -0.0594,0.1493 0.0296,0.3283 0.1779,0.388 0.1484,0.0597 0.2967,0.0597 0.4747,0.0299 0.1483,-0.0597 0.2966,-0.0896 0.4449,-0.0896 -0.267,0 -0.5339,0.0299 -0.8009,0.1492 -0.0593,0.0299 -0.089,0.0597 -0.1187,0.0896 -0.0593,0.1194 0.1187,0.2387 0.2373,0.2686 0.3263,0.0895 0.6526,0.0895 0.9493,0.0298 -0.267,0.0896 -0.534,0.2388 -0.8009,0.388 -0.0297,0.0299 -0.0594,0.0597 -0.089,0.0895 -0.0297,0.1194 0.1483,0.1791 0.2669,0.1493 0.2077,-0.0299 0.445,-0.0896 0.6526,-0.1791 -0.2373,0.0298 -0.4449,0.1492 -0.5932,0.3581 -0.0297,0.0597 -0.0594,0.1493 -0.0297,0.1791 0.0297,0.0299 0.089,0.0299 0.1483,0.0299 0.4746,-0.0597 0.9789,-0.1791 1.4239,-0.3582 0.9492,-0.388 1.6908,-1.1639 2.6993,-1.4325 0.4747,-0.1194 1.2162,-0.0597 1.4832,-0.6268 0.1483,-0.3581 0.0297,-0.7461 -0.2966,-0.955 -0.2967,-0.1791 -0.6823,-0.2388 -1.0086,-0.1194 -0.1483,0.0597 -0.3263,0.1194 -0.4449,0.1492 -0.1187,0.0299 -0.4153,0.1791 -0.534,0.1791 -1.2162,-0.1492 -2.462,-0.2089 -3.6782,-0.1791 -0.1484,-0.0298 -0.2967,0.0299 -0.4153,0.1493 -0.0594,0.1492 0,0.3282 0.1483,0.3879 0.4449,0.2388 1.0975,0.1194 1.5722,0.0896"
         fill="#ffffff"
         id="path1593" />
      <path
         d="m 35.9224,27.3678 c 0.2967,-0.0298 0.2967,-0.4775 0,-0.4775 -0.2373,0.0299 -0.5043,0.0597 -0.7712,0.0597 -0.1483,0 -0.5933,0.0298 -0.712,-0.1194 -0.1186,-0.1492 0.178,-0.1194 0.267,-0.1194 0.1483,0 0.2967,0 0.445,0 0.2966,0 0.5932,0 0.8899,0.0299 0.5339,0.0298 1.0975,0.0597 1.6611,0.0895 0.2373,0.0597 0.4746,0.0597 0.712,0.0299 0.1483,-0.0299 0.2966,-0.1194 0.4449,-0.1791 0.4153,-0.1492 1.0086,-0.388 1.3645,0.0298 0.356,0.4179 0,0.8357 -0.4449,0.9252 -0.356,0.0597 -0.7416,0.1493 -1.0976,0.2388 -0.3856,0.1492 -0.7712,0.3581 -1.1272,0.5969 -0.356,0.2686 -0.7416,0.4775 -1.1569,0.6864 -0.2373,0.1194 -0.5042,0.2089 -0.7712,0.2686 -0.1483,0.0299 -0.6229,0.2089 -0.7416,0.1493 l 0.1187,0.1492 -0.0297,-0.0896 -0.0297,0.1791 c 0.089,-0.2089 0.267,-0.3283 0.4746,-0.3581 l -0.1186,-0.4477 c -0.089,0.0298 -0.5933,0.2388 -0.6823,0.1194 l 0.0594,0.179 c -0.0594,0.0896 -0.0297,0.0896 0.0593,0 l 0.2076,-0.0895 c 0.1483,-0.0597 0.2967,-0.1492 0.445,-0.2089 0.1186,-0.0298 0.178,-0.1492 0.1483,-0.2686 -0.0297,-0.1194 -0.1483,-0.2089 -0.267,-0.1791 -0.0593,0 -0.8899,0.0896 -0.8899,-0.0597 l -0.0593,0.1791 c 0.178,-0.1791 0.5339,-0.1791 0.7712,-0.1791 v -0.4775 c -0.1779,0 -0.5339,0.1791 -0.7119,0.1194 -0.3559,-0.1194 0.2373,-0.2388 0.3263,-0.2686 0.2077,-0.0597 0.4153,-0.1492 0.623,-0.2388 0.2076,-0.0895 0.4152,-0.2089 0.5932,-0.2686 0.2967,-0.0597 0.178,-0.5073 -0.1186,-0.4476 -0.3857,0.0895 -0.7713,0.2387 -1.1272,0.3879 -0.267,0.0896 -0.178,0.5372 0.1186,0.4477 0.3856,-0.1791 0.7416,-0.2984 1.1272,-0.388 l -0.1186,-0.4476 c -0.4153,0.0895 -0.7416,0.3879 -1.1569,0.5073 -0.2966,0.0896 -0.6526,0.0896 -0.8306,0.388 -0.1186,0.2388 -0.0593,0.5372 0.178,0.6864 0.356,0.2388 0.7416,0.0299 1.0975,0 0.1187,0 0.178,-0.0895 0.2077,-0.2089 0,-0.1194 -0.089,-0.2387 -0.2077,-0.2686 -0.3263,0 -1.3348,0.0896 -1.1568,0.6566 0.178,0.5074 1.0975,0.4178 1.4831,0.3283 l -0.1186,-0.4477 c -0.2966,0.1194 -1.1272,0.3582 -1.0382,0.8058 0.089,0.5074 0.8899,0.2388 1.1865,0.1194 0.1187,-0.0298 0.178,-0.1492 0.1483,-0.2686 -0.0296,-0.1194 -0.1483,-0.2089 -0.2669,-0.1791 -0.3263,0.0299 -0.5933,0.2388 -0.7416,0.5074 -0.0297,0.0597 -0.0594,0.1194 -0.0297,0.2089 0.0297,0.1791 0.178,0.3283 0.3856,0.2985 0.8009,-0.0597 1.6019,-0.3283 2.2841,-0.776 0.5933,-0.3581 1.1272,-0.776 1.7798,-0.9849 0.4746,-0.1492 1.0679,-0.0895 1.4832,-0.4178 0,0 0,0 0.0297,-0.0299 0.4152,-0.3581 0.4449,-0.955 0.1186,-1.3728 -0.4153,-0.5074 -1.0679,-0.4775 -1.6611,-0.2985 -0.267,0.1194 -0.534,0.2089 -0.8306,0.2388 -0.4153,-0.0299 -0.8009,-0.0895 -1.2162,-0.1194 -0.8009,-0.0895 -1.6315,-0.0895 -2.4324,-0.0597 -0.2373,0 -0.4746,0.1194 -0.5636,0.3582 -0.0594,0.2089 0.0296,0.4476 0.2076,0.567 0.4746,0.4178 1.2162,0.2388 1.7798,0.2089 z"
         fill="#5b1a84"
         id="path1595" />
      <path
         d="m 46.8979,17.1012 c -0.089,2.1488 0.2373,4.2976 0.5043,6.4166 0,-0.0597 -1.0679,0.388 -1.1866,0.4179 -0.5339,0.179 -1.0678,0.3879 -1.5721,0.5969 -0.8603,0.3283 -1.7502,0.5969 -2.6697,0.8058 -0.3857,0.0895 -0.7416,0.179 -1.1273,0.2984 -0.3263,0.1194 -0.7415,0.0597 -1.0382,0.2686 -0.2966,0.2089 -0.3263,0.6865 -0.2669,1.0744 0.0593,0.4776 0.1483,1.0446 0.5636,1.2834 0.2373,0.1194 0.4746,0.1492 0.7119,0.1194 2.1061,-0.0597 4.1232,-0.8357 6.2293,-0.9849 0.6526,0 1.3052,-0.0597 1.9578,-0.1791 0.6526,-0.1194 1.2162,-0.4775 1.6018,-1.0147 0.2373,-0.4477 0.3857,-0.9551 0.4153,-1.4326 0.356,-3.1635 0.089,-6.3271 -0.7119,-9.4011 -0.1187,-0.5373 -0.3263,-1.0446 -0.5933,-1.5221 -0.5339,-0.8059 -1.3645,-1.3729 -2.2841,-1.6117 -0.9195,-0.2387 -1.8688,-0.3581 -2.818,-0.388"
         fill="#ffffff"
         id="path1597" />
      <path
         d="m 44.5545,11.6395 c -0.2967,0 -0.2967,0.4477 0,0.4477 1.4535,0.0597 2.9663,0.1791 4.1528,1.0446 1.1866,0.8655 1.4239,2.507 1.6909,3.85 0.2669,1.3729 0.4449,2.7457 0.4746,4.1484 0.089,1.3729 0,2.7458 -0.2077,4.1186 -0.2966,1.5221 -1.6908,1.7907 -3.0256,1.8504 -1.3349,0.0896 -2.6401,0.2985 -3.9453,0.6268 -0.6526,0.1492 -1.3052,0.2686 -1.9578,0.3581 -0.5636,0.0597 -1.5425,0.2985 -1.8391,-0.3581 -0.178,-0.3582 -0.3263,-1.1938 -0.0593,-1.552 0.178,-0.2686 0.5636,-0.2387 0.8306,-0.2984 0.2669,-0.0597 0.5339,-0.1492 0.8305,-0.2388 1.3052,-0.3283 2.5808,-0.7162 3.8266,-1.1938 0.4153,-0.1492 0.8306,-0.2984 1.2459,-0.4476 0.178,-0.0597 0.3263,-0.1493 0.5043,-0.209 0.0593,-0.0298 0.1483,-0.0298 0.2076,-0.0596 0.1483,-0.0896 0.0297,0 -0.0593,-0.0896 0.1186,0.1194 0.4153,0.0597 0.3856,-0.1791 -0.267,-2.1189 -0.5933,-4.2678 -0.5043,-6.4166 0,-0.2985 -0.4746,-0.2985 -0.4746,0 -0.089,2.1488 0.2373,4.2678 0.5043,6.4166 l 0.3856,-0.179 c -0.2373,-0.2089 -0.7712,0.1194 -1.0382,0.2089 -0.6229,0.2388 -1.2162,0.4477 -1.8391,0.6864 -0.801,0.3283 -1.6612,0.5969 -2.4918,0.8357 -0.4153,0.0895 -0.8009,0.1791 -1.2162,0.2984 -0.3559,0.0896 -0.7119,0.1194 -1.0382,0.2388 -0.5339,0.1791 -0.6526,0.7163 -0.6526,1.1938 0,0.4775 0.089,1.1043 0.4153,1.4624 0.445,0.5074 1.1865,0.388 1.7798,0.3283 0.7416,-0.0895 1.4832,-0.2089 2.2248,-0.3581 0.7712,-0.1791 1.4831,-0.3283 2.284,-0.4776 0.801,-0.1492 1.6019,-0.1193 2.4325,-0.2089 0.6525,-0.0298 1.2755,-0.2686 1.8094,-0.6267 0.5043,-0.4179 0.8306,-0.9849 0.9196,-1.6415 0.2373,-1.5519 0.2966,-3.1039 0.178,-4.6857 -0.089,-1.5817 -0.3263,-3.1337 -0.6823,-4.6856 -0.1483,-0.6865 -0.356,-1.3729 -0.6823,-1.9996 -0.3262,-0.5671 -0.7712,-1.0148 -1.3051,-1.3431 -1.1866,-0.6864 -2.6401,-0.7759 -4.0639,-0.8655 z"
         fill="#5b1a84"
         id="path1599" />
      <g
         opacity="0.1"
         id="g1605">
        <g
           opacity="0.1"
           id="g1603">
          <path
             opacity="0.1"
             d="m 14.2088,76.3434 c 7.4541,0 13.4969,-1.0021 13.4969,-2.2384 0,-1.2362 -6.0428,-2.2383 -13.4969,-2.2383 -7.45412,0 -13.496871,1.0021 -13.496871,2.2383 0,1.2363 6.042751,2.2384 13.496871,2.2384 z"
             fill="#48146d"
             id="path1601" />
        </g>
      </g>
      <path
         d="M 3.61894,4.23799 C 3.085,3.70078 2.37308,3.40233 1.63149,3.40233 c -0.17798,0 -0.38563,0.02984 -0.56361,0.08953 -0.415284,0.20892 -0.711919,0.5969 -0.860236,1.04458 -0.266971,0.68643 -0.266971,1.4624 0,2.17868 C 0.474615,7.4314 1.15687,7.90892 1.89846,7.96861 2.13577,7.99845 2.37308,7.90892 2.55106,7.78954 2.72904,7.64031 2.78836,7.40155 2.69937,7.16279"
         fill="#5b1a84"
         id="path1607" />
      <path
         d="m 16.0183,22.9508 c 0.0593,-3.4919 -1.8985,-6.8644 -1.3052,-10.2965 0.8899,-0.4477 2.0467,0.0895 2.6103,0.9252 0.5636,0.8356 0.712,1.8802 0.8306,2.8651 0.356,2.8949 0.9196,5.7601 1.2755,8.655 0.0594,0.2388 0.0594,0.5074 0,0.776 -0.0593,0.2686 -0.2373,0.4477 -0.5042,0.5372 -0.1187,0.0298 -0.267,0.0298 -0.3857,0"
         fill="#ffffff"
         id="path1609" />
      <path
         d="m 16.2259,22.9508 c 0.0297,-3.283 -1.6612,-6.357 -1.3942,-9.6698 0,-0.1492 -0.0297,-0.388 0.089,-0.5074 0.178,-0.0596 0.356,-0.0895 0.5339,-0.0596 0.356,0.0298 0.712,0.1492 1.0086,0.3581 0.6823,0.4477 1.0382,1.2236 1.2162,1.9996 0.178,0.776 0.267,1.6415 0.356,2.4473 0.1186,0.9252 0.2669,1.8205 0.4153,2.7457 0.1779,1.0148 0.3263,2.0295 0.4746,3.0144 0.089,0.567 0.1483,1.1042 0.2373,1.6713 0.0593,0.4775 0.1483,1.3132 -0.5933,1.2236 -0.2966,-0.0298 -0.3856,0.388 -0.1186,0.4179 0.8899,0.1193 1.2458,-0.5372 1.1865,-1.3729 -0.089,-1.0147 -0.267,-2.0593 -0.4153,-3.074 -0.3263,-2.1489 -0.6526,-4.2679 -0.9492,-6.3869 -0.2373,-1.5221 -0.9789,-3.4023 -2.7884,-3.462 -0.2966,-0.0298 -0.6229,0.0299 -0.8899,0.1791 -0.2373,0.1791 -0.2076,0.9252 -0.2076,1.1938 0,0.9252 0.0593,1.8205 0.2669,2.7159 0.4153,2.1787 1.1866,4.2977 1.1569,6.5659 0,0.1194 0.089,0.2387 0.2373,0.2387 0.1483,0 0.178,-0.1193 0.178,-0.2387 z"
         fill="#5b1a84"
         id="path1611" />
      <path
         d="M 6.08099,47.1849 C 5.28008,54.7357 5.36907,62.3461 6.25897,69.8671 6.37763,70.8818 6.49628,71.986 5.96234,72.8814 6.76325,72.9411 7.56417,72.9411 8.36508,72.8515 8.1871,70.0163 8.7507,67.2108 9.10666,64.4054 9.81859,59.1229 9.9669,53.7806 9.52195,48.4682 9.46262,47.8116 9.37363,47.1252 8.98801,46.6178 8.39474,45.8717 7.32686,45.7225 6.58527,46.3194 c -0.29663,0.2387 -0.50428,0.567 -0.62293,0.955"
         fill="#ffffff"
         id="path1613" />
      <path
         d="m 5.84369,47.1849 c -0.71192,6.7748 -0.71192,13.5794 -0.05932,20.3543 0.08899,0.8953 0.20764,1.7906 0.29663,2.7158 0.08899,0.8655 0.14832,1.7609 -0.29663,2.507 -0.05933,0.1194 -0.02967,0.2388 0.08899,0.2985 0.02966,0.0298 0.05932,0.0298 0.11865,0.0298 0.80091,0.0597 1.60183,0.0299 2.40274,-0.0298 0.11865,0 0.20764,-0.0896 0.23731,-0.2388 C 8.5134,70.5833 8.81004,68.3748 9.13633,66.1961 9.43297,64.0473 9.7296,61.8985 9.87792,59.7198 10.0262,57.5411 10.0856,55.3326 10.0559,53.124 10.0262,51.9899 9.99657,50.8857 9.90758,49.7515 9.84826,48.8562 9.87792,47.8415 9.55162,47.0058 9.25499,46.2 8.5134,45.6926 7.65316,45.6926 c -0.86024,0.0299 -1.63149,0.6566 -1.83913,1.4923 -0.02966,0.1194 0.05933,0.2387 0.17798,0.2686 0.11865,0.0298 0.20764,-0.0299 0.23731,-0.1492 0.20764,-0.8059 1.03822,-1.3132 1.83913,-1.1043 0.02966,0 0.08899,0.0298 0.11865,0.0298 0.88991,0.3283 1.06789,1.2535 1.12721,2.0892 0.17798,1.9698 0.26697,3.9992 0.26697,5.969 0,3.9992 -0.32629,7.9686 -0.91956,11.9081 -0.3263,2.1787 -0.62293,4.3872 -0.50428,6.6256 l 0.23731,-0.2388 c -0.80091,0.0597 -1.60183,0.0896 -2.40274,0.0299 l 0.20764,0.3283 C 6.9709,71.6279 6.52595,69.9864 6.37763,68.5837 6.19965,66.8527 6.05134,65.1217 5.96235,63.3907 5.7547,59.9287 5.7547,56.4667 5.90302,52.9748 5.99201,51.005 6.14033,49.0651 6.34797,47.1252 c 0,-0.2388 -0.44495,-0.2089 -0.50428,0.0597 z"
         fill="#5b1a84"
         id="path1615" />
      <path
         d="m 18.3023,50.2589 c 0,-0.3283 -0.0889,-0.6267 -0.2373,-0.9252 -0.1779,-0.2089 -0.3856,-0.3581 -0.6526,-0.4477 -0.6526,-0.2984 -1.3645,-0.5372 -2.0764,-0.6565 -0.356,-0.0896 -0.7416,-0.0896 -1.0975,0 -1.2459,0.4476 -1.4832,2.6263 -1.3052,3.7306 0.3559,1.9697 1.2458,3.8201 1.8984,5.6705 1.6019,4.5066 1.9578,9.3713 3.708,13.8182 0.5636,0.1194 0.8602,0.7163 1.2458,1.1342 0.9789,1.0744 2.6401,1.1639 4.0936,1.1639 0.2076,-0.6864 -0.3263,-1.4027 -0.9196,-1.8205 -0.4449,-0.2985 -0.9196,-0.5969 -1.4238,-0.8357 -0.3263,-0.1791 -0.8899,-0.2984 -1.1272,-0.6267 -0.178,-0.2686 -0.2077,-0.776 -0.2967,-1.1043 -0.1186,-0.5372 -0.2076,-1.0744 -0.2966,-1.6116 -0.089,-0.7462 -0.089,-1.4624 -0.3263,-2.1787 -0.267,-0.8058 -0.2966,-1.7012 -0.356,-2.5368 -0.0593,-0.8357 -0.178,-1.731 -0.2373,-2.5667 -0.178,-3.4023 -0.2373,-6.8047 -0.5933,-10.207 z"
         fill="#ffffff"
         id="path1617" />
      <path
         d="m 18.5396,50.2589 c -0.0593,-0.567 -0.1779,-1.0446 -0.6526,-1.3729 -0.5636,-0.3282 -1.1865,-0.5969 -1.8094,-0.7162 -0.9789,-0.2686 -2.0171,-0.4179 -2.6994,0.5073 -1.2459,1.7012 -0.5636,4.0888 0.0593,5.8496 0.4746,1.3132 1.0383,2.5667 1.4535,3.9097 0.4153,1.3431 0.7713,2.7159 1.0976,4.0888 0.6229,2.7159 1.1272,5.4915 2.0468,8.1178 0.0593,0.3283 0.2076,0.6566 0.3559,0.9551 0.0594,0.0895 0.178,0.0895 0.267,0.1492 0.1483,0.0597 0.2966,0.179 0.3856,0.2984 0.4153,0.4179 0.7119,0.8954 1.2162,1.2237 1.0679,0.6864 2.4028,0.7162 3.619,0.7162 0.089,0 0.1779,-0.0596 0.2076,-0.1492 0.356,-1.4922 -1.4238,-2.4473 -2.551,-2.9546 -0.267,-0.0896 -0.534,-0.2089 -0.801,-0.388 -0.2966,-0.2388 -0.2966,-0.6566 -0.3559,-0.9849 -0.1483,-0.8655 -0.2967,-1.7012 -0.3856,-2.5667 -0.089,-0.8655 -0.356,-1.6414 -0.4747,-2.4771 -0.1186,-0.8356 -0.1779,-1.6116 -0.2373,-2.4174 -0.178,-1.8504 -0.2669,-3.7008 -0.3559,-5.581 -0.089,-2.0892 -0.2077,-4.1485 -0.3857,-6.2078 -0.0296,-0.2984 -0.4746,-0.2984 -0.4449,0 0.356,3.6411 0.4153,7.2822 0.6823,10.9233 0.0593,0.8655 0.1779,1.7608 0.2373,2.6263 0.0296,0.3582 0.0593,0.6865 0.1186,1.0147 0.0593,0.4179 0.2077,0.8059 0.2966,1.1938 0.178,0.8357 0.178,1.6714 0.3263,2.507 0.0594,0.3582 0.1484,0.7461 0.2077,1.1043 0.0297,0.3283 0.1186,0.6267 0.267,0.9252 0.1779,0.2387 0.4152,0.4178 0.7119,0.5073 0.3856,0.1493 0.7416,0.3283 1.0975,0.5373 0.712,0.4178 1.8392,1.0445 1.6315,2.0593 l 0.2077,-0.1493 c -1.0383,0 -2.1655,-0.0298 -3.1147,-0.5073 -0.445,-0.2388 -0.8306,-0.5671 -1.1272,-0.9849 -0.2373,-0.3582 -0.5933,-0.6268 -1.0086,-0.776 l 0.1484,0.1492 c -1.4832,-3.7903 -1.9875,-7.8492 -3.0554,-11.729 -0.5339,-1.94 -1.3645,-3.7605 -1.9874,-5.6407 -0.4746,-1.4624 -0.8899,-2.9845 -0.3263,-4.4768 0.1186,-0.3283 0.2966,-0.6267 0.5636,-0.8655 0.4153,-0.3581 0.9492,-0.2984 1.4535,-0.2089 0.5339,0.1194 1.0679,0.2686 1.5721,0.4775 0.267,0.0896 0.534,0.2388 0.7713,0.388 0.2373,0.2388 0.356,0.5671 0.356,0.9252 0,0.2686 0.4449,0.2686 0.4152,0 z"
         fill="#5b1a84"
         id="path1619" />
      <path
         d="m 11.5984,12.5946 2.4621,-0.2089 c 0.1186,-0.0299 0.2669,0 0.3856,0.0298 0.1483,0.0895 0.2373,0.2089 0.267,0.388 0.5636,1.4325 0.4746,3.1039 1.2458,4.417 0.4153,0.7163 1.0679,1.2834 1.2756,2.0593 0.2966,1.1341 -0.3263,2.2981 -1.3942,2.6861 l 0.8305,6.357 0.178,1.5519 2.8774,22.3837 c 0.0296,0.1791 0.0296,0.388 -0.0297,0.5671 -0.089,0.1791 -0.267,0.3581 -0.4746,0.4178 -1.9281,1.0147 -4.3012,-0.0895 -6.437,0.3283 -1.3941,0.2686 -2.64,1.2236 -4.09352,1.2535 C 8.24643,54.855 7.83114,54.7357 7.47518,54.4671 7.00056,54.0492 6.88191,53.3628 6.91157,52.7659 6.94124,51.9601 6.88191,51.1543 6.85225,50.3484 6.79292,48.707 6.67427,47.0655 6.49628,45.424 5.96234,46.9461 5.57672,48.5279 5.33941,50.1395 5.1021,51.7512 5.16143,53.4225 5.07244,55.0341 4.74614,48.7667 4.59782,42.5291 4.5385,36.2616 c 0,-1.5221 0,-3.0442 0.41529,-4.5066 0.41528,-1.4624 1.27552,-2.8352 2.61038,-3.5515 -0.91957,-4.7454 -1.83913,-9.4907 -2.7587,-14.2361 -0.02966,-0.1492 -0.02966,-0.2686 0,-0.4178 0.08899,-0.1492 0.20764,-0.2388 0.3263,-0.2984 0.80091,-0.4179 1.72048,-0.6865 2.64004,-0.7462 -0.14831,1.1043 0.59327,2.0892 1.69082,2.2683 0.02966,0 0.05933,0 0.08899,0 1.09758,0 1.98748,-0.8954 1.95778,-1.9997 0,-0.0298 0,-0.0597 0,-0.1193"
         fill="#ffffff"
         id="path1621" />
      <path
         d="m 11.5984,12.8035 2.0171,-0.1791 c 0.267,-0.0298 0.6526,-0.1492 0.8306,0.0896 0.1483,0.2686 0.2373,0.5372 0.2966,0.8356 0.267,1.0446 0.356,2.1488 0.7713,3.1934 0.2076,0.4775 0.5043,0.9252 0.8306,1.343 0.3263,0.388 0.5932,0.8357 0.7415,1.3431 0.2077,0.9848 -0.3263,1.9697 -1.2755,2.3279 -0.089,0.0298 -0.1483,0.1194 -0.178,0.2089 l 2.7587,21.4585 0.6823,5.3124 0.356,2.6562 c 0.0889,0.388 0.1483,0.8058 0.1186,1.2237 -0.0593,0.4178 -0.6526,0.5969 -1.0085,0.7162 -1.4536,0.4179 -3.0257,-0.0298 -4.5089,-0.0596 -0.7119,0 -1.4238,0.1193 -2.0764,0.3282 -0.6823,0.2388 -1.3645,0.5671 -2.07647,0.8059 -0.80091,0.2387 -1.98745,0.4476 -2.46207,-0.4477 -0.17798,-0.3582 -0.2373,-0.7461 -0.2373,-1.1341 0,-0.5074 0,-0.9849 0,-1.4923 -0.08899,-1.9697 -0.20765,-3.9395 -0.41529,-5.9391 0,-0.1194 -0.08899,-0.2089 -0.23731,-0.2089 -0.08899,0 -0.17798,0.0597 -0.20764,0.1492 C 5.78438,46.8566 5.39875,48.4384 5.16144,50.05 4.92414,51.6915 4.9538,53.3628 4.89447,55.0043 H 5.33943 C 5.13178,51.2438 5.01313,47.5132 4.92414,43.7527 4.89447,41.8725 4.86481,39.9922 4.83515,38.1419 4.80548,36.3213 4.68683,34.4112 5.01313,32.5907 5.30976,30.8895 6.14034,29.2182 7.7125,28.3527 7.80149,28.293 7.83115,28.2035 7.80149,28.1139 L 6.08101,19.3395 5.25043,14.9822 C 5.19111,14.624 5.10212,14.2659 5.04279,13.8779 4.98346,13.4601 5.39875,13.3407 5.72505,13.1915 6.37764,12.9229 7.08957,12.7438 7.80149,12.6841 L 7.59385,12.3857 c -0.17799,1.2236 0.65259,2.3577 1.83913,2.5368 0.02966,0 0.05932,0 0.08899,0 1.24583,0.0895 2.34343,-1.1043 2.22473,-2.3279 -0.0296,-0.2985 -0.4746,-0.2985 -0.4449,0 0.0593,0.9849 -0.6526,1.8205 -1.63151,1.8802 -0.02967,0 -0.02967,0 -0.05933,0 -0.97889,-0.0597 -1.69082,-0.8953 -1.63149,-1.8802 0,-0.0299 0,-0.0597 0,-0.1194 0.02966,-0.1194 -0.02966,-0.2388 -0.14832,-0.2985 -0.02966,0 -0.05932,0 -0.05932,0 -0.53395,0.0299 -1.06789,0.1493 -1.60183,0.2985 -0.50428,0.1194 -0.97889,0.3283 -1.39418,0.6267 -0.35596,0.2985 -0.20764,0.776 -0.11865,1.164 l 0.35596,1.8802 1.48317,7.6105 0.86024,4.3573 0.08899,-0.2387 c -3.085,1.7012 -3.14432,5.6108 -3.11466,8.6849 0.02966,3.9097 0.08899,7.7895 0.23731,11.6992 0.08899,2.2085 0.17798,4.4469 0.29663,6.6554 0,0.1194 0.08899,0.2388 0.23731,0.2388 0.14831,0 0.23731,-0.0896 0.23731,-0.2388 0.05932,-1.6713 0.02966,-3.3426 0.26697,-4.9841 0.20764,-1.5519 0.59326,-3.1039 1.12721,-4.5961 L 6.28865,45.2748 c 0.20765,1.8802 0.29664,3.7605 0.38563,5.6407 0.02966,0.4178 0.02966,0.8655 0.02966,1.2833 -0.02966,0.388 0,0.7462 0.02967,1.1341 0.08899,0.6865 0.53394,1.2535 1.18653,1.4923 1.48318,0.4477 2.96636,-0.5671 4.30116,-1.0147 1.5722,-0.5074 3.2037,-0.0597 4.8055,-0.0299 0.7416,0.0299 1.4535,-0.1194 2.1358,-0.4178 0.2966,-0.1194 0.5339,-0.3283 0.7119,-0.5969 0.1483,-0.3283 0.0593,-0.776 0,-1.1341 L 19.1626,45.9612 17.7387,34.7395 16.1072,21.9957 15.9293,22.2046 c 0.7416,-0.2686 1.3052,-0.8356 1.5425,-1.5817 0.2669,-0.8357 0.0296,-1.6415 -0.4746,-2.3578 -0.267,-0.388 -0.5933,-0.776 -0.8306,-1.1938 -0.267,-0.5073 -0.445,-1.0147 -0.5636,-1.5818 -0.2077,-0.955 -0.267,-2.0593 -0.7416,-2.9248 -0.2373,-0.4775 -0.6823,-0.4178 -1.1569,-0.3581 l -2.1061,0.1791 c -0.2966,0 -0.2966,0.4476 0,0.4178 z"
         fill="#0bf7eb"
         id="path1623" />
      <path
         d="m 8.36509,71.2698 c 0.05932,0.4775 0,0.955 -0.14832,1.4027 L 6.19966,72.762 c -0.02967,-0.2686 0,-0.5372 0.05932,-0.776 -0.91956,-0.2984 -1.72048,1.0446 -1.75014,1.8206 -0.02966,0.1791 0.02966,0.388 0.14832,0.5372 0.23731,0.1791 0.53394,0.2388 0.83057,0.1791 l 2.96635,-0.2985 c 0.08899,0 0.14831,-0.0298 0.2373,-0.0597 C 8.75071,74.105 8.81004,74.0155 8.8397,73.9558 9.07701,73.3589 9.166,72.6725 9.04735,72.0457 8.98802,71.7473 8.78038,71.3891 8.48374,71.4488"
         fill="#5b1a84"
         id="path1625" />
      <path
         d="m 23.7901,71.7771 c -0.7713,-0.5372 -1.6315,-0.8058 -2.4918,-1.1042 0.178,0.2387 0.445,0.4178 0.712,0.5372 0.2373,0.1194 0.4449,0.2686 0.6822,0.4477 0.356,0.2686 0.7119,0.5073 1.0382,0.8058 0.089,0.0895 0.2077,0.2089 0.1187,0.3283 -0.0593,0.0597 -0.1483,0.0895 -0.2373,0.0895 -0.8602,0 -1.7502,-0.1194 -2.5807,-0.388 -0.8899,-0.3283 -1.7502,-0.7163 -2.5807,-1.1639 -0.0297,0.5969 0,1.1938 0.0889,1.7608 0.1187,0.5969 0.267,0.6865 0.8899,0.7163 0.9196,0 1.8392,0.0597 2.7587,0.1492 1.0086,0.1791 2.0468,0.4775 3.085,0.3582 0.9493,-0.0896 0.6526,-1.0745 0.089,-1.552 -0.2966,-0.2387 -0.5932,-0.4477 -0.9492,-0.5969 -0.178,-0.1492 -0.4153,-0.2387 -0.6229,-0.388 z"
         fill="#5b1a84"
         id="path1627" />
      <path
         d="m 9.31433,2.53682 c 1.42387,0 2.43237,1.37287 3.17397,2.59651 0.6823,1.16396 1.3942,2.3876 1.4832,3.73062 0.0296,0.17907 0,0.38799 -0.1187,0.53721 -0.1186,0.11938 -0.2669,0.17907 -0.4153,0.20892 l -2.462,0.71632 c 0.5636,0.8058 0.5636,1.8802 0.5043,2.8949 0,0.3283 -0.0594,0.6566 -0.178,0.9849 -0.4153,0.8953 -1.80949,1.0147 -2.55108,0.3283 C 8.00914,13.8481 7.86082,12.714 8.09813,11.7589 8.18712,11.3709 8.33543,10.9233 8.15745,10.5353 7.97947,10.2667 7.74216,10.0279 7.47519,9.87868 6.46664,9.19225 5.72505,8.17752 5.33943,7.01356 5.16145,6.56589 5.10212,6.05853 5.22077,5.55116 5.36909,5.13333 5.63606,4.74535 5.96236,4.4469 6.73361,3.61124 7.68284,2.68604 8.81005,2.83527"
         fill="#ffffff"
         id="path1629" />
      <path
         d="m 9.31432,2.74574 c 1.72048,0.02985 2.75868,2.02946 3.47058,3.34264 0.4747,0.83566 0.9196,1.79069 0.9493,2.77558 0,0.35814 -0.178,0.47752 -0.5043,0.5969 l -0.8306,0.23876 -1.4831,0.41778 c -0.1187,0.0299 -0.178,0.1493 -0.1484,0.2687 0,0.0298 0,0.0298 0.0297,0.0596 0.3856,0.6268 0.5339,1.3729 0.5043,2.0892 0,0.6267 0.089,1.4922 -0.4746,1.9399 C 10.3525,14.8031 9.75928,14.8329 9.255,14.5643 8.72106,14.2361 8.3651,13.6988 8.2761,13.0721 8.15745,12.3857 8.39476,11.7888 8.48375,11.1023 8.57274,10.4159 8.18711,10.0578 7.65317,9.66977 6.55563,8.8938 5.42842,7.46124 5.39875,6.05853 c 0,-0.83566 0.74159,-1.52209 1.30519,-2.0593 0.56361,-0.53721 1.27553,-1.04457 2.13577,-0.92519 0.29663,0.02984 0.29663,-0.41783 0,-0.44768 C 8.09812,2.56667 7.35654,2.83528 6.79293,3.34264 6.14034,3.82016 5.57673,4.4469 5.16144,5.16318 4.77582,5.93915 4.98346,6.80466 5.30976,7.55078 5.63606,8.2969 6.08101,8.95349 6.67428,9.4907 c 0.26697,0.23876 0.5636,0.47752 0.86024,0.6864 0.20764,0.1194 0.35596,0.2985 0.44495,0.5074 0.05933,0.2985 0.02966,0.5969 -0.08899,0.8655 -0.20764,0.7163 -0.17798,1.4624 0.05933,2.1488 0.41529,1.164 1.7798,1.9101 2.93669,1.2237 0.7416,-0.4477 0.7712,-1.3132 0.8009,-2.0892 0.0297,-0.9252 -0.0297,-1.8503 -0.5339,-2.6263 l -0.1187,0.3581 1.8985,-0.56703 c 0.4153,-0.11938 0.9789,-0.17907 1.1568,-0.62675 0.178,-0.44767 0,-1.13411 -0.1186,-1.58178 C 13.8232,7.25233 13.5859,6.71512 13.3189,6.2376 12.518,4.65582 11.3018,2.35776 9.255,2.32791 c -0.11866,0 -0.23731,0.08954 -0.23731,0.23876 0,0.14923 0.17798,0.17907 0.29663,0.17907 z"
         fill="#5b1a84"
         id="path1631" />
      <path
         d="m 10.7975,4.4469 c -0.089,0.02984 -0.1187,0.08953 -0.089,0.23876 0.0593,0.23876 0.2373,0.44767 0.4746,0.56705 0.2077,0.08954 0.2373,-0.14922 0.2373,-0.29845 C 11.3908,4.77519 11.3018,4.62597 11.1534,4.56628 11.0645,4.47674 10.9458,4.4469 10.7975,4.4469 Z"
         fill="#5b1a84"
         id="path1633" />
      <path
         d="M 11.8357,3.61124 C 11.5984,3.70078 11.4501,3.37248 11.2128,3.2531 10.8568,3.04419 10.4415,3.46202 10.1746,3.79031 9.37365,4.74535 8.18711,5.25272 6.97091,5.16318 7.50485,5.76008 7.92014,6.47636 8.15745,7.28217 7.86081,7.22248 7.59384,7.1628 7.32687,7.04342 6.31831,6.8345 6.70394,7.93876 7.17855,8.32675 7.41586,8.56551 7.80148,8.6252 8.09812,8.44613 7.97947,8.50582 8.9287,9.78915 8.9287,9.93838 8.89903,10.2965 8.66172,10.595 8.30576,10.6845 7.9498,10.7442 7.59384,10.7143 7.23788,10.595 6.28865,10.2667 5.42841,9.75931 4.68682,9.10272 3.85625,8.41628 3.02567,7.61047 2.78836,6.53605 2.69937,6.20776 2.69937,5.87946 2.81803,5.58101 2.90702,5.34225 3.05533,5.13334 3.20365,4.92442 4.09355,3.73062 5.28009,2.74574 6.64461,2.11899 7.83115,1.58179 9.166,1.37287 10.4415,1.5221 c 0.445,0.05969 0.7416,0.11938 1.0383,0.47751 0.0593,0.17907 0.4746,1.55194 0.3559,1.61163 z"
         fill="#5b1a84"
         id="path1635" />
      <path
         d="M 4.41984,17.6981 C 4.24186,17.3996 4.06388,17.131 3.85624,16.8326 3.35196,16.1461 2.996,15.5194 3.23331,14.624 c 0.2373,-0.8953 1.15687,-1.4325 2.04677,-1.1938 0.08899,0.0299 0.20765,0.0597 0.29664,0.1194 0.80091,0.3582 1.12721,1.2834 1.48317,2.0892 0.5636,1.3728 1.33485,2.6562 2.25442,3.8201 l 1.80949,-3.3128 c 0.8009,-1.4922 1.6315,-3.0143 1.8688,-4.6856 0.089,-0.7163 0.1483,-1.55197 0.6822,-2.02949 0.534,-0.47752 1.3942,-0.41783 1.9875,-0.02984 0.5636,0.41783 1.0382,0.98493 1.3348,1.64143 l -1.0678,-0.567 c -0.267,0.7461 -0.712,1.4027 -1.3349,1.9101 -0.178,0.1193 -0.3263,0.2686 -0.445,0.4178 -0.0889,0.1791 -0.1483,0.388 -0.1779,0.5969 -0.3857,2.2981 -1.2756,4.4469 -1.7798,6.7151 -0.2967,1.4027 -0.5043,2.8353 -0.6526,4.2977 -0.0594,0.6267 -0.2373,1.3729 -0.8306,1.5519 -0.2373,0.0597 -0.4746,0.0299 -0.6823,-0.0298 C 8.7507,25.5771 7.94979,24.3236 7.26753,23.1895 6.16999,21.369 5.51739,19.4589 4.41984,17.6981 Z"
         fill="#ffffff"
         id="path1637" />
      <path
         d="M 4.6275,17.5787 C 4.0639,16.6833 3.11467,15.7581 3.47063,14.5942 c 0.29663,-0.776 1.12721,-1.164 1.89846,-0.8655 0.17798,0.0597 0.3263,0.1492 0.47461,0.2686 0.74159,0.6566 1.00856,1.8504 1.45351,2.7159 0.50428,1.0445 1.12721,1.9996 1.83913,2.9248 0.08899,0.0895 0.23731,0.0895 0.3263,0 0,0 0.02967,-0.0299 0.02967,-0.0597 0.65259,-1.2237 1.33489,-2.4473 1.98749,-3.6709 0.6229,-1.0446 1.1272,-2.1787 1.4831,-3.3427 0.1483,-0.567 0.2373,-1.1341 0.2967,-1.731 0.089,-0.5372 0.2373,-1.13409 0.7415,-1.4027 1.2459,-0.62674 2.2545,0.776 2.7587,1.7012 l 0.2967,-0.2985 -1.0382,-0.567 c -0.1187,-0.0597 -0.2373,-0.0299 -0.2967,0.0895 0,0.0298 -0.0296,0.0298 -0.0296,0.0597 -0.1484,0.388 -0.356,0.7461 -0.5933,1.0744 -0.267,0.3283 -0.5636,0.6267 -0.8899,0.9252 -0.2373,0.2388 -0.4153,0.5671 -0.445,0.9252 -0.089,0.5074 -0.2076,0.9849 -0.3263,1.4922 -0.4449,1.7907 -1.0975,3.5516 -1.5128,5.3423 -0.2076,0.9252 -0.356,1.8802 -0.4746,2.8353 -0.0593,0.4476 -0.1187,0.8953 -0.178,1.3728 -0.0297,0.388 -0.1483,0.7462 -0.3263,1.0744 C 10.4119,26.174 9.28466,25.4279 8.81005,24.9802 8.2761,24.443 7.80149,23.8163 7.44553,23.1298 6.40731,21.3391 5.69539,19.3694 4.6275,17.5787 4.56818,17.4891 4.41986,17.4593 4.33087,17.519 c -0.08899,0.0597 -0.11866,0.1791 -0.05933,0.2984 1.03822,1.7012 1.72048,3.6113 2.72904,5.3124 0.71192,1.2237 1.7798,2.9547 3.38162,3.0442 0.7119,0.0299 1.1272,-0.5372 1.3052,-1.1639 0.2373,-0.9252 0.267,-1.9101 0.3856,-2.8651 0.2967,-2.0593 0.9196,-3.9993 1.5129,-5.9989 0.1779,-0.567 0.3263,-1.1639 0.4449,-1.731 0.0593,-0.2686 0.1187,-0.5372 0.1483,-0.8058 0,-0.2985 0.1187,-0.5969 0.2967,-0.8357 0.3263,-0.2984 0.6526,-0.6267 0.9789,-0.955 0.2966,-0.388 0.5339,-0.8357 0.7119,-1.2833 l -0.3263,0.1492 1.0679,0.567 c 0.1186,0.0597 0.2373,0 0.2966,-0.1193 0.0297,-0.0597 0.0297,-0.1194 0,-0.1791 -0.445,-0.8058 -1.0086,-1.64148 -1.9281,-1.93993 -0.7713,-0.29845 -1.6612,0 -2.1061,0.71628 -0.2077,0.38795 -0.3263,0.83565 -0.356,1.25345 -0.0593,0.5372 -0.178,1.0745 -0.3263,1.6117 -0.356,1.0744 -0.8306,2.119 -1.3942,3.1038 -0.6526,1.2237 -1.33482,2.4473 -1.98742,3.671 L 9.46264,19.3097 C 8.75072,18.4143 8.15745,17.4593 7.65317,16.4147 7.23788,15.5791 7.00058,14.6539 6.40731,13.9376 5.75471,13.1019 4.53851,12.9229 3.70794,13.5795 c -0.41529,0.3282 -0.68226,0.7759 -0.74159,1.2833 -0.14832,1.1639 0.71192,2.0294 1.27553,2.9248 0.14832,0.2686 0.53394,0.0298 0.38562,-0.2089 z"
         fill="#5b1a84"
         id="path1639" />
      <path
         d="m 18.8363,26.3829 c -1.3645,-0.2387 -2.6994,-0.5372 -4.0342,-0.8953 -0.8603,-0.2388 -2.0468,-0.8058 -2.8774,-0.776 -0.178,0.0299 -0.3856,-0.0597 -0.4746,-0.2387 -0.0297,-0.0896 -0.0297,-0.1493 0,-0.2388 0.089,-0.5671 0.1483,-1.1639 0.2373,-1.731 0.4746,0.3581 4.6275,-0.1492 4.6275,0.4477"
         fill="#ffffff"
         id="path1641" />
      <path
         d="m 18.8956,26.174 c -1.6018,-0.2387 -3.2037,-0.5969 -4.7461,-1.1042 -0.5933,-0.2388 -1.2163,-0.4179 -1.8688,-0.5372 -0.1484,0 -0.3263,0 -0.4747,-0.0299 -0.2076,-0.0895 -0.089,-0.388 -0.0593,-0.567 0.0593,-0.4477 0.1187,-0.8954 0.2077,-1.3431 l -0.3263,0.1194 c 0.2669,0.1194 0.5636,0.1791 0.8602,0.1492 0.4746,0.0299 0.9789,0 1.4535,0 0.4746,0 0.9789,0 1.4535,0 0.178,0 0.3856,0.0299 0.5636,0.0597 0.0593,0 0.1187,0.0299 0.178,0.0597 0.089,0.0299 0.0297,0.0597 0.0297,-0.0298 0.0296,0.2984 0.4746,0.2984 0.4449,0 -0.0296,-0.2985 -0.3559,-0.4179 -0.6229,-0.4477 -0.4746,-0.0597 -0.9789,-0.0895 -1.4535,-0.0597 -0.534,0 -1.0976,0.0299 -1.6315,0 -0.2966,0 -0.8009,0.0597 -1.0382,-0.1194 -0.1187,-0.0597 -0.2373,-0.0298 -0.2967,0.0896 0,0.0298 -0.0296,0.0298 -0.0296,0.0597 -0.089,0.4476 -0.1483,0.8953 -0.178,1.343 -0.0297,0.3283 -0.178,0.7461 0.1186,1.0147 0.2373,0.2089 0.534,0.1492 0.801,0.1791 0.4152,0.0597 0.8009,0.1492 1.1865,0.2984 1.7501,0.5969 3.5596,1.0148 5.3691,1.3132 0.2076,0.0299 0.3263,-0.4178 0.0593,-0.4477 z"
         fill="#5b1a84"
         id="path1643" />
    </g>
  </g>
</svg>
