<?xml version="1.0" encoding="UTF-8" standalone="no"?>
<!-- Created with Inkscape (http://www.inkscape.org/) -->

<svg
   width="80"
   height="80"
   viewBox="0 0 21.166666 21.166667"
   version="1.1"
   id="svg1868"
   inkscape:version="1.1 (ce6663b3b7, 2021-05-25)"
   sodipodi:docname="03_register_settings.svg"
   xmlns:inkscape="http://www.inkscape.org/namespaces/inkscape"
   xmlns:sodipodi="http://sodipodi.sourceforge.net/DTD/sodipodi-0.dtd"
   xmlns="http://www.w3.org/2000/svg"
   xmlns:svg="http://www.w3.org/2000/svg">
  <sodipodi:namedview
     id="namedview1870"
     pagecolor="#ffffff"
     bordercolor="#666666"
     borderopacity="1.0"
     inkscape:pageshadow="2"
     inkscape:pageopacity="0.0"
     inkscape:pagecheckerboard="0"
     inkscape:document-units="mm"
     showgrid="false"
     units="px"
     inkscape:zoom="0.71179153"
     inkscape:cx="683.48664"
     inkscape:cy="561.25984"
     inkscape:window-width="1920"
     inkscape:window-height="1017"
     inkscape:window-x="0"
     inkscape:window-y="26"
     inkscape:window-maximized="1"
     inkscape:current-layer="layer1" />
  <defs
     id="defs1865">
    <clipPath
       id="clip0">
      <rect
         width="48"
         height="80"
         fill="#ffffff"
         id="rect2094"
         x="0"
         y="0" />
    </clipPath>
  </defs>
  <g
     inkscape:label="Capa 1"
     inkscape:groupmode="layer"
     id="layer1">
    <g
       clip-path="url(#clip0)"
       id="g2092"
       transform="matrix(0.26458333,0,0,0.26458333,4.2333334,1.3333333e-7)">
      <path
         d="M 25.5659,21.9179 46.4021,33.805 V 23.9387 L 25.5659,11.9694 Z"
         fill="#ffffff"
         id="path1952" />
      <path
         d="m 46.4021,33.9879 c -0.0274,0 -0.0639,-0.0092 -0.0913,-0.0274 L 25.4746,22.0734 c -0.0548,-0.0366 -0.0913,-0.0915 -0.0913,-0.1555 v -9.9485 c 0,-0.064 0.0365,-0.128 0.0913,-0.1555 0.0548,-0.0366 0.1278,-0.0366 0.1826,0 l 20.8362,11.9602 c 0.0548,0.0366 0.0913,0.0915 0.0913,0.1555 v 9.8663 c 0,0.064 -0.0365,0.128 -0.0913,0.1554 -0.0274,0.0274 -0.0639,0.0366 -0.0913,0.0366 z M 25.7485,21.8082 46.2104,33.485 V 24.0393 L 25.7485,12.2803 Z"
         fill="#5b1a84"
         id="path1954" />
      <path
         d="m 47.8174,23.2438 v 9.912 l -1.4153,0.6675 v -9.8754 z"
         fill="#f5e9fd"
         id="path1956" />
      <path
         d="m 46.4021,34.0062 c -0.0365,0 -0.0639,-0.0092 -0.1004,-0.0275 -0.0548,-0.0365 -0.0822,-0.0914 -0.0822,-0.1554 v -9.8754 c 0,-0.0732 0.0365,-0.128 0.1004,-0.1646 l 1.4153,-0.7132 c 0.0548,-0.0275 0.1278,-0.0275 0.1735,0.0091 0.0548,0.0366 0.0822,0.0914 0.0822,0.1554 v 9.912 c 0,0.0732 -0.0366,0.1372 -0.1005,0.1646 l -1.4152,0.6675 c -0.0274,0.0183 -0.0548,0.0275 -0.0731,0.0275 z m 0.1826,-9.9395 v 9.464 l 1.0501,-0.4938 v -9.5005 z"
         fill="#5b1a84"
         id="path1958" />
      <path
         d="M 25.5568,11.9785 46.393,23.9753 47.8174,23.2255 27.0999,11.183 Z"
         fill="#5b1a84"
         id="path1960" />
      <path
         d="m 46.393,24.1582 c -0.0274,0 -0.0639,-0.0091 -0.0913,-0.0274 L 25.4655,12.134 c -0.0548,-0.0366 -0.0913,-0.0915 -0.0913,-0.1646 0,-0.064 0.0365,-0.128 0.1004,-0.1555 l 1.5431,-0.7955 c 0.0548,-0.0274 0.1187,-0.0274 0.1735,0 l 20.7084,12.0425 c 0.0547,0.0366 0.0913,0.0915 0.0913,0.1646 0,0.064 -0.0365,0.128 -0.1005,0.1555 l -1.4152,0.7589 c -0.0183,0.0183 -0.0548,0.0183 -0.0822,0.0183 z M 25.9403,11.9877 46.4021,23.7742 47.443,23.2255 27.0999,11.3933 Z"
         fill="#48146d"
         id="path1962" />
      <path
         d="M 25.5659,10.9178 46.4021,22.8049 V 12.9386 L 25.5659,0.969265 Z"
         fill="#ffffff"
         id="path1964" />
      <path
         d="m 46.4021,22.9878 c -0.0274,0 -0.0639,-0.0092 -0.0913,-0.0274 L 25.4746,11.0824 C 25.4198,11.0458 25.3833,10.991 25.3833,10.927 V 0.969267 c 0,-0.064008 0.0365,-0.128015 0.0913,-0.155447 0.0548,-0.036576 0.1278,-0.036576 0.1826,0 L 46.4843,12.7832 c 0.0548,0.0366 0.0913,0.0914 0.0913,0.1554 v 9.8663 c 0,0.064 -0.0365,0.128 -0.0913,0.1555 -0.0183,0.0182 -0.0548,0.0274 -0.0822,0.0274 z M 25.7485,10.8172 46.2195,22.494 V 13.0392 L 25.7485,1.28016 Z"
         fill="#5b1a84"
         id="path1966" />
      <path
         d="m 47.8174,12.2437 v 9.912 l -1.4153,0.6675 v -9.8663 z"
         fill="#f5e9fd"
         id="path1968" />
      <path
         d="m 46.4021,23.006 c -0.0365,0 -0.0639,-0.0091 -0.1004,-0.0274 -0.0548,-0.0366 -0.0822,-0.0914 -0.0822,-0.1554 v -9.8663 c 0,-0.0732 0.0365,-0.1372 0.1004,-0.1646 l 1.4153,-0.7132 c 0.0548,-0.0275 0.1278,-0.0275 0.1735,0.0091 0.0548,0.0366 0.0822,0.0915 0.0822,0.1555 v 9.912 c 0,0.0731 -0.0366,0.1371 -0.1005,0.1646 l -1.4152,0.6675 c -0.0274,0.0091 -0.0548,0.0182 -0.0731,0.0182 z m 0.1826,-9.9394 v 9.4731 l 1.0501,-0.4938 v -9.5096 z"
         fill="#5b1a84"
         id="path1970" />
      <path
         d="M 25.5568,0.978396 46.393,12.9843 47.8174,12.2254 27.0999,0.182877 Z"
         fill="#5b1a84"
         id="path1972" />
      <path
         d="m 46.393,13.1672 c -0.0274,0 -0.0639,-0.0091 -0.0913,-0.0274 L 25.4655,1.13385 C 25.4107,1.09727 25.3742,1.04241 25.3742,0.96926 c 0,-0.064007 0.0365,-0.128014 0.1004,-0.155446 l 1.5431,-0.7955195 c 0.0548,-0.02743171 0.1187,-0.02743171 0.1735,0 L 47.9087,12.07 C 47.9635,12.1065 48,12.1614 48,12.2345 c 0,0.0641 -0.0365,0.1281 -0.1004,0.1555 l -1.4153,0.7498 c -0.0274,0.0183 -0.0639,0.0274 -0.0913,0.0274 z M 25.9403,0.987548 46.4021,12.774 47.443,12.2254 27.0999,0.393194 Z"
         fill="#48146d"
         id="path1974" />
      <path
         d="m 22.4158,23.2347 20.8271,11.887 V 25.2555 L 22.4158,13.2861 Z"
         fill="#ffffff"
         id="path1976" />
      <path
         d="m 43.2429,35.3046 c -0.0274,0 -0.0639,-0.0091 -0.0913,-0.0274 L 22.3245,23.3901 c -0.0548,-0.0366 -0.0913,-0.0914 -0.0913,-0.1554 v -9.9486 c 0,-0.064 0.0365,-0.128 0.0913,-0.1554 0.0548,-0.0366 0.1278,-0.0366 0.1826,0 L 43.3342,25.1 c 0.0548,0.0366 0.0913,0.0915 0.0913,0.1555 v 9.8662 c 0,0.0641 -0.0365,0.1281 -0.0913,0.1555 -0.0274,0.0183 -0.0548,0.0274 -0.0913,0.0274 z M 22.5984,23.1249 43.0603,34.8017 V 25.3561 L 22.5984,13.597 Z"
         fill="#5b1a84"
         id="path1978" />
      <path
         d="m 44.6673,24.5605 v 9.912 L 43.2429,35.14 v -9.8754 z"
         fill="#f5e9fd"
         id="path1980" />
      <path
         d="m 43.2429,35.3229 c -0.0365,0 -0.0639,-0.0091 -0.1004,-0.0274 C 43.0877,35.2589 43.0603,35.204 43.0603,35.14 v -9.8754 c 0,-0.0732 0.0365,-0.1372 0.1004,-0.1646 l 1.4244,-0.7132 c 0.0548,-0.0274 0.1279,-0.0275 0.1735,0.0091 0.0548,0.0366 0.0822,0.0915 0.0822,0.1555 v 9.9211 c 0,0.0732 -0.0365,0.1372 -0.1005,0.1646 l -1.4243,0.6675 c -0.0183,0.0092 -0.0457,0.0183 -0.0731,0.0183 z m 0.1826,-9.9394 v 9.4731 l 1.0592,-0.4938 v -9.5097 z"
         fill="#5b1a84"
         id="path1982" />
      <path
         d="M 22.4067,13.2952 43.2429,25.292 44.6582,24.5422 23.9498,12.4997 Z"
         fill="#5b1a84"
         id="path1984" />
      <path
         d="m 43.2429,25.4749 c -0.0274,0 -0.0639,-0.0092 -0.0913,-0.0274 L 22.3154,13.4507 c -0.0548,-0.0366 -0.0913,-0.0915 -0.0913,-0.1646 0,-0.064 0.0365,-0.128 0.1004,-0.1555 l 1.5431,-0.7955 c 0.0548,-0.0274 0.1187,-0.0274 0.1735,0 l 20.7084,12.0425 c 0.0548,0.0366 0.0913,0.0915 0.0913,0.1646 0,0.064 -0.0365,0.128 -0.1004,0.1555 l -1.4153,0.7498 c -0.0274,0.0274 -0.0548,0.0274 -0.0822,0.0274 z M 22.7811,13.3044 43.2429,25.0908 44.2838,24.5422 23.9407,12.71 Z"
         fill="#48146d"
         id="path1986" />
      <path
         d="m 19.5305,24.5697 20.8362,11.887 V 26.5905 L 19.5305,14.6211 Z"
         fill="#ffffff"
         id="path1988" />
      <path
         d="m 40.3668,36.6396 c -0.0274,0 -0.064,-0.0091 -0.0913,-0.0274 L 19.4484,24.7251 c -0.0548,-0.0366 -0.0913,-0.0914 -0.0913,-0.1554 v -9.9486 c 0,-0.064 0.0365,-0.128 0.0913,-0.1554 0.0547,-0.0366 0.1278,-0.0366 0.1826,0 L 40.4581,26.435 c 0.0548,0.0366 0.0913,0.0915 0.0913,0.1555 v 9.8663 c 0,0.064 -0.0365,0.128 -0.0913,0.1554 -0.0274,0.0183 -0.0639,0.0274 -0.0913,0.0274 z M 19.7132,24.4691 40.175,36.1459 V 26.7002 L 19.7132,14.932 Z"
         fill="#5b1a84"
         id="path1990" />
      <path
         d="m 41.782,25.8955 v 9.912 l -1.4152,0.6675 v -9.8662 z"
         fill="#f5e9fd"
         id="path1992" />
      <path
         d="m 40.3668,36.6579 c -0.0366,0 -0.064,-0.0091 -0.1005,-0.0274 -0.0548,-0.0366 -0.0822,-0.0915 -0.0822,-0.1555 v -9.8663 c 0,-0.0731 0.0366,-0.128 0.1005,-0.1645 l 1.4152,-0.7133 c 0.0548,-0.0274 0.1279,-0.0274 0.1735,0.0092 0.0548,0.0365 0.0822,0.0914 0.0822,0.1554 v 9.912 c 0,0.0732 -0.0365,0.1372 -0.1004,0.1646 l -1.4153,0.6675 c -0.0183,0.0092 -0.0457,0.0183 -0.073,0.0183 z m 0.1826,-9.9394 v 9.4639 l 1.05,-0.4937 v -9.5006 z"
         fill="#5b1a84"
         id="path1994" />
      <path
         d="M 19.5214,14.6302 40.3576,26.6362 41.782,25.8772 21.0645,13.8347 Z"
         fill="#5b1a84"
         id="path1996" />
      <path
         d="m 40.3576,26.8191 c -0.0274,0 -0.0639,-0.0092 -0.0913,-0.0275 L 19.4301,14.7857 c -0.0548,-0.0366 -0.0913,-0.0915 -0.0913,-0.1646 0,-0.0732 0.0365,-0.128 0.1004,-0.1554 l 1.5431,-0.7956 c 0.0548,-0.0274 0.1187,-0.0274 0.1735,0 l 20.7084,12.0426 c 0.0548,0.0365 0.0913,0.0914 0.0913,0.1645 0,0.064 -0.0365,0.1281 -0.1005,0.1555 l -1.4061,0.7589 c -0.0274,0.0183 -0.0639,0.0275 -0.0913,0.0275 z M 19.9049,14.6394 40.3667,26.4259 41.4076,25.8772 21.0645,14.045 Z"
         fill="#48146d"
         id="path1998" />
      <path
         d="M 22.4158,12.2345 43.2429,24.1216 V 14.2553 L 22.4158,2.28596 Z"
         fill="#ffffff"
         id="path2000" />
      <path
         d="m 43.2429,24.3045 c -0.0274,0 -0.0639,-0.0092 -0.0913,-0.0274 L 22.3245,12.39 C 22.2697,12.3534 22.2332,12.2985 22.2332,12.2345 V 2.28596 c 0,-0.064 0.0365,-0.12801 0.0913,-0.15544 0.0548,-0.03658 0.1278,-0.03658 0.1826,0 L 43.3342,14.0999 c 0.0548,0.0366 0.0913,0.0914 0.0913,0.1554 v 9.8663 c 0,0.064 -0.0365,0.128 -0.0913,0.1555 -0.0274,0.0182 -0.0548,0.0274 -0.0913,0.0274 z M 22.5984,12.134 43.0603,23.8107 V 14.3559 L 22.5984,2.59686 Z"
         fill="#5b1a84"
         id="path2002" />
      <path
         d="m 44.6673,13.5604 v 9.912 l -1.4244,0.6675 v -9.8662 z"
         fill="#f5e9fd"
         id="path2004" />
      <path
         d="m 43.2429,24.3228 c -0.0365,0 -0.0639,-0.0092 -0.1004,-0.0274 -0.0548,-0.0366 -0.0822,-0.0915 -0.0822,-0.1555 v -9.8663 c 0,-0.0731 0.0365,-0.1371 0.1004,-0.1646 l 1.4244,-0.7132 c 0.0548,-0.0274 0.1279,-0.0274 0.1735,0.0092 0.0548,0.0365 0.0822,0.0914 0.0822,0.1554 v 9.912 c 0,0.0732 -0.0365,0.1372 -0.1005,0.1646 l -1.4243,0.6675 c -0.0183,0.0091 -0.0457,0.0183 -0.0731,0.0183 z m 0.1826,-9.9394 v 9.4639 l 1.0592,-0.4938 V 13.853 Z"
         fill="#5b1a84"
         id="path2006" />
      <path
         d="M 22.4067,2.29512 43.2429,14.3011 44.6582,13.5421 23.9498,1.4996 Z"
         fill="#5b1a84"
         id="path2008" />
      <path
         d="m 43.2429,14.4839 c -0.0274,0 -0.0639,-0.0091 -0.0913,-0.0274 L 22.3154,2.45058 C 22.2606,2.414 22.2241,2.35914 22.2241,2.28599 c 0,-0.06401 0.0365,-0.12802 0.1004,-0.15545 l 1.5431,-0.79552 c 0.0548,-0.02743 0.1187,-0.02743 0.1735,0 L 44.7495,13.3775 c 0.0548,0.0366 0.0913,0.0915 0.0913,0.1646 0,0.064 -0.0365,0.128 -0.1004,0.1555 l -1.4153,0.7498 c -0.0274,0.0274 -0.0548,0.0365 -0.0822,0.0365 z M 22.7811,2.30427 43.2429,14.0908 44.2838,13.5421 23.9407,1.70992 Z"
         fill="#48146d"
         id="path2010" />
      <path
         d="m 26.7529,9.36337 13.2578,7.45233 c 0.3561,0.192 0.7943,0.0731 0.9952,-0.2835 0.0639,-0.1097 0.0913,-0.2286 0.0913,-0.3566 0,-0.3566 -0.1917,-0.695 -0.5022,-0.8687 L 27.0086,7.59859 c -0.3105,-0.17373 -0.694,-0.064 -0.8674,0.23774 -0.0548,0.10059 -0.0822,0.21031 -0.0822,0.32004 -0.0092,0.49377 0.2556,0.96011 0.6939,1.207 z"
         fill="#f5e9fd"
         id="path2012" />
      <path
         d="m 26.7529,12.2071 13.2578,7.4523 c 0.3561,0.192 0.7943,0.0731 0.9952,-0.2835 0.0639,-0.1097 0.0913,-0.2286 0.0913,-0.3566 0,-0.3566 -0.1917,-0.6949 -0.5022,-0.8687 L 27.0086,10.4423 c -0.3105,-0.1737 -0.694,-0.064 -0.8674,0.2378 -0.0548,0.1006 -0.0822,0.2103 -0.0822,0.32 -0.0092,0.4938 0.2556,0.9601 0.6939,1.207 z"
         fill="#f5e9fd"
         id="path2014" />
      <path
         d="M 24.87,8.39068 C 25.3416,8.19803 25.5124,7.52256 25.2514,6.88197 24.9905,6.24138 24.3967,5.87825 23.9251,6.0709 23.4535,6.26355 23.2828,6.93902 23.5437,7.57961 23.8046,8.2202 24.3984,8.58333 24.87,8.39068 Z"
         fill="#5b1a84"
         id="path2016" />
      <path
         d="m 24.6072,8.6227 c -0.4839,0 -0.9861,-0.38405 -1.2327,-0.9784 -0.3013,-0.73151 -0.0821,-1.51789 0.4748,-1.74649 0.5661,-0.2286 1.2601,0.18288 1.5614,0.91439 0.3013,0.73152 0.0822,1.51789 -0.4748,1.74649 C 24.8263,8.60441 24.7168,8.6227 24.6072,8.6227 Z M 23.9863,6.23614 c -0.3744,0.15544 -0.5022,0.72237 -0.2739,1.271 0.2282,0.54863 0.7122,0.86867 1.0865,0.71323 C 25.1733,8.06492 25.3011,7.498 25.0728,6.94936 24.8537,6.40073 24.3698,6.08069 23.9863,6.23614 Z"
         fill="#5b1a84"
         id="path2018" />
      <path
         d="m 23.7489,21.8265 13.2578,7.4523 c 0.356,0.192 0.7943,0.0731 0.9952,-0.2835 0.0639,-0.1097 0.0913,-0.2286 0.0913,-0.3566 0,-0.3566 -0.1917,-0.6949 -0.5022,-0.8687 L 24.0046,20.0617 c -0.3105,-0.1737 -0.694,-0.064 -0.8675,0.2378 -0.0547,0.1006 -0.0821,0.2103 -0.0821,0.32 -0.0092,0.4938 0.2556,0.9601 0.6939,1.207 z"
         fill="#f5e9fd"
         id="path2020" />
      <path
         d="m 23.7489,24.6703 13.2578,7.4522 c 0.356,0.192 0.7943,0.0732 0.9952,-0.2834 0.0639,-0.1098 0.0913,-0.2286 0.0913,-0.3566 0,-0.3567 -0.1917,-0.695 -0.5022,-0.8687 L 24.0046,22.9055 c -0.3105,-0.1737 -0.694,-0.064 -0.8675,0.2377 -0.0547,0.1006 -0.0821,0.2103 -0.0821,0.3201 -0.0092,0.4937 0.2556,0.9601 0.6939,1.207 z"
         fill="#f5e9fd"
         id="path2022" />
      <path
         d="m 21.858,20.8559 c 0.4716,-0.1927 0.6424,-0.8681 0.3814,-1.5087 -0.2609,-0.6406 -0.8547,-1.0037 -1.3263,-0.8111 -0.4716,0.1927 -0.6423,0.8681 -0.3814,1.5087 0.2609,0.6406 0.8548,1.0037 1.3263,0.8111 z"
         fill="#5b1a84"
         id="path2024" />
      <path
         d="m 21.6032,21.0858 c -0.4839,0 -0.9861,-0.384 -1.2326,-0.9784 -0.137,-0.3474 -0.1735,-0.7132 -0.0913,-1.0332 0.0821,-0.3475 0.2921,-0.5944 0.5752,-0.7132 0.2831,-0.1189 0.6026,-0.0732 0.9039,0.1097 0.2831,0.1737 0.5205,0.4572 0.6574,0.8046 0.3014,0.7316 0.0822,1.5179 -0.4747,1.7465 -0.1187,0.0457 -0.2283,0.064 -0.3379,0.064 z m -0.42,-2.4231 c -0.0639,0 -0.137,0.0091 -0.1917,0.0366 -0.1735,0.0731 -0.3014,0.2377 -0.3561,0.4572 -0.064,0.2469 -0.0366,0.5395 0.073,0.8138 0.2191,0.5486 0.7122,0.8687 1.0866,0.7132 0.3743,-0.1554 0.5021,-0.7224 0.2739,-1.271 -0.1096,-0.2743 -0.2922,-0.5029 -0.5113,-0.6309 -0.1279,-0.0823 -0.2557,-0.1189 -0.3744,-0.1189 z"
         fill="#5b1a84"
         id="path2026" />
      <g
         opacity="0.05"
         id="g2034">
        <g
           opacity="0.05"
           id="g2032">
          <g
             opacity="0.05"
             id="g2030">
            <path
               opacity="0.05"
               d="m 13.6047,80 c 7.5137,0 13.6047,-1.1381 13.6047,-2.542 0,-1.4039 -6.091,-2.542 -13.6047,-2.542 C 6.09104,74.916 0,76.0541 0,77.458 0,78.8619 6.09104,80 13.6047,80 Z"
               fill="#5b1a84"
               id="path2028" />
          </g>
        </g>
      </g>
      <path
         d="m 18.9644,74.0016 c -0.0456,0.128 -0.1004,0.2377 -0.1826,0.3475 -0.2283,0.3109 -1.3057,0.7864 -1.5613,0.2834 -0.0457,-0.1188 -0.064,-0.2377 -0.0548,-0.3657 l 0.0456,-7.05 c -0.0091,-0.128 0.0092,-0.2469 0.0457,-0.3657 0.2465,-0.6493 1.4518,-0.8413 1.9174,-0.4298 0.6026,0.5303 0.767,1.5179 0.767,2.2768 0,1.0424 -0.2283,2.0757 -0.4657,3.0998 l -0.4017,1.7557 c -0.0183,0.1554 -0.0639,0.3017 -0.1096,0.448 z"
         fill="#ffffff"
         id="path2036" />
      <path
         d="m 17.6496,75.0349 c -0.0274,0 -0.0548,0 -0.0822,0 -0.3013,-0.0275 -0.4382,-0.1829 -0.5021,-0.3201 0,0 0,-0.0091 -0.0092,-0.0183 -0.0548,-0.1371 -0.0822,-0.2926 -0.0639,-0.4389 l 0.0457,-7.0316 c -0.0092,-0.1463 0.0091,-0.2835 0.0547,-0.4207 v -0.0091 c 0.1279,-0.3383 0.4657,-0.5943 0.9222,-0.7041 0.5022,-0.128 1.0044,-0.0457 1.2875,0.2012 0.7213,0.6401 0.8309,1.7831 0.8309,2.414 0,1.079 -0.2374,2.1305 -0.4657,3.1363 l -0.4018,1.7557 c -0.0365,0.1554 -0.073,0.3109 -0.1278,0.4663 -0.0456,0.1372 -0.1187,0.2743 -0.21,0.3932 -0.2009,0.2743 -0.8218,0.5761 -1.2783,0.5761 z M 17.394,74.5594 c 0.0182,0.0457 0.073,0.0914 0.21,0.1097 0.3652,0.0366 0.913,-0.2652 1.0409,-0.4298 0.0639,-0.0914 0.1187,-0.192 0.1552,-0.3017 0.0456,-0.1372 0.0822,-0.2835 0.1187,-0.4206 l 0.4017,-1.7648 c 0.2283,-0.9875 0.4566,-2.0208 0.4566,-3.0541 0,-0.4572 -0.0731,-1.5727 -0.7122,-2.1396 -0.1918,-0.1646 -0.5844,-0.2195 -0.9588,-0.1281 -0.3287,0.0823 -0.5843,0.2652 -0.6665,0.4755 -0.0274,0.1006 -0.0456,0.1921 -0.0365,0.2926 v 0.0092 l -0.0457,7.0499 v 0.0092 c -0.0091,0.1097 0,0.2103 0.0366,0.2926 z"
         fill="#5b1a84"
         id="path2038" />
      <path
         d="m 17.1109,72.8678 c 0.9405,-0.3018 1.9722,-1e-4 2.6023,0.7589 0.1643,0.2012 0.2921,0.4389 0.4839,0.6218 0.2191,0.2011 0.4748,0.3566 0.7487,0.4755 1.0318,0.512 2.0361,1.0241 3.141,1.3075 0.6756,0.1738 1.7074,0.4938 1.5796,1.3899 -0.0092,0.0732 -0.0366,0.1463 -0.0822,0.2103 -0.0822,0.0732 -0.1826,0.1189 -0.2922,0.1189 -2.7666,0.4115 -5.5697,0.4572 -8.3454,0.1463 -0.2648,-0.0274 -0.557,-0.0731 -0.7214,-0.2835 -0.1643,-0.2103 -0.1552,-0.4754 -0.1369,-0.7315 0.0548,-0.7223 0.1552,-1.4356 0.283,-2.1488 0.1096,-0.5761 0.0731,-1.3624 0.5387,-1.7922"
         fill="#ffffff"
         id="path2040" />
      <path
         d="m 20.5714,78.2809 c -1.2144,0 -2.4379,-0.0731 -3.6522,-0.2103 C 16.6178,78.034 16.28,77.9792 16.0791,77.714 15.86,77.4397 15.8874,77.1014 15.9056,76.8545 c 0.0548,-0.7224 0.1553,-1.4539 0.2922,-2.1671 0.0274,-0.128 0.0457,-0.2743 0.0639,-0.4298 0.064,-0.512 0.1279,-1.0881 0.5296,-1.463 0.0457,-0.0457 0.1187,-0.0549 0.1735,-0.0366 0.0183,-0.0274 0.0548,-0.0548 0.0913,-0.064 1.0135,-0.32 2.1183,0 2.8031,0.8138 0.0639,0.0823 0.1279,0.1646 0.1826,0.2469 0.0914,0.128 0.1735,0.256 0.2831,0.3566 0.21,0.1829 0.4383,0.3292 0.6939,0.4389 h 0.0092 l 0.1004,0.0549 c 1.0044,0.5029 1.954,0.9692 3.004,1.2436 0.557,0.1463 1.8718,0.4846 1.7166,1.591 -0.0092,0.1097 -0.0548,0.2103 -0.1187,0.3017 -0.0092,0.0092 -0.0183,0.0183 -0.0183,0.0275 -0.1096,0.1006 -0.2557,0.1554 -0.4018,0.1646 -1.5704,0.2286 -3.1592,0.3474 -4.7388,0.3474 z m -3.5153,-5.2394 c -0.0091,0.0091 -0.0182,0.0183 -0.0274,0.0274 -0.3013,0.2743 -0.3652,0.7681 -0.42,1.2344 -0.0183,0.1646 -0.0365,0.3109 -0.0639,0.4572 -0.137,0.7041 -0.2283,1.4173 -0.2831,2.1306 -0.0182,0.2468 -0.0273,0.4572 0.0914,0.6035 0.1187,0.1554 0.3652,0.192 0.6026,0.2194 2.7574,0.3109 5.5514,0.2652 8.2998,-0.1463 0.0091,0 0.0091,0 0.0182,0 0.0639,0 0.1187,-0.0274 0.1735,-0.064 0.0183,-0.0274 0.0274,-0.064 0.0365,-0.1006 V 77.394 c 0.1005,-0.695 -0.6756,-0.9876 -1.4426,-1.1887 -1.0957,-0.2835 -2.1001,-0.7864 -3.0771,-1.271 l -0.1004,-0.0457 c -0.2922,-0.1281 -0.557,-0.2927 -0.7944,-0.503 0,0 -0.0091,0 -0.0091,-0.0091 -0.1278,-0.128 -0.2283,-0.2743 -0.3287,-0.4115 -0.0548,-0.0823 -0.1096,-0.1554 -0.1735,-0.2286 -0.5843,-0.7041 -1.5339,-0.9784 -2.4013,-0.7041 -0.0274,0.0183 -0.064,0.0183 -0.1005,0.0092 z"
         fill="#0bf7eb"
         id="path2042" />
      <path
         d="m 25.6572,76.8636 c -1.9448,0.1738 -3.8988,0.3475 -5.8527,0.2195 -0.9679,-0.0549 -1.9266,-0.2012 -2.8579,-0.4389 -0.5022,-0.128 -0.7214,-0.3749 -0.8583,0.1646 -0.0731,0.2834 0.0182,0.7041 0.2739,0.8778 0.1369,0.0731 0.283,0.1189 0.4383,0.128 2.6113,0.32 5.241,0.3932 7.8615,0.2103 0.2648,-0.0183 0.5478,-0.0457 0.767,-0.192 0.2191,-0.1463 0.3652,-0.4572 0.2374,-0.6858"
         fill="#0bf7eb"
         id="path2044" />
      <path
         d="M 5.15883,72.694 C 4.76621,72.4197 4.3188,72.2368 3.84401,72.1637 3.67053,71.9076 3.71618,71.551 3.85314,71.2767 3.9901,71.0024 4.20011,70.7647 4.35533,70.4903 4.62012,70.0149 4.69316,69.4662 4.77534,68.9359 4.95795,67.7106 5.19535,66.4945 5.49666,65.2966 5.5971,64.8943 5.7158,64.4828 5.99885,64.1902 6.50104,63.6873 7.37758,63.7513 7.97108,64.1445 8.51892,64.5102 9.0485,65.0406 9.10328,65.7264 9.15807,66.4122 8.455,67.0614 8.1263,67.6283 7.13106,69.3199 6.14494,71.0024 5.15883,72.694 Z"
         fill="#ffffff"
         id="path2046" />
      <path
         d="M 5.15883,72.8769 C 5.12231,72.8769 5.08579,72.8678 5.0584,72.8403 4.69317,72.5843 4.26403,72.4106 3.81662,72.3374 3.77097,72.3283 3.72532,72.3008 3.69792,72.2643 3.50618,71.9808 3.49705,71.5785 3.68879,71.1944 3.77097,71.0298 3.88054,70.8744 3.98098,70.7281 4.06315,70.6184 4.1362,70.5086 4.20011,70.3989 4.43751,69.9783 4.51055,69.4754 4.5836,68.9816 L 4.59273,68.9084 C 4.77534,67.674 5.02187,66.4396 5.31405,65.26 c 0.10957,-0.448 0.2374,-0.8778 0.55698,-1.1887 0.59349,-0.5943 1.5796,-0.4846 2.20049,-0.0731 0.73959,0.4937 1.1596,1.0881 1.21438,1.719 0.04565,0.5669 -0.33783,1.079 -0.66654,1.5271 -0.12783,0.1737 -0.24653,0.3291 -0.3287,0.4846 -1.00438,1.6825 -1.99049,3.3649 -2.97661,5.0566 -0.02739,0.0457 -0.07304,0.0731 -0.11869,0.0823 -0.00913,0.0091 -0.0274,0.0091 -0.03653,0.0091 z M 3.95358,71.9991 c 0.40175,0.0731 0.79437,0.2194 1.14134,0.4389 0.94959,-1.6368 1.90831,-3.2644 2.8579,-4.9011 0.10044,-0.1646 0.21914,-0.3384 0.3561,-0.5121 C 8.61936,66.6042 8.93894,66.1744 8.90241,65.7447 8.85676,65.2235 8.50979,64.7388 7.85238,64.2999 7.34107,63.9616 6.55583,63.8793 6.10842,64.3274 5.8619,64.5742 5.75233,64.9583 5.65189,65.3515 5.35971,66.5219 5.12231,67.7472 4.9397,68.9725 l -0.00913,0.064 c -0.07305,0.5212 -0.15523,1.0607 -0.42915,1.5453 -0.07304,0.128 -0.15522,0.2469 -0.23739,0.3566 -0.10044,0.1371 -0.19175,0.2743 -0.26479,0.4115 -0.08218,0.192 -0.13696,0.4572 -0.04566,0.6492 z"
         fill="#5b1a84"
         id="path2048" />
      <path
         d="m 32.7061,30.9795 c 0.3652,0 0.7487,-0.1646 1.0866,-0.3017 0.2921,-0.1189 0.5661,-0.2743 0.8035,-0.4755 0.2008,-0.1737 0.3652,-0.384 0.5478,-0.5852 0.1278,-0.1372 0.2739,-0.2652 0.4291,-0.3566 0.1461,-0.0732 0.2922,-0.1189 0.4474,-0.1372 0.3927,-0.0823 0.7214,-0.3474 1.114,-0.4389 0.1643,-0.0366 0.5661,-0.1829 0.6483,0.0457 0.0548,0.1463 -0.0731,0.3475 -0.1553,0.4572 -0.1643,0.2286 -0.4108,0.3749 -0.6939,0.4115 -0.1369,0.0092 -0.4565,0.0274 -0.4657,0.2195 0,0.0365 0.0092,0.0731 0.0366,0.1097 0.21,0.3749 0.6483,0.5761 1.0774,0.6218 0.4291,0.0457 0.8583,-0.0183 1.2874,-0.0275 0.1187,0 0.2831,0.0366 0.2831,0.1555 -0.0092,0.0549 -0.0274,0.1006 -0.0731,0.1371 -0.3195,0.3475 -0.8674,0.5395 -1.3148,0.6218 -0.5478,0.1098 -1.1231,0.0183 -1.6618,-0.1463 -0.1461,-0.0548 -0.3104,-0.0823 -0.4656,-0.0731 -0.1644,0.0366 -0.3105,0.1097 -0.4383,0.2103 -0.7122,0.4938 -1.4518,0.9601 -2.1183,1.5087 -0.5935,0.4938 -1.2601,0.9601 -2.0453,1.0699 -0.1004,0.0183 -0.2009,0.0183 -0.3013,-0.0092 -0.0913,-0.0274 -0.1735,-0.0823 -0.2374,-0.1463 -0.6392,-0.5852 -0.6848,-1.591 -0.1005,-2.2311 0.137,-0.1554 0.3014,-0.2743 0.4931,-0.3657 0.5204,-0.2378 1.2418,-0.2652 1.817,-0.2744 z"
         fill="#ffffff"
         id="path2050" />
      <path
         d="m 30.8891,34.2073 c -0.073,0 -0.137,-0.0091 -0.21,-0.0274 -0.0091,0 -0.0091,0 -0.0183,-0.0091 -0.1095,-0.0366 -0.2191,-0.1098 -0.3013,-0.1921 -0.7122,-0.6492 -0.7578,-1.7647 -0.1095,-2.4871 0.1552,-0.1737 0.3378,-0.3018 0.5478,-0.4023 0.557,-0.2652 1.2692,-0.2926 1.8992,-0.3018 0.3469,0 0.7304,-0.1737 1.0135,-0.2926 0.2739,-0.1097 0.5296,-0.2652 0.7578,-0.448 0.1187,-0.1098 0.2283,-0.2286 0.347,-0.3658 0.0639,-0.0731 0.1187,-0.1372 0.1826,-0.2012 0.137,-0.1463 0.2922,-0.2834 0.4748,-0.384 l 0.0091,-0.0091 c 0.1553,-0.0732 0.3287,-0.1281 0.5022,-0.1555 0.1826,-0.0366 0.347,-0.1189 0.5296,-0.2103 0.1826,-0.0914 0.3652,-0.1737 0.5752,-0.2286 0.0183,0 0.0366,-0.0091 0.064,-0.0183 0.2008,-0.0549 0.6665,-0.1829 0.7943,0.1737 0.0731,0.2195 -0.0548,0.4572 -0.1826,0.631 -0.1826,0.2743 -0.4839,0.448 -0.8218,0.4755 h -0.0365 c -0.1278,0.0091 -0.21,0.0274 -0.2465,0.0457 0,0 0,0 0,0.0091 0.1552,0.2835 0.5022,0.4846 0.9405,0.5304 0.2739,0.0365 0.5569,0.0183 0.8491,-0.0092 0.137,-0.0091 0.2739,-0.0183 0.4109,-0.0274 0.283,0 0.4657,0.128 0.4748,0.3383 0,0.0092 0,0.0183 0,0.0183 -0.0091,0.1006 -0.0548,0.1829 -0.1278,0.256 -0.3653,0.4024 -0.9679,0.5852 -1.4153,0.6767 -0.5022,0.1006 -1.0683,0.0548 -1.744,-0.1463 -0.0091,0 -0.0091,0 -0.0182,-0.0092 -0.1187,-0.0457 -0.2465,-0.064 -0.3835,-0.064 -0.1278,0.0275 -0.2465,0.0915 -0.347,0.1738 l -0.0091,0.0091 c -0.1644,0.1189 -0.3378,0.2286 -0.5022,0.3383 -0.5387,0.3658 -1.0957,0.7407 -1.607,1.1613 -0.5752,0.4755 -1.2783,0.9875 -2.1274,1.1156 -0.0457,0.0274 -0.1005,0.0365 -0.1644,0.0365 z m -0.1096,-0.3749 c 0.0731,0.0183 0.1461,0.0183 0.2192,0 h 0.0091 c 0.7579,-0.1097 1.4153,-0.5852 1.954,-1.0332 0.5204,-0.4298 1.0865,-0.8138 1.6344,-1.1796 0.1643,-0.1097 0.3287,-0.2194 0.493,-0.3383 0.1461,-0.1189 0.3287,-0.2012 0.5113,-0.2469 0.0092,0 0.0183,0 0.0274,0 0.1826,-0.0091 0.3653,0.0183 0.5387,0.0823 0.6118,0.1829 1.1231,0.2286 1.5614,0.1372 0.3196,-0.0641 0.8857,-0.2195 1.2052,-0.5578 -0.0182,0 -0.0365,0 -0.0639,0 -0.1278,0 -0.2648,0.0091 -0.3926,0.0183 -0.3013,0.0183 -0.6118,0.0457 -0.9222,0.0091 -0.557,-0.064 -0.9952,-0.3292 -1.2144,-0.7132 -0.0365,-0.064 -0.0548,-0.128 -0.0639,-0.2012 V 29.8 c 0.0091,-0.3383 0.42,-0.3749 0.5935,-0.3932 h 0.0365 c 0.2283,-0.0183 0.4292,-0.1463 0.557,-0.3292 0.1187,-0.1646 0.1461,-0.2652 0.137,-0.2926 -0.0366,-0.0183 -0.1553,0 -0.3561,0.0549 -0.0274,0.0091 -0.0548,0.0183 -0.0731,0.0183 -0.1735,0.0457 -0.3287,0.1188 -0.5022,0.2011 -0.1917,0.0915 -0.3926,0.192 -0.6117,0.2378 -0.0092,0 -0.0092,0 -0.0183,0 -0.1369,0.0182 -0.2648,0.0548 -0.3835,0.1188 -0.1461,0.0823 -0.2739,0.1921 -0.3835,0.3201 -0.0639,0.064 -0.1187,0.1371 -0.1826,0.2011 -0.1187,0.1372 -0.2465,0.2744 -0.3835,0.4024 -0.2556,0.2194 -0.5478,0.3932 -0.8583,0.512 -0.3834,0.1646 -0.7669,0.3109 -1.1504,0.3201 -0.4292,0.0091 -1.2144,0.0182 -1.744,0.2651 -0.1643,0.0823 -0.3104,0.1829 -0.4291,0.3201 -0.5205,0.5669 -0.4748,1.4539 0.0913,1.9751 0.0456,0.0365 0.1004,0.0731 0.1643,0.1005 z"
         fill="#5b1a84"
         id="path2052" />
      <path
         d="m 19.3753,39.2639 c 0.7761,2.7706 1.4335,5.5687 1.9722,8.4033 0.347,1.847 0.6483,3.7032 0.7487,5.5777 0.1644,2.9901 -0.1643,5.9802 -0.63,8.9336 -0.2008,1.2619 -0.5843,2.542 -0.4382,3.813 0.0547,0.4298 0.3104,0.7407 0.146,1.207 -0.5478,1.6002 -3.1957,1.5271 -4.4375,1.1887 -0.3195,-0.0914 -0.6574,-0.1828 -0.9039,-0.4114 -0.4109,-0.3841 -0.4565,-1.015 -0.4657,-1.5728 -0.0365,-2.3957 0,-4.8005 0.1096,-7.1962 0.0274,-0.6858 0.0639,-1.3899 -0.0274,-2.0666 -0.0913,-0.5577 -0.2283,-1.1155 -0.4109,-1.655 l -2.1365,-7.0408 c 0.2191,1.2436 0.5204,2.4963 0.6665,3.749 0.2556,2.1945 0.4383,4.5079 -0.4292,6.547 -0.703,1.6459 -1.1778,3.3558 -1.6983,5.0566 -0.3469,1.143 -0.9222,2.8255 -1.95393,3.5296 C 8.08978,68.2867 6.09929,67.0797 4.76621,66.467 4.60186,66.4396 4.49229,66.275 4.51968,66.1104 4.52881,66.0556 4.54707,66.0098 4.5836,65.9733 5.82537,63.0838 6.66539,60.048 7.09454,56.9391 7.63325,52.9981 7.14932,49.0479 6.93931,45.0794 c -0.01826,-0.384 -0.03652,-0.7863 0.09131,-1.143 0.79437,-2.2768 3.32358,-3.4381 5.39628,-4.197 0.6026,-0.2195 1.2052,-0.4389 1.8444,-0.5029 1.7439,-0.1829 3.634,0.8138 5.1862,0.0091"
         fill="#ffffff"
         id="path2054" />
      <path
         d="m 18.3162,68.7621 c -0.6301,0 -1.2236,-0.0914 -1.6253,-0.2011 l -0.0274,-0.0092 c -0.3378,-0.0914 -0.6848,-0.192 -0.9587,-0.448 -0.4657,-0.4298 -0.5113,-1.1064 -0.5205,-1.7099 -0.0365,-2.3866 0,-4.8189 0.1096,-7.2054 v -0.0823 c 0.0274,-0.6492 0.0639,-1.3167 -0.0274,-1.9568 -0.0913,-0.5486 -0.2283,-1.0973 -0.4017,-1.6185 l -1.1962,-3.941 c 0.0274,0.192 0.0548,0.3749 0.0731,0.5669 0.2648,2.222 0.4474,4.5628 -0.4383,6.6385 -0.6026,1.4173 -1.05,2.9077 -1.4792,4.3525 -0.0639,0.2286 -0.1369,0.4572 -0.2008,0.6858 -0.3927,1.3167 -0.9862,2.9077 -2.02705,3.6301 C 8.29066,68.3689 6.51931,67.5003 5.23188,66.8694 5.04927,66.7779 4.88492,66.6956 4.72057,66.6225 4.46491,66.5585 4.30056,66.3116 4.35534,66.0555 c 0.00913,-0.0731 0.04565,-0.1371 0.08218,-0.2011 1.22351,-2.8529 2.0544,-5.8704 2.47441,-8.961 0.42001,-3.0724 0.21001,-6.227 0,-9.2811 C 6.85715,46.7802 6.80236,45.9115 6.75671,45.0611 6.73845,44.6771 6.71106,44.2473 6.85715,43.845 c 0.81263,-2.3225 3.36925,-3.5204 5.50575,-4.3068 0.5662,-0.2103 1.2144,-0.448 1.8901,-0.5212 0.7213,-0.0731 1.4518,0.0458 2.164,0.1555 1.0683,0.1646 2.0726,0.3292 2.9583,-0.128 0.0913,-0.0458 0.2009,-0.0092 0.2465,0.0823 0.0366,0.0731 0.0183,0.1645 -0.0456,0.2194 0.7578,2.7158 1.4152,5.5046 1.9357,8.2844 0.2922,1.5362 0.6391,3.5661 0.7487,5.6052 0.1826,3.2827 -0.2465,6.5196 -0.6391,8.9702 -0.0548,0.32 -0.1187,0.6492 -0.1735,0.9601 -0.1826,0.9235 -0.3652,1.8745 -0.2557,2.798 0.0183,0.128 0.0548,0.2469 0.0913,0.3749 0.0822,0.256 0.1735,0.5486 0.0457,0.9144 -0.3926,1.1704 -1.7714,1.5087 -3.0131,1.5087 z M 12.9017,48.2524 c 0.0821,0 0.1552,0.0548 0.1734,0.128 l 2.1366,7.0408 c 0.1826,0.5395 0.3196,1.1064 0.4109,1.6825 0.0913,0.6766 0.0639,1.3624 0.0365,2.0299 v 0.0823 c -0.1095,2.3774 -0.1461,4.8006 -0.1095,7.1871 0.0091,0.5212 0.0456,1.1156 0.4017,1.4447 0.21,0.1921 0.5113,0.2744 0.8126,0.3658 l 0.0183,0.0091 c 1.2235,0.3292 3.7162,0.3567 4.2092,-1.0698 0.0914,-0.256 0.0274,-0.448 -0.0456,-0.6858 -0.0457,-0.1371 -0.0913,-0.2834 -0.1096,-0.4389 -0.1187,-0.9784 0.0731,-1.9568 0.2648,-2.9077 0.0639,-0.3109 0.1278,-0.6401 0.1735,-0.951 0.3926,-2.4323 0.8126,-5.6418 0.63,-8.8879 -0.1096,-2.0208 -0.4565,-4.0324 -0.7487,-5.5503 -0.5205,-2.7432 -1.1596,-5.5047 -1.9083,-8.193 -0.9131,0.3475 -1.9175,0.1829 -2.8853,0.0366 -0.6939,-0.1097 -1.4061,-0.2194 -2.0727,-0.1554 -0.63,0.064 -1.2509,0.2926 -1.7987,0.4937 -3.92621,1.4448 -4.88494,2.9444 -5.28669,4.0874 -0.1187,0.3383 -0.10043,0.7132 -0.08217,1.0789 0.04565,0.8504 0.10043,1.7099 0.15522,2.542 0.20087,3.0632 0.42001,6.2362 -0.00913,9.3542 -0.42914,3.1273 -1.2783,6.1905 -2.52007,9.0891 -0.00913,0.0183 -0.01826,0.0274 -0.02739,0.0457 -0.00913,0.0183 -0.01826,0.0366 -0.0274,0.0549 -0.00913,0.064 0.03653,0.1371 0.10044,0.1463 0.01826,0 0.02739,0.0091 0.04566,0.0091 0.17348,0.0823 0.34696,0.1646 0.53871,0.256 1.27829,0.6218 2.86703,1.3991 3.99924,0.6218 0.94958,-0.6492 1.50658,-2.1762 1.88088,-3.4381 0.0731,-0.2286 0.137,-0.4572 0.2009,-0.6766 0.4383,-1.4539 0.8857,-2.9535 1.4974,-4.3891 0.8492,-1.9934 0.6666,-4.2793 0.4109,-6.4556 -0.1004,-0.8229 -0.2648,-1.6733 -0.42,-2.4871 -0.0822,-0.4115 -0.1643,-0.8321 -0.2374,-1.2527 -0.0182,-0.0915 0.0457,-0.1829 0.137,-0.2104 0.0274,-0.0365 0.0365,-0.0365 0.0548,-0.0365 z"
         fill="#5b1a84"
         id="path2056" />
      <path
         d="m 14.8921,22.2288 c 1.1688,-2.3134 1.8079,-4.8554 1.8718,-7.4522 0,-0.1829 0,-0.3749 -0.1004,-0.5212 -0.1005,-0.1189 -0.2283,-0.2012 -0.3744,-0.2561 -0.6757,-0.2926 -1.3878,-0.512 -2.1092,-0.6583 -0.2922,-0.064 -0.63,-0.1006 -0.8583,0.0914 -0.1095,0.1097 -0.1917,0.2377 -0.2465,0.384 -1.1687,2.6975 -1.9539,5.5412 -2.3283,8.449"
         fill="#ffffff"
         id="path2058" />
      <path
         d="m 10.7377,22.4574 c -0.0092,0 -0.0183,0 -0.0274,0 -0.1005,-0.0091 -0.1735,-0.1006 -0.1552,-0.2011 0.3743,-2.9261 1.1595,-5.7881 2.3374,-8.4947 0.0639,-0.1646 0.1552,-0.3201 0.2831,-0.4481 l 0.0091,-0.0091 c 0.2922,-0.2469 0.6939,-0.2012 1.0135,-0.128 0.7305,0.1554 1.4518,0.3749 2.1366,0.6675 0.1735,0.064 0.3287,0.1646 0.4474,0.3109 l 0.0091,0.0091 c 0.137,0.192 0.137,0.4206 0.137,0.6309 -0.0639,2.606 -0.7122,5.2121 -1.8901,7.5346 -0.0456,0.0914 -0.1552,0.128 -0.2465,0.0823 -0.0913,-0.0457 -0.1278,-0.1554 -0.0822,-0.2469 1.1505,-2.2768 1.7896,-4.828 1.8444,-7.37 0,-0.1554 0,-0.3017 -0.0639,-0.4023 -0.073,-0.0914 -0.1735,-0.1554 -0.2922,-0.192 -0.0091,0 -0.0091,0 -0.0182,-0.0092 -0.6666,-0.2834 -1.3696,-0.5029 -2.0727,-0.6492 -0.2557,-0.0548 -0.5296,-0.0914 -0.7031,0.0457 -0.0821,0.0915 -0.1552,0.1921 -0.1917,0.3109 0,0 0,0.0092 -0.0091,0.0092 -1.1596,2.6791 -1.9449,5.5046 -2.3101,8.4032 0.0182,0.0732 -0.0639,0.1463 -0.1552,0.1463 z"
         fill="#ffbd17"
         id="path2060" />
      <path
         d="M 15.7687,13.533 15.723,12.582 c -0.0274,-0.0914 0.0183,-0.192 0.1187,-0.2194 0.0183,-0.0092 0.0366,-0.0092 0.0548,-0.0092 0.5752,-0.1006 1.1231,-0.32 1.6161,-0.6309 0.4931,-0.3109 0.8766,-0.7864 1.0775,-1.335 0.0274,-0.0915 0.0456,-0.2103 -0.0366,-0.2561 -0.0547,-0.0182 -0.1187,-0.0182 -0.1734,0.0092 -0.4201,0.1554 -0.8309,0.3475 -1.2327,0.5669 -0.0639,-0.1554 -0.0913,-0.32 -0.073,-0.4846 0.0365,-0.1646 0.1826,-0.32006 0.3469,-0.29262 0.0731,0.00914 0.137,0.064 0.2192,0.08232 0.073,0.0183 0.1735,-0.0092 0.1917,-0.08232 0,-0.04572 -0.0091,-0.09144 -0.0365,-0.12802 C 17.3392,9.09818 16.4809,8.77814 15.6774,8.9976 15.4948,9.04332 15.3213,9.1439 15.1752,9.26277 14.8739,9.54623 14.7917,9.98514 14.7187,10.3966 l -0.4383,2.6975"
         fill="#ffffff"
         id="path2062" />
      <path
         d="m 15.7687,13.7158 c -0.1004,0 -0.1735,-0.0731 -0.1826,-0.1737 l -0.0457,-0.9235 c -0.0456,-0.1829 0.0639,-0.3658 0.2466,-0.4206 0.0273,-0.0092 0.0639,-0.0183 0.0913,-0.0183 0.5478,-0.1006 1.0682,-0.3018 1.543,-0.6035 0.4566,-0.2926 0.8127,-0.7315 1.0044,-1.2436 -0.4017,0.1554 -0.8035,0.3383 -1.1778,0.5486 -0.0457,0.0275 -0.1005,0.0275 -0.1461,0.0092 -0.0457,-0.0183 -0.0913,-0.0549 -0.1096,-0.1006 -0.073,-0.1829 -0.1096,-0.3841 -0.0822,-0.5761 0,-0.0091 0,-0.0091 0,-0.0183 0.0457,-0.24685 0.2831,-0.47545 0.557,-0.43887 0.0365,0.00914 0.0639,0.01829 0.0913,0.02743 -0.4291,-0.54863 -1.1505,-0.79552 -1.8353,-0.61264 -0.1552,0.04572 -0.3104,0.11887 -0.4291,0.2286 -0.2465,0.2286 -0.3287,0.60348 -0.3926,1.03328 l -0.4383,2.6974 c -0.0183,0.1006 -0.1096,0.1646 -0.21,0.1555 -0.1004,-0.0183 -0.1644,-0.1098 -0.1552,-0.2103 l 0.4382,-2.6975 c 0.064,-0.38403 0.1553,-0.90523 0.5114,-1.24355 0.1643,-0.14631 0.3652,-0.25603 0.5843,-0.3109 0.8857,-0.23774 1.817,0.10973 2.3192,0.87782 0.0548,0.07315 0.0822,0.16459 0.0731,0.24688 0,0.00915 0,0.01829 0,0.01829 -0.0183,0.07316 -0.0639,0.13716 -0.1279,0.18286 0.1461,-0.064 0.2922,-0.1189 0.4292,-0.17372 0.1004,-0.04572 0.21,-0.05486 0.3104,-0.01828 0.0092,0 0.0183,0.00914 0.0274,0.00914 0.1461,0.08226 0.1918,0.25606 0.1278,0.46636 -0.2191,0.5943 -0.63,1.0972 -1.1504,1.4356 -0.5205,0.32 -1.0866,0.5395 -1.6801,0.6492 -0.0091,0 -0.0182,0 -0.0274,0 0,0.0091 0.0092,0.0274 0.0092,0.0366 l 0.0456,0.9509 c -0.0274,0.1189 -0.1095,0.2012 -0.2191,0.2103 0.0091,0 0,0 0,0 z m 1.4974,-3.4564 c -0.0091,0.0641 -0.0091,0.1281 0,0.1921 0.1735,-0.0915 0.3561,-0.1738 0.5296,-0.2561 -0.0639,0.0183 -0.137,0.0183 -0.2009,0 -0.0456,-0.0091 -0.0913,-0.0274 -0.1278,-0.0457 -0.0274,-0.0091 -0.0548,-0.0274 -0.073,-0.0274 -0.0457,-0.0092 -0.1096,0.064 -0.1279,0.1371 z"
         fill="#5b1a84"
         id="path2064" />
      <path
         d="m 20.6079,33.2198 0.6483,9.4365 c 0.0548,0.7772 0.0183,1.7373 -0.6756,2.1122 -0.2009,-1.1612 -0.6301,-2.2676 -1.2601,-3.2552 l 0.3926,4.2885 C 15.5769,46.9174 11.2307,46.9905 7.06715,46.0121 6.93932,45.9938 6.82975,45.939 6.72931,45.8658 6.60148,45.7378 6.59235,45.5275 6.60148,45.3355 L 6.88453,34.0702 C 6.92105,32.4974 6.95758,30.8881 6.48278,29.3885 6.08103,28.0992 5.29579,26.7825 5.67015,25.484 6.01712,24.2679 7.26802,23.5455 8.49153,23.2438 9.71504,22.942 14.2439,22.75 15.44,22.366"
         fill="#ffffff"
         id="path2066" />
      <path
         d="m 12.9838,46.8625 c -1.9996,0 -3.99921,-0.2286 -5.94405,-0.6858 C 6.88453,46.1493 6.73844,46.0853 6.61974,45.9847 L 6.61061,45.9755 C 6.428,45.7927 6.41887,45.5366 6.428,45.3172 L 6.71105,34.0519 C 6.74757,32.5157 6.79322,30.9155 6.31843,29.4342 6.21799,29.1233 6.09929,28.8124 5.98059,28.5015 5.5971,27.5048 5.20449,26.4716 5.49667,25.42 c 0.31957,-1.1064 1.42438,-1.9933 2.95834,-2.3682 0.5661,-0.1372 1.79879,-0.2561 3.09529,-0.3749 1.4974,-0.1372 3.2049,-0.2926 3.8349,-0.503 0.1004,-0.0274 0.2009,0.0183 0.2283,0.1189 0.0274,0.1006 -0.0183,0.2012 -0.1187,0.2286 -0.6757,0.2195 -2.3192,0.3658 -3.9171,0.5121 -1.2874,0.1188 -2.50181,0.2286 -3.04052,0.3657 -1.40612,0.3384 -2.4105,1.1339 -2.69355,2.1123 -0.26479,0.9235 0.09131,1.8562 0.4748,2.8437 0.1187,0.3109 0.24653,0.6401 0.34696,0.951 0.48393,1.5453 0.44741,3.1729 0.41089,4.7365 L 6.79322,45.308 c 0,0.1463 0,0.3109 0.07305,0.3932 0.07304,0.0549 0.15522,0.0915 0.2374,0.1006 0.00913,0 0.00913,0 0.01826,0 4.07227,0.9601 8.36367,0.9053 12.40857,-0.1646 l -0.3743,-4.133 c -0.0092,-0.0823 0.0456,-0.1646 0.1278,-0.1921 0.0822,-0.0274 0.1644,0 0.21,0.0732 0.5935,0.9327 1.0044,1.9568 1.2235,3.0358 0.4018,-0.4115 0.4018,-1.1887 0.3652,-1.7739 l -0.6482,-9.4366 c -0.0092,-0.1005 0.073,-0.192 0.1734,-0.192 0.1005,-0.0091 0.1918,0.0732 0.1918,0.1738 l 0.6483,9.4365 c 0.0548,0.7772 0.0365,1.847 -0.767,2.286 -0.0548,0.0274 -0.1096,0.0274 -0.1644,0 -0.0547,-0.0275 -0.0913,-0.0732 -0.1004,-0.1372 -0.1552,-0.8595 -0.4291,-1.6916 -0.8218,-2.4597 l 0.3105,3.4381 c 0.0091,0.0914 -0.0457,0.1737 -0.137,0.192 -2.2187,0.6127 -4.5014,0.9144 -6.7841,0.9144 z"
         fill="#ffbd17"
         id="path2068" />
      <path
         d="m 9.29504,22.814 c 0.67567,0 0.29218,-4.7274 0.07304,-5.212 -0.46566,-0.9967 -1.37873,-2.7432 -0.29218,-3.7307 0.30132,-0.2743 0.73959,-0.3475 1.1505,-0.3475 0.8035,0 1.68,-0.128 2.3009,0.4755 0.5661,0.5487 1.1048,1.1247 1.607,1.7282 0.4839,0.5761 0.9496,1.207 1.1231,1.9477 0.1735,0.7406 -0.0183,1.6093 -0.6392,2.0391 -0.5113,0.3566 -1.123,0.2743 -1.6618,0.0457 -0.0821,0.6126 -0.0091,1.271 -0.0091,1.8928 0.0091,0.0731 -0.0091,0.1463 -0.0365,0.2103 -0.0457,0.0731 -0.1187,0.128 -0.2009,0.1554 -1.0591,0.5212 -2.2279,0.7955 -3.41486,0.7955 z"
         fill="#ffffff"
         id="path2070" />
      <path
         d="m 9.29503,22.9969 c -0.10044,0 -0.18261,-0.0823 -0.18261,-0.1829 0,-0.1006 0.07304,-0.1737 0.16435,-0.1828 0.10044,-0.0915 0.26479,-0.695 0.20087,-2.4049 C 9.42286,18.9279 9.27677,17.8489 9.19459,17.6752 9.1672,17.6203 9.13981,17.5563 9.11242,17.4923 8.62849,16.4682 7.82499,14.7583 8.94806,13.7341 9.24025,13.469 9.66939,13.3409 10.2172,13.3318 c 0.1187,0 0.2374,0 0.3561,-0.0091 0.694,-0.0183 1.4883,-0.0366 2.0727,0.5303 0.5661,0.5486 1.1139,1.1339 1.6253,1.7465 0.493,0.5943 0.9769,1.2527 1.1595,2.0208 0.2374,1.0241 -0.1826,1.8562 -0.7121,2.2311 -0.4383,0.3018 -0.9953,0.3566 -1.607,0.1555 -0.0274,0.3291 -0.0092,0.6857 0,1.0241 0.0091,0.2011 0.0182,0.4023 0.0182,0.6035 0.0091,0.1006 -0.0091,0.2011 -0.0456,0.2926 -0.0092,0.0091 -0.0092,0.0183 -0.0183,0.0274 -0.0639,0.1006 -0.1643,0.1737 -0.2739,0.2195 -1.0866,0.5394 -2.2918,0.8229 -3.49707,0.8229 z m 1.65267,-9.3085 c -0.1187,0 -0.2465,0 -0.3652,0.0092 -0.1187,0 -0.2466,0.0091 -0.3653,0.0091 -0.4565,0 -0.80347,0.1006 -1.02261,0.3018 -0.9222,0.8412 -0.21913,2.3408 0.24653,3.3375 0.02739,0.064 0.06392,0.128 0.09131,0.1829 0.21,0.4663 0.52957,4.005 0.16435,5.0931 1.02262,-0.0549 2.02702,-0.32 2.94012,-0.7772 0.0091,0 0.0091,-0.0092 0.0182,-0.0092 0.0457,-0.0183 0.0731,-0.0457 0.1005,-0.0731 0.0091,-0.0366 0.0182,-0.0732 0.0091,-0.1097 0,-0.0092 0,-0.0092 0,-0.0183 0,-0.1921 -0.0091,-0.4024 -0.0183,-0.5944 -0.0182,-0.4389 -0.0365,-0.8869 0.0274,-1.3167 0.0092,-0.0549 0.0457,-0.1097 0.0913,-0.1372 0.0457,-0.0274 0.1096,-0.0274 0.1644,-0.0091 0.4109,0.1737 0.9952,0.3109 1.4883,-0.0274 0.5935,-0.4115 0.703,-1.2436 0.5661,-1.8471 -0.1644,-0.6949 -0.6209,-1.3076 -1.0866,-1.8654 -0.5022,-0.5943 -1.0409,-1.1795 -1.5978,-1.719 -0.4018,-0.3658 -0.904,-0.4298 -1.4518,-0.4298 z"
         fill="#5b1a84"
         id="path2072" />
      <path
         d="m 9.07589,12.8929 c 0.81263,-0.3292 3.17751,-0.256 3.19571,0.9876 0.0183,1.0058 -0.4109,1.847 -0.1735,2.926 0,-0.3658 -0.3743,-0.6766 -0.7304,-0.6401 -0.3744,0.0549 -0.6574,0.3566 -0.6848,0.7407 -0.0091,0.3749 0.1826,0.7224 0.5113,0.9052 0.1917,0.1006 0.4018,0.1463 0.5844,0.2743 0.3835,0.2561 0.493,0.8047 0.3835,1.2528 -0.1096,0.448 -0.4109,0.8321 -0.694,1.1978 -0.2465,0.3201 -0.5204,0.6584 -0.913,0.759 C 10.0894,21.415 9.6146,21.1681 9.20372,20.9213 L 7.74281,20.0709 C 7.51454,19.9337 7.26801,19.7966 7.11279,19.5771 6.95757,19.3577 6.87539,19.1016 6.81148,18.8456 6.64713,18.2147 6.47365,17.5746 6.51017,16.9254 6.54669,16.2396 6.81148,15.5812 7.24975,15.06 7.31367,14.9777 7.39584,14.9046 7.49628,14.868 7.59672,14.8314 7.71542,14.8406 7.80672,14.7857 7.98934,14.6851 7.98021,14.4199 7.99847,14.2096 8.05325,13.6061 8.52805,13.1124 9.07589,12.8929 Z"
         fill="#5b1a84"
         id="path2074" />
      <path
         d="m 10.7012,21.3967 c -0.4931,0.1006 -1.01353,0.2378 -1.40615,0.5761 -0.21001,0.1829 -0.20088,0.32 -0.31045,0.5486 -0.10043,0.2103 -0.33783,0.3292 -0.37436,0.5761 0.0274,-0.2103 3.74356,-0.128 4.08146,-0.1646 0.3652,-0.0366 0.6939,-0.1371 1.0591,-0.1097 0.5296,0.0183 1.0683,-0.0823 1.5522,-0.2926 0.0913,-0.0366 0.1918,-0.1189 0.1553,-0.2103 -0.0183,-0.0366 -0.0548,-0.064 -0.0913,-0.0823 -0.7396,-0.4206 -1.4244,-0.5487 -2.2645,-0.695 -0.3287,-0.0731 -0.6482,-0.2011 -0.9769,-0.2468 -0.4748,-0.0823 -0.9588,0 -1.4244,0.1005 z"
         fill="#ffffff"
         id="path2076" />
      <path
         d="m 8.61023,23.2804 c -0.00913,0 -0.01826,0 -0.01826,0 C 8.49153,23.2712 8.41849,23.1798 8.42762,23.0792 8.45501,22.8689 8.57371,22.7318 8.67415,22.622 8.72893,22.558 8.78372,22.5032 8.81111,22.4391 8.8385,22.3843 8.85676,22.3294 8.88415,22.2746 c 0.05479,-0.1372 0.10957,-0.2835 0.29219,-0.4389 0.42001,-0.3658 0.96786,-0.503 1.48826,-0.6127 0.4566,-0.1006 0.977,-0.192 1.4883,-0.1097 0.1918,0.0274 0.3835,0.0823 0.5661,0.1371 0.1461,0.0458 0.2831,0.0823 0.42,0.1098 0.8218,0.1463 1.534,0.2743 2.3101,0.7132 0.0731,0.0274 0.1278,0.0823 0.1644,0.1463 0,0.0091 0.0091,0.0091 0.0091,0.0183 0.0365,0.0731 0.0365,0.1463 0.0091,0.2194 -0.0548,0.1372 -0.2009,0.2103 -0.2556,0.2378 -0.5114,0.2286 -1.0683,0.3383 -1.6344,0.3109 -0.2283,-0.0183 -0.4383,0.0183 -0.6666,0.0548 -0.1187,0.0183 -0.2374,0.0366 -0.3652,0.0549 -0.1004,0.0091 -0.4109,0.0091 -0.9952,0.0091 -0.8766,0 -2.67533,0 -2.97664,0.0915 -0.02739,0.0366 -0.07304,0.064 -0.12783,0.064 z M 10.7377,21.5705 C 10.2629,21.6711 9.76983,21.7991 9.41373,22.1008 9.30416,22.2014 9.27677,22.2746 9.23112,22.3934 9.21286,22.4483 9.18547,22.5123 9.14894,22.5854 9.10329,22.6769 9.04851,22.75 8.99372,22.814 9.1672,22.7958 9.4046,22.7866 9.71505,22.7775 c 0.63005,-0.0183 1.38785,-0.0183 2.00875,-0.0183 0.4657,0 0.8674,0 0.9587,-0.0092 0.1187,-0.0091 0.2283,-0.0274 0.347,-0.0457 0.2374,-0.0366 0.4748,-0.0823 0.7396,-0.064 0.493,0.0183 0.9952,-0.0731 1.4517,-0.2743 -0.703,-0.384 -1.3787,-0.5029 -2.1548,-0.6492 -0.1552,-0.0366 -0.3104,-0.0732 -0.4565,-0.1189 -0.1826,-0.0549 -0.347,-0.1006 -0.5205,-0.128 -0.4474,-0.0732 -0.913,0.0091 -1.3513,0.1006 z"
         fill="#ffbd17"
         id="path2078" />
      <path
         d="m 6.29106,75.6018 c 0.63915,-0.0366 1.32395,-0.0275 1.88092,0.2926 0.5661,0.32 0.94046,1.0332 0.6848,1.6276 C 7.14934,77.6409 5.4419,77.6866 3.72534,77.6409 3.6249,77.65 3.51533,77.6226 3.42402,77.5769 3.33272,77.5129 3.25967,77.4214 3.21402,77.3117 L 2.37399,75.7115 C 2.23703,75.4646 2.11834,75.2086 2.03616,74.9434 1.63441,73.4804 2.79401,72.2277 3.73447,71.295 c 0.04565,-0.064 0.1187,-0.1006 0.19174,-0.128 0.08218,0 0.16435,0.0274 0.2374,0.0731 0.46566,0.3018 0.82176,0.6767 1.36047,0.8413 -0.15522,0.4937 0.29218,1.0881 0.43827,1.5636 0.18262,0.6035 0.29218,1.2253 0.32871,1.8471"
         fill="#ffffff"
         id="path2080" />
      <path
         d="m 5.10406,77.842 c -0.45653,0 -0.9222,-0.0091 -1.37873,-0.0183 C 3.5975,77.8329 3.46054,77.8055 3.34184,77.7415 3.33271,77.7323 3.32358,77.7323 3.31445,77.7232 3.19575,77.6409 3.10444,77.522 3.04966,77.394 L 2.20964,75.8029 C 2.06355,75.5561 1.94485,75.2817 1.86267,74.9983 1.44266,73.4804 2.53834,72.2277 3.5975,71.1761 c 0.07305,-0.0823 0.16435,-0.1463 0.27392,-0.1737 0.00913,0 0.02739,-0.0091 0.04566,-0.0091 0.12782,-0.0092 0.24652,0.0365 0.34696,0.1097 0.14609,0.0914 0.28305,0.192 0.41088,0.2926 0.28305,0.2103 0.55697,0.4206 0.89481,0.5212 0.04565,0.0183 0.08218,0.0457 0.10957,0.0914 0.01826,0.0458 0.02739,0.0915 0.00913,0.1372 -0.09131,0.2743 0.07304,0.6309 0.2374,0.9692 0.08217,0.1646 0.15522,0.3201 0.20087,0.4755 0.18261,0.5944 0.29218,1.1979 0.3287,1.8197 0.5935,-0.0275 1.25091,0.0091 1.80788,0.3291 0.60263,0.3475 1.06829,1.1522 0.76698,1.8562 C 9.00287,77.6592 8.94808,77.6957 8.87504,77.7049 7.62413,77.7963 6.3641,77.842 5.10406,77.842 Z m -1.3696,-0.384 c 1.66179,0.0457 3.3327,0.0091 4.99448,-0.1097 0.13697,-0.4847 -0.21,-1.0424 -0.64827,-1.2985 C 7.55109,75.7481 6.88455,75.7481 6.30018,75.7847 6.19975,75.7938 6.10844,75.7115 6.10844,75.6109 c 0,-0.0183 0,-0.0365 0,-0.0457 C 6.09931,75.5469 6.09931,75.5286 6.09931,75.5012 6.07192,74.8886 5.96235,74.2851 5.77973,73.6999 5.74321,73.5718 5.67017,73.4255 5.59712,73.2701 5.4419,72.9409 5.26842,72.566 5.30494,72.2094 4.97623,72.0814 4.71144,71.8802 4.45579,71.6882 4.32796,71.5968 4.20013,71.4962 4.06317,71.4047 4.05404,71.4047 4.05404,71.3956 4.0449,71.3956 4.01751,71.3773 3.99012,71.359 3.9536,71.359 3.92621,71.3682 3.89881,71.3956 3.87142,71.4139 L 3.86229,71.423 c -0.98611,0.9876 -2.01788,2.1397 -1.64352,3.4656 0.08217,0.2468 0.19174,0.4937 0.31957,0.7315 l 0.84916,1.6093 c 0,0.0091 0.00913,0.0091 0.00913,0.0183 0.02739,0.0731 0.07304,0.128 0.13696,0.1737 0.06391,0.0274 0.12783,0.0366 0.20087,0.0366 -0.00913,0 -0.00913,0 0,0 z"
         fill="#0bf7eb"
         id="path2082" />
      <path
         d="m 2.88529,76.6533 c 0.13696,0.2561 0.20088,0.6035 0.45654,0.7407 0.14609,0.0731 0.30131,0.1189 0.46566,0.1463 1.47004,0.2834 3.07704,0.2286 4.55621,0.0366 C 8.61936,77.5403 9.21286,77.2294 8.76545,76.9368 8.49153,76.7631 8.02587,76.8454 7.71543,76.8454 l -1.30569,0.0182 c -0.43827,0.0092 -0.91307,0 -1.26004,-0.2743 C 4.66578,76.2144 4.63839,75.5103 4.41925,74.9343 4.2549,74.5045 4.00837,74.2211 3.63401,73.9193 3.52444,73.837 3.41487,73.7547 3.29617,73.6907 3.0953,73.5718 2.56572,73.3067 2.31919,73.3981 c -0.20087,0.0732 -0.18261,0.4115 -0.21913,0.6035 -0.10044,0.4663 0.0913,0.9052 0.24652,1.3259 0.14609,0.4572 0.32871,0.8961 0.53871,1.3258 z"
         fill="#0bf7eb"
         id="path2084" />
      <path
         d="m 12.6825,15.5538 c -0.0365,-0.0366 -0.1096,-0.128 -0.1096,-0.1829 0.0092,-0.0457 0.0457,-0.0915 0.0913,-0.1006 0.0457,-0.0091 0.0914,-0.0091 0.137,0 0.1461,0.0366 0.2831,0.1189 0.3835,0.2377 0.0274,0.0275 0.0548,0.0641 0.073,0.1098 0.0183,0.0457 0.0092,0.0914 -0.0182,0.1188 -0.0183,0.0183 -0.0457,0.0366 -0.0731,0.0458 -0.0913,0.0274 -0.1917,0.0091 -0.2739,-0.0458 -0.0822,-0.0548 -0.1552,-0.1097 -0.21,-0.1828 z"
         fill="#5b1a84"
         id="path2086" />
      <path
         d="m 15.4948,22.2471 c 0.84,0.1006 1.8261,0.3383 2.5474,0.8047 0.7579,0.4846 1.3422,1.1795 1.9266,1.8653 l 3.0588,3.6119 c 0.3561,0.4206 0.7213,0.8504 1.1961,1.143 0.4565,0.2743 0.977,0.4023 1.4974,0.512 1.8079,0.3749 3.6523,0.5852 5.5058,0.631 0.2466,0.0091 0.5022,0.0091 0.7031,0.1554 0.2922,0.2103 0.3378,0.6126 0.347,0.9693 0.0091,0.384 0.0182,0.768 0.0182,1.1521 0,0.3017 -0.0091,0.6218 -0.1917,0.8595 -0.1826,0.2378 -0.4748,0.3292 -0.7487,0.4115 -2.0453,0.5943 -4.1819,0.8504 -6.3093,0.7589 -0.8309,-0.0365 -1.6801,-0.128 -2.4379,-0.4755 C 21.941,34.3354 21.3749,33.8416 20.8271,33.357 L 17.394,30.3303 c -0.7762,-0.6858 -1.5797,-1.399 -1.9997,-2.35"
         fill="#ffffff"
         id="path2088" />
      <path
         d="m 25.849,35.3138 c -0.274,0 -0.5479,-0.0092 -0.8127,-0.0183 -0.7852,-0.0366 -1.6983,-0.1189 -2.5109,-0.4938 -0.6939,-0.32 -1.2692,-0.823 -1.8261,-1.3167 L 17.2661,30.4583 C 16.5174,29.8 15.6682,29.0502 15.2208,28.0535 c -0.0365,-0.0915 0,-0.2012 0.0914,-0.2378 0.0913,-0.0365 0.2008,0 0.2373,0.0915 0.4109,0.9327 1.2327,1.6459 1.954,2.286 l 3.4332,3.0266 c 0.5387,0.4755 1.0956,0.9601 1.7348,1.2619 0.7578,0.3474 1.6252,0.4297 2.374,0.4572 2.1183,0.0822 4.2183,-0.1646 6.2545,-0.7499 0.2739,-0.0822 0.5113,-0.1554 0.6574,-0.3474 0.1369,-0.1829 0.1552,-0.4481 0.1552,-0.7498 0,-0.3841 -0.0091,-0.7681 -0.0183,-1.1522 -0.0091,-0.3383 -0.0547,-0.6766 -0.2739,-0.832 -0.1552,-0.1098 -0.3835,-0.1189 -0.6026,-0.1189 -1.8535,-0.0366 -3.7162,-0.256 -5.5332,-0.6309 C 25.1642,30.248 24.6163,30.12 24.1233,29.8274 23.6211,29.5257 23.2285,29.0593 22.8815,28.6478 L 19.8227,25.0451 C 19.2566,24.3776 18.6814,23.6918 17.9418,23.2164 17.3574,22.8415 16.4809,22.5671 15.4765,22.4391 15.3761,22.43 15.303,22.3385 15.3213,22.238 c 0.0091,-0.1006 0.1004,-0.1738 0.2009,-0.1555 0.7487,0.0915 1.817,0.3109 2.6205,0.8321 0.7852,0.5029 1.3878,1.2162 1.9631,1.9019 l 3.0587,3.6027 c 0.347,0.4024 0.7031,0.823 1.1505,1.0973 0.4383,0.2652 0.9496,0.3841 1.4427,0.4846 1.7987,0.3749 3.634,0.5853 5.4692,0.6218 0.2466,0.0092 0.557,0.0092 0.8035,0.192 0.347,0.2469 0.4109,0.6858 0.42,1.1156 0.0092,0.3841 0.0183,0.7772 0.0274,1.1613 0,0.3566 -0.0182,0.6949 -0.2282,0.9784 -0.2283,0.2926 -0.5844,0.4023 -0.8401,0.4755 -1.817,0.5029 -3.6796,0.7681 -5.5605,0.7681 z"
         fill="#ffbd17"
         id="path2090" />
    </g>
  </g>
</svg>
