<?xml version="1.0" encoding="UTF-8" standalone="no"?>
<!-- Created with Inkscape (http://www.inkscape.org/) -->

<svg
   width="80"
   height="80"
   viewBox="0 0 21.166666 21.166667"
   version="1.1"
   id="svg2340"
   inkscape:version="1.1 (ce6663b3b7, 2021-05-25)"
   sodipodi:docname="04_register_congratulations.svg"
   xmlns:inkscape="http://www.inkscape.org/namespaces/inkscape"
   xmlns:sodipodi="http://sodipodi.sourceforge.net/DTD/sodipodi-0.dtd"
   xmlns="http://www.w3.org/2000/svg"
   xmlns:svg="http://www.w3.org/2000/svg">
  <sodipodi:namedview
     id="namedview2342"
     pagecolor="#ffffff"
     bordercolor="#666666"
     borderopacity="1.0"
     inkscape:pageshadow="2"
     inkscape:pageopacity="0.0"
     inkscape:pagecheckerboard="0"
     inkscape:document-units="mm"
     showgrid="false"
     units="px"
     inkscape:zoom="0.71179153"
     inkscape:cx="-189.66227"
     inkscape:cy="561.25984"
     inkscape:window-width="1920"
     inkscape:window-height="1017"
     inkscape:window-x="0"
     inkscape:window-y="26"
     inkscape:window-maximized="1"
     inkscape:current-layer="layer1" />
  <defs
     id="defs2337">
    <clipPath
       id="clip0">
      <rect
         width="67"
         height="82"
         fill="#ffffff"
         id="rect2530"
         x="0"
         y="0" />
    </clipPath>
  </defs>
  <g
     inkscape:label="Capa 1"
     inkscape:groupmode="layer"
     id="layer1">
    <g
       clip-path="url(#clip0)"
       id="g2528"
       transform="matrix(0.26458333,0,0,0.26458333,1.7192811,-0.26571362)">
      <g
         opacity="0.05"
         id="g2430">
        <g
           opacity="0.05"
           id="g2428">
          <g
             opacity="0.05"
             id="g2426">
            <path
               opacity="0.05"
               d="m 10.2722,82 c 5.5181,0 9.9913,-2.4623 9.9913,-5.4996 0,-3.0374 -4.4732,-5.4997 -9.9913,-5.4997 -5.51805,0 -9.991316,2.4623 -9.991316,5.4997 0,3.0373 4.473266,5.4996 9.991316,5.4996 z"
               fill="#5b1a84"
               id="path2424" />
          </g>
        </g>
      </g>
      <path
         d="M 6.60069,76.016 C 5.69786,74.5932 5.19629,72.9483 5.1662,71.2631 5.15617,70.9099 5.15617,70.5164 4.90538,70.2843 4.785,70.1834 4.65459,70.1127 4.50412,70.0724 3.77183,69.8201 3.00944,69.7293 2.23702,69.7898 c -0.11035,0.0101 0.21066,2.3916 0.21066,2.6237 -0.02007,0.9687 0.14044,1.7962 0.64201,2.6539 0.47148,0.8174 1.11349,1.5339 1.7555,2.2302 0.37117,0.4137 0.75236,0.8274 1.22384,1.1201 C 6.5405,78.7103 7.1123,78.8718 7.654,78.7305 7.74428,78.7204 7.8145,78.67 7.86466,78.5993 7.89475,78.5186 7.90478,78.4278 7.87469,78.347 7.67406,77.5498 7.04208,76.7022 6.60069,76.016 Z"
         fill="#ffffff"
         id="path2432" />
      <path
         d="m 7.2427,78.9929 c -0.42132,0 -0.87273,-0.1413 -1.28402,-0.3936 C 5.46714,78.2865 5.07591,77.8627 4.69471,77.4489 4.06273,76.7526 3.40066,76.0261 2.91915,75.1885 2.43764,74.351 2.23701,73.5033 2.25707,72.4337 c 0,-0.0606 -0.04012,-0.4339 -0.08025,-0.7669 -0.20063,-1.7458 -0.18056,-1.8669 -0.09028,-1.9779 0.03009,-0.0404 0.09028,-0.0706 0.14044,-0.0807 0.79248,-0.0707 1.58497,0.0302 2.34736,0.2825 0.17053,0.0505 0.33103,0.1312 0.47147,0.2523 0,0 0.01004,0 0.01004,0.0101 0.31097,0.2926 0.321,0.7467 0.33103,1.11 v 0.0101 c 0.04013,1.6448 0.52164,3.2594 1.40441,4.652 0.07022,0.1211 0.15047,0.2422 0.24075,0.3633 0.41129,0.6256 0.87274,1.332 1.04327,2.0182 0.04013,0.1312 0.04013,0.2623 -0.02006,0.3935 -0.01003,0.0101 -0.01003,0.0303 -0.02007,0.0404 -0.08025,0.111 -0.20062,0.1917 -0.33103,0.2119 -0.16051,0.0202 -0.31098,0.0404 -0.46145,0.0404 z M 2.40755,69.9815 c 0.01003,0.323 0.10031,1.1403 0.15047,1.6146 0.05015,0.4844 0.08025,0.7367 0.08025,0.8174 -0.02006,1.0091 0.1605,1.7659 0.61192,2.5429 0.46144,0.8073 1.10346,1.5137 1.7254,2.1898 0.36114,0.3935 0.7323,0.8073 1.18371,1.0898 0.47148,0.3028 0.99312,0.4037 1.42447,0.2927 0.01003,0 0.01003,0 0.02006,0 0.0301,0 0.05016,-0.0202 0.07022,-0.0303 0.01003,-0.0303 0.01003,-0.0505 0,-0.0807 0,-0.0101 0,-0.0101 -0.01003,-0.0202 C 7.51355,77.7718 7.06213,77.0957 6.67091,76.5004 6.59066,76.3692 6.50037,76.2481 6.43015,76.127 5.50726,74.6739 4.99566,72.9988 4.96556,71.2732 V 71.2631 C 4.95553,70.9503 4.95553,70.6173 4.76493,70.4457 4.66462,70.365 4.56431,70.3146 4.44393,70.2742 H 4.4339 C 3.78185,70.0421 3.09972,69.9412 2.40755,69.9815 Z"
         fill="#5b1a84"
         id="path2434" />
      <path
         d="m 12.1581,71.031 c -0.5417,-0.1816 -1.0633,-0.4339 -1.5549,-0.7467 -0.0802,-0.0404 -0.1404,-0.1009 -0.1906,-0.1816 -0.0501,-0.111 -0.0602,-0.2321 -0.0401,-0.3431 0.0602,-0.767 0.0702,-1.544 0.0301,-2.3109 C 10.3926,67.257 10.3625,67.035 10.202,66.924 10.0916,66.8634 9.95118,66.8331 9.82078,66.8432 l -2.12667,0.0101 c 0.02006,1.2412 0,2.4824 -0.06019,3.7236 -0.05016,0.9486 -0.21066,2.0182 0.74233,2.6136 0.24075,0.1312 0.50157,0.222 0.78245,0.2523 1.4546,0.2826 2.9191,0.444 4.4038,0.5146 0.6821,0.0303 2.6483,-0.0706 1.8558,-1.2311 C 15.0572,72.2016 14.2948,71.7677 13.713,71.5558 13.1913,71.364 12.6697,71.2127 12.1581,71.031 Z"
         fill="#ffffff"
         id="path2436" />
      <path
         d="m 13.7732,74.1593 c -0.1003,0 -0.1806,0 -0.2207,0 -1.4847,-0.0606 -2.9693,-0.2321 -4.42389,-0.5147 -0.30094,-0.0404 -0.58182,-0.1312 -0.84264,-0.2725 0,0 -0.01003,0 -0.01003,-0.01 C 7.30289,72.7465 7.36308,71.7172 7.42326,70.809 7.4333,70.7283 7.4333,70.6476 7.4333,70.5567 c 0.06018,-1.2311 0.08025,-2.4723 0.06018,-3.7034 0,-0.0504 0.02007,-0.111 0.06019,-0.1413 0.04013,-0.0403 0.09029,-0.0605 0.14044,-0.0605 l 2.11664,-0.0101 c 0.17053,-0.0202 0.33105,0.0202 0.48155,0.1009 0.01,0 0.01,0.0101 0.02,0.0101 0.2608,0.1816 0.2809,0.5146 0.2909,0.6761 0.0502,0.777 0.0402,1.5641 -0.0301,2.3411 0,0.0101 0,0.0101 0,0.0202 -0.01,0.0707 -0.01,0.1413 0.0201,0.2119 0.0301,0.0404 0.0702,0.0808 0.1103,0.1009 0,0 0.0101,0 0.0101,0.0101 0.4715,0.3028 0.973,0.545 1.5047,0.7266 0.2508,0.0908 0.5116,0.1715 0.7624,0.2523 0.2608,0.0807 0.5216,0.1715 0.7925,0.2623 0.5818,0.2119 1.4044,0.656 1.8056,1.2412 0.2408,0.3431 0.2909,0.656 0.1405,0.9183 -0.311,0.5752 -1.4245,0.6459 -1.9461,0.6459 z M 8.4866,73.0089 c 0.22069,0.1211 0.46144,0.1917 0.7022,0.2321 h 0.01003 c 1.43447,0.2724 2.90907,0.444 4.37367,0.5045 0.7424,0.0303 1.6251,-0.1009 1.8057,-0.4238 0.0602,-0.1211 0.0201,-0.2826 -0.1204,-0.4945 -0.321,-0.4742 -1.0433,-0.888 -1.605,-1.0898 -0.2608,-0.0908 -0.5216,-0.1816 -0.7724,-0.2624 -0.2508,-0.0807 -0.5217,-0.1715 -0.7725,-0.2623 -0.5617,-0.1918 -1.0934,-0.4441 -1.5849,-0.767 -0.1003,-0.0605 -0.1906,-0.1412 -0.2508,-0.2421 -0.01,-0.0101 -0.01,-0.0202 -0.0201,-0.0303 -0.0602,-0.1413 -0.0802,-0.3028 -0.0501,-0.4541 0.0602,-0.7568 0.0702,-1.5238 0.02,-2.2806 -0.01,-0.1413 -0.0301,-0.3027 -0.1103,-0.3633 -0.0803,-0.0403 -0.16051,-0.0605 -0.2508,-0.0504 -0.01003,0 -0.01003,0 -0.02006,0 L 7.91481,67.035 c 0.02006,1.1705 -1e-5,2.3613 -0.07023,3.5318 0,0.0808 -0.01003,0.1716 -0.01003,0.2523 -0.07022,0.8779 -0.12037,1.7054 0.65205,2.1898 z"
         fill="#5b1a84"
         id="path2438" />
      <path
         d="M 9.76058,31.585 C 8.83769,31.5144 7.94489,31.252 7.13234,30.8181 6.91165,30.697 5.5574,29.2439 6.06901,29.0421 c -0.65204,0.2724 -1.0834,1.7356 -1.35425,2.3512 -0.44138,0.9788 -0.71223,2.0182 -0.81254,3.0778 -0.10032,1.0898 -0.02007,2.1897 -0.20063,3.2695 -0.27085,1.6347 -1.04327,3.219 -1.42447,4.8437 -0.45141,1.887 -0.73229,3.8144 -0.8627,5.7519 -0.11035,1.8164 -0.09028,3.6328 -0.05016,5.4593 0.04013,2.1393 0.09029,4.2786 0.30095,6.4078 0.18056,1.8769 0.47147,3.7337 0.61191,5.6207 0.14044,1.8366 -0.18056,3.5319 -0.24075,5.3281 -0.04013,1.1403 1.19374,2.1494 2.41758,2.0788 1.67525,-0.101 1.90597,-1.8972 1.92603,-3.209 C 6.4803,64.825 7.22262,59.6584 8.57687,54.6431 9.86089,49.87 10.7637,45.1777 10.6734,40.2533 l 0.0903,5.0657 c 0.0401,2.0081 0.0702,4.0162 -0.2207,6.0042 -0.5216,3.6327 -2.07648,7.0032 -3.0094,10.535 -0.33104,1.2614 -1.2439,3.986 -0.67211,5.2474 0.3511,0.7669 0.79249,0.5247 1.58497,0.5651 0.24075,0.0101 2.43764,0.5651 2.42764,0.5853 2.4075,-2.5733 3.9524,-5.8629 4.9154,-9.2535 1.4044,-4.9245 2.0364,-10.1819 1.7254,-15.288 -0.1505,-2.5127 -0.4013,-5.0657 -1.284,-7.427 -0.4314,-1.1403 -1.1336,-2.3109 -1.3142,-3.5319 -0.1805,-1.221 0.0803,-2.0081 -1.0131,-2.9264 -0.3712,-0.3027 -0.7223,0.5752 -1.0232,0.8174 -0.5417,0.4339 -1.1737,0.7366 -1.8559,0.888 -0.4213,0.0706 -0.8426,0.0908 -1.26392,0.0504 z"
         fill="#ffffff"
         id="path2440" />
      <path
         d="m 4.33358,73.4327 c -0.65205,0 -1.32415,-0.2826 -1.82573,-0.767 C 2.05644,72.2217 1.81568,71.6869 1.83575,71.142 1.85581,70.476 1.916,69.8302 1.96616,69.1944 2.05644,68.1046 2.15675,66.9845 2.0765,65.8341 1.99625,64.7544 1.86584,63.6645 1.73543,62.615 1.63512,61.8279 1.54484,61.0207 1.46458,60.2235 1.26396,58.1245 1.20377,56.076 1.16364,53.8055 1.12352,51.7772 1.10345,50.092 1.2138,48.3362 1.33418,46.3886 1.62509,44.441 2.0765,42.554 c 0.17054,-0.7165 0.41129,-1.4329 0.65205,-2.1191 0.30094,-0.888 0.62194,-1.7962 0.77242,-2.7145 0.10031,-0.6257 0.12037,-1.2715 0.13041,-1.8971 0.01003,-0.444 0.02006,-0.9082 0.06018,-1.3522 0.10032,-1.0899 0.3812,-2.1494 0.83261,-3.1484 0.05016,-0.1211 0.11035,-0.2725 0.18057,-0.4541 0.29091,-0.7367 0.68214,-1.7559 1.28402,-1.9981 0.10032,-0.0403 0.2207,0.0101 0.26082,0.111 0.04013,0.1009 -0.01003,0.2119 -0.10031,0.2624 -0.02007,0.2624 0.84264,1.2816 1.07336,1.4127 0.79248,0.4138 1.65519,0.6661 2.54799,0.7367 0.40128,0.0303 0.80248,0.0101 1.20378,-0.0605 0.642,-0.1312 1.2539,-0.4239 1.7655,-0.8376 0.0803,-0.0606 0.1706,-0.1917 0.2709,-0.3229 0.2006,-0.2725 0.4012,-0.555 0.6721,-0.5954 0.0802,-0.0101 0.2106,0 0.341,0.111 0.9029,0.7568 0.953,1.4632 1.0032,2.2705 0.0201,0.2422 0.0301,0.5045 0.0802,0.777 0.1204,0.7972 0.4715,1.5843 0.8226,2.3512 0.1706,0.3734 0.3411,0.7569 0.4815,1.1403 0.933,2.4824 1.1637,5.1666 1.2941,7.4775 0.3009,4.9951 -0.301,10.3131 -1.7355,15.3586 -1.0934,3.8548 -2.7686,6.9931 -4.9655,9.3342 -0.0602,0.0707 -0.1605,0.0808 -0.2408,0.0404 -0.2508,-0.0807 -2.15673,-0.555 -2.3373,-0.5651 -0.17053,-0.0101 -0.321,0 -0.47147,0 -0.50158,0.0202 -0.94296,0.0303 -1.26397,-0.6458 -0.06018,0.9384 -0.10031,1.8769 -0.12037,2.8053 -0.01003,0.8073 -0.06019,3.2796 -2.11664,3.4007 -0.03009,0 -0.08025,0 -0.12037,0 z M 5.81823,29.5063 C 5.51729,29.8796 5.2665,30.5356 5.0759,30.9997 5.00568,31.1814 4.94549,31.3428 4.88531,31.4639 4.45395,32.4226 4.1831,33.4317 4.09282,34.4812 c -0.04012,0.4339 -0.05016,0.888 -0.06019,1.332 -0.02006,0.6458 -0.03009,1.3017 -0.14044,1.9576 -0.1605,0.9385 -0.48151,1.877 -0.78245,2.7751 -0.23072,0.6862 -0.48151,1.3825 -0.64201,2.0787 -0.44139,1.877 -0.7323,3.7943 -0.85267,5.7217 -0.11035,1.7356 -0.09029,3.4209 -0.05016,5.4391 0.04012,2.2604 0.10031,4.3088 0.30094,6.3876 0.08025,0.7972 0.17054,1.6045 0.27085,2.3815 0.13041,1.0596 0.26082,2.1494 0.34107,3.2392 0.09028,1.1807 -0.01003,2.321 -0.11035,3.431 -0.05015,0.6256 -0.11034,1.2715 -0.13041,1.9274 -0.01003,0.4339 0.18057,0.8678 0.55173,1.221 0.45142,0.444 1.07337,0.6862 1.65519,0.6458 1.15362,-0.0706 1.70535,-1.0293 1.74547,-3.0071 0.10032,-5.207 0.84264,-10.4039 2.19689,-15.4292 1.52478,-5.6309 2.16682,-10.0507 2.08652,-14.3293 0,-0.1111 0.0903,-0.2019 0.2006,-0.2019 0.1104,0 0.2007,0.0908 0.2007,0.2019 l 0.0903,5.0657 c 0.0301,1.9778 0.0702,4.0364 -0.2207,6.0344 -0.3311,2.2806 -1.0734,4.4805 -1.78563,6.6097 -0.43135,1.2815 -0.88277,2.6136 -1.23387,3.9456 -0.05015,0.1715 -0.10031,0.3834 -0.17053,0.6054 -0.37116,1.3018 -0.98308,3.4915 -0.51161,4.5107 0.2207,0.4743 0.42133,0.4642 0.90283,0.4541 0.15048,-0.0101 0.31098,-0.0101 0.50158,0 0.1605,0.0101 0.90283,0.1918 1.33418,0.2927 0.55175,0.1312 0.85265,0.2119 1.02325,0.2624 2.1066,-2.2806 3.7116,-5.3382 4.785,-9.082 1.4244,-5.0052 2.0163,-10.2626 1.7153,-15.2173 -0.1404,-2.2907 -0.3611,-4.9346 -1.274,-7.3665 -0.1404,-0.3633 -0.3009,-0.7266 -0.4714,-1.11 -0.3511,-0.7871 -0.7223,-1.6045 -0.8527,-2.4522 -0.0401,-0.2926 -0.0602,-0.555 -0.0803,-0.8173 -0.0501,-0.777 -0.0902,-1.3421 -0.8627,-1.988 -0.01,-0.0101 -0.0301,-0.0202 -0.0301,-0.0202 -0.1003,0.0101 -0.2808,0.2725 -0.4012,0.4239 -0.1204,0.1614 -0.2207,0.3128 -0.3411,0.4036 -0.5618,0.4541 -1.2339,0.7669 -1.9361,0.9183 -0.4313,0.0807 -0.8727,0.1009 -1.31408,0.0706 C 8.78754,31.7162 7.87467,31.4538 7.03203,31.0098 6.87153,30.9089 6.05898,30.1016 5.81823,29.5063 Z m 4.75487,16.3576 c -0.321,2.6741 -0.91283,5.5501 -1.80563,8.8297 -0.6721,2.4925 -1.19374,5.0152 -1.55487,7.5683 0.05016,-0.1716 0.09028,-0.333 0.13041,-0.4642 0.3511,-1.3421 0.80251,-2.6742 1.23387,-3.9759 0.71223,-2.109 1.44452,-4.2988 1.76552,-6.539 0.2709,-1.7861 0.2608,-3.6227 0.2307,-5.4189 z"
         fill="#0bf7eb"
         id="path2442" />
      <path
         d="m 2.98935,76.4196 2.19689,2.3714 c 0.42132,0.4541 0.85267,0.9183 1.41443,1.1504 0.56176,0.2321 1.20378,0.222 1.82573,0.1917 L 9.59004,80.0928 C 9.89099,80.0827 10.2822,79.9919 10.3123,79.6891 10.3725,79.1543 9.41951,78.3268 8.99819,78.0645 8.73737,77.9232 8.48658,77.7617 8.2358,77.6003 8.08533,77.4893 7.17247,76.8838 7.17247,76.7224 c 0.11034,0.1614 0.22069,0.333 0.23072,0.5247 0.01003,0.1917 -0.13041,0.4036 -0.33104,0.4036 C 6.95177,77.6306 6.84143,77.57 6.76118,77.4792 L 4.30347,75.3298 C 3.81193,74.9261 3.36052,74.472 2.95926,73.9877 2.67838,73.6345 2.38747,73.3116 2.13668,72.9584 c -0.32101,0.333 -0.62195,0.9284 -0.60189,1.4026 0.0301,0.5147 0.39123,0.9385 0.74233,1.3119 z"
         fill="#ffffff"
         id="path2444" />
      <path
         d="m 7.9148,80.3451 c -0.45142,0 -0.93293,-0.0404 -1.37431,-0.222 C 5.92857,79.8708 5.4571,79.3662 5.05584,78.9222 L 2.85895,76.5609 2.16678,75.8041 c -0.40126,-0.4339 -0.77242,-0.8678 -0.80251,-1.443 -0.0301,-0.545 0.31097,-1.2009 0.66207,-1.5541 0.04013,-0.0403 0.10032,-0.0605 0.1605,-0.0605 0.06019,0 0.11035,0.0404 0.15048,0.0908 0.1605,0.2321 0.34107,0.4541 0.53166,0.6862 0.09029,0.111 0.18057,0.222 0.27085,0.333 0.40126,0.4743 0.84264,0.9183 1.32415,1.3118 l 2.46774,2.1595 c 0.01003,0 0.01003,0.0101 0.02006,0.0202 0.05016,0.0505 0.11035,0.0908 0.18057,0.1009 0.02006,0 0.04012,-0.0202 0.05015,-0.0302 0.04013,-0.0404 0.06019,-0.101 0.06019,-0.1615 0,-0.0908 -0.05015,-0.1917 -0.11034,-0.2926 -0.09029,-0.101 -0.12038,-0.1716 -0.12038,-0.2523 0,-0.0908 0.06019,-0.1716 0.14044,-0.1918 0.08025,-0.0302 0.18057,0.0101 0.22069,0.0808 0.02006,0.0403 0.05016,0.0807 0.08025,0.1211 0.11035,0.111 0.37117,0.3128 0.78246,0.5953 0.07022,0.0505 0.1304,0.0909 0.1605,0.111 0.23072,0.1615 0.48151,0.3129 0.73229,0.4541 0.41129,0.2523 1.4947,1.1302 1.4144,1.8265 -0.0401,0.3532 -0.3711,0.5651 -0.91282,0.5853 L 8.46653,80.335 c -0.1906,0 -0.37116,0.0101 -0.55173,0.0101 z m -4.77497,-4.0667 2.19689,2.3714 c 0.38119,0.4137 0.81254,0.8779 1.35424,1.0999 0.5417,0.222 1.17368,0.2018 1.74547,0.1816 L 9.60008,79.891 C 9.8308,79.8809 10.1117,79.8203 10.1317,79.669 10.1719,79.2754 9.35933,78.5085 8.91794,78.236 8.65713,78.0948 8.39631,77.9333 8.14552,77.7618 8.11543,77.7416 8.06527,77.7012 7.99505,77.6508 7.85461,77.5498 7.7242,77.459 7.61386,77.3783 7.59379,77.4994 7.5336,77.6104 7.45335,77.6911 7.35304,77.792 7.23266,77.8526 7.09222,77.8526 c -0.01003,0 -0.02006,0 -0.03009,0 C 6.90162,77.8223 6.75115,77.7517 6.64081,77.6306 L 4.19313,75.4812 C 3.70159,75.0775 3.24015,74.6133 2.81883,74.1189 2.72854,73.9978 2.63826,73.8969 2.54798,73.7859 2.41757,73.6244 2.27713,73.4529 2.14672,73.2813 1.92603,73.584 1.74546,73.9978 1.75549,74.351 c 0.02007,0.4339 0.34107,0.8073 0.69217,1.1806 z"
         fill="#5b1a84"
         id="path2446" />
      <path
         d="M 11.5863,71.808 C 10.6434,71.9493 8.84773,71.6062 8.53675,71.5557 8.19568,71.4952 7.48345,71.1319 7.2427,71.5759 c -0.11035,0.2119 0,0.7569 0.02006,0.9889 0.04013,0.4642 0.01003,1.211 0.49154,1.3825 0.59186,0.2018 1.4044,0.1716 2.02635,0.222 1.35425,0.1312 2.70845,0.2018 4.07275,0.2321 0.5818,0.0101 3.5411,0.3028 3.5712,-0.555 -0.01,-0.1715 -0.0702,-0.3431 -0.1705,-0.4844 -1.1235,-1.6953 -3.6715,-1.9173 -5.4672,-2.3108 0.0602,0.1211 0.2007,0.1917 0.3311,0.1615 0.1705,0.3531 -0.0903,0.5247 -0.5317,0.5953 z"
         fill="#ffffff"
         id="path2448" />
      <path
         d="m 15.4284,74.6537 c -0.3913,0 -0.8126,-0.0202 -1.2439,-0.0404 -0.1405,-0.01 -0.2609,-0.0101 -0.3311,-0.0201 C 12.4992,74.5629 11.1249,74.4822 9.77063,74.3611 9.59006,74.3409 9.39946,74.3308 9.19883,74.3308 8.6772,74.3106 8.14553,74.2803 7.70415,74.129 7.17248,73.9372 7.12233,73.2712 7.09223,72.7869 7.09223,72.7162 7.0822,72.6456 7.0822,72.585 7.0822,72.5447 7.07217,72.4942 7.06214,72.4236 7.00195,72.03 6.97185,71.697 7.0822,71.4851 c 0.26082,-0.4945 0.88277,-0.3027 1.25393,-0.1917 0.10031,0.0303 0.1906,0.0605 0.26082,0.0706 0.03009,0 0.07022,0.0101 0.12038,0.0202 0.50157,0.0908 2.03637,0.3532 2.85897,0.2321 0.331,-0.0505 0.4012,-0.1413 0.4113,-0.1615 0,-0.0101 0.01,-0.0201 0.01,-0.0302 -0.1505,-0.0303 -0.2909,-0.1312 -0.3611,-0.2725 -0.0301,-0.0706 -0.0201,-0.1514 0.02,-0.2119 0.0502,-0.0606 0.1204,-0.0908 0.2007,-0.0706 0.2708,0.0605 0.5617,0.111 0.8627,0.1715 1.6552,0.3229 3.7216,0.7165 4.7248,2.22 0.1304,0.1716 0.2006,0.3734 0.2106,0.5853 v 0.0101 c -0.01,0.1514 -0.0702,0.2927 -0.1906,0.4037 -0.3711,0.3128 -1.1335,0.3935 -2.0363,0.3935 z m -7.77441,-3.098 c -0.11034,0 -0.19059,0.0303 -0.23072,0.111 -0.06019,0.1111 0,0.5248 0.02006,0.6963 0.01003,0.0707 0.02007,0.1312 0.02007,0.1716 0.01003,0.0706 0.01003,0.1413 0.02006,0.222 0.03009,0.3935 0.06019,0.888 0.34107,0.9889 0.39122,0.1312 0.8928,0.1615 1.38434,0.1816 0.21066,0.0101 0.41128,0.0202 0.59185,0.0404 1.34418,0.1211 2.70848,0.2018 4.05268,0.2321 0.0803,0 0.2007,0.0101 0.3411,0.0202 0.6922,0.0404 2.5279,0.1413 2.9593,-0.2523 0.0501,-0.0404 0.0602,-0.0807 0.0602,-0.111 -0.0101,-0.1312 -0.0502,-0.2523 -0.1305,-0.3532 l -0.01,-0.0101 c -0.9028,-1.3623 -2.7988,-1.7255 -4.464,-2.0485 -0.0802,-0.0201 -0.1705,-0.0302 -0.2508,-0.0504 0.0101,0.111 -0.02,0.1917 -0.0501,0.2523 -0.1003,0.1917 -0.3311,0.3128 -0.7022,0.3733 C 10.7136,72.1511 9.13865,71.8787 8.61701,71.7878 8.56685,71.7778 8.52673,71.7677 8.49663,71.7677 8.40635,71.7475 8.30604,71.7172 8.19569,71.6869 7.99506,71.6163 7.80446,71.5557 7.65399,71.5557 Z"
         fill="#5b1a84"
         id="path2450" />
      <path
         d="M 4.73485,15.177 C 4.72481,14.289 4.65459,13.411 4.4339,12.5129 4.05271,12.4221 3.72167,12.1698 3.41069,11.9276 3.2201,11.7965 3.04956,11.635 2.91915,11.4433 2.71853,11.1405 2.69846,10.5452 2.70849,10.192 2.70849,9.54616 3.01947,8.95078 3.35051,8.39578 3.48092,8.1435 3.66148,7.93159 3.87214,7.74995 4.69472,7.13439 6.71104,7.41694 7.59381,7.8105 8.55683,8.26459 9.30918,9.07188 9.70041,10.0608 9.98129,10.7672 9.99132,11.5543 9.9512,12.3111 9.93113,12.8056 9.87094,13.3202 9.55997,13.7037 9.06843,14.2991 8.18566,14.299 7.41324,14.2486 7.61387,15.3384 7.09223,16.3072 7.18252,17.3667 6.33988,17.3163 5.5173,17.1548 4.72481,16.8824 4.73485,16.2971 4.74488,15.732 4.73485,15.177 Z"
         fill="#ffffff"
         id="path2452" />
      <path
         d="M 7.19255,17.5585 H 7.18251 C 6.32984,17.508 5.47717,17.3465 4.66462,17.064 4.58437,17.0337 4.53422,16.9631 4.53422,16.8723 c 0,-0.1716 0,-0.333 0,-0.5046 0,-0.4137 0.01003,-0.7972 0,-1.1907 C 4.52418,14.4504 4.48406,13.5826 4.26337,12.6744 3.88217,12.5533 3.5712,12.3111 3.29032,12.0891 3.08969,11.9478 2.90912,11.7763 2.75865,11.5644 c 0,0 0,-0.0101 -0.01003,-0.0101 C 2.5179,11.2112 2.49783,10.6057 2.49783,10.192 2.49783,9.50579 2.81884,8.88014 3.16994,8.29486 3.31038,8.0224 3.51101,7.79031 3.74173,7.58849 c 0,0 0.01003,0 0.01003,-0.01009 0.9229,-0.69629 3.07965,-0.3431 3.9223,0.03027 1.01317,0.47428 1.80565,1.32193 2.21694,2.36131 0.3009,0.75682 0.3009,1.60452 0.2608,2.33102 -0.0301,0.5046 -0.0802,1.0697 -0.44136,1.5036 -0.48151,0.5853 -1.26396,0.666 -2.06648,0.6357 0.05016,0.5348 -0.04012,1.0293 -0.13041,1.5137 -0.09028,0.4642 -0.17053,0.9082 -0.13041,1.3623 0.01004,0.0605 -0.01003,0.1211 -0.06018,0.1614 -0.0301,0.0606 -0.08026,0.0808 -0.13041,0.0808 z M 4.93547,16.731 c 0.66208,0.222 1.35425,0.3633 2.04642,0.4137 -0.01004,-0.4238 0.07022,-0.8375 0.15047,-1.2412 0.10031,-0.5449 0.20063,-1.0696 0.10031,-1.6246 -0.01003,-0.0606 0.01003,-0.1211 0.05016,-0.1716 0.04013,-0.0504 0.10031,-0.0706 0.1605,-0.0706 0.78245,0.0504 1.56491,0.0302 1.9762,-0.4743 0.28088,-0.3431 0.321,-0.8376 0.3511,-1.2715 C 9.81075,11.5745 9.80072,10.8176 9.5399,10.1314 9.16874,9.18287 8.45651,8.41595 7.53362,7.99213 6.64082,7.59858 4.73484,7.38667 4.02261,7.9114 3.81195,8.07286 3.65145,8.27468 3.53107,8.49668 c 0,0 0,0.01009 -0.01003,0.01009 C 3.20003,9.03151 2.90912,9.6067 2.90912,10.192 c 0,0.5651 0.06019,0.9485 0.18057,1.1403 0.13041,0.1715 0.28088,0.3128 0.45141,0.4339 0.30095,0.2321 0.60189,0.4743 0.95299,0.555 0.07022,0.0202 0.13041,0.0706 0.15047,0.1514 0.25079,0.999 0.30094,1.9677 0.31098,2.7044 0.01003,0.3935 0,0.7871 0,1.2008 -0.02007,0.111 -0.02007,0.2321 -0.02007,0.3532 z"
         fill="#5b1a84"
         id="path2454" />
      <path
         d="m 13.713,18.9208 c -1.2038,-1.211 -2.6082,-2.1999 -4.13298,-2.9466 -0.51161,-0.2624 -1.04327,-0.4844 -1.595,-0.666 -0.5417,-0.1716 -1.11349,-0.1716 -1.67525,-0.1514 -0.56176,0.0202 -1.12353,0.1514 -1.595,0.4844 -0.63198,0.444 -0.99312,1.2109 -1.11349,1.9879 -0.12038,0.777 -0.02007,1.5641 0.10031,2.331 0.37116,2.3311 0.98308,4.6217 1.83575,6.8216 0.2207,0.555 0.45142,1.1201 0.5718,1.7054 0.08025,0.4036 0.12037,0.8174 0.28088,1.1907 0.18056,0.4037 0.50157,0.7165 0.85267,0.9789 1.7856,1.3118 4.51411,1.0797 6.06901,-0.5046 0.1405,-0.1312 0.2508,-0.2825 0.321,-0.4642 0.0803,-0.2422 0.0401,-0.5045 0.01,-0.7568 -0.2507,-2.0687 0.3812,-4.1272 0.943,-6.1354 0.2006,-0.7265 0.4013,-1.4935 0.2107,-2.22 -0.1605,-0.6559 -0.612,-1.1807 -1.0834,-1.6549 z"
         fill="#ffffff"
         id="path2456" />
      <path
         d="M 9.96122,31.696 C 8.95807,31.696 7.95493,31.4034 7.13235,30.808 6.68093,30.4851 6.37999,30.142 6.20946,29.7485 6.07905,29.4558 6.01886,29.143 5.9687,28.8403 5.94864,28.7394 5.92858,28.6284 5.90851,28.5275 5.79817,28.0229 5.60757,27.5284 5.41697,27.0441 L 5.34675,26.8523 C 4.49408,24.6424 3.87213,22.3315 3.49094,19.9904 3.35049,19.1024 3.27024,18.3456 3.39062,17.5988 3.53106,16.6906 3.97244,15.9237 4.59439,15.4797 5.04581,15.1669 5.6176,14.9852 6.28971,14.9651 c 0.53166,-0.0202 1.15361,-0.0303 1.74547,0.1614 0.55173,0.1817 1.10346,0.4137 1.62509,0.6761 1.55483,0.7568 2.95923,1.766 4.19313,2.987 0.4715,0.4642 0.9731,1.0393 1.1536,1.7457 0.2107,0.8073 -0.02,1.6449 -0.2106,2.3311 l -0.0903,0.3027 c -0.5317,1.8769 -1.0834,3.8245 -0.8527,5.7519 l 0.01,0.0505 c 0.0301,0.2421 0.0602,0.5247 -0.03,0.7871 v 0.0101 c -0.0803,0.2018 -0.2107,0.3834 -0.3712,0.5348 -0.9129,0.9082 -2.2069,1.3925 -3.50098,1.3925 z M 6.76119,15.3485 c -0.15048,0 -0.30095,0 -0.45142,0.0101 -0.60189,0.0202 -1.10346,0.1716 -1.48465,0.444 -0.53167,0.3734 -0.91286,1.0495 -1.03324,1.8467 -0.11035,0.6963 -0.04013,1.4127 0.10031,2.2705 0.37117,2.3108 0.98308,4.5914 1.82573,6.7812 l 0.07022,0.1917 c 0.19059,0.4945 0.39122,1.0091 0.5116,1.554 0.02006,0.111 0.04013,0.222 0.06019,0.333 0.05016,0.2927 0.10031,0.5651 0.21066,0.8174 0.14044,0.3229 0.40126,0.6156 0.79248,0.8981 1.71538,1.2513 4.32353,1.0394 5.80823,-0.4844 0,0 0,0 0.01,-0.0101 0.1204,-0.111 0.2107,-0.2421 0.2709,-0.3834 0.0601,-0.1716 0.0301,-0.3936 0.01,-0.5954 l -0.01,-0.0605 c -0.2408,-2.0082 0.321,-3.986 0.8627,-5.9134 l 0.0902,-0.3027 c 0.1706,-0.6358 0.3913,-1.4128 0.2107,-2.1091 -0.1605,-0.6054 -0.6019,-1.11 -1.0533,-1.5641 C 12.3688,17.8814 10.9945,16.9025 9.47971,16.1558 8.97814,15.9035 8.44647,15.6815 7.9148,15.4999 7.54364,15.3788 7.15241,15.3485 6.76119,15.3485 Z"
         fill="#5b1a84"
         id="path2458" />
      <path
         d="m 14.2346,24.4305 c 2.8088,0.1211 5.5574,0.8274 8.0753,2.0888 0.7524,-0.9183 1.274,-1.998 1.5047,-3.1686 0.2408,-0.0504 0.3511,0.3028 0.321,0.5449 -0.0501,0.4642 -0.1906,0.9183 -0.4012,1.3421 0.3411,-0.6256 0.7824,-1.1806 1.3041,-1.6549 -0.0702,0.7669 -0.321,1.5137 -0.7524,2.1595 l 1.6753,-1.6146 c 0.0802,-0.0706 0.1805,-0.1513 0.2808,-0.1211 0.1806,0.0606 0.0803,0.3431 -0.0501,0.4844 l -1.4245,1.6247 1.5549,-0.8679 c 0.1204,-0.0706 0.2809,-0.1412 0.3912,-0.0504 0.1806,0.1413 -0.01,0.4036 -0.1906,0.5449 l -2.1367,1.5944 c -0.1605,0.1211 -0.3511,0.3027 -0.2708,0.4945 l 1.2038,-0.1211 c 0.2307,-0.0202 0.5517,0.0201 0.5617,0.2623 0.01,0.1918 -0.2106,0.2927 -0.3812,0.3431 l -0.8527,0.2624 c -0.2909,0.111 -0.5918,0.1715 -0.9028,0.1816 -0.2708,-0.0202 -0.5317,-0.0706 -0.7925,-0.1412 -0.7423,-0.1817 -1.5047,-0.2523 -2.257,-0.3431 -2.3574,-0.2725 -4.6847,-0.6963 -6.992,-1.2614"
         fill="#ffffff"
         id="path2460" />
      <path
         d="m 23.7745,28.9614 h -0.01 C 23.4836,28.9412 23.2027,28.8907 22.9319,28.81 22.2899,28.6586 21.6278,28.5779 20.9757,28.5073 L 20.7049,28.477 c -2.3574,-0.2725 -4.7148,-0.6963 -7.012,-1.2614 -0.1103,-0.0303 -0.1705,-0.1312 -0.1505,-0.2422 0.0301,-0.111 0.1305,-0.1715 0.2408,-0.1513 2.2872,0.555 4.6245,0.9788 6.9618,1.2512 l 0.2709,0.0303 c 0.662,0.0707 1.3442,0.1514 2.0063,0.3128 h 0.01 c 0.2407,0.0707 0.4915,0.1211 0.7423,0.1312 0.2809,-0.0101 0.5618,-0.0706 0.8326,-0.1715 h 0.0101 l 0.8526,-0.2624 c 0.1806,-0.0605 0.2408,-0.1211 0.2408,-0.1413 0,-0.0101 0,-0.0101 -0.01,-0.0101 C 25.6604,27.922 25.53,27.8917 25.3595,27.9119 l -1.2038,0.1211 c -0.0903,0.0101 -0.1806,-0.0404 -0.2106,-0.1312 -0.0903,-0.2422 0.03,-0.4945 0.341,-0.7266 l 2.1367,-1.5943 c 0.1003,-0.0707 0.1605,-0.1716 0.1706,-0.2221 -0.0201,0 -0.0703,0.0101 -0.1606,0.0606 l -1.5649,0.8678 c -0.0902,0.0505 -0.1906,0.0303 -0.2507,-0.0504 -0.0602,-0.0808 -0.0602,-0.1817 0.01,-0.2624 l 1.4245,-1.6247 c 0.0301,-0.0302 0.0501,-0.0605 0.0601,-0.0908 l -0.01,0.0101 -1.6752,1.6146 c -0.0703,0.0706 -0.1906,0.0706 -0.2709,0.0101 -0.0802,-0.0707 -0.0903,-0.1817 -0.0401,-0.2624 0.2909,-0.444 0.5016,-0.9486 0.6219,-1.4733 -0.321,0.3532 -0.6019,0.7568 -0.8426,1.1807 -0.0502,0.1009 -0.1705,0.1312 -0.2709,0.0807 -0.1003,-0.0505 -0.1304,-0.1716 -0.0802,-0.2725 0.2006,-0.4036 0.331,-0.8274 0.3812,-1.2714 0.01,-0.0505 0,-0.0909 0,-0.1312 -0.2508,1.0595 -0.7524,2.0586 -1.4546,2.8961 -0.0602,0.0707 -0.1605,0.0908 -0.2407,0.0505 -2.5079,-1.2513 -5.1963,-1.9476 -7.9951,-2.0687 -0.1103,0 -0.2006,-0.1009 -0.1906,-0.2119 0,-0.111 0.1003,-0.2018 0.2107,-0.1917 2.7987,0.1211 5.4972,0.7972 8.0151,2.0384 0.6821,-0.8578 1.1436,-1.877 1.3643,-2.9567 0.02,-0.0808 0.0802,-0.1413 0.1605,-0.1615 0.1304,-0.0303 0.2608,0.0101 0.3611,0.1009 0.1705,0.1615 0.2207,0.4541 0.2006,0.666 0,0.0404 -0.01,0.0808 -0.02,0.1211 0.1805,-0.2119 0.3812,-0.4137 0.5918,-0.6054 0.0602,-0.0606 0.1505,-0.0707 0.2207,-0.0303 0.0702,0.0404 0.1204,0.111 0.1104,0.2018 -0.0402,0.4137 -0.1204,0.8174 -0.2608,1.2008 l 0.8526,-0.8173 c 0.0702,-0.0707 0.2608,-0.2422 0.4815,-0.1615 0.1104,0.0404 0.1906,0.1211 0.2207,0.2422 0.0502,0.1917 -0.0501,0.4238 -0.1805,0.5752 l -0.6521,0.7366 0.5417,-0.3027 c 0.0903,-0.0504 0.3812,-0.2119 0.6119,-0.0303 0.1003,0.0707 0.1505,0.1817 0.1505,0.3028 0,0.222 -0.1806,0.444 -0.3411,0.555 l -2.1367,1.5944 c -0.0501,0.0403 -0.0902,0.0706 -0.1203,0.1009 l 0.9128,-0.0908 c 0.1003,-0.0101 0.4414,-0.0303 0.642,0.1513 0.0903,0.0807 0.1405,0.1817 0.1405,0.3028 0.01,0.1715 -0.0803,0.4036 -0.5217,0.5449 l -0.8526,0.2623 c -0.311,0.1312 -0.632,0.1918 -0.9731,0.2019 0.01,0 0.01,0 0,0 z"
         fill="#5b1a84"
         id="path2462" />
      <path
         d="m 9.06842,20.9289 c -1.15362,0.1312 -2.47777,0.1715 -2.84893,-1.1 -0.27085,-0.9283 0.27085,-2.22 1.27399,-2.3814 0.43135,-0.0707 0.88277,-0.0101 1.31412,0.0302 2.6483,0.2119 5.2565,-0.5247 7.8546,-1.0394 0.1906,-0.0302 0.3812,-0.0908 0.5618,-0.1816 0.1504,-0.0908 0.2809,-0.2119 0.3912,-0.3532 2.0264,-2.3108 3.1699,-5.2473 4.7549,-7.87101 0.1605,-0.2321 0.2809,-0.49446 0.3611,-0.76692 0.0602,-0.27246 0.0201,-0.5651 0,-0.83756 -0.1805,-2.18976 0.3411,-4.36943 1.4947,-6.22619 0.4715,0.96874 0.5718,2.06867 0.5417,3.13832 -0.0903,3.10805 -1.1937,6.07482 -2.2771,8.98106 l -2.0464,5.4593 c -0.2107,0.5651 -0.4514,1.1705 -0.9129,1.554 -0.5216,0.444 -1.2439,0.5348 -1.926,0.6155 z"
         fill="#ffffff"
         id="path2464" />
      <path
         d="m 8.13549,21.2013 c -0.85267,0 -1.79563,-0.222 -2.1066,-1.3219 -0.17054,-0.5853 -0.06019,-1.2816 0.29091,-1.8265 0.28088,-0.444 0.69217,-0.7366 1.15362,-0.8073 0.39122,-0.0605 0.77242,-0.0302 1.14358,0.0101 0.07022,0.0101 0.15047,0.0101 0.22069,0.0202 2.12671,0.1716 4.27341,-0.2926 6.34991,-0.7366 0.4715,-0.101 0.963,-0.212 1.4546,-0.3028 h 0.01 c 0.1705,-0.0202 0.331,-0.0706 0.4915,-0.1513 0.1204,-0.0808 0.2408,-0.1817 0.3311,-0.3028 1.3341,-1.5237 2.3072,-3.3603 3.2401,-5.1363 0.4715,-0.89813 0.963,-1.82651 1.5047,-2.71452 0,0 0,-0.0101 0.0101,-0.0101 0.1504,-0.21191 0.2608,-0.45409 0.331,-0.70637 0.0401,-0.21191 0.0201,-0.43392 0,-0.66601 l -0.01,-0.111 C 22.3601,4.22816 22.9018,1.97785 24.0654,0.10091 24.1055,0.0403635 24.1758,-7.59959e-7 24.246,0.0100903 c 0.0702,0 0.1404,0.0504553 0.1705,0.1110017 0.4213,0.867832 0.5919,1.887028 0.5618,3.239228 -0.0903,3.17869 -1.254,6.29683 -2.2872,9.05168 l -2.0665,5.4492 c -0.2006,0.5348 -0.4514,1.2109 -0.973,1.6448 -0.5919,0.4945 -1.3844,0.5853 -2.0264,0.6559 L 9.09851,21.1307 C 8.82766,21.161 8.48659,21.2013 8.13549,21.2013 Z M 7.93486,17.619 c -0.13041,0 -0.27085,0.0101 -0.40126,0.0303 -0.34106,0.0504 -0.65204,0.2724 -0.87273,0.6256 -0.28088,0.444 -0.37116,1.0293 -0.24076,1.5036 0.29092,1.0192 1.22384,1.1201 2.63827,0.9586 l 8.52672,-0.9687 c 0.5919,-0.0706 1.3242,-0.1514 1.8157,-0.5651 0.4314,-0.3633 0.6621,-0.9587 0.8527,-1.4733 l 2.0464,-5.4593 C 23.3733,9.40487 24.4767,6.44819 24.567,3.34014 24.5971,2.24022 24.4767,1.37238 24.1958,0.645827 23.2127,2.38149 22.7714,4.40979 22.9419,6.39773 l 0.01,0.11101 c 0.0201,0.25227 0.0402,0.52473 -0.01,0.7871 v 0.01009 c -0.0803,0.29264 -0.2107,0.57519 -0.3812,0.82747 -0.5317,0.86783 -1.0132,1.79621 -1.4846,2.6842 -0.943,1.7962 -1.9261,3.653 -3.2904,5.207 -0.1203,0.1514 -0.2608,0.2826 -0.4313,0.3835 -0.01,0 -0.01,0.0101 -0.0201,0.0101 -0.1906,0.1009 -0.4012,0.1614 -0.6219,0.1917 -0.4815,0.0908 -0.963,0.2018 -1.4345,0.3027 -2.1066,0.4541 -4.2834,0.9183 -6.4703,0.7468 C 8.73738,17.6493 8.65713,17.6493 8.58691,17.6392 8.35618,17.6291 8.14552,17.619 7.93486,17.619 Z"
         fill="#5b1a84"
         id="path2466" />
      <path
         d="M 4.55428,3.29978 C 4.64456,3.10805 4.785,2.95668 4.95554,2.83559 5.03579,2.77504 5.12607,2.75486 5.21636,2.76495 5.29661,2.79523 5.36683,2.84568 5.41698,2.91632 5.61761,3.1585 5.74802,3.44105 5.81824,3.75388 5.72796,3.33005 6.25962,3.0475 6.64082,3.22914 6.88157,3.35023 6.86151,3.49151 6.90164,3.74379 6.97186,3.47133 7.25274,3.29978 7.52359,3.36032 7.79444,3.42087 7.99506,3.65297 8.09538,3.91533 8.19569,4.1777 8.18566,4.45016 8.20572,4.72262 8.72736,4.4098 9.39947,4.89417 9.48975,5.44918 9.53991,5.73172 9.27909,7.46739 8.94805,7.31602 9.07846,7.57839 9.06843,7.88112 8.91796,8.1334 8.74742,8.37558 8.4866,8.53704 8.19569,8.57741 7.91481,8.62786 7.64396,8.59759 7.37312,8.64804 7.10227,8.6985 6.87154,8.78932 6.58063,8.8095 5.97874,8.82968 5.37686,8.71868 4.77497,8.74895 5.02576,8.73886 5.1662,10.4644 5.15617,10.6663 5.18626,10.2222 4.13296,10.0911 4.03265,10.5653 c -0.04013,0.1918 0.04012,0.3936 0.12037,0.5752 0.04013,0.1009 0.10032,0.2019 0.15047,0.3028 0.05016,0.0807 0.11035,0.1614 0.18057,0.222 0.15047,0.1412 0.3812,0.2119 0.57179,0.1312 C 4.96557,11.8368 5.04582,12.5129 5.03579,12.6239 5.01573,12.9065 4.91541,13.1688 4.73485,13.3808 4.37371,13.8349 3.88217,14.1981 3.29032,14.2284 2.7085,14.2486 2.15677,13.9761 1.8157,13.4918 1.76554,13.4312 1.73545,13.3505 1.72541,13.2597 c 0,-0.2422 0.32101,-0.323 0.56177,-0.333 C 1.74548,12.967 1.25394,12.6037 1.14359,12.0689 1.29406,12.0084 1.47463,12.0084 1.6251,12.0588 1.34422,12.0487 1.06334,12.0286 0.812554,11.9075 0.561768,11.7864 0.351108,11.5442 0.361139,11.2616 0.37117,10.9791 0.672114,10.7268 0.9229,10.8378 0.531673,10.7571 0.150479,10.525 0.0301015,10.1415 -0.0902758,9.75806 0.220699,9.27369 0.611925,9.33424 0.431359,9.16269 0.250793,8.98105 0.210667,8.73886 0.170542,8.49668 0.37117,8.21413 0.611925,8.27467 0.401265,8.22422 0.130416,7.68939 0.120384,7.48757 0.0902901,7.14447 0.310982,7.09402 0.501579,6.87202 0.762397,6.56928 0.672114,6.2161 0.672114,5.82254 0.662082,5.73173 0.682145,5.64091 0.712239,5.56018 0.802522,5.39872 0.99312,5.31799 1.17369,5.36845 1.34422,5.4189 1.49469,5.5299 1.61507,5.66109 1.45457,5.44918 1.35425,5.18681 1.34422,4.92444 1.33419,4.76298 1.38435,4.57125 1.52479,4.50062 1.77557,4.37952 2.00629,4.70244 2.09658,4.9749 2.02636,4.66207 2.0063,4.33916 2.02636,4.01624 2.02636,3.87497 2.06648,3.74379 2.14674,3.63278 2.29721,3.47133 2.56806,3.5016 2.73859,3.64287 2.90912,3.78415 2.99941,3.98597 3.07966,4.18779 2.88906,3.8346 3.20004,3.36032 3.59126,3.33005 3.98249,3.29978 4.35365,3.6126 4.464,3.98597 4.41384,3.74379 4.45397,3.51169 4.55428,3.29978 Z"
         fill="#5b1a84"
         id="path2468" />
      <path
         d="M 8.21575,9.62688 C 8.18566,9.63697 8.15556,9.65715 8.1355,9.68742 c -0.08025,0.1211 0,0.37338 0.05016,0.48438 0.05016,0.111 0.32101,0.3734 0.38119,0.111 C 8.61701,10.081 8.5167,9.87915 8.40635,9.70761 8.38629,9.66724 8.35619,9.64706 8.3261,9.62688 8.28597,9.61679 8.25588,9.61679 8.21575,9.62688 Z"
         fill="#5b1a84"
         id="path2470" />
      <g
         opacity="0.05"
         id="g2478">
        <g
           opacity="0.05"
           id="g2476">
          <g
             opacity="0.05"
             id="g2474">
            <path
               opacity="0.05"
               d="m 39.1828,81.3239 c 4.6316,0 8.3863,-1.256 8.3863,-2.8053 0,-1.5494 -3.7547,-2.8053 -8.3863,-2.8053 -4.6316,0 -8.3863,1.2559 -8.3863,2.8053 0,1.5493 3.7547,2.8053 8.3863,2.8053 z"
               fill="#5b1a84"
               id="path2472" />
          </g>
        </g>
      </g>
      <path
         d="m 40.507,73.4932 -0.3411,1.3724 c 0.2207,0.0303 0.3912,0.222 0.5417,0.3936 l 0.642,0.7669 c 0.0702,0.0807 0.1605,0.1816 0.2709,0.1514 0.0902,-0.0202 0.1404,-0.111 0.1805,-0.1918 0.2107,-0.4137 0.4815,-0.7871 0.8126,-1.11 0.0702,-0.0605 0.1304,-0.1312 0.1705,-0.2119 0.0201,-0.0807 0.0301,-0.1715 0.0201,-0.2523 L 42.744,73.5336 c -0.7123,0.1615 -1.4345,-0.3431 -2.1668,-0.2624 l 0.0501,0.2725"
         fill="#ffffff"
         id="path2480" />
      <path
         d="m 41.5803,76.3793 c -0.1906,0 -0.331,-0.1615 -0.3912,-0.2321 l -0.642,-0.7669 c -0.1304,-0.1615 -0.2608,-0.3028 -0.4113,-0.3229 -0.0602,-0.0101 -0.1103,-0.0404 -0.1404,-0.0909 -0.0301,-0.0504 -0.0402,-0.111 -0.0301,-0.1614 l 0.341,-1.3724 c 0.0101,-0.0404 0.0301,-0.0807 0.0703,-0.111 l -0.0101,-0.0404 c -0.01,-0.0504 0,-0.111 0.0401,-0.1513 0.0301,-0.0404 0.0803,-0.0707 0.1405,-0.0808 0.3812,-0.0403 0.7423,0.0505 1.0934,0.1514 0.3712,0.1009 0.7223,0.1917 1.0533,0.1211 0.0602,-0.0101 0.1204,0 0.1605,0.0303 0.0502,0.0302 0.0803,0.0908 0.0803,0.1513 l 0.0602,0.878 c 0.01,0.111 0.01,0.2321 -0.0301,0.333 0,0.0101 -0.0101,0.0201 -0.0101,0.0302 -0.0501,0.1009 -0.1203,0.1918 -0.2106,0.2725 -0.311,0.3027 -0.5718,0.6559 -0.7724,1.0495 -0.0502,0.0908 -0.1305,0.2623 -0.3211,0.3027 -0.02,0.0101 -0.0401,0.0101 -0.0702,0.0101 z m -1.1737,-1.6549 c 0.2007,0.1009 0.3511,0.2724 0.4515,0.4036 l 0.642,0.7669 c 0.0401,0.0404 0.0602,0.0606 0.0702,0.0807 0.0201,-0.0201 0.0401,-0.0605 0.0502,-0.0807 0.2206,-0.4339 0.5116,-0.8275 0.8526,-1.1605 l 0.0101,-0.01 c 0.0401,-0.0303 0.0802,-0.0808 0.1003,-0.1312 0.01,-0.0505 0.02,-0.1009 0.01,-0.1514 v -0.0101 l -0.0502,-0.666 c -0.3511,0.0202 -0.6821,-0.0706 -1.0131,-0.1514 -0.2508,-0.0706 -0.4916,-0.1312 -0.7323,-0.1412 l 0.01,0.0403 c 0.0201,0.111 -0.0502,0.2119 -0.1605,0.2321 z"
         fill="#5b1a84"
         id="path2482" />
      <path
         d="m 35.4311,77.6104 c -0.4414,0.2624 -0.8929,0.5449 -1.1436,0.9889 -0.2508,0.444 -0.2107,1.0999 0.2207,1.3724 0.2808,0.1715 0.642,0.1514 0.963,0.1009 1.9862,-0.2725 3.9022,-0.9486 5.7982,-1.6146 0.8627,-0.3027 1.8457,-0.7467 2.0263,-1.6448 0.1204,-0.6156 -0.1505,-1.5843 -0.3912,-2.1292 -0.1706,0.0807 -1.3543,1.5742 -1.3141,1.6246 -0.4113,-0.4137 -1.1537,-1.5136 -1.7856,-1.4531 -0.632,0.0606 -1.1035,0.878 -1.6251,1.1706 -0.9129,0.5146 -1.8358,1.0394 -2.7486,1.5843 z"
         fill="#5b1a84"
         id="path2484" />
      <path
         d="m 35.0699,80.3047 c -0.2307,0 -0.4614,-0.0404 -0.6621,-0.1615 -0.5416,-0.333 -0.5818,-1.1201 -0.2909,-1.6448 0.2709,-0.4743 0.7123,-0.7568 1.2138,-1.0697 0.8026,-0.4742 1.6753,-0.9788 2.7587,-1.5843 0.1806,-0.1009 0.3611,-0.2825 0.5517,-0.4641 0.321,-0.323 0.6922,-0.6862 1.1536,-0.7266 0.6019,-0.0605 1.1737,0.6156 1.6352,1.1605 0.0501,0.0605 0.1003,0.111 0.1404,0.1715 0.3411,-0.4944 1.0934,-1.3925 1.2539,-1.4733 0.0502,-0.0202 0.1104,-0.0302 0.1605,-0.0101 0.0502,0.0202 0.0903,0.0606 0.1104,0.111 0.2207,0.5046 0.5417,1.544 0.4012,2.2503 -0.2006,0.9789 -1.2037,1.4532 -2.1567,1.7862 -1.8759,0.666 -3.822,1.3421 -5.8383,1.6246 -0.1405,0.0202 -0.2909,0.0303 -0.4314,0.0303 z m 4.7951,-5.2474 c -0.0101,0 -0.0201,0 -0.0301,0 -0.321,0.0303 -0.622,0.323 -0.9129,0.6156 -0.2006,0.2018 -0.4113,0.4036 -0.642,0.5348 -1.0734,0.6055 -1.9461,1.11 -2.7486,1.5843 -0.4615,0.2725 -0.8527,0.5348 -1.0734,0.9183 -0.2006,0.3532 -0.1806,0.888 0.1505,1.0999 0.2307,0.1413 0.5517,0.111 0.8326,0.0707 1.9762,-0.2725 3.9022,-0.9486 5.758,-1.6045 0.8527,-0.3027 1.7355,-0.7064 1.896,-1.4935 0.1003,-0.4743 -0.0803,-1.221 -0.2709,-1.7356 -0.321,0.3632 -0.9329,1.1402 -1.0332,1.3118 -0.01,0.0404 -0.0301,0.0706 -0.0502,0.1009 -0.0802,0.0807 -0.2006,0.0807 -0.2808,0 -0.1004,-0.1009 -0.2207,-0.2321 -0.3411,-0.3835 -0.3411,-0.4137 -0.8627,-1.0192 -1.2539,-1.0192 z"
         fill="#5b1a84"
         id="path2486" />
      <path
         d="m 59.025,69.5274 3.6515,5.2979 c 0.2006,0.3128 0.4313,0.6054 0.6721,0.888 0.1504,0.1816 0.3511,0.3229 0.5818,0.4036 0.311,0.0706 0.642,-0.0101 0.8828,-0.222 0.4313,-0.3431 0.6319,-0.9183 0.6319,-1.4733 0,-0.555 -0.1705,-1.0898 -0.3611,-1.6045 -0.652,-1.7558 -1.6452,-3.3603 -2.9191,-4.7226 -0.1204,-0.1312 -0.2508,-0.2422 -0.4113,-0.333 -0.291,-0.1413 -0.632,-0.1009 -0.943,-0.0202 -0.7925,0.222 -1.5448,0.8275 -1.6552,1.6449"
         fill="#5b1a84"
         id="path2488" />
      <path
         d="m 64.1511,76.3389 c -0.0903,0 -0.1806,-0.0101 -0.2608,-0.0302 -0.0101,0 -0.0101,0 -0.0201,-0.0101 -0.2608,-0.0909 -0.4915,-0.2523 -0.6621,-0.4642 -0.2407,-0.2826 -0.4815,-0.5853 -0.6821,-0.8981 l -3.6515,-5.2978 c -0.0602,-0.0909 -0.0401,-0.222 0.0502,-0.2826 0.0201,-0.0101 0.0301,-0.0202 0.0502,-0.0202 0.1404,-0.9889 1.0533,-1.5843 1.7956,-1.7962 0.4414,-0.1211 0.8025,-0.111 1.0834,0.0303 h 0.01 c 0.1705,0.1009 0.331,0.222 0.4615,0.3734 1.294,1.3824 2.2972,2.997 2.9592,4.7932 0.2007,0.5147 0.3812,1.0798 0.3712,1.6751 0,0.666 -0.2709,1.2816 -0.7122,1.6247 -0.2308,0.2018 -0.5116,0.3027 -0.7925,0.3027 z m -0.1706,-0.4137 c 0.2508,0.0505 0.5116,-0.0101 0.7022,-0.1816 0.3511,-0.2826 0.5618,-0.767 0.5618,-1.3119 0,-0.5348 -0.1705,-1.0494 -0.3511,-1.5338 -0.642,-1.7458 -1.6151,-3.3099 -2.879,-4.6621 -0.1003,-0.1211 -0.2207,-0.222 -0.3511,-0.2926 -0.1906,-0.0909 -0.4514,-0.0909 -0.7925,0 -0.6821,0.1917 -1.4044,0.7164 -1.5148,1.4733 -0.01,0.0504 -0.0401,0.1009 -0.0802,0.1311 l 3.5612,5.1667 c 0.2006,0.3027 0.4213,0.5953 0.662,0.8678 0.1304,0.1514 0.2909,0.2725 0.4815,0.3431 z"
         fill="#5b1a84"
         id="path2490" />
      <path
         d="m 59.1654,69.921 c 0.3712,0.1816 0.632,0.5146 0.933,0.7871 0.3009,0.2725 0.7423,0.4743 1.1235,0.3128 0.2006,-0.0908 0.3611,-0.2422 0.4715,-0.4339 0.1404,-0.2119 0.2307,-0.4642 0.2507,-0.7165 0.0101,-0.3834 -0.1103,-0.7568 -0.3511,-1.0595 -0.2407,-0.2927 -0.5116,-0.555 -0.8125,-0.7871 -0.0502,-0.0505 -0.1103,-0.0808 -0.1705,-0.1009 -0.0803,0 -0.1605,0.01 -0.2207,0.0504 l -0.8928,0.3835 c -0.1706,0.0403 -0.301,0.1816 -0.3311,0.3532 l -0.321,0.9586"
         fill="#ffffff"
         id="path2492" />
      <path
         d="m 60.941,71.2732 c -0.4313,0 -0.8025,-0.2725 -0.973,-0.4238 -0.1004,-0.0909 -0.2007,-0.1817 -0.291,-0.2725 -0.2006,-0.1917 -0.3811,-0.3734 -0.6018,-0.4844 -0.1004,-0.0504 -0.1405,-0.1715 -0.0903,-0.2724 0.0501,-0.1009 0.1705,-0.1413 0.2708,-0.0908 0.2809,0.1412 0.5016,0.3532 0.7123,0.555 0.0902,0.0908 0.1805,0.1715 0.2708,0.2522 0.1204,0.101 0.5417,0.434 0.9129,0.2826 0.1605,-0.0807 0.2909,-0.2018 0.3711,-0.3532 0,0 0,-0.0101 0.0101,-0.0101 0.1203,-0.1816 0.2006,-0.3935 0.2207,-0.6155 0.01,-0.333 -0.1004,-0.656 -0.311,-0.9183 -0.2307,-0.2826 -0.4916,-0.5348 -0.7825,-0.7568 -0.01,-0.0101 -0.01,-0.0101 -0.02,-0.0202 -0.0201,-0.0202 -0.0402,-0.0303 -0.0703,-0.0404 -0.0301,0 -0.0601,0.0101 -0.0902,0.0303 -0.0101,0 -0.0101,0.0101 -0.0201,0.0101 l -0.8928,0.3834 c -0.01,0 -0.0201,0.0101 -0.0301,0.0101 -0.0903,0.0202 -0.1705,0.1009 -0.1806,0.2018 0,0.0101 0,0.0202 -0.01,0.0303 l -0.321,0.9587 c -0.0301,0.1009 -0.1505,0.1614 -0.2508,0.1311 -0.1003,-0.0302 -0.1605,-0.1513 -0.1304,-0.2522 l 0.311,-0.9486 c 0.0501,-0.2321 0.2307,-0.4339 0.4614,-0.4944 l 0.8728,-0.3734 c 0.1003,-0.0505 0.2106,-0.0807 0.321,-0.0707 0.02,0 0.0301,0 0.0401,0.0101 0.0903,0.0303 0.1705,0.0707 0.2408,0.1413 0.3109,0.2321 0.5918,0.5147 0.8426,0.8174 0.2708,0.333 0.4113,0.7568 0.4013,1.1907 v 0.0101 c -0.0301,0.2826 -0.1305,0.5651 -0.2809,0.8073 -0.1304,0.222 -0.321,0.4036 -0.5518,0.5146 h -0.01 c -0.1103,0.0404 -0.2307,0.0606 -0.3511,0.0606 z"
         fill="#5b1a84"
         id="path2494" />
      <path
         d="m 34.2373,55.0165 c -0.1906,1.2715 -0.3009,2.5833 -0.0401,3.8447 0.2608,1.2614 0.8727,2.4218 1.3843,3.6126 1.2439,2.8658 1.896,5.9537 2.7787,8.9508 0.2207,0.7669 0.4916,1.5742 1.1035,2.0888 0.6821,0.5752 1.6853,0.6559 2.538,0.4037 0.6219,-0.1817 1.2439,-0.5752 1.4344,-1.2009 0.1505,-0.4844 0.0201,-1.0091 -0.1203,-1.5035 L 40.2762,60.1831 c -0.1605,-0.5954 -0.331,-1.2008 -0.3009,-1.8164 0.0301,-0.7669 0.3411,-1.4935 0.642,-2.1998 1.1737,-2.8255 2.0866,-5.762 2.7085,-8.7591 0.3611,3.6732 0.8928,7.3362 1.605,10.969 0.1003,0.4945 0.2007,0.999 0.4514,1.4329 0.3311,0.5651 0.8828,0.9688 1.4044,1.3623 4.0527,3.0778 7.2929,7.2656 11.7569,9.7076 0.2006,0.1111 0.4313,0.222 0.6621,0.1716 0.1705,-0.0606 0.321,-0.1615 0.4313,-0.3027 0.7825,-0.8174 1.4847,-1.877 1.3041,-2.9971 C 60.7705,66.6919 59.8676,65.935 59.035,65.2589 56.4971,63.1701 54.1397,60.8693 51.9729,58.3869 51.5716,57.9328 51.1804,57.4585 50.9698,56.8833 50.8093,56.4494 50.7691,55.9751 50.729,55.511 L 49.7058,43.775 c -0.0401,-0.4641 -0.0803,-0.9485 -0.2709,-1.3723 -0.1905,-0.3835 -0.4514,-0.7266 -0.7623,-1.0091 -1.575,-1.544 -3.7518,-2.3715 -5.9387,-2.4522 -1.1636,-0.0403 -2.3172,0.1312 -3.4207,0.5147 -2.6884,0.9586 -2.3473,3.5823 -2.9091,6.0041 -0.7223,3.1686 -1.6853,6.307 -2.1668,9.5563 z"
         fill="#ffffff"
         id="path2496" />
      <path
         d="m 41.0787,74.2501 c -0.662,0 -1.294,-0.2019 -1.7454,-0.5853 -0.6521,-0.5449 -0.933,-1.3825 -1.1637,-2.1898 -0.2407,-0.8174 -0.4614,-1.6448 -0.6821,-2.4521 -0.5818,-2.1595 -1.1837,-4.3997 -2.0866,-6.4785 -0.1103,-0.2623 -0.2307,-0.5247 -0.3511,-0.777 -0.4112,-0.9183 -0.8426,-1.8668 -1.0533,-2.8659 -0.2708,-1.3421 -0.1304,-2.7346 0.0402,-3.9153 0.321,-2.1998 0.8827,-4.3896 1.4144,-6.5087 0.2608,-1.0091 0.5216,-2.0485 0.7524,-3.0778 0.1203,-0.5348 0.2006,-1.0797 0.2808,-1.6146 0.2809,-1.9274 0.5518,-3.7538 2.7587,-4.5409 1.1235,-0.3936 2.2972,-0.5752 3.4909,-0.5248 2.3173,0.0807 4.5242,0.9889 6.0691,2.5127 0.331,0.3027 0.6018,0.666 0.8025,1.0696 0.2106,0.4743 0.2608,0.989 0.2909,1.4532 l 1.0232,11.7661 c 0.0401,0.434 0.0802,0.8881 0.2307,1.2917 0.1906,0.5247 0.5517,0.9586 0.963,1.4329 2.1468,2.4622 4.5142,4.7731 7.0321,6.8418 0.7924,0.6458 1.7856,1.4632 1.9762,2.6136 0.1605,0.9889 -0.291,2.0484 -1.3543,3.1685 -0.1404,0.1716 -0.321,0.2927 -0.5216,0.3633 -0.0101,0 -0.0101,0 -0.0201,0 -0.2809,0.0707 -0.5517,-0.0504 -0.8025,-0.1816 -2.7386,-1.4935 -5.0458,-3.6732 -7.2828,-5.7721 -1.4345,-1.3522 -2.9192,-2.7448 -4.4941,-3.9456 l -0.1003,-0.0706 c -0.5016,-0.3835 -1.0333,-0.7771 -1.3643,-1.3522 -0.2608,-0.4541 -0.3712,-0.9789 -0.4715,-1.4733 v -0.0202 c -0.632,-3.2191 -1.1235,-6.4886 -1.4846,-9.7581 -0.6119,2.5934 -1.4345,5.1364 -2.4477,7.5885 l -0.0401,0.1009 c -0.2709,0.6559 -0.5518,1.332 -0.5818,2.0283 -0.0301,0.5954 0.1404,1.1807 0.2909,1.7559 l 3.0395,11.0295 c 0.1304,0.4743 0.2909,1.0596 0.1103,1.6146 -0.1906,0.6054 -0.7624,1.0898 -1.5749,1.332 -0.2909,0.0908 -0.6219,0.1413 -0.943,0.1413 z m 1.3041,-35.127 c -1.0232,0 -2.0263,0.1715 -2.9994,0.5146 -1.9762,0.7064 -2.2169,2.331 -2.4878,4.2181 -0.0802,0.5348 -0.1605,1.0999 -0.2909,1.6448 -0.2407,1.0293 -0.5016,2.0788 -0.7624,3.0879 -0.5316,2.109 -1.0934,4.2786 -1.4144,6.4683 -0.1705,1.1504 -0.311,2.4925 -0.0401,3.7741 0.2006,0.9587 0.6119,1.887 1.0232,2.7851 0.1204,0.2523 0.2407,0.5248 0.3511,0.7871 0.9128,2.1091 1.5147,4.3594 2.1066,6.529 0.2207,0.8072 0.4414,1.6347 0.6721,2.442 0.2307,0.777 0.4815,1.5238 1.0433,1.9879 0.5718,0.4844 1.4746,0.6257 2.3573,0.3633 0.3211,-0.0908 1.0834,-0.3834 1.3041,-1.0595 0.1405,-0.4441 0,-0.9486 -0.1203,-1.3926 L 40.0856,60.2437 c -0.1605,-0.5752 -0.341,-1.2211 -0.3109,-1.877 0.0301,-0.7669 0.321,-1.4733 0.6119,-2.1595 l 0.0401,-0.1009 c 1.1737,-2.8053 2.0765,-5.7418 2.6985,-8.7187 0.02,-0.1009 0.1103,-0.1614 0.2106,-0.1614 0.1003,0.0101 0.1806,0.0807 0.1906,0.1816 0.3611,3.653 0.9028,7.3362 1.605,10.9488 v 0.0202 c 0.0903,0.4642 0.1906,0.9486 0.4214,1.3522 0.2909,0.4945 0.7824,0.8678 1.2539,1.2311 l 0.1003,0.0707 c 1.595,1.2109 3.0897,2.6135 4.5242,3.9758 2.2169,2.0889 4.5141,4.2484 7.2026,5.7217 0.1705,0.1009 0.3611,0.1816 0.5116,0.1513 0.1304,-0.0504 0.2508,-0.1311 0.331,-0.2321 l 0.01,-0.01 c 0.9731,-1.0192 1.3944,-1.9678 1.254,-2.8255 -0.1605,-1.0091 -1.0935,-1.766 -1.8358,-2.3714 -2.5379,-2.0889 -4.9254,-4.4098 -7.0822,-6.8922 -0.4213,-0.4844 -0.8226,-0.9789 -1.0433,-1.5642 -0.1705,-0.4541 -0.2106,-0.9283 -0.2507,-1.3925 V 55.5614 L 49.5052,43.8255 C 49.465,43.4017 49.4249,42.9173 49.2443,42.5137 49.0738,42.1605 48.833,41.8376 48.5321,41.5651 47.0575,40.112 44.9408,39.2442 42.7239,39.1634 42.6136,39.1231 42.5032,39.1231 42.3828,39.1231 Z"
         fill="#5b1a84"
         id="path2498" />
      <path
         d="m 51.5215,34.8545 c -0.3311,-0.7063 -0.5618,-1.4632 -0.6922,-2.2301 -0.2809,-1.554 -0.9831,-4.2281 0.1405,-5.5702 0.2708,-0.3129 0.7022,-0.434 1.0934,-0.3028 0.6119,0.2119 0.8727,0.9284 1.0433,1.5641 0.5316,1.9072 0.8627,3.8649 1.284,5.8024 0.2106,-0.0908 0.4514,0.0605 0.632,0.1917 1.7053,1.2816 3.511,2.4219 5.3969,3.4209 0.8727,-0.7064 1.9762,-1.0495 3.0897,-0.9687 0.1504,0 0.2909,0.0403 0.4213,0.1311 0.1103,0.0909 0.1605,0.2826 0.0602,0.3936 -0.622,0.0605 -1.3342,0.1816 -1.6251,0.7266 l 1.6752,0.121 c 0.9831,0.0707 2.0866,0.1918 2.7286,0.9486 -0.5116,0.0807 -1.0032,-0.1615 -1.4947,-0.3027 -0.4915,-0.1413 -1.1035,-0.1817 -1.4445,0.2018 1.1436,-0.0706 2.257,0.3935 2.9994,1.2715 -0.2608,0.0605 -0.5317,-0.0101 -0.7825,-0.0808 l -2.0263,-0.5752 c 0.8727,0.3936 1.6251,1.0092 2.1868,1.7862 0.0402,0.0504 0.0702,0.1009 0.0803,0.1614 0.0401,0.2018 -0.2207,0.3532 -0.4213,0.3028 -0.2007,-0.0505 -0.3411,-0.2221 -0.4816,-0.3734 -0.4313,-0.4339 -0.983,-0.7266 -1.595,-0.8174 0.622,0.333 1.1236,0.8577 1.4245,1.5036 -0.1906,0.1211 -0.4514,0.0403 -0.632,-0.1009 -0.1805,-0.1413 -0.3109,-0.333 -0.4715,-0.4945 -0.5918,-0.5752 -1.5247,-0.5853 -2.237,-0.999 C 61.4827,40.334 61.1717,39.9909 60.8006,39.7386 60.4294,39.4863 59.978,39.3249 59.5466,39.1735 58.2125,38.7093 56.8582,38.2653 55.4939,37.8617 54.9021,37.68 54.3102,37.5085 53.7585,37.2159 52.6952,36.681 51.993,35.8435 51.5215,34.8545 Z"
         fill="#ffffff"
         id="path2500" />
      <path
         d="m 64.9736,42.4329 c -0.2006,0 -0.4012,-0.0908 -0.5417,-0.2018 -0.1203,-0.0908 -0.2206,-0.2119 -0.3109,-0.3128 -0.0602,-0.0707 -0.1204,-0.1312 -0.1806,-0.1917 -0.311,-0.3028 -0.7423,-0.434 -1.1937,-0.5752 -0.3411,-0.1009 -0.6922,-0.2119 -1.0032,-0.3936 -0.2307,-0.1413 -0.4414,-0.3128 -0.632,-0.4743 -0.1504,-0.1311 -0.3009,-0.2522 -0.4514,-0.3632 -0.341,-0.2321 -0.7523,-0.3835 -1.2138,-0.545 -1.3342,-0.4641 -2.6884,-0.9082 -4.0427,-1.3118 l -0.0702,-0.0202 c -0.5718,-0.1715 -1.1536,-0.3532 -1.6953,-0.6357 -0.9931,-0.5248 -1.7655,-1.3522 -2.2972,-2.4723 -0.3411,-0.7266 -0.5718,-1.4935 -0.7122,-2.2806 -0.0301,-0.1716 -0.0702,-0.3532 -0.1104,-0.555 -0.321,-1.655 -0.7724,-3.9154 0.2909,-5.1767 0.3311,-0.3734 0.8327,-0.5147 1.3041,-0.3633 0.6822,0.2321 0.9731,0.9485 1.1837,1.6953 0.3712,1.3421 0.6521,2.7246 0.9229,4.0667 0.1004,0.5146 0.2107,1.0394 0.321,1.5641 0.2609,0.0101 0.4816,0.1816 0.6019,0.2624 1.6552,1.2412 3.4208,2.3714 5.2465,3.3401 0.8928,-0.6761 1.9962,-1.0091 3.1198,-0.9284 0.1906,0 0.3711,0.0606 0.5216,0.1615 l 0.01,0.0101 c 0.1104,0.0908 0.1806,0.2321 0.1906,0.3734 0.01,0.121 -0.0301,0.232 -0.1103,0.3128 -0.0301,0.0302 -0.0803,0.0504 -0.1204,0.0605 -0.4715,0.0505 -0.9329,0.1211 -1.2339,0.3532 l 1.274,0.0908 c 1.0734,0.0808 2.1869,0.222 2.869,1.0192 0.0502,0.0606 0.0602,0.1312 0.0401,0.2018 -0.02,0.0707 -0.0902,0.1211 -0.1605,0.1312 -0.4313,0.0606 -0.8326,-0.0605 -1.2238,-0.1917 0.5317,0.2321 1.0132,0.5752 1.3944,1.0293 0.0501,0.0504 0.0602,0.1211 0.0401,0.1917 -0.0201,0.0707 -0.0702,0.1211 -0.1404,0.1312 -0.321,0.0807 -0.6521,-0.0101 -0.8828,-0.0807 l -0.6521,-0.1817 c 0.3812,0.3129 0.7323,0.6761 1.0233,1.0798 0.0601,0.0706 0.1003,0.1513 0.1203,0.2321 v 0.0101 c 0.0301,0.1412 -0.02,0.2926 -0.1304,0.3935 -0.1404,0.1312 -0.3511,0.1817 -0.5316,0.1413 -0.2408,-0.0606 -0.4113,-0.2523 -0.5618,-0.4037 l -0.0201,-0.0201 c -0.0902,-0.0909 -0.1805,-0.1716 -0.2708,-0.2422 0.1705,0.2119 0.321,0.4541 0.4313,0.7064 0.0402,0.0908 0.0101,0.2018 -0.0802,0.2522 -0.1104,0.0808 -0.2207,0.111 -0.3311,0.111 z M 51.702,34.7738 c 0.5016,1.0293 1.2139,1.8063 2.1167,2.2806 0.5016,0.2624 1.0733,0.4339 1.6251,0.6055 L 55.514,37.68 c 1.3542,0.4037 2.7185,0.8477 4.0627,1.3119 0.4615,0.1614 0.9129,0.3229 1.3041,0.5853 0.1706,0.1211 0.3311,0.2522 0.4916,0.3834 0.1906,0.1615 0.3711,0.3128 0.5818,0.4339 0.2708,0.1615 0.5918,0.2523 0.9229,0.3633 0.4815,0.1514 0.973,0.3027 1.3542,0.666 0.0702,0.0707 0.1405,0.1413 0.2006,0.222 0.0803,0.1009 0.1606,0.1918 0.2609,0.2624 0.0602,0.0504 0.1304,0.0807 0.2106,0.1009 -0.2809,-0.4945 -0.7022,-0.9082 -1.2138,-1.1706 -0.0903,-0.0504 -0.1304,-0.1513 -0.1003,-0.2421 0.0301,-0.0909 0.1204,-0.1514 0.2207,-0.1312 0.652,0.1009 1.2439,0.4036 1.7053,0.8779 l 0.0201,0.0202 c 0.1204,0.1312 0.2408,0.2623 0.3712,0.2926 0.0501,0.0101 0.1203,-0.0101 0.1504,-0.0403 0,0 0.0101,-0.0101 0.0101,-0.0202 -0.0101,-0.0303 -0.0201,-0.0505 -0.0402,-0.0707 l -0.01,-0.0101 C 65.4752,40.7679 64.753,40.1725 63.9103,39.7891 63.81,39.7487 63.7699,39.6377 63.8,39.5368 c 0.0401,-0.1009 0.1404,-0.1514 0.2407,-0.1211 l 2.0264,0.5752 c 0.0802,0.0202 0.1605,0.0504 0.2407,0.0605 -0.6821,-0.5953 -1.5849,-0.9182 -2.4978,-0.8577 -0.0803,0.0101 -0.1605,-0.0404 -0.1906,-0.111 -0.0401,-0.0706 -0.0201,-0.1615 0.0301,-0.222 0.3411,-0.3734 0.943,-0.4642 1.6552,-0.2624 0.1103,0.0303 0.2207,0.0707 0.3411,0.111 0.1805,0.0606 0.3611,0.1211 0.5316,0.1615 -0.5918,-0.3734 -1.3843,-0.4642 -2.1668,-0.5147 L 62.3354,38.235 c -0.0702,0 -0.1304,-0.0403 -0.1605,-0.1009 -0.0301,-0.0605 -0.0301,-0.1311 0,-0.1917 0.3109,-0.5752 0.973,-0.7366 1.6552,-0.8174 C 63.82,37.1048 63.81,37.0948 63.8,37.0847 c -0.0903,-0.0606 -0.1906,-0.0909 -0.2909,-0.0909 0,0 -0.0101,0 -0.0201,0 -1.0633,-0.0807 -2.1166,0.2523 -2.9493,0.9183 -0.0601,0.0505 -0.1504,0.0606 -0.2206,0.0202 -1.886,-0.999 -3.7117,-2.1494 -5.417,-3.441 -0.1304,-0.1009 -0.321,-0.222 -0.4314,-0.1716 -0.0501,0.0202 -0.1204,0.0202 -0.1705,-0.0101 -0.0502,-0.0302 -0.0903,-0.0807 -0.1003,-0.1412 -0.1304,-0.5853 -0.2508,-1.1807 -0.3612,-1.7559 -0.2708,-1.332 -0.5517,-2.7044 -0.9128,-4.0364 -0.1806,-0.6358 -0.4113,-1.2513 -0.9229,-1.4229 -0.311,-0.1009 -0.6521,-0.0101 -0.8727,0.2422 -0.933,1.1201 -0.5116,3.2695 -0.2007,4.8336 0.0402,0.2019 0.0803,0.3936 0.1104,0.5651 0.1203,0.7468 0.341,1.4834 0.662,2.1797 z"
         fill="#5b1a84"
         id="path2502" />
      <path
         d="M 32.9132,20.2023 C 31.2881,19.7179 30.1244,18.3052 29.2116,16.8824 28.1181,15.177 27.2253,13.3505 26.5432,11.4433 26.2523,10.6158 26.0015,9.76816 25.6404,8.97096 24.8679,7.24539 23.604,5.73173 23.0824,3.92543 23.0623,3.8447 23.1024,3.76397 23.1827,3.74379 23.2228,3.7337 23.2729,3.7337 23.303,3.76397 c 0.4113,0.28255 0.7424,0.66601 0.9631,1.11002 V 1.44302 c -0.0101,-0.15136 0.01,-0.29264 0.0501,-0.43391 0.0201,-0.050457 0.0903,-0.08073 0.1405,-0.050457 0.0301,0.010092 0.0501,0.040365 0.0601,0.080727 l 0.2107,1.52375 c -0.0702,-0.20182 0,-1.82648 0.2006,-1.9173 0.2007,-0.090819 0.2909,2.23013 0.2007,2.42186 0.1003,-0.14128 0.3009,-2.42186 0.5918,-2.01822 0.1003,0.14128 -0.1505,2.36131 -0.1906,2.52277 0.0301,-0.08073 0.1906,-1.14029 0.3311,-1.76594 0.01,-0.04036 0.0501,-0.07063 0.0902,-0.06054 0.0402,0.01009 0.0703,0.04036 0.0602,0.08073 l 0.0101,0.70637 c 0.01,1.53384 0.0301,3.09796 0.5015,4.56116 0.6822,2.10904 2.217,3.79428 3.7217,5.41888 0.5116,0.555 1.0332,1.1 1.4947,1.7054 0.4213,0.5449 0.6821,1.1706 1.1737,1.6751 0.341,0.3431 0.7523,0.6761 0.8928,1.1403 0.1905,0.6055 -0.1305,1.11 -0.2809,1.6751 -0.1405,0.5349 -0.301,0.9991 -0.642,1.4532"
         fill="#ffffff"
         id="path2504" />
      <path
         d="m 32.9132,20.4041 c -0.0201,0 -0.0402,0 -0.0602,-0.0101 -1.7756,-0.5247 -2.9693,-2.0989 -3.812,-3.4006 -1.1034,-1.7155 -2.0063,-3.5622 -2.6884,-5.4795 -0.0803,-0.222 -0.1605,-0.4541 -0.2307,-0.6862 C 25.9212,10.2323 25.7206,9.62687 25.4598,9.05168 25.1488,8.36549 24.7576,7.69948 24.3764,7.05365 23.8046,6.08491 23.2128,5.0859 22.8917,3.98597 c -0.03,-0.09082 -0.02,-0.18164 0.0301,-0.26237 0.0402,-0.08073 0.1204,-0.14127 0.2107,-0.17155 0.1003,-0.03027 0.2107,-0.01009 0.2909,0.05046 0.2408,0.17155 0.4615,0.37337 0.6521,0.60546 V 1.44302 c -0.0101,-0.16146 0.01,-0.333 0.0601,-0.49446 0,-0.010091 0.0101,-0.020182 0.0101,-0.030274 0.0301,-0.070637 0.1003,-0.131183 0.1705,-0.161457 0.0803,-0.030273 0.1605,-0.020182 0.2307,0.010091 0.0301,0.010092 0.0602,0.030274 0.0803,0.060547 0.0501,-0.19173 0.1204,-0.333005 0.2207,-0.37337 0.0903,-0.040364 0.1906,-0.020182 0.2608,0.050456 0.0802,0.080728 0.1404,0.363278 0.1806,0.706377 0.0802,-0.272461 0.1705,-0.383463 0.3009,-0.413736 0.0502,-0.010091 0.1806,-0.020182 0.2909,0.121092 0.0502,0.070638 0.0602,0.302734 0.0502,0.605464 0.01,0 0.0301,0 0.0401,0 0.1404,0.02018 0.2408,0.14128 0.2307,0.28255 l 0.0101,0.70637 c 0.01,1.50357 0.03,3.0576 0.4915,4.50062 0.6721,2.10903 2.2671,3.82451 3.6715,5.33821 l 0.0803,0.0908 c 0.4815,0.5146 0.983,1.0495 1.4244,1.6246 0.1706,0.222 0.321,0.4642 0.4615,0.6963 0.2106,0.3431 0.4113,0.6761 0.7022,0.9587 0.0602,0.0605 0.1203,0.1211 0.1805,0.1816 0.311,0.3028 0.622,0.6055 0.7624,1.0394 0.1605,0.5146 0.0101,0.9486 -0.1404,1.3623 -0.0502,0.1413 -0.1003,0.2825 -0.1304,0.4238 -0.1405,0.5348 -0.301,0.9788 -0.6119,1.4329 0,0.0303 0,0.0606 -0.0101,0.0909 -0.02,0.1009 -0.1003,0.1513 -0.1805,0.1513 z M 23.3131,4.02633 c 0.321,0.98893 0.8627,1.9274 1.4044,2.8255 0.3912,0.65592 0.7925,1.33202 1.1034,2.0384 0.2608,0.59537 0.4715,1.21097 0.6721,1.80627 0.0803,0.222 0.1505,0.4541 0.2308,0.6761 0.6721,1.8971 1.5649,3.7135 2.6483,5.3987 0.7724,1.2009 1.8558,2.6338 3.4006,3.1686 0.2809,-0.4036 0.4314,-0.8173 0.5518,-1.3118 0.0401,-0.1614 0.0902,-0.3027 0.1404,-0.4541 0.1404,-0.3935 0.2508,-0.7265 0.1404,-1.11 C 33.505,16.731 33.2342,16.4686 32.9433,16.1861 32.8831,16.1255 32.8128,16.065 32.7527,16.0044 32.4417,15.6815 32.211,15.3182 32.0003,14.9751 31.8599,14.743 31.7194,14.521 31.5589,14.3192 31.1276,13.7642 30.636,13.2294 30.1645,12.7147 L 30.0843,12.6239 C 28.6498,11.08 27.0247,9.32414 26.3225,7.13438 25.9012,5.82254 25.841,4.45016 25.8209,3.09796 25.7507,3.48142 25.7306,3.58233 25.7106,3.63278 25.6705,3.73369 25.5601,3.78415 25.4598,3.74378 25.3595,3.71351 25.2993,3.60251 25.3294,3.5016 c 0.0301,-0.111 0.0903,-0.64583 0.1404,-1.18066 -0.01,0.05046 -0.01,0.09082 -0.02,0.13119 C 25.3695,2.97686 25.3394,3.08787 25.2893,3.16859 25.2291,3.24932 25.1187,3.2796 25.0284,3.22914 24.9382,3.17868 24.9081,3.06768 24.9382,2.97686 24.9783,2.8255 24.9683,2.1494 24.9181,1.5843 24.898,1.87694 24.888,2.17967 24.898,2.36131 l 0.0201,0.16146 c 0.01,0.10091 -0.0502,0.20182 -0.1505,0.222 -0.1003,0.02018 -0.2006,-0.03027 -0.2407,-0.13118 0,-0.0101 -0.0101,-0.02019 -0.0101,-0.04037 L 24.4567,2.10903 v 2.75486 c 0,0.09082 -0.0602,0.17155 -0.1505,0.19173 C 24.2159,5.07581 24.1256,5.03544 24.0855,4.95471 23.8949,4.60153 23.6341,4.27861 23.3131,4.02633 Z m 1.6351,-1.04947 c 0,0 0,0.01009 0,0 0,0.01009 0,0 0,0 z"
         fill="#5b1a84"
         id="path2506" />
      <path
         d="m 43.4662,20.4344 c -2.3774,0.1917 -1.1335,-2.0687 -0.7624,-3.4612 -0.2006,0.7467 -1.3241,-0.1009 -1.5247,-0.3431 -0.4715,-0.5651 -0.7022,-1.3623 -0.6922,-2.1091 0,-1.11 0.4213,-2.1695 0.8326,-3.1887 0.2909,-0.7165 0.5016,-1.77606 1.1135,-2.23016 0.7122,-0.51464 1.8056,-0.49446 2.558,-0.12109 0.8025,0.40364 2.0163,0.88801 2.3875,1.84665 0.4313,1.1403 -0.321,2.654 -0.8928,3.5823 -0.1806,0.2725 -0.3411,0.5651 -0.4615,0.8679 -0.1404,0.3935 0.0703,4.6015 0.2508,4.5309 -0.9128,0.333 -1.8558,0.5449 -2.8088,0.6256 z"
         fill="#ffffff"
         id="path2508" />
      <path
         d="m 43.1954,20.6463 c -0.5317,0 -0.9028,-0.1412 -1.1235,-0.4238 -0.4615,-0.5954 -0.1104,-1.6247 0.2006,-2.5429 0.0201,-0.0707 0.0501,-0.1312 0.0702,-0.2019 -0.5216,0 -1.1837,-0.5449 -1.3141,-0.7063 -0.4815,-0.5752 -0.7524,-1.3926 -0.7423,-2.2403 0,-1.1604 0.4514,-2.2805 0.8526,-3.2695 0.0703,-0.1715 0.1304,-0.3632 0.2007,-0.5651 0.2207,-0.6458 0.4614,-1.38244 0.983,-1.75581 0.8126,-0.59537 2.0063,-0.51465 2.7587,-0.13118 0.1003,0.05045 0.2006,0.10091 0.311,0.15136 0.8125,0.39355 1.8257,0.88801 2.1768,1.80633 0.3511,0.9283 0.0301,2.2301 -0.9129,3.7639 -0.1805,0.2624 -0.331,0.545 -0.4413,0.8376 -0.1104,0.3431 0.0601,3.8346 0.2006,4.319 0.02,0.0202 0.0401,0.0403 0.0501,0.0706 0.0402,0.1009 -0.02,0.222 -0.1203,0.2624 -0.9129,0.3431 -1.8759,0.555 -2.849,0.6256 -0.1203,-0.0101 -0.2106,0 -0.3009,0 z m -0.4916,-3.8749 c 0.0201,0 0.0301,0 0.0502,0.01 0.1103,0.0303 0.1705,0.1413 0.1404,0.2523 -0.0601,0.2422 -0.1504,0.5046 -0.2507,0.777 -0.2809,0.8174 -0.5919,1.7458 -0.2709,2.1696 0.1705,0.2119 0.5216,0.3027 1.0633,0.2624 0.8728,-0.0707 1.7254,-0.2523 2.548,-0.5348 -0.0602,-0.2725 -0.1204,-0.8275 -0.1906,-2.0586 -0.02,-0.3532 -0.1003,-2.1091 0.0101,-2.4219 0.1304,-0.333 0.2909,-0.6357 0.4815,-0.9183 0.6119,-0.9889 1.2539,-2.3815 0.8727,-3.4007 C 46.8669,10.1314 45.934,9.68743 45.1816,9.32415 45.0713,9.27369 44.9709,9.22324 44.8706,9.17278 44.2387,8.84987 43.1954,8.77923 42.5233,9.27369 c -0.4113,0.30274 -0.632,0.96871 -0.8326,1.56411 -0.0703,0.2119 -0.1405,0.4037 -0.2107,0.5853 -0.4013,0.999 -0.8226,2.0384 -0.8226,3.1181 -0.01,0.7468 0.2307,1.4935 0.6521,1.9779 0.1605,0.1917 0.7824,0.6256 1.0633,0.5651 0.0301,-0.0101 0.0803,-0.0202 0.1204,-0.1413 0.0401,-0.111 0.1204,-0.1715 0.2106,-0.1715 z m 3.501,2.8456 c -0.01,0 -0.01,0 -0.02,0.0101 0.01,-0.0101 0.02,-0.0101 0.02,-0.0101 z"
         fill="#5b1a84"
         id="path2510" />
      <path
         d="M 46.5559,10.7773 C 45.633,10.8983 44.6901,10.6763 43.9076,10.1718 43.386,9.83879 42.9145,9.36451 42.3026,9.29387 41.5803,9.22323 40.7377,9.71769 40.206,9.22323 39.0825,8.18385 41.2092,7.20502 41.8712,6.95274 c 0.5919,-0.222 1.2439,-0.38346 1.8358,-0.16146 0.642,0.25228 1.4947,0.20182 2.0163,0.64583 0.321,0.27246 0.5517,0.62565 0.8828,0.87792 0.3912,0.30274 0.8928,0.46419 1.1837,0.85775 0.1304,0.19173 0.2207,0.40364 0.2708,0.62564 0.3712,1.36228 0.0602,2.51268 -0.3812,3.79428 -0.341,0.9788 -1.1736,1.5843 -1.5348,2.5328 -0.02,0.0606 -0.0602,0.1413 -0.1304,0.1514 -0.0702,0.0101 -0.1204,-0.0707 -0.1404,-0.1413 -0.1906,-0.5449 -0.1204,-1.1605 0.2006,-1.6448 0.2408,-0.3633 0.7925,-1.1504 0.3812,-1.5944 -0.2708,-0.2927 -0.7524,-0.0606 -1.0834,0.1816 0.4013,-0.7164 0.7323,-1.4733 1.0032,-2.2503"
         fill="#5b1a84"
         id="path2512" />
      <path
         d="m 42.9045,19.839 c -0.2007,-0.1513 -0.321,-0.4137 -0.5317,-0.555 -0.2107,-0.1412 -0.4213,0.0202 -0.5919,0.1615 -0.4112,0.3633 -0.7122,0.8476 -1.0232,1.3118 -0.3109,0.4642 -0.6319,0.9587 -0.9128,1.4531 -0.5718,0.9991 -1.0533,2.0384 -1.4546,3.1081 -0.8025,2.1393 -1.2338,4.3997 -1.3041,6.6803 -0.0602,2.5227 0.3311,5.0455 0.1405,7.5683 -0.0201,0.3027 -0.0502,0.6155 0.02,0.9183 0.1405,0.6054 0.6721,1.0292 1.2138,1.3219 0.9831,0.5146 2.0565,0.6055 3.1198,0.8275 1.2941,0.2825 2.6082,0.4339 3.9223,0.4541 0.7925,0.01 1.6151,-0.0202 2.3574,-0.3129 0.8125,-0.3128 1.3041,-0.8577 1.6452,-1.6347 0.3511,-0.7972 1.0131,-1.3623 1.2037,-2.2503 0.2508,-1.1403 -0.1605,-2.3109 -0.5818,-3.4108 -0.963,-2.5228 -2.0263,-5.0657 -2.1768,-7.76 -0.1405,-2.5833 0.5316,-5.3382 -0.6019,-7.6692 -0.1806,-0.3835 -0.5919,-0.7871 -0.953,-0.5853 -0.6922,0.2422 -1.4044,0.4238 -2.1267,0.5348 -0.4614,0.0908 -0.983,0.1211 -1.3642,-0.1615 z"
         fill="#ffffff"
         id="path2514" />
      <path
         d="m 45.7634,43.3008 c -0.0902,0 -0.1705,0 -0.2608,0 -1.3342,-0.0202 -2.6583,-0.1817 -3.9624,-0.4642 -0.2508,-0.0505 -0.5116,-0.1009 -0.7624,-0.1514 -0.8025,-0.1413 -1.6351,-0.2926 -2.4075,-0.7064 -0.7223,-0.3834 -1.1837,-0.888 -1.3142,-1.4531 -0.0702,-0.3128 -0.0501,-0.6256 -0.02,-0.9284 v -0.0504 c 0.1103,-1.4027 0.0301,-2.8356 -0.0502,-4.2181 -0.0602,-1.0898 -0.1204,-2.22 -0.0903,-3.3401 0.0602,-2.3109 0.5016,-4.5814 1.3142,-6.7509 0.4012,-1.0798 0.8928,-2.1393 1.4645,-3.1384 0.2709,-0.4742 0.5819,-0.9687 0.9229,-1.4632 0.0402,-0.0605 0.0903,-0.1312 0.1305,-0.1917 0.2708,-0.4036 0.5517,-0.8275 0.9228,-1.1504 0.1204,-0.111 0.4816,-0.4238 0.8427,-0.1816 0.1304,0.0908 0.2307,0.2119 0.321,0.333 0.0702,0.0908 0.1404,0.1715 0.2106,0.2321 0.3211,0.2321 0.7925,0.2018 1.2139,0.1413 0.7022,-0.111 1.3943,-0.2826 2.0664,-0.5248 0.1505,-0.0807 0.321,-0.0908 0.4916,-0.0403 0.331,0.1009 0.5918,0.4339 0.7323,0.7164 0.8025,1.6449 0.7222,3.5117 0.642,5.318 -0.0301,0.8073 -0.0702,1.6348 -0.0201,2.432 0.1405,2.4319 1.0433,4.773 1.916,7.0435 0.0803,0.222 0.1706,0.4339 0.2508,0.6559 0.4514,1.1908 0.8426,2.3513 0.5818,3.5218 -0.1203,0.5651 -0.4213,1.0091 -0.7122,1.433 -0.1906,0.2825 -0.3712,0.555 -0.5116,0.8577 -0.3812,0.8779 -0.943,1.4329 -1.7555,1.7458 -0.6922,0.2724 -1.4646,0.3229 -2.1568,0.3229 z M 42.2023,19.4253 c -0.0502,0 -0.1304,0.0303 -0.2909,0.1716 -0.3411,0.3027 -0.6019,0.6962 -0.8627,1.0797 -0.0402,0.0605 -0.0903,0.1312 -0.1305,0.1917 -0.331,0.4945 -0.642,0.9789 -0.9028,1.443 -0.5617,0.9789 -1.0433,2.0183 -1.4345,3.0778 -0.7925,2.1191 -1.2238,4.3493 -1.284,6.6198 -0.0301,1.0999 0.0301,2.22 0.0903,3.2997 0.0802,1.4027 0.1605,2.8457 0.0501,4.2787 v 0.0504 c -0.02,0.2725 -0.0401,0.555 0.0201,0.8073 0.1304,0.5651 0.6821,0.9586 1.1135,1.1907 0.7122,0.3835 1.4846,0.5147 2.2872,0.6661 0.2507,0.0504 0.5216,0.0908 0.7724,0.1513 1.274,0.2725 2.5781,0.4238 3.8821,0.4541 0.7123,0.0101 1.5449,-0.0101 2.2772,-0.2926 0.7222,-0.2725 1.1937,-0.7468 1.5348,-1.5339 0.1505,-0.3431 0.3511,-0.6357 0.5417,-0.9183 0.2809,-0.4137 0.5417,-0.7971 0.652,-1.2916 0.2308,-1.0596 -0.1404,-2.1595 -0.5718,-3.2897 -0.0802,-0.222 -0.1705,-0.4339 -0.2507,-0.6559 -0.8828,-2.3008 -1.8057,-4.6722 -1.9361,-7.1647 -0.0502,-0.8174 -0.01,-1.6549 0.0201,-2.4723 0.0802,-1.8366 0.1504,-3.5621 -0.6019,-5.1162 -0.1204,-0.2522 -0.321,-0.4541 -0.4916,-0.5146 -0.0702,-0.0202 -0.1304,-0.0202 -0.1906,0.0202 -0.01,0.0101 -0.02,0.0101 -0.0301,0.0101 -0.7022,0.2522 -1.4244,0.4339 -2.1567,0.5449 -0.5016,0.0706 -1.0834,0.111 -1.5148,-0.2119 -0.1203,-0.0908 -0.2006,-0.2018 -0.2909,-0.3028 -0.0802,-0.1009 -0.1505,-0.1917 -0.2307,-0.2522 -0.0201,-0.0303 -0.0401,-0.0404 -0.0702,-0.0404 z"
         fill="#5b1a84"
         id="path2516" />
      <path
         d="m 31.0172,19.2941 c 0.2006,0.5651 0.622,1.0091 1.0633,1.4128 1.2339,1.1201 2.6985,1.9576 4.2935,2.4319 0.1204,0.0404 0.2608,0.0908 0.3009,0.2119 0.0201,0.0606 0.0201,0.1312 0,0.1918 l -0.9028,4.8639 c -0.2608,1.4127 -0.5417,2.8658 -1.2639,4.107 -0.4715,0.8073 -1.1135,1.4834 -1.6552,2.2402 -0.5417,0.7569 -1.0132,1.6146 -1.0333,2.543 -0.02,0.2926 0.0402,0.5954 0.1706,0.8577 0.1504,0.2725 0.4113,0.4743 0.6721,0.6459 1.4445,0.9283 3.2401,0.4137 4.5342,1.4127 0.1003,0.0908 0.2207,0.1716 0.3511,0.2119 0.1404,0.0404 0.2909,-0.0202 0.3511,-0.1514 0.02,-0.0504 0.02,-0.111 0.01,-0.1715 -0.1103,-2.0081 -0.4213,-4.1373 -0.1605,-6.1152 0.2508,-1.9778 0.6821,-3.9355 1.284,-5.8427 0.5919,-1.8063 1.3643,-3.5521 1.9361,-5.3685 0.2006,-0.6256 1.1135,-3.2089 0.7323,-3.7538 -0.3912,-0.5651 -2.8389,-0.2422 -3.4408,-0.3633 -0.5417,-0.0908 -1.0633,-0.222 -1.585,-0.4037 -1.0733,-0.3935 -1.9761,-1.1503 -2.9793,-1.7154 0.0201,0.8072 -0.0502,1.6549 -0.5116,2.3108 -0.4614,0.6559 -1.3944,1.0394 -2.0865,0.6458"
         fill="#ffffff"
         id="path2518" />
      <path
         d="m 37.648,40.6468 c -0.0502,0 -0.1003,-0.0101 -0.1505,-0.0202 -0.1605,-0.0605 -0.3009,-0.1412 -0.4213,-0.2522 -0.6219,-0.4844 -1.3843,-0.5853 -2.1768,-0.6963 -0.7825,-0.111 -1.595,-0.222 -2.3373,-0.6963 -0.2508,-0.1615 -0.5618,-0.3835 -0.7424,-0.7165 -0.1504,-0.3027 -0.2207,-0.6357 -0.2006,-0.9687 0.0201,-0.8174 0.3712,-1.6852 1.0734,-2.654 0.2006,-0.2724 0.4113,-0.5449 0.6219,-0.7972 0.3611,-0.4541 0.7323,-0.9183 1.0333,-1.4228 0.7122,-1.221 0.983,-2.654 1.2438,-4.0465 l 0.9029,-4.8639 v -0.0101 c 0.01,-0.0303 0.01,-0.0505 0,-0.0807 -0.0101,-0.0101 -0.0401,-0.0404 -0.1706,-0.0808 -1.615,-0.4843 -3.1197,-1.3421 -4.3737,-2.4824 -0.4313,-0.3935 -0.8928,-0.8779 -1.1135,-1.4934 -0.0401,-0.101 0.0201,-0.222 0.1204,-0.2624 0.1003,-0.0404 0.2207,0.0202 0.2608,0.1211 0.0201,0.0504 0.0402,0.0908 0.0602,0.1413 0.6019,0.3128 1.4044,-0.0505 1.7856,-0.6055 0.4615,-0.6761 0.4916,-1.5742 0.4715,-2.1898 0,-0.0706 0.0301,-0.1412 0.1003,-0.1816 0.0602,-0.0404 0.1405,-0.0404 0.2006,0 0.3511,0.2018 0.6822,0.4238 1.0132,0.6357 0.6119,0.4037 1.2439,0.8174 1.9361,1.0697 0.5016,0.1715 1.0232,0.3027 1.5448,0.3935 0.1806,0.0303 0.5718,0.0303 0.9831,0.0202 1.274,-0.0303 2.2772,-0.0101 2.5881,0.4339 0.3511,0.5046 -0.1003,2.0687 -0.632,3.6833 -0.0301,0.1009 -0.0601,0.1816 -0.0802,0.2422 -0.301,0.9485 -0.6621,1.8971 -1.0132,2.8053 -0.321,0.8375 -0.652,1.6953 -0.9329,2.5631 -0.6019,1.887 -1.0332,3.8346 -1.284,5.8024 -0.1906,1.4531 -0.0703,3.0172 0.0501,4.5309 0.0402,0.5045 0.0803,1.0292 0.1104,1.5338 0.01,0.0807 0,0.1615 -0.0201,0.2422 0,0.0101 -0.01,0.0202 -0.01,0.0403 -0.0903,0.1615 -0.2608,0.2624 -0.4414,0.2624 z m -0.7724,-17.064 -0.9029,4.8639 c -0.2608,1.4229 -0.5417,2.8861 -1.294,4.1777 -0.311,0.5348 -0.6922,1.0091 -1.0633,1.4733 -0.2007,0.2523 -0.4113,0.5147 -0.612,0.7871 -0.652,0.8981 -0.973,1.6852 -0.9931,2.432 -0.02,0.2724 0.0402,0.5247 0.1505,0.7669 0.1304,0.2422 0.3812,0.4238 0.6019,0.5651 0.6621,0.4339 1.4345,0.5348 2.1768,0.6357 0.8226,0.111 1.6652,0.2321 2.3775,0.7871 l 0.01,0.0101 c 0.0802,0.0807 0.1806,0.1312 0.2909,0.1716 0.0301,0.0101 0.0702,0 0.1003,-0.0303 0,-0.0202 0,-0.0404 0,-0.0706 v -0.0101 c -0.0301,-0.5046 -0.0702,-1.0293 -0.1103,-1.5339 -0.1204,-1.5338 -0.2508,-3.1181 -0.0502,-4.6217 0.2508,-1.9879 0.6922,-3.9658 1.2941,-5.873 0.2808,-0.8779 0.6119,-1.7457 0.9329,-2.5833 0.3511,-0.9082 0.7022,-1.8467 1.0031,-2.7851 0.0201,-0.0606 0.0502,-0.1514 0.0803,-0.2523 0.7925,-2.4118 0.8125,-3.1383 0.6821,-3.3301 -0.2006,-0.2926 -1.5348,-0.2724 -2.247,-0.2522 -0.4715,0.0101 -0.8527,0.0201 -1.0633,-0.0202 -0.5417,-0.0908 -1.0834,-0.2321 -1.6151,-0.4138 -0.7323,-0.2724 -1.3843,-0.6962 -2.0163,-1.11 -0.2308,-0.1513 -0.4615,-0.3027 -0.6922,-0.444 -0.01,0.6358 -0.1003,1.433 -0.5517,2.0788 -0.4715,0.6862 -1.2038,0.9485 -1.8157,0.8779 0.1906,0.2523 0.4213,0.4844 0.652,0.6963 1.2038,1.0898 2.6584,1.9173 4.2132,2.3916 0.1104,0.0302 0.3511,0.111 0.4314,0.333 0,0.0101 0,0.0101 0.01,0.0202 0.0401,0.0706 0.0401,0.1715 0.0201,0.2623 z"
         fill="#ffbd17"
         id="path2520" />
      <path
         d="m 53.2168,23.6636 c 0.3009,0.8476 0.3511,1.7558 0.3912,2.6539 l 0.1605,2.987 c 0.0201,0.1614 0.0101,0.333 -0.0501,0.4944 -0.1906,0.4642 -3.1599,1.9678 -3.0195,2.2806 -0.5016,-1.1201 -1.7956,-2.9567 -1.6752,-4.1878 0.1304,0.7669 0.5116,1.4531 0.7022,2.1999 0.2307,0.9082 0.3009,1.8971 0.6119,2.775 0.5015,1.4329 1.4646,2.8053 2.2069,4.1273 0.6821,1.221 1.284,2.553 1.294,3.9657 0,0.8477 -1.5849,1.766 -2.247,2.0687 -1.0232,0.4541 -2.1668,0.5651 -3.2502,0.3027 -0.0802,-0.01 -0.1605,-0.0504 -0.2207,-0.111 -0.0602,-0.0908 -0.0802,-0.2018 -0.0602,-0.3027 0.0803,-1.9677 -0.0501,-4.0263 -1.0533,-5.7216 -0.3912,-0.666 -0.8727,-1.322 -1.1837,-2.0384 -0.3611,-0.8174 -0.3812,-1.9274 -0.4815,-2.8154 -0.2307,-1.9981 -0.2809,-4.0566 0.2809,-6.0143 0.4313,-1.5036 1.2238,-2.9365 1.294,-4.5006 0.0201,-0.4541 -0.5116,-2.0586 -0.2106,-2.3916 0.3009,-0.333 1.7756,-0.0101 2.1969,0.1413 0.632,0.222 1.2639,0.666 1.8056,1.0494 1.0935,0.7569 2.0565,1.7559 2.5079,3.0375 z"
         fill="#ffffff"
         id="path2522" />
      <path
         d="m 49.5252,43.664 c -0.4113,0 -0.8226,-0.0504 -1.2339,-0.1513 -0.1203,-0.0202 -0.2307,-0.0808 -0.321,-0.1615 -0.01,-0.0101 -0.02,-0.0202 -0.0301,-0.0403 -0.0802,-0.1312 -0.1103,-0.2826 -0.0902,-0.434 0.0702,-1.6852 0.02,-3.8346 -1.0333,-5.6005 -0.1103,-0.1917 -0.2407,-0.3936 -0.3611,-0.5853 -0.301,-0.4743 -0.6019,-0.9586 -0.8326,-1.4733 -0.2909,-0.666 -0.3712,-1.5036 -0.4314,-2.2503 -0.02,-0.222 -0.0401,-0.4238 -0.0602,-0.6256 -0.1805,-1.5541 -0.3511,-3.875 0.291,-6.095 0.1504,-0.5046 0.331,-1.0192 0.5216,-1.5036 0.3712,-0.999 0.7223,-1.9375 0.7724,-2.9567 0.01,-0.1413 -0.0602,-0.4642 -0.1204,-0.7669 -0.1805,-0.8779 -0.2808,-1.4733 -0.0401,-1.7458 0.4715,-0.5247 2.3975,0.0808 2.4176,0.0808 0.6621,0.2321 1.3241,0.6962 1.8558,1.0797 1.3041,0.9183 2.1668,1.9779 2.5781,3.1484 0.311,0.8678 0.3611,1.7962 0.4013,2.6943 v 0.0202 l 0.1605,2.9769 c 0.02,0.1917 0,0.3935 -0.0502,0.5752 0,0 0,0.0101 -0.01,0.0101 -0.1003,0.2522 -0.6019,0.5953 -1.6352,1.2412 -0.5015,0.3128 -1.2439,0.7871 -1.3743,0.9586 0,0.0807 -0.0401,0.1514 -0.1203,0.1817 -0.1004,0.0504 -0.2207,0 -0.2609,-0.101 -0.0802,-0.1816 -0.1805,-0.3733 -0.2909,-0.5852 0.0803,0.4238 0.1706,0.8375 0.301,1.2311 0.3611,1.0192 0.963,2.0182 1.5448,2.9869 0.2207,0.3633 0.4414,0.7367 0.6521,1.11 0.652,1.1605 1.3141,2.543 1.3241,4.0567 0,1.1907 -2.3474,2.2402 -2.3674,2.2503 -0.6822,0.3229 -1.4145,0.4742 -2.1568,0.4742 z m -1.2539,-0.5852 c 0.0301,0.0201 0.0602,0.0302 0.0903,0.0403 0.01,0 0.01,0 0.02,0 1.0433,0.2523 2.1468,0.1514 3.1298,-0.2825 0.8628,-0.3835 2.1267,-1.2412 2.1267,-1.877 -0.01,-1.4228 -0.642,-2.7447 -1.264,-3.8648 -0.2006,-0.3633 -0.4213,-0.7165 -0.642,-1.1 -0.5918,-0.9788 -1.2037,-1.998 -1.5749,-3.0576 -0.1906,-0.5348 -0.2909,-1.1201 -0.3912,-1.6852 -0.0502,-0.2825 -0.1003,-0.5651 -0.1605,-0.8476 -0.4514,-0.8779 -0.8427,-1.7861 -0.7725,-2.5329 0.0101,-0.1009 0.0903,-0.1816 0.1906,-0.1816 0.1004,-0.0101 0.1906,0.0706 0.2007,0.1715 0.0702,0.4239 0.2207,0.8073 0.3711,1.221 0.1204,0.3129 0.2408,0.6257 0.321,0.9587 0.0201,0.0706 0.0402,0.1514 0.0502,0.222 0.1204,0.2321 0.2508,0.4642 0.3611,0.6761 0.1405,0.2523 0.2709,0.5046 0.3913,0.7367 0.2307,-0.2019 0.652,-0.4844 1.3341,-0.9082 0.5518,-0.3431 1.3744,-0.8679 1.4747,-1.0495 0.0401,-0.1312 0.0501,-0.2624 0.0301,-0.3936 v -0.0101 l -0.1605,-2.997 c -0.0502,-0.8678 -0.0903,-1.7659 -0.3812,-2.5833 -0.3812,-1.0899 -1.2038,-2.0788 -2.4377,-2.9466 -0.5116,-0.3633 -1.1436,-0.8073 -1.7555,-1.0293 -0.6621,-0.2321 -1.8257,-0.3734 -1.9862,-0.2018 -0.1204,0.1413 0.0602,1.0192 0.1304,1.3925 0.0702,0.3633 0.1404,0.6862 0.1304,0.8679 -0.0502,1.0797 -0.4313,2.0989 -0.7925,3.0778 -0.1805,0.4843 -0.3611,0.9788 -0.5116,1.4733 -0.4715,1.6347 -0.5617,3.5217 -0.2708,5.9335 0.02,0.2018 0.0401,0.4137 0.0602,0.6357 0.0601,0.7165 0.1404,1.5238 0.4012,2.1293 0.2107,0.4843 0.5116,0.9586 0.8025,1.4228 0.1204,0.1917 0.2508,0.3935 0.3612,0.5954 1.1034,1.8567 1.1636,4.0868 1.0834,5.8326 0,0.0101 0,0.0202 0,0.0202 0.02,0.0504 0.02,0.1009 0.0401,0.1413 z"
         fill="#ffbd17"
         id="path2524" />
      <path
         d="m 42.6035,11.4735 c 0.0201,-0.0908 0.0602,-0.333 -0.0702,-0.3632 -0.2407,-0.0606 -0.3712,0.4036 -0.3712,0.5752 0,0.0706 0.0301,0.1311 0.0903,0.1715 0.0702,0.0303 0.1505,0.0101 0.2007,-0.0404 0.0501,-0.0504 0.0902,-0.111 0.1103,-0.1816 0.0201,-0.0605 0.0301,-0.111 0.0401,-0.1615 z"
         fill="#5b1a84"
         id="path2526" />
    </g>
  </g>
</svg>
