<?xml version="1.0" encoding="UTF-8" standalone="no"?>
<!-- Created with Inkscape (http://www.inkscape.org/) -->

<svg
   width="20"
   height="20"
   viewBox="0 0 5.2916665 5.2916668"
   version="1.1"
   id="svg3066"
   inkscape:version="1.1 (ce6663b3b7, 2021-05-25)"
   sodipodi:docname="05_register_form_check.svg"
   xmlns:inkscape="http://www.inkscape.org/namespaces/inkscape"
   xmlns:sodipodi="http://sodipodi.sourceforge.net/DTD/sodipodi-0.dtd"
   xmlns="http://www.w3.org/2000/svg"
   xmlns:svg="http://www.w3.org/2000/svg">
  <sodipodi:namedview
     id="namedview3068"
     pagecolor="#ffffff"
     bordercolor="#666666"
     borderopacity="1.0"
     inkscape:pageshadow="2"
     inkscape:pageopacity="0.0"
     inkscape:pagecheckerboard="0"
     inkscape:document-units="mm"
     showgrid="false"
     units="px"
     inkscape:zoom="0.71179153"
     inkscape:cx="-189.66227"
     inkscape:cy="561.25984"
     inkscape:window-width="1920"
     inkscape:window-height="1017"
     inkscape:window-x="0"
     inkscape:window-y="26"
     inkscape:window-maximized="1"
     inkscape:current-layer="layer1" />
  <defs
     id="defs3063">
    <clipPath
       id="clip0">
      <rect
         width="20"
         height="20"
         fill="white"
         id="rect3268" />
    </clipPath>
  </defs>
  <g
     inkscape:label="Capa 1"
     inkscape:groupmode="layer"
     id="layer1">
    <g
       clip-path="url(#clip0)"
       id="g3266"
       transform="scale(0.26458333)">
      <path
         d="M 9.47927,13.1163 C 10.5676,11.2955 15.8369,3.33653 17.5035,0.949847 c 0.0383,-0.040574 0.0848,-0.07288 0.1364,-0.093994 0.0517,-0.021113 0.1072,-0.03062 0.1629,-0.028486 0.0557,0.002133 0.1104,0.016106 0.1603,0.0411 0.0498,0.024993 0.0938,0.06038 0.1288,0.10376 C 18.2486,1.13889 18.186,1.36392 18.0685,1.56143 17.5035,2.5056 9.99767,13.878 9.9468,13.9655 c -0.0306,0.0526 -0.0724,0.098 -0.12233,0.1326 -0.05,0.0348 -0.107,0.0581 -0.16694,0.0684 -0.06,0.0104 -0.12146,0.0074 -0.1802,-0.0085 C 9.4186,14.142 9.36407,14.1131 9.31767,14.0737 9.28013,14.0421 5.54009,10.8781 4.32675,9.9148 4.24022,9.8458 4.18465,9.7452 4.17223,9.6352 4.1598,9.52527 4.19157,9.41493 4.26053,9.3284 4.32948,9.24187 4.42992,9.1862 4.53986,9.1738 4.64981,9.1614 4.76025,9.19313 4.84677,9.26207 5.83678,10.0479 8.4918,12.2829 9.47927,13.1163 Z M 19.7602,7.829 C 19.7363,7.721 19.6703,7.62673 19.577,7.56733 19.4837,7.50793 19.3707,7.4884 19.2627,7.5124 c -0.108,0.024 -0.202,0.0898 -0.2614,0.18313 -0.0593,0.09327 -0.0792,0.20614 -0.0553,0.31414 0.4439,2.00393 0.2013,4.09903 -0.6889,5.94853 -0.8901,1.8495 -2.3761,3.346 -4.2192,4.2493 -1.843,0.9032 -3.9362,1.1608 -5.9433,0.7312 C 6.08751,18.5091 4.28307,17.4174 2.97115,15.8389 1.65922,14.2604 0.915933,12.2868 0.860733,10.235 0.805533,8.1832 1.44163,6.17249 2.66678,4.52573 3.89193,2.87895 5.63499,1.69177 7.61607,1.15493 9.59713,0.618078 11.7011,0.76262 13.5901,1.56549 13.6918,1.60881 13.8065,1.61001 13.9091,1.56875 14.0115,1.52749 14.0935,1.44703 14.1368,1.34536 14.1801,1.24369 14.1813,1.12927 14.1401,1.02675 14.0988,0.924233 14.0185,0.8422 13.9169,0.798887 11.9392,-0.0429653 9.74287,-0.225121 7.65347,0.279267 5.56411,0.783653 3.69285,1.94781 2.31705,3.5992 0.941247,5.2506 0.134073,7.30113 0.0152873,9.44727 -0.103499,11.5933 0.472408,13.7206 1.65755,15.5138 c 1.18515,1.7931 2.91653,3.1569 4.93749,3.8887 2.02096,0.732 4.22386,0.7931 6.28246,0.1746 2.0584,-0.6184 3.8629,-1.8835 5.1458,-3.608 1.283,-1.7245 1.9762,-3.8166 1.9769,-5.966 -0.0011,-0.7313 -0.0815,-1.46023 -0.24,-2.1741 z"
         fill="#27ae60"
         id="path3264" />
    </g>
  </g>
</svg>
