<?xml version="1.0" encoding="UTF-8" standalone="no"?>
<!-- Created with Inkscape (http://www.inkscape.org/) -->

<svg
   width="20"
   height="20"
   viewBox="0 0 5.2916665 5.2916668"
   version="1.1"
   id="svg3066"
   inkscape:version="1.1 (ce6663b3b7, 2021-05-25)"
   sodipodi:docname="05_register_form_lock.svg"
   xmlns:inkscape="http://www.inkscape.org/namespaces/inkscape"
   xmlns:sodipodi="http://sodipodi.sourceforge.net/DTD/sodipodi-0.dtd"
   xmlns="http://www.w3.org/2000/svg"
   xmlns:svg="http://www.w3.org/2000/svg">
  <sodipodi:namedview
     id="namedview3068"
     pagecolor="#ffffff"
     bordercolor="#666666"
     borderopacity="1.0"
     inkscape:pageshadow="2"
     inkscape:pageopacity="0.0"
     inkscape:pagecheckerboard="0"
     inkscape:document-units="mm"
     showgrid="false"
     units="px"
     inkscape:zoom="0.71179153"
     inkscape:cx="-189.66227"
     inkscape:cy="561.25984"
     inkscape:window-width="1920"
     inkscape:window-height="1017"
     inkscape:window-x="0"
     inkscape:window-y="26"
     inkscape:window-maximized="1"
     inkscape:current-layer="layer1" />
  <defs
     id="defs3063" />
  <g
     inkscape:label="Capa 1"
     inkscape:groupmode="layer"
     id="layer1">
    <g
       id="g3160"
       transform="translate(-44.561931,-153.1026)">
      <path
         d="m 47.207756,156.06594 c -0.04903,7e-5 -0.09785,0.007 -0.145196,0.0192 -0.08456,0.0232 -0.161872,0.0675 -0.224771,0.12856 -0.0629,0.0611 -0.109361,0.13714 -0.135062,0.22096 -0.03104,0.0987 -0.03237,0.20425 -0.0038,0.30366 0.02856,0.0994 0.08576,0.18817 0.164465,0.25529 l -0.179089,0.41466 c -0.0053,0.0159 -0.0067,0.0328 -0.0042,0.0494 0.0025,0.0166 0.009,0.0324 0.01875,0.046 0.0098,0.0136 0.02268,0.0246 0.03761,0.0323 0.0149,0.008 0.03143,0.0117 0.04819,0.0117 h 0.846659 c 0.01678,-2e-5 0.03328,-0.004 0.04821,-0.0117 0.0149,-0.008 0.02781,-0.0187 0.0376,-0.0323 0.0098,-0.0136 0.01622,-0.0294 0.01873,-0.046 0.0025,-0.0166 0.0011,-0.0335 -0.0042,-0.0494 l -0.17907,-0.41466 c 0.0821,-0.0701 0.140649,-0.16372 0.167795,-0.2682 0.02709,-0.10451 0.02148,-0.21487 -0.01614,-0.31605 -0.03762,-0.10123 -0.10541,-0.18838 -0.194204,-0.24982 -0.08879,-0.0614 -0.194284,-0.0941 -0.30226,-0.0936 z m 0.276436,1.27 h -0.552865 l 0.177588,-0.40961 -0.107103,-0.0927 c -0.04768,-0.0406 -0.08227,-0.0944 -0.09941,-0.1547 -0.01713,-0.0603 -0.01605,-0.12433 0.0031,-0.18396 0.01526,-0.0492 0.04263,-0.0937 0.0796,-0.1296 0.03699,-0.0359 0.08241,-0.0619 0.132061,-0.0757 0.02963,-0.008 0.06013,-0.012 0.0908,-0.0121 0.08422,0 0.164968,0.0335 0.224526,0.093 0.05953,0.0596 0.09298,0.14028 0.09298,0.2245 -1.06e-4,0.0455 -0.01011,0.0904 -0.02932,0.13158 -0.01923,0.0412 -0.04723,0.0777 -0.08202,0.10694 l -0.107104,0.0927 z m 1.20523,-2.11667 h -0.3175 v -0.9525 c 0,-0.30876 -0.122661,-0.60488 -0.340995,-0.82321 -0.218308,-0.21832 -0.514403,-0.34096 -0.823171,-0.34096 -0.308743,0 -0.604846,0.12264 -0.823164,0.34096 -0.218332,0.21833 -0.340995,0.51445 -0.340995,0.82321 v 0.9525 h -0.3175 c -0.08421,0 -0.164965,0.0335 -0.224507,0.093 -0.05954,0.0596 -0.09299,0.14028 -0.09299,0.22449 v 2.54 c 0,0.0842 0.03345,0.16494 0.09299,0.2245 0.05954,0.0595 0.140301,0.093 0.224507,0.093 h 2.963325 c 0.08422,0 0.164968,-0.0335 0.224526,-0.093 0.05953,-0.0596 0.09298,-0.14028 0.09298,-0.2245 v -2.54 c 0,-0.0842 -0.03344,-0.16494 -0.09298,-0.22449 -0.05956,-0.0595 -0.140309,-0.093 -0.224526,-0.093 z m -2.434159,-0.9525 c 0,-0.25262 0.100349,-0.49492 0.278977,-0.67355 0.178631,-0.17863 0.420899,-0.27895 0.673516,-0.27895 0.252624,0 0.494903,0.10032 0.673523,0.27895 0.178647,0.17863 0.278977,0.42093 0.278977,0.67355 v 0.9525 h -1.904993 z m 2.539993,3.81 c 0,0.0281 -0.01117,0.055 -0.03101,0.0748 -0.01984,0.0198 -0.04675,0.031 -0.07482,0.031 h -2.963325 c -0.02807,0 -0.05498,-0.0112 -0.07483,-0.031 -0.01985,-0.0198 -0.03101,-0.0468 -0.03101,-0.0748 v -2.54 c 0,-0.0281 0.01116,-0.055 0.03101,-0.0748 0.01985,-0.0198 0.04676,-0.031 0.07483,-0.031 h 2.963325 c 0.02807,0 0.05498,0.0112 0.07482,0.031 0.01984,0.0198 0.03101,0.0468 0.03101,0.0748 z"
         fill="#8c8c8c"
         id="path3150"
         style="stroke-width:0.264583" />
    </g>
  </g>
</svg>
